<svg width="54" height="34" viewBox="0 0 54 34" fill="none" xmlns="http://www.w3.org/2000/svg">
<path d="M36.8416 0.277644L36.3233 0.795914C35.9531 1.16611 35.9531 1.68438 36.3233 2.05457L49.5022 15.2334H0.888462C0.370193 15.2334 0 15.6777 0 16.1219V16.8623C0 17.3805 0.370193 17.7507 0.888462 17.7507H49.5022L36.3233 31.0036C35.9531 31.3738 35.9531 31.8921 36.3233 32.2623L36.8416 32.7806C37.2118 33.1507 37.73 33.1507 38.1002 32.7806L53.7224 17.1584C54.0925 16.7882 54.0925 16.27 53.7224 15.8998L38.1002 0.277644C37.73 -0.0925482 37.2118 -0.0925482 36.8416 0.277644Z" fill="black"/>
</svg>
