<svg xmlns="http://www.w3.org/2000/svg" xmlns:xlink="http://www.w3.org/1999/xlink" width="400.001" height="278.255" viewBox="0 0 400.001 278.255"><defs><clipPath id="a"><path d="M1559.039,575.7c223.7,0,269.407-36.214,272.148-69.525,6.05-73.541-69.128-73.393-69.128-165.034,0-47.854-78.6-37.341-162.406-40.465-94.319-1.736-118.023,29.506-123.032,60.152s10.265,54.846,10.265,71.706S1455,465.664,1455,501.761C1455,552.937,1490.605,576.443,1559.039,575.7Z" transform="translate(-1455 -300.606)" fill="none"/></clipPath><clipPath id="b"><rect width="87.873" height="93.675" fill="none"/></clipPath><clipPath id="c"><rect width="50.829" height="72.103" transform="translate(50.829 72.103) rotate(-180)" fill="none"/></clipPath><clipPath id="d"><path d="M4948.619,546.65c-2.187,26.587-97.884,66.286-226.619,66.286l20.829-63.569a264.22,264.22,0,0,0,8.605-33.552l16.75-89.267a264.349,264.349,0,0,1,9.3-35.639l16.669-49.479c67.387,4.89,87.328,25.666,86.682,53.684C4878.793,483.887,4954.828,471.17,4948.619,546.65Z" transform="translate(-4722 -341.43)" fill="none"/></clipPath><clipPath id="e"><rect width="156.599" height="54.372" fill="none"/></clipPath></defs><g transform="translate(-1444 -300.606)"><g transform="translate(1444 300.606)"><g transform="translate(0.545 0)"><g clip-path="url(#a)"><g transform="translate(0 -18.031)"><rect width="377.079" height="305.67" transform="translate(0 0)" fill="#dfe7ee"/></g><g transform="translate(0 -21.899)" opacity="0.25"><rect width="346.631" height="54.499" fill="#fff"/></g><g transform="translate(0 138.969)" opacity="0.5"><rect width="384.815" height="156.158" fill="#c4c4dd"/></g><g transform="translate(11.654 27.393)"><rect width="370.533" height="144.107" fill="#c4c4dd"/></g><g transform="translate(0.992 143.085)" opacity="0.02"><path d="M1475,3187.339v3.372l42.052-.4,43.49-4.314Z" transform="translate(-1475 -3186)" fill="#050d32"/></g><g transform="translate(103.897 -10.82)"><g transform="translate(15.82 0)"><rect width="0.415" height="45.965" fill="#8691c3"/></g><g transform="translate(15.336 43.666)"><rect width="1.348" height="1.477" fill="#8691c3"/></g><g transform="translate(2.817 46.242)"><path d="M3619.674,1014.915h1.659l9.719,3.826a114.655,114.655,0,0,1-24.1,0Z" transform="translate(-3606.947 -1014.915)" fill="#8691c3"/></g><g transform="translate(13.055 45.101)"><path d="M3814.857,991.907h3.214l1.659,2.177h-6.324Z" transform="translate(-3813.406 -991.907)" fill="#8691c3"/></g><g transform="translate(9.621 45.04)"><path d="M3750.792,990.7l-.069,1.97-3.028,3.473-3.551-.143,5.646-3.434.484-1.892Z" transform="translate(-3744.144 -990.673)" fill="#8691c3"/></g><g transform="translate(0 50.017)"><path d="M3553.04,1091.046a151.375,151.375,0,0,0,23.985,0l3.871,2.447a148,148,0,0,1-30.759,0Z" transform="translate(-3550.137 -1091.046)" fill="#8691c3"/></g><g transform="translate(7.781 50.366)"><path d="M3712.417,1098.177l-.389,2.765c-1.27.021-3.163-.069-4.99-.173l1.853-2.683Z" transform="translate(-3707.038 -1098.086)" fill="#8691c3"/></g><g transform="translate(14.705 44.919)"><rect width="2.748" height="0.311" fill="#8691c3"/></g></g><g transform="translate(35.166 -10.82)"><g transform="translate(15.82 0)"><rect width="0.415" height="45.965" fill="#8691c3"/></g><g transform="translate(15.336 43.666)"><rect width="1.348" height="1.477" fill="#8691c3"/></g><g transform="translate(2.817 46.242)"><path d="M2233.673,1014.915h1.659l9.72,3.826a114.659,114.659,0,0,1-24.105,0Z" transform="translate(-2220.947 -1014.915)" fill="#8691c3"/></g><g transform="translate(13.055 45.101)"><path d="M2428.857,991.907h3.214l1.659,2.177h-6.324Z" transform="translate(-2427.406 -991.907)" fill="#8691c3"/></g><g transform="translate(9.621 45.04)"><path d="M2364.793,990.7l-.069,1.97-3.028,3.473-3.552-.143,5.646-3.434.484-1.892Z" transform="translate(-2358.144 -990.673)" fill="#8691c3"/></g><g transform="translate(0 50.017)"><path d="M2167.04,1091.046a151.375,151.375,0,0,0,23.985,0l3.871,2.447a148,148,0,0,1-30.759,0Z" transform="translate(-2164.137 -1091.046)" fill="#8691c3"/></g><g transform="translate(7.781 50.366)"><path d="M2326.416,1098.177l-.389,2.765c-1.27.021-3.163-.069-4.99-.173l1.853-2.683Z" transform="translate(-2321.038 -1098.086)" fill="#8691c3"/></g><g transform="translate(14.705 44.919)"><rect width="2.748" height="0.311" fill="#8691c3"/></g></g><g transform="translate(123.081 91.711)"><rect width="44.036" height="87.972" transform="translate(44.036 87.972) rotate(-180)" fill="#aeb2d4"/><g transform="translate(3.967 4.314)" opacity="0.05"><path d="M4017,2259.117v1.686h37.589V2237l-2.909.05Z" transform="translate(-4017 -2237)" fill="#050d32"/></g><g transform="translate(3.967 30.993)" opacity="0.05"><path d="M4017,2797.117v1.686h37.589V2775l-2.909.05Z" transform="translate(-4017 -2775)" fill="#050d32"/></g><g transform="translate(3.967 57.772)" opacity="0.05"><path d="M4017,3337.117v1.686h37.589V3315l-2.909.05Z" transform="translate(-4017 -3315)" fill="#050d32"/></g><g transform="translate(3.273 30.369)"><rect width="37.886" height="23.227" transform="translate(37.886 23.227) rotate(-180)" fill="#c4c4dd"/></g><g transform="translate(3.273 56.86)"><rect width="37.886" height="23.227" transform="translate(37.886 23.227) rotate(-180)" fill="#c4c4dd"/></g><g transform="translate(14.579 36.582)"><path d="M4246.273,2895.083H4231v-7.389h15.273Zm-14.778-.5h14.282v-6.4H4231.5Z" transform="translate(-4231 -2887.694)" fill="#aeb2d4"/><g transform="translate(0.588 10.776)"><g transform="translate(0)"><rect width="10.527" height="1.736" transform="translate(10.527 1.736) rotate(-180)" fill="#aeb2d4"/></g><g transform="translate(12.348 0)"><rect width="1.749" height="1.736" transform="translate(1.749 1.736) rotate(-180)" fill="#aeb2d4"/></g></g></g><g transform="translate(14.579 62.964)"><path d="M4246.273,3427.083H4231v-7.389h15.273Zm-14.778-.5h14.282v-6.4H4231.5Z" transform="translate(-4231 -3419.694)" fill="#aeb2d4"/><g transform="translate(0.588 10.776)"><g transform="translate(0)"><rect width="10.527" height="1.736" transform="translate(10.527 1.736) rotate(-180)" fill="#aeb2d4"/></g><g transform="translate(12.348 0)"><rect width="1.749" height="1.736" transform="translate(1.749 1.736) rotate(-180)" fill="#aeb2d4"/></g></g></g><g transform="translate(3.273 3.64)"><g transform="translate(0 0)"><rect width="37.886" height="23.227" transform="translate(37.886 23.227) rotate(-180)" fill="#c4c4dd"/></g><g transform="translate(11.306 6.213)"><path d="M4246.273,2356.083H4231v-7.389h15.273Zm-14.778-.5h14.282v-6.4H4231.5Z" transform="translate(-4231 -2348.694)" fill="#aeb2d4"/><g transform="translate(0.588 10.776)"><g transform="translate(0)"><rect width="10.527" height="1.736" transform="translate(10.527 1.736) rotate(-180)" fill="#aeb2d4"/></g><g transform="translate(12.348 0)"><rect width="1.749" height="1.736" transform="translate(1.749 1.736) rotate(-180)" fill="#aeb2d4"/></g></g></g></g></g><g transform="translate(25.439 50.006)"><g clip-path="url(#b)"><g transform="translate(-27.572 -3.075)"><rect width="126.453" height="100.369" fill="#fff"/></g><g transform="translate(63.953 18.652)"><path d="M3261.493,1685.442c-1.326-1.371-1.508,2.182-3.851,3" transform="translate(-3257.642 -1685.131)" fill="#dfe0ee"/></g><g transform="translate(-30.646 -9.451)"><g transform="translate(0 67.421)"><path d="M1350,2490.813c2.43-8.726,12-14.4,23.208-12.415s11.753,6.669,26.63,7.662,27.026-5.747,38.531-6.6,34.266,9.862,34.266,9.862l1.934,29.766-121.792.071Z" transform="translate(-1350 -2478)" fill="#dfe0ee"/></g><g transform="translate(27.197)"><g transform="translate(28.66 13.119)"><g transform="translate(2.014)"><path d="M2520.2,1382.956l1.594,2.762,1.594,2.762h-6.377l1.595-2.761Z" transform="translate(-2517.01 -1382.956)" fill="#ededf5"/></g><g transform="translate(0.167 2.517)"><path d="M2484.812,1433.707l2.516,4.118,2.516,4.118h-10.067l2.518-4.117Z" transform="translate(-2479.776 -1433.707)" fill="#ededf5"/></g><g transform="translate(0 5.858)"><path d="M2481.683,1501.088l2.64,4.321,2.64,4.321H2476.4l2.642-4.32Z" transform="translate(-2476.399 -1501.088)" fill="#ededf5"/></g><g transform="translate(4.001 12.816)"><path d="M2559.644,1645.739h0a2.021,2.021,0,0,1-1.517.244l-1.042-.245v-4.343h2.56Z" transform="translate(-2557.084 -1641.395)" fill="#ededf5"/></g></g><g transform="translate(73.519 12.575)"><g transform="translate(2.681)"><path d="M3439.149,1372l2.042,3.537,2.042,3.537h-8.169l2.042-3.537Z" transform="translate(-3435.065 -1372)" fill="#ededf5"/></g><g transform="translate(0.317 3.224)"><path d="M3393.852,1437.009l3.224,5.274,3.224,5.274h-12.9l3.224-5.274Z" transform="translate(-3387.404 -1437.009)" fill="#ededf5"/></g><g transform="translate(0 7.415)"><path d="M3387.768,1521.52l3.382,5.534,3.382,5.534H3381l3.383-5.534Z" transform="translate(-3381.002 -1521.52)" fill="#ededf5"/></g><g transform="translate(5.099 17.474)"><path d="M3487.159,1728.686h0a2.627,2.627,0,0,1-1.975.318l-1.357-.318v-4.3h3.333Z" transform="translate(-3483.827 -1724.382)" fill="#ededf5"/></g></g><g transform="translate(40.443)"><g transform="translate(6.007)"><path d="M2844.3,1118.413l4.576,7.926,4.576,7.926h-18.3l4.576-7.926Z" transform="translate(-2835.147 -1118.413)" fill="#dfe0ee"/></g><g transform="translate(0.711 7.223)"><path d="M2742.8,1264.077l7.224,11.818,7.224,11.818h-28.9l7.224-11.818Z" transform="translate(-2728.354 -1264.077)" fill="#dfe0ee"/></g><g transform="translate(0 16.614)"><path d="M2729.169,1453.44l7.58,12.4,7.579,12.4H2714.01l7.58-12.4Z" transform="translate(-2714.01 -1453.44)" fill="#dfe0ee"/></g><g transform="translate(11.425 39.155)"><path d="M2951.875,1917.634h0a5.893,5.893,0,0,1-4.427.714l-3.04-.714v-9.644h7.467Z" transform="translate(-2944.408 -1907.99)" fill="#dfe0ee"/></g></g><g transform="translate(0 2.707)"><g transform="translate(5.959)"><path d="M2027.7,1173l4.539,8.435,4.539,8.435h-18.157l4.539-8.435Z" transform="translate(-2018.621 -1173)" fill="#dfe0ee"/></g><g transform="translate(0.706 7.688)"><path d="M1927.014,1328.031l7.166,12.578,7.166,12.578h-28.665l7.166-12.578Z" transform="translate(-1912.681 -1328.031)" fill="#dfe0ee"/></g><g transform="translate(0 17.682)"><path d="M1913.489,1529.573l7.519,13.2,7.519,13.2h-30.076l7.519-13.2Z" transform="translate(-1898.451 -1529.573)" fill="#dfe0ee"/></g><g transform="translate(11.334 41.673)"><path d="M2134.417,2023.619h0a5.51,5.51,0,0,1-4.392.759l-3.016-.759v-10.264h7.407Z" transform="translate(-2127.009 -2013.355)" fill="#dfe0ee"/></g></g></g></g></g></g><g transform="translate(175.15 47.179)"><rect width="55.094" height="124.371" fill="#8691c3"/></g><g transform="translate(25.142 50.006)"><rect width="88.17" height="93.675" fill="none"/></g><g transform="translate(24.2 48.766)"><path d="M2033.352,1380.154H1943V1284h90.352Zm-87.873-2.479h85.393v-91.2h-85.393Z" transform="translate(-1943 -1284)" fill="#aeb2d4"/></g><g transform="translate(180.704 54.519)"><g clip-path="url(#c)"><g transform="translate(-7.361)"><g transform="translate(0 9.079)" opacity="0.1"><path d="M5001.721,1602.793c-2.526-.175-7.432,3.612-11.513,3.33s-5.617-7.371-7.926-9.288a4.612,4.612,0,0,1-.993-1.17,11.424,11.424,0,0,0,1.967-4.027c.37,0,.681-.044.714-.18a3.23,3.23,0,0,0-.379-1.167,12.946,12.946,0,0,0,.234-1.65c.214-3.11-1.3-5.265-5.573-5.56-2.759-.191-3.334,4.466-3.448,6.009-1.262,1.1-2.844,2.717-2.928,3.936-.138,2,1.143,2.792,2.789,3.185a8.52,8.52,0,0,0-2.029,3.081l-.026.074a46.073,46.073,0,0,0-8.38,10.082c-.758,1.511,1.55,4.33,4.211,6.9-2.82,5.35-.929,11.7.268,15.132-5.3,3.315-13.027,8.467-18.151,13.261.09,2.936,2.165,2.591,4.259,1.954,1.226-.372,7.933-2.2,13.854-4.5-.843,7.016-2.1,15.38-1.292,16.305,1.312,1.506,6.16,1.3,6.16,1.3s-1.786-3.834-1.564-7.041c.383-5.539,11.534-18.537,12.313-29.811a49.052,49.052,0,0,0-1.338-13.227,8.126,8.126,0,0,0,2.4.491c7.386.51,16.376-5.1,18.024-6.353S5004.249,1602.968,5001.721,1602.793Zm-31.482,6.723a4.765,4.765,0,0,1,1.167-.589,21.069,21.069,0,0,1-.612,2.489C4970.3,1610.434,4970.045,1609.709,4970.239,1609.516Z" transform="translate(-4950.558 -1583.076)" fill="#182378"/></g><g transform="translate(7.361)" opacity="0.25"><rect width="50.829" height="72.103" transform="translate(50.829 72.103) rotate(-180)" fill="#fff"/></g></g></g></g></g></g><g transform="translate(154.922 0.14)"><path d="M4802.536,517.914c-2.864,27.274-102.136,65.854-234.441,62.868l22.881-64.849a271.742,271.742,0,0,0,9.622-34.283l19.286-91.354a271.641,271.641,0,0,1,10.383-36.412l18.279-50.465c70.6,3.946,89.154,28.4,87.841,57.183C4732.229,451.791,4810.667,440.484,4802.536,517.914Z" transform="translate(-4568.094 -303.42)" fill="#050d32"/></g><g transform="translate(134.487 60.221)"><circle cx="10.711" cy="10.711" r="10.711" fill="#8691c3"/><g transform="translate(1.757 1.757)"><circle cx="8.955" cy="8.955" r="8.955" fill="#fff"/></g></g><g transform="translate(144.187 63.777)"><path d="M4355.575,1596.907l-3.975-2.9,3.521-7.313.894.43-3.163,6.569,3.308,2.413Z" transform="translate(-4351.6 -1586.694)" fill="#d82886"/></g><g transform="translate(0 0.267)"><path d="M1820.187,511.5c-1.848,22.468-36.848,46.256-150.824,59.362-18.719,2.153-39.569,4.017-62.753,5.54-44.941,2.953-98.651,4.623-162.609,4.623V306c46.106,1.719,139.85.106,214.861,6.275,20.977,1.725,40.488,4.058,57.084,7.243,31.931,6.129,30.452,23.989,30.452,38.154C1746.4,449.314,1826.236,437.958,1820.187,511.5Z" transform="translate(-1444 -306)" fill="none"/></g><g transform="translate(220.013 118.355)"><path d="M5880.906,2692.816l-.231-.439c.007,0,.72-.378,1.433-.741.421-.214.759-.382,1.007-.5.21-.1.348-.164.448-.2l2.324-3.631.417.267-2.38,3.719a.248.248,0,0,1-.2.115C5883.45,2691.5,5882.1,2692.19,5880.906,2692.816Z" transform="translate(-5880.675 -2687.305)" fill="#050d32"/></g><g transform="translate(0 0.267)"><path d="M1461.158,306.467V580.983q-8.454.041-17.158.041V306C1449.155,306.192,1454.905,306.343,1461.158,306.467Z" transform="translate(-1444 -306)" fill="none"/></g><g transform="translate(162.555 2.024)"><g clip-path="url(#d)"><g transform="translate(-9.72 -3.493)"><g transform="translate(17.456)"><rect width="234.063" height="34.366" fill="#9795bf"/></g><g transform="translate(0 24.547)"><rect width="235.203" height="200.788" transform="translate(235.203 200.788) rotate(-180)" fill="#7470a6"/></g><g transform="translate(64.107 116.238)"><circle cx="7.001" cy="7.001" r="7.001" fill="#2e2e63"/><g transform="translate(1.148 1.148)"><circle cx="5.853" cy="5.853" r="5.853" fill="#4f4d89"/></g></g><g transform="translate(70.36 118.487)"><path d="M5945.844,2668.027h-.992V2665l2.233-4.639.894.43-2.136,4.435Z" transform="translate(-5944.853 -2660.358)" fill="#1e204e"/></g><g transform="translate(83.558 108.948)"><path d="M6212.942,2468v.194a19.26,19.26,0,0,1-1.692,7.894l-.25.557v12.486h7.359v-11.9l-.6-1.521a19.253,19.253,0,0,1-1.325-7.019V2468Z" transform="translate(-6211 -2468)" fill="#47447f"/></g><g transform="translate(90.005 115.128)"><path d="M6342.374,2592.615v.138a13.634,13.634,0,0,1-1.2,5.584l-.177.394v8.834h5.207v-8.423l-.421-1.076a13.626,13.626,0,0,1-.937-4.966v-.487Z" transform="translate(-6341 -2592.615)" fill="#4f4d89"/></g><g transform="translate(44.581 60.747)"><rect width="50.383" height="31.341" fill="#2e2e63"/></g><g transform="translate(48.251 63.574)"><rect width="43.044" height="25.687" fill="#575492"/></g><g transform="translate(66.549 79.79)"><circle cx="3.223" cy="3.223" r="3.223" fill="#47447f"/></g><g transform="translate(51.35 67.309)"><path d="M5598.345,1630.29v8.393a87.5,87.5,0,0,0-36.845,0v-8.393a87.487,87.487,0,0,1,36.845,0Z" transform="translate(-5561.5 -1628.328)" fill="#47447f"/></g><g transform="translate(54.127 80.93)"><rect width="8.331" height="1.636" fill="#47447f"/><g transform="translate(22.96)"><rect width="8.331" height="1.636" fill="#47447f"/></g></g><g transform="translate(54.152 84.6)"><rect width="8.331" height="0.793" fill="#47447f"/><g transform="translate(22.96)"><rect width="8.331" height="0.793" fill="#47447f"/></g></g><g transform="translate(7.339 171.282)"><rect width="244.179" height="103.692" fill="#575492"/></g><g transform="translate(37.881 212.913)" opacity="0.46"><path d="M5498.308,4564.5c0,20.5-46.655,37.118-104.207,37.118S5289.894,4585,5289.894,4564.5" transform="translate(-5289.894 -4564.5)" fill="#35398e"/></g><g transform="translate(114.601 45.672)"><rect width="169.261" height="66.103" fill="#4f4d89"/><g transform="translate(6.331 5.865)"><rect width="156.599" height="54.372" fill="#fff"/><g clip-path="url(#e)"><g transform="translate(-22.531 1.305)"><g transform="translate(0 0.583)"><g transform="translate(0 13.609)"><rect width="13.094" height="26.586" fill="#aca9be"/></g><g transform="translate(172.612 8.674)"><rect width="13.094" height="26.586" fill="#aca9be"/></g><g transform="translate(104.436 13.609)"><rect width="13.094" height="26.586" fill="#aca9be"/></g><g transform="translate(63.449 8.548)"><rect width="22.143" height="31.646" fill="#aca9be"/></g><g transform="translate(14.979 7.336)"><rect width="10.433" height="32.858" fill="#aca9be"/></g><g transform="translate(100.177)"><rect width="5.749" height="40.194" fill="#aca9be"/></g><g transform="translate(85.38 11.185)"><rect width="15.756" height="29.009" fill="#aca9be"/></g><g transform="translate(32.789 11.185)"><rect width="10.433" height="29.009" fill="#aca9be"/></g><g transform="translate(142.548 11.185)"><rect width="10.433" height="29.009" fill="#aca9be"/></g><g transform="translate(23.527 17.458)"><rect width="10.433" height="22.737" fill="#aca9be"/></g><g transform="translate(40.241 15.961)"><rect width="27.466" height="24.234" fill="#aca9be"/></g><g transform="translate(150.426 13.609)"><rect width="12.349" height="26.586" fill="#aca9be"/></g><g transform="translate(161.604 18.17)"><rect width="23.857" height="22.024" fill="#aca9be"/></g><g transform="translate(116.359 17.458)"><rect width="27.466" height="22.737" fill="#aca9be"/></g></g><g transform="translate(47.055 14.154)"><rect width="10.539" height="3.876" fill="#aca9be"/></g><g transform="translate(70.369 5.813)"><rect width="13.946" height="4.634" fill="#aca9be"/></g><g transform="translate(112.633 10.447)"><rect width="3.726" height="5.729" fill="#aca9be"/></g><g transform="translate(121.363 11.795)"><rect width="6.6" height="8.846" fill="#aca9be"/></g><g transform="translate(147.764 9.099)"><rect width="2.981" height="4.213" fill="#aca9be"/></g><g transform="translate(1.81 11.795)"><rect width="5.962" height="3.539" fill="#aca9be"/></g><g transform="translate(14.372 5.813)"><rect width="5.855" height="4.634" fill="#aca9be"/></g><g transform="translate(101.774)"><rect width="3.513" height="1.095" fill="#aca9be"/></g><g transform="translate(22.717 14.431)"><g transform="translate(0 0.583)"><g transform="translate(0 13.609)"><rect width="22.119" height="26.586" fill="#757193"/></g><g transform="translate(176.415 13.609)"><rect width="22.119" height="26.586" fill="#757193"/></g><g transform="translate(107.18 8.548)"><rect width="37.405" height="31.646" fill="#757193"/></g><g transform="translate(21.176 5.653)"><rect width="22.861" height="34.541" fill="#757193"/></g><g transform="translate(169.222)"><rect width="9.711" height="40.194" fill="#757193"/></g><g transform="translate(144.225 11.185)"><rect width="26.615" height="29.009" fill="#757193"/></g><g transform="translate(55.388 13.567)"><rect width="17.624" height="26.627" fill="#757193"/></g><g transform="translate(240.795 11.185)"><rect width="17.624" height="29.009" fill="#757193"/></g><g transform="translate(39.743 17.458)"><rect width="17.624" height="22.737" fill="#757193"/></g><g transform="translate(67.977 15.961)"><rect width="46.397" height="24.234" fill="#757193"/></g><g transform="translate(254.103 13.609)"><rect width="20.861" height="26.586" fill="#757193"/></g><g transform="translate(272.985 18.17)"><rect width="29.133" height="22.024" fill="#757193"/></g><g transform="translate(196.557 17.458)"><rect width="46.397" height="22.737" fill="#757193"/></g></g><g transform="translate(82.955 5.771)"><rect width="14.335" height="12.259" fill="#757193"/></g><g transform="translate(118.869 5.813)"><rect width="23.558" height="4.634" fill="#757193"/></g><g transform="translate(190.262 10.447)"><rect width="6.294" height="5.729" fill="#757193"/></g><g transform="translate(205.009 11.795)"><rect width="11.15" height="8.846" fill="#757193"/></g><g transform="translate(249.607 9.099)"><rect width="5.035" height="4.213" fill="#757193"/></g><g transform="translate(3.057 11.795)"><rect width="10.071" height="3.539" fill="#757193"/></g><g transform="translate(31.26 4.747)"><rect width="5.795" height="6.767" fill="#757193"/></g><g transform="translate(171.92)"><rect width="5.934" height="1.095" fill="#757193"/></g></g></g></g></g><g transform="translate(2.979 4.655)"><g transform="translate(0 26.225)"><rect width="164.512" height="0.992" fill="#4f4d89"/></g><g transform="translate(3.042)"><g transform="translate(78.206)"><rect width="0.992" height="56.7" fill="#9795bf"/></g><g transform="translate(39.103)"><rect width="0.992" height="56.7" fill="#4f4d89"/></g><g transform="translate(117.309)"><rect width="0.992" height="56.7" fill="#9795bf"/></g><g transform="translate(156.412)"><rect width="0.992" height="56.7" fill="#9795bf"/></g><rect width="0.992" height="56.7" fill="#4f4d89"/></g></g></g><g transform="translate(169.348 103.394)"><rect width="8.232" height="26.679" fill="#6967ac"/><g transform="translate(2.727 20.728)"><circle cx="1.389" cy="1.389" r="1.389" fill="#37366f"/></g></g><g transform="translate(178.77 103.394)"><rect width="8.232" height="26.679" fill="#6967ac"/><g transform="translate(2.727 20.728)"><circle cx="1.389" cy="1.389" r="1.389" fill="#37366f"/></g></g><g transform="translate(188.192 103.394)"><rect width="8.232" height="26.679" fill="#6967ac"/><g transform="translate(2.727 20.728)"><circle cx="1.389" cy="1.389" r="1.389" fill="#37366f"/></g></g><g transform="translate(26.878 129.776)"><rect width="224.492" height="48.35" fill="#47447f"/><g transform="translate(3.67 4.044)"><rect width="51.722" height="18.177" fill="#1e204e"/><g transform="translate(0 22.085)"><rect width="51.722" height="18.177" fill="#1e204e"/></g></g><g transform="translate(58.863 4.044)"><rect width="51.722" height="18.177" fill="#1e204e"/><g transform="translate(0 22.085)"><rect width="51.722" height="18.177" fill="#1e204e"/></g></g><g transform="translate(114.056 4.044)"><rect width="51.722" height="18.177" fill="#1e204e"/><g transform="translate(0 22.085)"><rect width="51.722" height="18.177" fill="#1e204e"/></g></g><g transform="translate(169.249 4.044)"><rect width="51.722" height="18.177" fill="#1e204e"/><g transform="translate(0 22.085)"><rect width="51.722" height="18.177" fill="#1e204e"/></g></g><g transform="translate(6.527 6.54)"><g transform="translate(0 2.214)"><rect width="3.371" height="12.024" fill="#161a44"/></g><g transform="translate(3.371)"><rect width="3.371" height="14.237" fill="#161a44"/></g><g transform="translate(6.741 1.333)"><rect width="1.685" height="12.904" fill="#161a44"/></g><g transform="translate(8.351 2.666)"><rect width="3.371" height="11.571" fill="#161a44"/></g><g transform="translate(11.722 4.171)"><rect width="2.628" height="10.067" fill="#161a44"/></g><g transform="translate(19.687 4.103)"><rect width="3.371" height="10.134" fill="#161a44"/></g><g transform="translate(23.058 2.237)"><rect width="3.371" height="12" fill="#161a44"/></g><g transform="translate(34.018 4.103)"><rect width="3.371" height="10.134" fill="#161a44"/></g><g transform="translate(37.389 2.237)"><rect width="3.371" height="12" fill="#161a44"/></g><g transform="translate(40.689 1.245)"><rect width="3.371" height="12.986" fill="#161a44"/></g><g transform="translate(43.961 2.931)"><rect width="3.371" height="11.222" fill="#161a44"/></g><g transform="translate(26.428 3.361)"><rect width="1.685" height="10.877" fill="#161a44"/></g><g transform="translate(28.038 0.006)"><rect width="3.371" height="14.232" fill="#161a44"/></g><g transform="translate(31.409 1.857)"><rect width="2.628" height="12.381" fill="#161a44"/></g><g transform="translate(15.047 1.251)"><rect width="1.636" height="12.992" transform="translate(3.26 0) rotate(14.533)" fill="#161a44"/></g></g><g transform="translate(5.865 28.112)"><g transform="translate(43.961 2.214)"><rect width="3.371" height="12.024" transform="translate(3.371 12.024) rotate(-180)" fill="#161a44"/></g><g transform="translate(40.59 0)"><rect width="3.371" height="14.237" transform="translate(3.371 14.237) rotate(-180)" fill="#161a44"/></g><g transform="translate(38.905 1.333)"><rect width="1.685" height="12.904" transform="translate(1.685 12.904) rotate(-180)" fill="#161a44"/></g><g transform="translate(35.609 2.666)"><rect width="3.371" height="11.571" transform="translate(3.371 11.571) rotate(-180)" fill="#161a44"/></g><g transform="translate(32.981 4.171)"><rect width="2.628" height="10.067" transform="translate(2.628 10.067) rotate(-180)" fill="#161a44"/></g><g transform="translate(24.274 4.103)"><rect width="3.371" height="10.134" transform="translate(3.371 10.134) rotate(-180)" fill="#161a44"/></g><g transform="translate(20.903 2.237)"><rect width="3.371" height="12" transform="translate(3.371 12) rotate(-180)" fill="#161a44"/></g><g transform="translate(9.942 4.103)"><rect width="3.371" height="10.134" transform="translate(3.371 10.134) rotate(-180)" fill="#161a44"/></g><g transform="translate(6.572 2.237)"><rect width="3.371" height="12" transform="translate(3.371 12) rotate(-180)" fill="#161a44"/></g><g transform="translate(3.272 1.245)"><rect width="3.371" height="12.986" transform="translate(3.371 12.986) rotate(-180)" fill="#161a44"/></g><g transform="translate(0 2.931)"><rect width="3.371" height="11.222" transform="translate(3.371 11.222) rotate(-180)" fill="#161a44"/></g><g transform="translate(19.218 3.361)"><rect width="1.685" height="10.877" transform="translate(1.685 10.877) rotate(-180)" fill="#161a44"/></g><g transform="translate(15.922 0.006)"><rect width="3.371" height="14.232" transform="translate(3.371 14.232) rotate(-180)" fill="#161a44"/></g><g transform="translate(13.294 1.857)"><rect width="2.628" height="12.381" transform="translate(2.628 12.381) rotate(-180)" fill="#161a44"/></g><g transform="translate(27.64 0.898)"><rect width="1.389" height="13.34" fill="#161a44"/></g><g transform="translate(29.029 3.08)"><rect width="3.967" height="11.158" fill="#161a44"/></g></g><g transform="translate(61.058 28.098)"><g transform="translate(43.961 2.214)"><rect width="3.371" height="12.024" transform="translate(3.371 12.024) rotate(-180)" fill="#161a44"/></g><g transform="translate(40.59 0)"><rect width="3.371" height="14.237" transform="translate(3.371 14.237) rotate(-180)" fill="#161a44"/></g><g transform="translate(38.905 1.333)"><rect width="1.685" height="12.904" transform="translate(1.685 12.904) rotate(-180)" fill="#161a44"/></g><g transform="translate(35.609 2.666)"><rect width="3.371" height="11.571" transform="translate(3.371 11.571) rotate(-180)" fill="#161a44"/></g><g transform="translate(32.981 4.171)"><rect width="2.628" height="10.067" transform="translate(2.628 10.067) rotate(-180)" fill="#161a44"/></g><g transform="translate(24.274 4.103)"><rect width="3.371" height="10.134" transform="translate(3.371 10.134) rotate(-180)" fill="#161a44"/></g><g transform="translate(20.903 2.237)"><rect width="3.371" height="12" transform="translate(3.371 12) rotate(-180)" fill="#161a44"/></g><g transform="translate(9.942 4.103)"><rect width="3.371" height="10.134" transform="translate(3.371 10.134) rotate(-180)" fill="#161a44"/></g><g transform="translate(6.572 2.237)"><rect width="3.371" height="12" transform="translate(3.371 12) rotate(-180)" fill="#161a44"/></g><g transform="translate(3.272 1.245)"><rect width="3.371" height="12.986" transform="translate(3.371 12.986) rotate(-180)" fill="#161a44"/></g><g transform="translate(0 2.931)"><rect width="3.371" height="11.222" transform="translate(3.371 11.222) rotate(-180)" fill="#161a44"/></g><g transform="translate(19.218 3.361)"><rect width="1.685" height="10.877" transform="translate(1.685 10.877) rotate(-180)" fill="#161a44"/></g><g transform="translate(15.922 0.006)"><rect width="3.371" height="14.232" transform="translate(3.371 14.232) rotate(-180)" fill="#161a44"/></g><g transform="translate(13.294 1.857)"><rect width="2.628" height="12.381" transform="translate(2.628 12.381) rotate(-180)" fill="#161a44"/></g><g transform="translate(27.64 0.898)"><rect width="1.389" height="13.34" fill="#161a44"/></g><g transform="translate(29.029 3.08)"><rect width="3.967" height="11.158" fill="#161a44"/></g></g><g transform="translate(116.251 28.098)"><g transform="translate(43.961 2.214)"><rect width="3.371" height="12.024" transform="translate(3.371 12.024) rotate(-180)" fill="#161a44"/></g><g transform="translate(40.59 0)"><rect width="3.371" height="14.237" transform="translate(3.371 14.237) rotate(-180)" fill="#161a44"/></g><g transform="translate(38.905 1.333)"><rect width="1.685" height="12.904" transform="translate(1.685 12.904) rotate(-180)" fill="#161a44"/></g><g transform="translate(35.609 2.666)"><rect width="3.371" height="11.571" transform="translate(3.371 11.571) rotate(-180)" fill="#161a44"/></g><g transform="translate(32.981 4.171)"><rect width="2.628" height="10.067" transform="translate(2.628 10.067) rotate(-180)" fill="#161a44"/></g><g transform="translate(24.274 4.103)"><rect width="3.371" height="10.134" transform="translate(3.371 10.134) rotate(-180)" fill="#161a44"/></g><g transform="translate(20.903 2.237)"><rect width="3.371" height="12" transform="translate(3.371 12) rotate(-180)" fill="#161a44"/></g><g transform="translate(9.942 4.103)"><rect width="3.371" height="10.134" transform="translate(3.371 10.134) rotate(-180)" fill="#161a44"/></g><g transform="translate(6.572 2.237)"><rect width="3.371" height="12" transform="translate(3.371 12) rotate(-180)" fill="#161a44"/></g><g transform="translate(3.272 1.245)"><rect width="3.371" height="12.986" transform="translate(3.371 12.986) rotate(-180)" fill="#161a44"/></g><g transform="translate(0 2.931)"><rect width="3.371" height="11.222" transform="translate(3.371 11.222) rotate(-180)" fill="#161a44"/></g><g transform="translate(19.218 3.361)"><rect width="1.685" height="10.877" transform="translate(1.685 10.877) rotate(-180)" fill="#161a44"/></g><g transform="translate(15.922 0.006)"><rect width="3.371" height="14.232" transform="translate(3.371 14.232) rotate(-180)" fill="#161a44"/></g><g transform="translate(13.294 1.857)"><rect width="2.628" height="12.381" transform="translate(2.628 12.381) rotate(-180)" fill="#161a44"/></g><g transform="translate(27.64 0.898)"><rect width="1.389" height="13.34" fill="#161a44"/></g><g transform="translate(29.029 3.08)"><rect width="3.967" height="11.158" fill="#161a44"/></g></g><g transform="translate(171.444 28.098)"><g transform="translate(43.961 2.214)"><rect width="3.371" height="12.024" transform="translate(3.371 12.024) rotate(-180)" fill="#161a44"/></g><g transform="translate(40.59 0)"><rect width="3.371" height="14.237" transform="translate(3.371 14.237) rotate(-180)" fill="#161a44"/></g><g transform="translate(38.905 1.333)"><rect width="1.685" height="12.904" transform="translate(1.685 12.904) rotate(-180)" fill="#161a44"/></g><g transform="translate(35.61 2.666)"><rect width="3.371" height="11.571" transform="translate(3.371 11.571) rotate(-180)" fill="#161a44"/></g><g transform="translate(32.981 4.171)"><rect width="2.628" height="10.067" transform="translate(2.628 10.067) rotate(-180)" fill="#161a44"/></g><g transform="translate(24.274 4.103)"><rect width="3.371" height="10.134" transform="translate(3.371 10.134) rotate(-180)" fill="#161a44"/></g><g transform="translate(20.903 2.237)"><rect width="3.371" height="12" transform="translate(3.371 12) rotate(-180)" fill="#161a44"/></g><g transform="translate(9.942 4.103)"><rect width="3.371" height="10.134" transform="translate(3.371 10.134) rotate(-180)" fill="#161a44"/></g><g transform="translate(6.572 2.237)"><rect width="3.371" height="12" transform="translate(3.371 12) rotate(-180)" fill="#161a44"/></g><g transform="translate(3.272 1.245)"><rect width="3.371" height="12.986" transform="translate(3.371 12.986) rotate(-180)" fill="#161a44"/></g><g transform="translate(0 2.931)"><rect width="3.371" height="11.222" transform="translate(3.371 11.222) rotate(-180)" fill="#161a44"/></g><g transform="translate(19.218 3.361)"><rect width="1.685" height="10.877" transform="translate(1.685 10.877) rotate(-180)" fill="#161a44"/></g><g transform="translate(15.922 0.006)"><rect width="3.371" height="14.232" transform="translate(3.371 14.232) rotate(-180)" fill="#161a44"/></g><g transform="translate(13.294 1.857)"><rect width="2.628" height="12.381" transform="translate(2.628 12.381) rotate(-180)" fill="#161a44"/></g><g transform="translate(27.64 0.898)"><rect width="1.389" height="13.34" fill="#161a44"/></g><g transform="translate(29.029 3.08)"><rect width="3.967" height="11.158" fill="#161a44"/></g></g><g transform="translate(61.058 6.031)"><g transform="translate(43.961 2.214)"><rect width="3.371" height="12.024" transform="translate(3.371 12.024) rotate(-180)" fill="#161a44"/></g><g transform="translate(40.59 0)"><rect width="3.371" height="14.237" transform="translate(3.371 14.237) rotate(-180)" fill="#161a44"/></g><g transform="translate(38.905 1.333)"><rect width="1.685" height="12.904" transform="translate(1.685 12.904) rotate(-180)" fill="#161a44"/></g><g transform="translate(35.609 2.666)"><rect width="3.371" height="11.571" transform="translate(3.371 11.571) rotate(-180)" fill="#161a44"/></g><g transform="translate(32.981 4.171)"><rect width="2.628" height="10.067" transform="translate(2.628 10.067) rotate(-180)" fill="#161a44"/></g><g transform="translate(24.274 4.103)"><rect width="3.371" height="10.134" transform="translate(3.371 10.134) rotate(-180)" fill="#161a44"/></g><g transform="translate(20.903 2.237)"><rect width="3.371" height="12" transform="translate(3.371 12) rotate(-180)" fill="#161a44"/></g><g transform="translate(9.942 4.103)"><rect width="3.371" height="10.134" transform="translate(3.371 10.134) rotate(-180)" fill="#161a44"/></g><g transform="translate(6.572 2.237)"><rect width="3.371" height="12" transform="translate(3.371 12) rotate(-180)" fill="#161a44"/></g><g transform="translate(3.272 1.245)"><rect width="3.371" height="12.986" transform="translate(3.371 12.986) rotate(-180)" fill="#161a44"/></g><g transform="translate(0 2.931)"><rect width="3.371" height="11.222" transform="translate(3.371 11.222) rotate(-180)" fill="#161a44"/></g><g transform="translate(19.218 3.361)"><rect width="1.685" height="10.877" transform="translate(1.685 10.877) rotate(-180)" fill="#161a44"/></g><g transform="translate(15.922 0.006)"><rect width="3.371" height="14.232" transform="translate(3.371 14.232) rotate(-180)" fill="#161a44"/></g><g transform="translate(13.294 1.857)"><rect width="2.628" height="12.381" transform="translate(2.628 12.381) rotate(-180)" fill="#161a44"/></g><g transform="translate(27.64 0.898)"><rect width="1.389" height="13.34" fill="#161a44"/></g><g transform="translate(29.029 3.08)"><rect width="3.967" height="11.158" fill="#161a44"/></g></g><g transform="translate(116.251 6.031)"><g transform="translate(43.961 2.214)"><rect width="3.371" height="12.024" transform="translate(3.371 12.024) rotate(-180)" fill="#161a44"/></g><g transform="translate(40.59 0)"><rect width="3.371" height="14.237" transform="translate(3.371 14.237) rotate(-180)" fill="#161a44"/></g><g transform="translate(38.905 1.333)"><rect width="1.685" height="12.904" transform="translate(1.685 12.904) rotate(-180)" fill="#161a44"/></g><g transform="translate(35.609 2.666)"><rect width="3.371" height="11.571" transform="translate(3.371 11.571) rotate(-180)" fill="#161a44"/></g><g transform="translate(32.981 4.171)"><rect width="2.628" height="10.067" transform="translate(2.628 10.067) rotate(-180)" fill="#161a44"/></g><g transform="translate(24.274 4.103)"><rect width="3.371" height="10.134" transform="translate(3.371 10.134) rotate(-180)" fill="#161a44"/></g><g transform="translate(20.903 2.237)"><rect width="3.371" height="12" transform="translate(3.371 12) rotate(-180)" fill="#161a44"/></g><g transform="translate(9.942 4.103)"><rect width="3.371" height="10.134" transform="translate(3.371 10.134) rotate(-180)" fill="#161a44"/></g><g transform="translate(6.572 2.237)"><rect width="3.371" height="12" transform="translate(3.371 12) rotate(-180)" fill="#161a44"/></g><g transform="translate(3.272 1.245)"><rect width="3.371" height="12.986" transform="translate(3.371 12.986) rotate(-180)" fill="#161a44"/></g><g transform="translate(0 2.931)"><rect width="3.371" height="11.222" transform="translate(3.371 11.222) rotate(-180)" fill="#161a44"/></g><g transform="translate(19.218 3.361)"><rect width="1.685" height="10.877" transform="translate(1.685 10.877) rotate(-180)" fill="#161a44"/></g><g transform="translate(15.922 0.006)"><rect width="3.371" height="14.232" transform="translate(3.371 14.232) rotate(-180)" fill="#161a44"/></g><g transform="translate(13.294 1.857)"><rect width="2.628" height="12.381" transform="translate(2.628 12.381) rotate(-180)" fill="#161a44"/></g><g transform="translate(27.64 0.898)"><rect width="1.389" height="13.34" fill="#161a44"/></g><g transform="translate(29.029 3.08)"><rect width="3.967" height="11.158" fill="#161a44"/></g></g><g transform="translate(171.444 6.031)"><g transform="translate(43.961 2.214)"><rect width="3.371" height="12.024" transform="translate(3.371 12.024) rotate(-180)" fill="#161a44"/></g><g transform="translate(40.59 0)"><rect width="3.371" height="14.237" transform="translate(3.371 14.237) rotate(-180)" fill="#161a44"/></g><g transform="translate(38.905 1.333)"><rect width="1.685" height="12.904" transform="translate(1.685 12.904) rotate(-180)" fill="#161a44"/></g><g transform="translate(35.61 2.666)"><rect width="3.371" height="11.571" transform="translate(3.371 11.571) rotate(-180)" fill="#161a44"/></g><g transform="translate(32.981 4.171)"><rect width="2.628" height="10.067" transform="translate(2.628 10.067) rotate(-180)" fill="#161a44"/></g><g transform="translate(24.274 4.103)"><rect width="3.371" height="10.134" transform="translate(3.371 10.134) rotate(-180)" fill="#161a44"/></g><g transform="translate(20.903 2.237)"><rect width="3.371" height="12" transform="translate(3.371 12) rotate(-180)" fill="#161a44"/></g><g transform="translate(9.942 4.103)"><rect width="3.371" height="10.134" transform="translate(3.371 10.134) rotate(-180)" fill="#161a44"/></g><g transform="translate(6.572 2.237)"><rect width="3.371" height="12" transform="translate(3.371 12) rotate(-180)" fill="#161a44"/></g><g transform="translate(3.272 1.245)"><rect width="3.371" height="12.986" transform="translate(3.371 12.986) rotate(-180)" fill="#161a44"/></g><g transform="translate(0 2.931)"><rect width="3.371" height="11.222" transform="translate(3.371 11.222) rotate(-180)" fill="#161a44"/></g><g transform="translate(19.218 3.361)"><rect width="1.685" height="10.877" transform="translate(1.685 10.877) rotate(-180)" fill="#161a44"/></g><g transform="translate(15.922 0.006)"><rect width="3.371" height="14.232" transform="translate(3.371 14.232) rotate(-180)" fill="#161a44"/></g><g transform="translate(13.294 1.857)"><rect width="2.628" height="12.381" transform="translate(2.628 12.381) rotate(-180)" fill="#161a44"/></g><g transform="translate(27.64 0.898)"><rect width="1.389" height="13.34" fill="#161a44"/></g><g transform="translate(29.029 3.08)"><rect width="3.967" height="11.158" fill="#161a44"/></g></g></g></g></g></g><g transform="translate(356.296 202.807)"><g transform="translate(2.753)"><g transform="translate(12.751 39.191)"><g transform="translate(0 2.879)"><path d="M8941.876,5248.726a.386.386,0,0,0,.4-.257h0a19.375,19.375,0,0,1,4.214-6.444,8.747,8.747,0,0,1,4.292-2.383,7.223,7.223,0,0,1,2.109-.179.386.386,0,1,0,.087-.768,7.771,7.771,0,0,0-2.329.185,9.5,9.5,0,0,0-4.707,2.6,19.78,19.78,0,0,0-4.4,6.735.385.385,0,0,0,.238.492A.326.326,0,0,0,8941.876,5248.726Z" transform="translate(-8941.522 -5238.673)" fill="#35398e"/></g><g transform="translate(10.235 1.778)"><path d="M9156.9,5216.715a12.7,12.7,0,0,1,6.871,4.125c.262.318.411.511.411.511s4.621,5.38-1.341,4.213-14.918-7.68-14.918-7.68A15.593,15.593,0,0,1,9156.9,5216.715Z" transform="translate(-9147.919 -5216.471)" fill="#0e1547"/></g><g transform="translate(10.235)"><path d="M9156.525,5180.663c2.373.384,6.025,4.62,7.241,6.105a12.7,12.7,0,0,0-6.871-4.125,15.591,15.591,0,0,0-8.977,1.169S9153.645,5180.2,9156.525,5180.663Z" transform="translate(-9147.919 -5180.621)" fill="#142477"/></g></g><g transform="translate(10.91)"><path d="M8912.268,4390.307c2.413.51,6.625,5.516,6.464,15.212s-3.383,16.222-8.662,15.639-7.116-7.859-4.446-19.314S8912.268,4390.307,8912.268,4390.307Z" transform="translate(-8904.407 -4390.307)" fill="#121d5e"/><g transform="translate(1.045 6.354)"><path d="M8925.791,4575.2a.351.351,0,0,0,.392-.289c.027-.153.53-3.042,2.39-18.938.586-5,3.769-36.825,3.8-37.146a.352.352,0,0,0-.7-.07c-.033.322-3.215,32.14-3.8,37.135-1.856,15.877-2.356,18.747-2.383,18.9a.353.353,0,0,0,.287.408Z" transform="translate(-8925.483 -4518.438)" fill="#35398e"/></g></g><g transform="translate(0 20.48)"><path d="M8685.625,4803.517c1.967-1.121,7.525,2.1,10.5,9.147s-.123,11.139-3.871,11.129-6.586-7.544-7.576-13.545S8685.625,4803.517,8685.625,4803.517Z" transform="translate(-8684.398 -4803.298)" fill="#142477"/><g transform="translate(3.259 4.549)"><path d="M8761.379,4921.056l.7.042c.006-.09.111-2.251-2.017-7.665-2.107-5.363-9.256-18.268-9.327-18.4l-.617.342c.072.13,7.2,12.994,9.288,18.313a33.632,33.632,0,0,1,1.764,5.664A8.079,8.079,0,0,1,8761.379,4921.056Z" transform="translate(-8750.121 -4895.036)" fill="#35398e"/></g></g><g transform="translate(11.606 21.516)"><g transform="translate(4.346)"><path d="M9007.787,4843.325c1.729,1.461,6.906,2.083,9.879-4.831s1.522-12.1-.767-13.915-7.106,2.838-9.787,9.783S9007.787,4843.325,9007.787,4843.325Z" transform="translate(-9006.074 -4824.185)" fill="#142477"/></g><g transform="translate(0 5.07)"><path d="M8920.281,4950.952l.51-1.286c.035-.091,3.616-9.107,6.676-14.757s4.142-7.953,4.151-7.976a.353.353,0,0,0-.639-.3c-.011.023-1.09,2.317-4.133,7.939-2.394,4.42-5.1,10.875-6.2,13.574-.093-.743-.219-1.716-.353-2.717-.322-2.409-1.788-2.316-1.851-2.311l.057.7h-.007c.035,0,.873-.011,1.1,1.7.277,2.078.519,4.036.521,4.056Z" transform="translate(-8918.44 -4926.432)" fill="#35398e"/></g></g><g transform="translate(4.437 46.549)"><path d="M8788.34,5347.646h-11.951a2.772,2.772,0,0,1-2.49-3.251l1.313-11.791a3.8,3.8,0,0,1,3.561-3.6h7.186a3.806,3.806,0,0,1,3.561,3.6l1.311,11.791A2.769,2.769,0,0,1,8788.34,5347.646Z" transform="translate(-8773.878 -5329)" fill="#142477"/></g></g><g transform="translate(0 38.87)"><path d="M8638.693,5174.172c6.538.662,7.482,4.125,4.773,7.866s-13.037,7.229-14.344,6.061S8632.154,5173.51,8638.693,5174.172Z" transform="translate(-8628.891 -5174.148)" fill="#121d5e"/><g transform="translate(1.836 1.103)"><path d="M8666.269,5207.142a.389.389,0,0,0,.366-.177,51.81,51.81,0,0,1,4.667-6.242,20.2,20.2,0,0,1,4.887-3.607.387.387,0,0,0-.347-.691,20.605,20.605,0,0,0-5.1,3.767,37.288,37.288,0,0,0-3.2,4.043c-.905,1.285-1.554,2.307-1.562,2.316a.388.388,0,0,0,.118.534A.406.406,0,0,0,8666.269,5207.142Z" transform="translate(-8665.921 -5196.382)" fill="#35398e"/></g></g></g></g><g transform="translate(1450.744 401.899)"><g transform="translate(73.541 133.161)"><g transform="translate(10.116)"><rect width="44.68" height="0.744" fill="#050d32"/></g><rect width="3.422" height="0.744" fill="#050d32"/></g><g transform="translate(207.532 2.17)"><g transform="translate(0 129.28)"><g transform="translate(10.116)"><rect width="44.68" height="0.744" fill="#050d32"/></g><rect width="3.422" height="0.744" fill="#050d32"/></g><g transform="translate(66.898 23.158)"><path d="M7116.313,2854c-2.231,0-2.971,1.747-1.56,2.039S7117.8,2854,7116.313,2854Z" transform="translate(-7114.033 -2854)" fill="#050d32"/></g><g transform="translate(25.935 90.456)"><g transform="translate(1.438)"><g transform="translate(25.103)"><path d="M6831.081,4211.1v26.827a9.426,9.426,0,0,1-7.86,0V4211.1Z" transform="translate(-6823.22 -4211.1)" fill="#292961"/></g><g transform="translate(25.103 1.024)" opacity="0.3"><path d="M6831.081,4231.74v11.434c-2.731.733-5.8,1.31-7.86,1.656V4233.5C6825,4232.413,6828.159,4231.823,6831.081,4231.74Z" transform="translate(-6823.22 -4231.74)" fill="#050d32"/></g><g transform="translate(0 23.065)"><g transform="translate(30.928)"><path d="M6940.686,4676.219l24.826,5.963,3.456,3.349-1.141,2.628-4.071-.013-1.479-2.45-21.59-5.409Z" transform="translate(-6940.686 -4676.219)" fill="#292961"/></g><g transform="translate(51.92 7.973)"><circle cx="1.984" cy="1.984" r="1.984" fill="#292961"/></g><g transform="translate(56.086 7.973)"><circle cx="1.984" cy="1.984" r="1.984" fill="#292961"/></g><path d="M6344.091,4676.219l-24.826,5.963-2.266,3.993.546,1.983h3.422v-2.083l23.124-5.79Z" transform="translate(-6317 -4676.219)" fill="#292961"/></g></g><g transform="translate(0 31.038)"><circle cx="1.984" cy="1.984" r="1.984" fill="#292961"/></g><g transform="translate(3.422 31.038)"><circle cx="1.984" cy="1.984" r="1.984" fill="#292961"/></g><g transform="translate(26.382 30.989)"><circle cx="1.984" cy="1.984" r="1.984" fill="#292961"/></g><g transform="translate(30.547 30.989)"><circle cx="1.984" cy="1.984" r="1.984" fill="#292961"/></g><g transform="translate(28.537 23.153)"><rect width="3.868" height="11.802" fill="#292961"/></g></g><g transform="translate(12.042 71.068)"><path d="M6076.269,3828.13s.3,6.754-.453,9.056-22.916,8.21-29.5,8.563c-.38.02-.832.02-1.346,0a87.36,87.36,0,0,1-9.063-1.036c-10.716-1.648-25.12-4.741-26.831-5.586-2.438-1.2-.983-4.41,1.78-8.021,1.671-2.184,6.806-4.906,12.5-7.115a74.178,74.178,0,0,1,11.06-3.381c8.558-1.8,24.626,2.034,24.626,2.034l6.343,2.033,10.5,2.515Z" transform="translate(-6007.834 -3820.128)" fill="#13173d"/><g transform="translate(35.552 7.219)"><path d="M6757.011,3978.563c-2.722,2.771-31.522,8.067-31.815,5.025-.289-2.992-2.153-7.851,4.721-8.864,2.748-.4,11.97-1.574,16.08-2.3a6.744,6.744,0,0,0,3.466-1.937c1.741-1.591,3.5-3.684,7.524-4.6q.456-.1.954-.188S6759.732,3975.792,6757.011,3978.563Z" transform="translate(-6724.75 -3965.7)" fill="#292961"/></g></g><g transform="translate(56.684 11.217)"><path d="M6928.444,2613.2c6.842,0,13.961,1.711,14.979,4.808s-2.8,11.685-7.48,12.222-24.235,0-24.235,0-3.652-4.548-3.652-13.332C6908.057,2614.27,6919.152,2613.2,6928.444,2613.2Z" transform="translate(-6908.057 -2613.199)" fill="#292961"/></g><g transform="translate(57.09 12.28)"><path d="M6941.319,2644.9c0,2.4,2.867,2.682,2.867,4.9,0,.674-1.029,1.108-2.548,1.388-3.487.641-9.551.462-11.645.462-1.972,0-5.669.274-8.275.165a5.189,5.189,0,0,1-2.8-.581c-1.052-1.052-2.722-2.917-2.667-4.81a5.058,5.058,0,0,1,1.156-2.27c1.333-1.811,3.422-3.984,4.039-5.2a1.349,1.349,0,0,0,.177-.568c0-1.386,4.577-3.744,9.939-3.744,2.949,0,5.708.115,7.94.25l.137.008c1.7.1,3.076.216,3.989.3,2.127.185,4.16,1.941,3.282,2.82S6941.319,2642.5,6941.319,2644.9Z" transform="translate(-6916.252 -2634.64)" fill="#13173d"/></g><g transform="translate(62.073 12.28)" opacity="0.4"><path d="M7037.136,2651.191c-3.487.641-9.552.462-11.645.462-1.972,0-5.669.274-8.276.165-.047-2.089-.855-7.912-.27-12.865a1.351,1.351,0,0,0,.177-.568c0-1.386,4.577-3.744,9.94-3.744,2.948,0,5.708.115,7.94.25l.137.008c1.905,2.968-2.808,9.356-1.979,11.76C7033.949,2648.944,7037.309,2650.262,7037.136,2651.191Z" transform="translate(-7016.734 -2634.64)" fill="#050d32"/></g><g transform="translate(19.284 56.139)"><path d="M6183.979,3526.474l-14.793.568-15.3,2,0-3.531a6.409,6.409,0,0,1,6.4-6.415l23.687-.022Z" transform="translate(-6153.882 -3519.077)" fill="#292961"/></g><g transform="translate(41.058 27.783)"><path d="M6641.617,2947.725c-3.821-1.035-11.079-.018-18.106-.018s-14.748-1.8-17.059,2.5-13.5,30.874-13.5,36.8,39.712,11.839,39.712,11.839Z" transform="translate(-6592.952 -2947.261)" fill="#13173d"/></g><g transform="translate(39.717 67.309)" opacity="0.4"><path d="M6605.821,3755.429c-4.023.918-5.783,3.011-7.523,4.6-7.438-.813-32.387-9.312-32.387-9.312s-.565-8.113,10.164-6.081c15.8,3.6,19.853,2.3,23.307,5A81.447,81.447,0,0,1,6605.821,3755.429Z" transform="translate(-6565.906 -3744.312)" fill="#070d2e"/></g><g transform="translate(19.29 30.062)" opacity="0.3"><path d="M6216.234,2997.366c-.148,4.661-13.687,23.9-13.587,27.423.072,2.554,2.022,9.464,1.65,13.977-.141,1.708-.615,3.073-1.65,3.726-3.769,2.381-17.276,7.523-18.557,9.192-.924,1.206-.507,5.736-.206,8.156a87.359,87.359,0,0,1-9.062-1.036l-20.823-5.8,8.269-14.925.907-1.638s20.359-4.633,22.75-12.681-2.717-26.346,11.068-28.975C6210.845,2992.147,6216.384,2992.7,6216.234,2997.366Z" transform="translate(-6154 -2993.211)" fill="#050d32"/></g><g transform="translate(71.154 27.581)"><path d="M7224.174,2950.048l-14.7,45.214s-9.616-1.8-9.616-7.628c0-15.3,8.8-15.19,12.205-25.1,3.751-10.934,2-18.357,3.869-19.157C7219.49,2941.848,7224.174,2950.048,7224.174,2950.048Z" transform="translate(-7199.856 -2943.184)" fill="#292961"/></g><g transform="translate(27.356 109.549)"><path d="M6316.9,4597.035c-.134.418-1.057,1.5,1.805,1.768,4.145.391,8.417.131,8.811-1.1.239-.749.711-.526-.942-1.054S6317.344,4595.65,6316.9,4597.035Z" transform="translate(-6316.654 -4596.123)" fill="#d82886"/></g><g transform="translate(20.472 88.13)"><path d="M6177.835,4164.928s11.758,11.589,12.159,14.577-4.906,6.576-2.911,7.481,6.813-3.165,6.74-4.457-.919-2.347-1.8-5.548c-1.05-3.829-3.689-12.8-3.689-12.8Z" transform="translate(-6177.835 -4164.179)" fill="#6967ac"/></g><g transform="translate(26.98 107.829)"><path d="M6314.849,4565.905a3.28,3.28,0,0,0-2.125-4.4c-1.424-.616-4.921,2.958-3.169,3.716A13.219,13.219,0,0,0,6314.849,4565.905Z" transform="translate(-6309.073 -4561.438)" fill="#d82886"/></g><g transform="translate(34.218 124.112)"><path d="M6455.166,4893.606c0,.439-.831,1.5,1.619,1.5s5.872-2.034,5.872-3.328a2.055,2.055,0,0,0-2.127-1.988C6459.05,4889.79,6455.166,4892.152,6455.166,4893.606Z" transform="translate(-6455.03 -4889.79)" fill="#d82886"/></g><g transform="translate(34.355 100.119)"><path d="M6459.4,4407.886s1.9,15.857,2.127,18.861-5.271,6.288-3.329,7.3,6.61-1.572,6.61-2.866-1.017-3.7-.185-10.125a78.682,78.682,0,0,1,3.421-15.117Z" transform="translate(-6457.778 -4405.944)" fill="#6967ac"/></g><g transform="translate(43.666 6.668)"><path d="M6653.786,2521.541s-5.685-.886-5.685,3.676c0,1.77.958,5.063.5,6.893s-2.817,2.328-3.016,4.086a3.111,3.111,0,0,0,2.878,3.787c2.361.268,11.117.483,11.6-3.737S6663.693,2522.564,6653.786,2521.541Z" transform="translate(-6645.549 -2521.471)" fill="#070d2e"/></g><g transform="translate(54.945 17.009)"><path d="M6875.38,2733.67H6873l.323-3.67h1.214Z" transform="translate(-6873 -2730)" fill="#d82886"/></g><g transform="translate(17.214 28.247)"><path d="M6145.721,2956.736c5.253,1.473,1.742,13.645-2.207,15.226s-11.649,11.255-17.032,10.367c-2.071-.342-5.147-3.805-6.6-8.821-2.629-9.055-1.886-9.87-3.345-10.11-2.372-.391-4.091-.861-4.369-1.647-.263-.746.595-1.537,4.513-1.141a3.656,3.656,0,0,1,2.629,1.438c2.44,2.274,4.359,5.8,6.683,9.494.734,1.168,1.286,2.973,1.683,3.017.173.019,1.163-1.855,2.136-2.929C6133.747,2967.282,6140.78,2955.35,6145.721,2956.736Z" transform="translate(-6112.12 -2956.625)" fill="#6967ac"/></g><g transform="translate(9.528 57.771)"><path d="M6003.055,3551.99c-5.085,0-9.15,5.316-18.677,5.316-11.79,0-27.23,7.952-27.23,13.87a16.845,16.845,0,0,0,9.2,15.256c5.872,2.82,11.973,10.679,11.973,10.679a29.866,29.866,0,0,0,5.248-2.288c1.8-1.156-3.467-17.06-8.876-20.11-4.9-1.9-3.1,4.577-3.1,4.577s9.153-8.414,17.059-8.414c3.473,0,17.2,1.109,19.509-1.665S6008.439,3551.99,6003.055,3551.99Z" transform="translate(-5957.147 -3551.99)" fill="#070d2e"/></g><g transform="translate(31.826 69.445)"><path d="M6426.593,3787.386c-10.911,0-20.11,15.3-19.787,20.11s4.252,20.711,5.085,26.444c.509,3.282,4.761,2.312,5.409.832s2.312-11.326,3.282-14.609,1.664-16.088,1.479-17.475-5.27,4.808-5.27,4.808c1.479.231,21.127-6.842,22.468-12.251S6435.516,3787.386,6426.593,3787.386Z" transform="translate(-6406.798 -3787.386)" fill="#070d2e"/></g><g transform="translate(38.358 27.429)"><path d="M6560.578,2941.575c4.519.356,15.588.855,15.395,6.056-.554,14.933-8.6,16.643-9.477,23.254-.735,5.538.693,9.061.693,13.73s-1.434,8.414-3.837,8.414,1.295-9.847-3.605-10.078c-3.926-.185-11.28,3.321-16.735,1.757-6.611-1.9-5.182-9.71-.6-10.31,3.883-.508,6.148-3.7,5.918-8.09-.334-6.325-4.092-25.665,1.433-26.167C6551.795,2939.957,6560.578,2941.575,6560.578,2941.575Z" transform="translate(-6538.508 -2940.127)" fill="#2a348b"/></g><g transform="translate(49.903 46.018)"><path d="M6771.5,3316.514c-.1-.05-.447-1.488.2-1.537s-.13,1.419,1.7,2.2-1.481.519-1.481.519Z" transform="translate(-6771.321 -3314.975)" fill="#6967ac"/></g><g transform="translate(50.306 18.475)"><path d="M6796.966,2771.076c-2.913-.046-6.935-2.82-6.519-5.547a31.66,31.66,0,0,0,.185-5.964s-7.027.924-6.427,4.669c.316,1.967,1.341,5.039,0,5.732s-6.564.832-4.114,2.08,4.12,1.392,7.813,1.572c6.657.323,10.448-1.2,10.448-1.665S6796.966,2771.076,6796.966,2771.076Z" transform="translate(-6779.447 -2759.565)" fill="#6967ac"/></g><g transform="translate(51.668 27.77)"><path d="M6809.222,2957.488a2.114,2.114,0,0,1-2.056-1c-.571-1.083-.178-3,1.167-5.7a35.147,35.147,0,0,1,2.148-3.679.248.248,0,0,1,.409.28,34.6,34.6,0,0,0-2.116,3.624c-1.58,3.17-1.508,4.6-1.17,5.242a1.644,1.644,0,0,0,1.618.738c2.863,0,5.882-2.647,8.545-4.984,2.019-1.77,3.762-3.3,5.264-3.615a.248.248,0,1,1,.1.485c-1.375.289-3.155,1.85-5.04,3.5C6815.366,2954.775,6812.272,2957.488,6809.222,2957.488Z" transform="translate(-6806.912 -2947)" fill="#050d32"/></g><g transform="translate(48.902 2.572)"><path d="M6764.189,2438.865c-5.918,0-12.853,4.716-12.991,10.494s-.21,9.976,1.757,10.263c2.218.323,19.046,1.341,19.046-12.852C6772,2439.974,6767.656,2438.865,6764.189,2438.865Z" transform="translate(-6751.137 -2438.865)" fill="#6869ad"/></g><g transform="translate(49.328 19.935)"><path d="M6760.5,2790.453a.174.174,0,0,1-.066-.334,2.292,2.292,0,0,0,.835-.644c-.579.13-1.312.216-1.353.22a.174.174,0,0,1-.041-.345,10.565,10.565,0,0,0,1.755-.339.173.173,0,0,1,.217.244,2.9,2.9,0,0,1-1.281,1.184A.169.169,0,0,1,6760.5,2790.453Z" transform="translate(-6759.725 -2789)" fill="#182378"/></g><g transform="translate(47.082 13.34)"><path d="M6716.352,2656a42.447,42.447,0,0,0-1.9,3.976c-.23.832,1.9.6,1.9.6h0a.871.871,0,0,0,.513-.907l-.464-3.67Z" transform="translate(-6714.438 -2656)" fill="#5b5897"/></g><g transform="translate(47.195)"><path d="M6740.662,2395.3c0,5.455,4.1,4.53,4.1,8.83,0,2.219-1.348,5.25-6.387,5.24-3.721-.008-3.534-1.325-3.534-1.325l1.9-.6s-.376,5.188-6.618,5.188c-5.455,0-5.409-3.883-5.409-4.808,0-3.282,1.475-3.791,1.475-5.927,0-1.479-.228-1.988-1.337-1.991s-.553,2.346-1.807,2.354c-2.352.016-1.724-4.788-3.619-4.931s-3.151-1.109-2.583-2.918c.674-2.148,2.5-2.662,4.468-3.62,2.083-1.012,2.99-3.808,6.457-3.8s6.42,2.977,8.778,2.977C6738.813,2389.977,6740.662,2391.375,6740.662,2395.3Z" transform="translate(-6716.703 -2387)" fill="#050d32"/></g><g transform="translate(54.232 12.28)"><path d="M6858.613,2637.577s.232-2.936,1.388-2.936a1.828,1.828,0,0,1,1.711,1.71c0,1.595-1,3.733-2.636,3.976" transform="translate(-6858.613 -2634.641)" fill="#686aae"/></g><g transform="translate(33.856 124.101)"><path d="M6454.649,4892.77c-.277-3.56-4.3-3.19-4.3-3.19-1.8,0-3.883,4.669-1.664,4.669A17.271,17.271,0,0,0,6454.649,4892.77Z" transform="translate(-6447.726 -4889.569)" fill="#d82886"/></g><g transform="translate(50.305 58.426)"><path d="M6809.758,3571.6l-.232,1.765-14.793.569-11.8,1.544a3.1,3.1,0,0,1-3.5-3.073v-.006a6.408,6.408,0,0,1,6.4-6.408l.288-.013,16.943-.732.839-.036A5.66,5.66,0,0,1,6809.758,3571.6Z" transform="translate(-6779.43 -3565.201)" fill="#292961"/></g><g transform="translate(56.996 58.468)" opacity="0.15"><path d="M6931.292,3566.04c-1.2,2.381-4.251,4.134-10.1,3.331a15.032,15.032,0,0,1-6.845-2.6Z" transform="translate(-6914.351 -3566.04)" fill="#050d32"/></g><g transform="translate(35.01 33.408)"><g transform="translate(1.661 5.694)"><path d="M6506.162,3177.161h-.744a.919.919,0,0,0-.917-.917v-.744A1.663,1.663,0,0,1,6506.162,3177.161Z" transform="translate(-6504.5 -3175.5)" fill="#d82886"/></g><g transform="translate(4.054 5.694)"><path d="M6554.412,3177.161h-.744a.919.919,0,0,0-.917-.917v-.744A1.664,1.664,0,0,1,6554.412,3177.161Z" transform="translate(-6552.75 -3175.5)" fill="#d82886"/></g><g transform="translate(6.447 5.694)"><path d="M6602.662,3177.161h-.744a.919.919,0,0,0-.917-.917v-.744A1.663,1.663,0,0,1,6602.662,3177.161Z" transform="translate(-6601 -3175.5)" fill="#d82886"/></g><g transform="translate(8.839 5.694)"><path d="M6650.911,3177.161h-.744a.918.918,0,0,0-.917-.917v-.744A1.663,1.663,0,0,1,6650.911,3177.161Z" transform="translate(-6649.25 -3175.5)" fill="#d82886"/></g><g transform="translate(11.232 5.694)"><path d="M6699.162,3177.161h-.744a.919.919,0,0,0-.917-.917v-.744A1.663,1.663,0,0,1,6699.162,3177.161Z" transform="translate(-6697.5 -3175.5)" fill="#d82886"/></g><g transform="translate(1.527 6.71)"><path d="M6501.8,3196h12.478l2.963,17.235-11.668-.846Z" transform="translate(-6501.799 -3196)" fill="#fff"/></g><g transform="translate(1.131 7.008)" opacity="0.25"><path d="M6493.8,3202h12.478l2.964,17.235-11.669-.846Z" transform="translate(-6493.799 -3202)" fill="#fff"/></g><g transform="translate(0.486 7.351)"><path d="M6496.241,3226.155l-11.667-.847-1.484-6.444-2.29-9.944h12.479l2.561,14.889Z" transform="translate(-6480.8 -3208.92)" fill="#47447f"/></g><g transform="translate(2.951 7.355)"><path d="M6530.5,3209" transform="translate(-6530.5 -3209)" fill="none" stroke="#182378" stroke-miterlimit="10" stroke-width="15"/></g><g transform="translate(0 5.694)"><path d="M6472.662,3178.822a1.661,1.661,0,1,1,0-3.322v.744a.917.917,0,1,0,0,1.835Z" transform="translate(-6471 -3175.5)" fill="#d82886"/></g><g transform="translate(5.343 7.355)"><path d="M6578.75,3209" transform="translate(-6578.75 -3209)" fill="none" stroke="#182378" stroke-miterlimit="10" stroke-width="15"/></g><g transform="translate(2.393 5.694)"><path d="M6520.912,3178.822a1.661,1.661,0,1,1,0-3.322v.744a.917.917,0,1,0,0,1.835Z" transform="translate(-6519.25 -3175.5)" fill="#d82886"/></g><g transform="translate(7.736 7.355)"><path d="M6627,3209" transform="translate(-6627 -3209)" fill="none" stroke="#182378" stroke-miterlimit="10" stroke-width="15"/></g><g transform="translate(4.785 5.694)"><path d="M6569.162,3178.822a1.661,1.661,0,1,1,0-3.322v.744a.917.917,0,1,0,0,1.835Z" transform="translate(-6567.5 -3175.5)" fill="#d82886"/></g><g transform="translate(10.129 7.355)"><path d="M6675.25,3209" transform="translate(-6675.25 -3209)" fill="none" stroke="#182378" stroke-miterlimit="10" stroke-width="15"/></g><g transform="translate(7.178 5.694)"><path d="M6617.411,3178.822a1.661,1.661,0,0,1,0-3.322v.744a.917.917,0,0,0,0,1.835Z" transform="translate(-6615.75 -3175.5)" fill="#d82886"/></g><g transform="translate(12.521 7.355)"><path d="M6723.5,3209" transform="translate(-6723.5 -3209)" fill="none" stroke="#182378" stroke-miterlimit="10" stroke-width="15"/></g><g transform="translate(9.571 5.694)"><path d="M6665.661,3178.822a1.661,1.661,0,0,1,0-3.322v.744a.917.917,0,0,0,0,1.835Z" transform="translate(-6664 -3175.5)" fill="#d82886"/></g><g transform="translate(10.408)"><path d="M6708.475,3060.686c-2.544,0-4.808,4.115-5.085,9.338s1.639,8.961.833,10.263c-.6.971-2.774-.772-6.843-1.479a49,49,0,0,1-11.425-4.023s-4.306-1.953-4.942-.365,1.273,2.794,4.625,3.278c4.607.665,5.574,7.929,15.164,9.246,7.95,1.092,10.725-2.543,10.725-6.056S6715.271,3060.686,6708.475,3060.686Z" transform="translate(-6680.89 -3060.686)" fill="#6967ac"/></g></g><g transform="translate(86.621 84.078)"><path d="M7511.762,4082.472" transform="translate(-7511.762 -4082.472)" fill="none" stroke="#050d32" stroke-miterlimit="10" stroke-width="30"/></g><g transform="translate(80.282 130.421)"><rect width="26.732" height="0.744" fill="#050d32"/></g><g transform="translate(51.255 37.099)"><path d="M6800.879,3138.13l-2.288-.66,1.373-2.339,1.167.336Z" transform="translate(-6798.591 -3135.13)" fill="#d82886"/></g><g transform="translate(22.315 33.671)"><path d="M6215.247,3070.66a.245.245,0,0,1-.128-.036.249.249,0,0,1-.083-.341l2.529-4.166a.248.248,0,1,1,.424.257l-2.529,4.166A.25.25,0,0,1,6215.247,3070.66Z" transform="translate(-6214.999 -3065.999)" fill="#050d32"/></g></g><g transform="translate(284.085 72.066)"><g transform="translate(23.47 42.374)"><path d="M7782,4651c3.521,0,5.107,1.849,5.107,3.329a20.229,20.229,0,0,1-.892,4.308l-.6-2.083s3.521.049,3.521,2.182.744,10.761-2.925,10.761c-1.389,0-2.629-.743-3.521-4.909a23.524,23.524,0,0,1-.347-7.687Z" transform="translate(-7782 -4651)" fill="#050d32"/></g><g transform="translate(0 21.591)"><path d="M7327.579,4232.268c-4.735-3.279-20.019,15.866-18.792,16.714,2.664,1.844,8.428-4.8,10.617-5.62C7327.363,4240.38,7330.833,4234.521,7327.579,4232.268Z" transform="translate(-7308.717 -4231.89)" fill="#15236c"/></g><g transform="translate(8.695 15.798)"><path d="M7502.042,4115.073c-.355,3.5-4.888-2.665-9.364,1.624s-9.691,11.963-8.425,16.725,6.779,11.018,8.423,12.877,7.6,3.845,9.675,1.855,5.729-5.49,1.612-9.786c-1.784-1.862-6.789-4-3.233-11.117" transform="translate(-7484.06 -4115.073)" fill="#35398e"/></g><g transform="translate(24.969 39.06)"><path d="M7823.813,4591.984a8.488,8.488,0,0,1-3.442,2.862c-.1.039-.2.076-.3.109-1.714.573-3.764.293-6.188-1.552-4.538-3.453,1.729-9.233,1.729-9.233,2.328,1.771.913,4.452,3.123,6.133.6.457,1.349-.048,2.075-.846.051-.057.1-.115.155-.174,1.17-1.357,2.25-3.36,2.511-3.162C7824.678,4587.034,7825.345,4589.971,7823.813,4591.984Z" transform="translate(-7812.236 -4584.17)" fill="#35398e"/><g transform="translate(7.63 1.937)"><path d="M7970.052,4629.1a8.486,8.486,0,0,1-3.442,2.862c-.1.04-.2.076-.3.109a1.888,1.888,0,0,1,.218-2.1,7.951,7.951,0,0,1,1.083-.57c.6-.38.492-1.039.178-1.677-.219-.447-.362-.892-.587-1.326,1.171-1.356,2.25-3.36,2.511-3.161C7970.917,4624.152,7971.583,4627.089,7970.052,4629.1Z" transform="translate(-7966.105 -4623.225)" fill="#050d32"/></g><g transform="translate(6.691 6.927)"><path d="M7948.55,4723.952c-.423-.345-1.824.431-1.248.9S7949.011,4724.328,7948.55,4723.952Z" transform="translate(-7947.165 -4723.866)" fill="#050d32"/></g></g><g transform="translate(12.684 40.812)"><path d="M7572.135,4619.5c-3.819,0-7.637,2.926-7.637,6.348s-.1,5.951,7.637,5.951,0-2.381,0-2.381a7.5,7.5,0,0,0-1.389,4.017c0,2.183-1.017,2.9-2.653,2.9s-3.447,3.447.173,3.447,4.612-.1,6.149-1.935,3.57-3.967,3.57-6.049-3.024-2.976-3.024-2.976l.595,1.438a8.267,8.267,0,0,0,2.975-6.1C7578.532,4620.343,7574.465,4619.5,7572.135,4619.5Z" transform="translate(-7564.498 -4619.5)" fill="#15236c"/></g><g transform="translate(16.503 37.082)"><path d="M7648.083,4545.135c-2.169-1.65-3.833-.626-5.452.815s-1.567,2.752.676,4.458S7651.7,4547.883,7648.083,4545.135Z" transform="translate(-7641.508 -4544.287)" fill="#050d32"/><g transform="translate(1.17 7.47)"><path d="M7667.579,4695.171c-.9-.685-1.92.262-2.214.549a1.335,1.335,0,0,0,.1,1.736C7666.035,4697.889,7668.954,4696.217,7667.579,4695.171Z" transform="translate(-7665.092 -4694.927)" fill="#050d32"/></g></g><g transform="translate(12.575)"><g transform="translate(6.013 2.004)"><path d="M7690.876,3858.679c.292-7.947,8.559-1.306,11.374-8.352a9.28,9.28,0,0,0-4.43-12.1c-5.3-2.116-6.511-1.213-7.662-.338s-2.882,5.655-3.126,9.164a24.958,24.958,0,0,1-3.481,10.374Z" transform="translate(-7683.551 -3836.924)" fill="#35398e"/></g><g transform="translate(0 2.521)"><g transform="translate(0.239 2.163)"><path d="M7567.367,3890.963l-.237,1.462,3.856,2.579.357-.462-3.409-2.616.03-.724Z" transform="translate(-7567.13 -3890.963)" fill="#050d32"/></g><path d="M7569.162,3850.409a36.005,36.005,0,0,0-5.154-3.011c-1.313-.395-2.021,1.269-1.573,2.1s4.274,2.832,4.924,3.048S7569.162,3850.409,7569.162,3850.409Z" transform="translate(-7562.3 -3847.338)" fill="#d82886"/></g><g transform="translate(8.77 9.967)"><path d="M7741.875,4012.41c2.414.91,7.966.512,8.692-2.776s-.244-2.6-.244-2.6l-1.746,1.162s3.371.919,4.4-.057c-2.652-1.114,2.225-8.242-1.505-9.733-2.97-1.187-5.351-1.443-6.5.5s-2.724,2.81-4.309,2.23c-1.179.277,1.807,3.5,1.807,3.5l.828-1.538s-3.222.582-3.83,2.1C7738.531,4007.549,7739.747,4011.606,7741.875,4012.41Z" transform="translate(-7739.148 -3997.483)" fill="#050d32"/></g><g transform="translate(5.039 7.444)"><path d="M7667.9,3947.268l.1-.654s-3.71.867-4.06,1.742,3.273,1.228,3.7,2.227,1.161.838,1.814.137-.306-3.646.791-3.849" transform="translate(-7663.915 -3946.614)" fill="#15236c"/></g><g transform="translate(4.49 5.693)"><path d="M7660.449,3917.03l-7.607-4.332.794-1.4,7.608,4.333h0a2.312,2.312,0,0,1-.757,1.362Z" transform="translate(-7652.841 -3911.302)" fill="#d82886"/></g><g transform="translate(5.366)"><g transform="translate(0 0.065)"><path d="M7676.813,3805.242c1.169-.387,3.12-3.666.956-4.531,0,0-.432.682-1.722.167s-1.456-2.771-2.146-3.047-2.514,2.147-3.1,3.621-.247,3.159.9,3.618a20.466,20.466,0,0,0,2.468.772c.838.175,1.594.423,1.594.423A2.206,2.206,0,0,1,7676.813,3805.242Z" transform="translate(-7670.515 -3797.809)" fill="#15236c"/></g><g transform="translate(0.754)"><path d="M7688.262,3796.552c.816.326,1.1.611.939,1.39-.151.734-2.575,1.534-3.416,1.2C7685.37,3798.975,7687.111,3796.092,7688.262,3796.552Z" transform="translate(-7685.723 -3796.503)" fill="#050d32"/></g></g><g transform="translate(13.675 6.042)"><path d="M7839.25,3918.371c-.632-.252-1.59.922-1.01,1.153S7839.539,3918.486,7839.25,3918.371Z" transform="translate(-7838.061 -3918.335)" fill="#050d32"/></g></g><g transform="translate(4.786 15.984)"><path d="M7421.718,4124.536c-1.67-2.28-3.966-.044-4.9-1.324s-.479-2.416-1.646-3.589-5.264-1.06-7.344.464-3.494,3.791-1.911,5.95c.967,1.32,3.728-1.625,4.848-2.446s-1.937-3.314-1.007-1.291.232,4.933,1.61,6.813,5.2,3.568,6.877,2.338S7423.888,4127.5,7421.718,4124.536Z" transform="translate(-7405.233 -4118.832)" fill="#15236c"/></g><g transform="translate(38.776 42.635)"><path d="M8092.052,4656.343c1.162.32,1.361,3.494-1.4,3.391C8091.61,4658.214,8089.879,4655.745,8092.052,4656.343Z" transform="translate(-8090.651 -4656.251)" fill="#050d32"/></g><g transform="translate(38.784 47.089)"><path d="M8091.449,4746.14c.494.25.521-.29,1,.075.553.419-.7,1.335-1.333.855S8091.006,4745.916,8091.449,4746.14Z" transform="translate(-8090.824 -4746.084)" fill="#050d32"/></g></g><g transform="translate(254.843 105.824)"><g transform="translate(6.578 11.291)"><g transform="translate(11.455 0.648)"><path d="M7082.691,4728.924l.014-10.924,4.938,0-.013,10.924h0a5.923,5.923,0,0,1-4.938,0Z" transform="translate(-7082.691 -4718)" fill="#1e204e"/></g><g transform="translate(0 10.715)"><path d="M6865.31,4921l-12.468,2.985-1.139,2,.273,1h1.718v-.372l11.613-2.9Z" transform="translate(-6851.704 -4921)" fill="#1e204e"/></g><g transform="translate(12.366 12.103)"><path d="M7103.438,4949l.759,3.087,0,.588-.96.921-1.183.014-.971-.965,0-.521.763-3.125Z" transform="translate(-7101.08 -4949)" fill="#1e204e"/></g><g transform="translate(11.477)" opacity="0.3"><path d="M7088.043,4704.934l0,7.658a37.851,37.851,0,0,1-4.9.13l0-7.792Z" transform="translate(-7083.14 -4704.93)" fill="#050d32"/></g><g transform="translate(14.068 10.715)"><path d="M7135.394,4921l12.468,2.985,1.139,2-.273,1h-1.718v-.372l-11.613-2.9Z" transform="translate(-7135.394 -4921)" fill="#1e204e"/></g></g><g transform="translate(0 3.66)"><path d="M6760.852,4556.027v.744a18.19,18.19,0,0,1-.546,3.412c-.4,1.221-12.173,4.351-15.67,4.536-.2.01-.442.01-.715,0a46.58,46.58,0,0,1-4.812-.555c-5.69-.879-18.5-3.027-19.4-3.476-1.294-.641-.52-2.343.949-4.26.888-1.159,2.624-2.157,5.647-3.328a39.356,39.356,0,0,1,5.874-1.791c4.546-.954,13.078,1.089,13.078,1.089Z" transform="translate(-6719.045 -4551.055)" fill="#13173d"/></g><g transform="translate(26.584)"><path d="M7260.41,4477.654c-.7.738-5.17,3.256-5.273,4.491-.134,1.582,1.654,1.646,3.36,1.79,1.631.137,1.892-.856,5.579-4.143C7265.378,4478.632,7261.7,4476.3,7260.41,4477.654Z" transform="translate(-7255.129 -4477.242)" fill="#15236c"/></g><g transform="translate(24.011 8.632)"><path d="M7221.035,4651.311s.6,3.768-.842,5.238-16.464,4.792-16.619,3.176c-.152-1.589-1.419-4.69,2.231-5.226,1.459-.213,6.357-.831,8.541-1.213S7217.178,4651.952,7221.035,4651.311Z" transform="translate(-7203.239 -4651.311)" fill="#292961"/></g><g transform="translate(17.613 3.373)"><g transform="translate(10.635 2.274)"><path d="M7292.278,4593.746l-.02-1.167-3.353-1.46-.213.409,3.011,1.552.079.565Z" transform="translate(-7288.692 -4591.119)" fill="#35398e"/></g><g transform="translate(6.508 2.295)"><g transform="translate(0 0)"><rect width="1.266" height="7.645" transform="matrix(0.333, -0.943, 0.943, 0.333, 0, 1.194)" fill="#050d32"/></g></g><g transform="translate(5.112 1.713)"><path d="M7177.315,4581.715s7.375,2.96,8.45,3.082,1.39-1.267.926-1.846-7.742-3.067-8.276-3.144S7177.315,4581.715,7177.315,4581.715Z" transform="translate(-7177.315 -4579.805)" fill="#2a348b"/></g><path d="M7074.647,4545.256l6.508,2.295-.421,1.194-6.508-2.295h0a1.816,1.816,0,0,1,.4-1.164Z" transform="translate(-7074.227 -4545.256)" fill="#2a348b"/></g><g transform="translate(6.266 4.481)"><g transform="translate(0.623 1.904)"><path d="M6857.968,4606l.257,1.139,3.579.749.125-.443-3.264-.909-.191-.537Z" transform="translate(-6857.968 -4606)" fill="#7470a6"/></g><g transform="translate(0.716 0.696)"><g transform="translate(0 0)"><rect width="1.266" height="7.645" transform="matrix(0.134, -0.991, 0.991, 0.134, 0, 1.255)" fill="#050d32"/></g></g><path d="M6855.212,4568.919s-7.824-1.4-8.9-1.3-1.1,1.522-.532,2,8.2,1.432,8.741,1.4S6855.212,4568.919,6855.212,4568.919Z" transform="translate(-6845.411 -4567.611)" fill="#575492"/><g transform="translate(8.292 1.722)"><path d="M7019.463,4604.519l-6.838-.925.169-1.255,6.838.926h0a1.821,1.821,0,0,1-.152,1.22Z" transform="translate(-7012.625 -4602.338)" fill="#575492"/></g></g></g><g transform="translate(0)"><g transform="translate(119.223 72.181)"><path d="M0,0H0A39.693,39.693,0,0,1,39.693,39.693V55.357a0,0,0,0,1,0,0H0a0,0,0,0,1,0,0V0A0,0,0,0,1,0,0Z" fill="#292961"/></g><g transform="translate(109.65 72.181)"><path d="M0,0H0A39.693,39.693,0,0,1,39.693,39.693V55.357a0,0,0,0,1,0,0H0a0,0,0,0,1,0,0V0A0,0,0,0,1,0,0Z" fill="#1e204e"/></g><g transform="translate(0 33.504)"><g transform="translate(9.669 47.186)"><path d="M1883.428,3984.913l-105.589-.194-2.852-14.311,104.227.193Z" transform="translate(-1774.987 -3970.409)" fill="#3c53a0"/></g><g transform="translate(11.12)"><path d="M1816.66,3074.182l105.589.194-16.354-52.517a3.7,3.7,0,0,0-3.53-2.6l-98.13-.387Z" transform="translate(-1804.235 -3018.874)" fill="#8691c3"/></g><g transform="translate(28.164 10.346)"><g transform="translate(0 0)" opacity="0.5"><ellipse cx="1.231" cy="2.173" rx="1.231" ry="2.173" transform="translate(0 1.243) rotate(-30.311)" fill="#5868ae"/></g></g><g transform="translate(52.346 10.37)"><g transform="translate(0 0)" opacity="0.5"><ellipse cx="1.231" cy="2.173" rx="1.231" ry="2.173" transform="translate(0 1.243) rotate(-30.311)" fill="#5868ae"/></g></g><g transform="translate(100.692 10.37)"><g transform="translate(0 0)" opacity="0.5"><ellipse cx="1.231" cy="2.173" rx="1.231" ry="2.173" transform="translate(0 1.243) rotate(-30.311)" fill="#5868ae"/></g></g><g transform="translate(32.66 29.829)"><g transform="translate(0 0)" opacity="0.5"><ellipse cx="1.231" cy="2.173" rx="1.231" ry="2.173" transform="translate(0 1.243) rotate(-30.311)" fill="#5868ae"/></g></g><g transform="translate(105.189 29.853)"><g transform="translate(0 0)" opacity="0.5"><ellipse cx="1.231" cy="2.173" rx="1.231" ry="2.173" transform="translate(0 1.243) rotate(-30.311)" fill="#5868ae"/></g></g><g transform="translate(116.225 35.308)"><path d="M3949.12,3747.822c-.745,1.833-2.286,3.073-3.439,3.073-4.448,0-20.115,2.1-20.115.4s-4.242-15.876.208-17.009c2.586-.659,5.442-1.6,8.122-2.334,3.748-1.02,7.152-1.617,9-.416,2.353,1.531,6.4,8.376,6.661,13.775A5.893,5.893,0,0,1,3949.12,3747.822Z" transform="translate(-3923.74 -3730.87)" fill="#d82886"/></g><g transform="translate(116.237 36.38)" opacity="0.15"><path d="M3949.317,3768.424c-.753,1.829-2.3,3.064-3.452,3.059-4.448-.017-20.123,2.016-20.116.32s-4.178-15.892.276-17.008c2.589-.648,5.448-1.583,8.131-2.3-3.248,2.025-5.138,5.146-5.286,6.791-.178,1.983,11.916,4.327,11.9,7.473C3940.762,3769.563,3945.749,3767.837,3949.317,3768.424Z" transform="translate(-3923.973 -3752.494)" fill="#050d32"/></g><g transform="translate(0 0.017)"><path d="M1604.609,3074.437l-12.173,6.239L1580,3024.807l11.118-5.591Z" transform="translate(-1580 -3019.215)" fill="#5868ae"/></g><g transform="translate(44.14 21.125)"><path d="M2473.663,3444.88c11.191,0,27.9.536,33.8,3.5s8.359,30.177.582,30.177-35.168,3.665-35.168.7S2466.164,3444.88,2473.663,3444.88Z" transform="translate(-2470.114 -3444.88)" fill="#6967ac"/></g><g transform="translate(22.288 54.486)"><g transform="translate(36.066)"><path d="M2862.329,4121.295v9.814l-53.3-.1-37.076-.068-15.218-.028v-13.3l10.3.019,35.751.068,56.055.106A3.482,3.482,0,0,1,2862.329,4121.295Z" transform="translate(-2756.74 -4117.62)" fill="#8691c3"/></g><g transform="translate(47.286 0.019)" opacity="0.15"><path d="M3024.073,4131.381l-33.685-.067c-2.278-3.449-6.266-9.487-7.389-13.3l34.832.067c5.227.917,9.01,2.1,9.451,3.6C3028.334,4125.255,3026.431,4128.811,3024.073,4131.381Z" transform="translate(-2983 -4118.01)" fill="#050d32"/></g><g transform="translate(0 0)"><path d="M13.3,0H33.214a13.3,13.3,0,0,1,13.3,13.3v0a0,0,0,0,1,0,0H0a0,0,0,0,1,0,0v0A13.3,13.3,0,0,1,13.3,0Z" fill="#5868ae"/></g></g></g><g transform="translate(5.85)"><g transform="translate(95.411 107.797)"><path d="M3622.131,4520.511c.288,1.013.517,3.438,1.808,3.641,2.81.441,6.036,1.029,8.336.746s4.116-1.006,3.976-2.136-7.687-2.648-9.56-4.753A2.631,2.631,0,0,0,3622.131,4520.511Z" transform="translate(-3621.989 -4517.02)" fill="#2e2e63"/></g><g transform="translate(94.263 123.13)"><path d="M3598.827,4829.954c.05,1.052-.282,3.465.928,3.958,2.635,1.071,5.641,2.381,7.946,2.63s4.236-.04,4.359-1.171-7.8-5.507-9.139-7.983S3598.674,4826.673,3598.827,4829.954Z" transform="translate(-3598.821 -4826.223)" fill="#2e2e63"/></g><g transform="translate(74.511 67.515)"><path d="M3247.4,3717.791c0,7.5-20.325,30.209-23.113,30.97s-5.93-1.217-5.93-1.217.121-.258.333-.718c1.758-3.818,9.714-21.583,5.6-21.583H3202.44c-4.765-8.411-.3-20.53,9.225-20.53S3247.4,3710.29,3247.4,3717.791Z" transform="translate(-3200.516 -3704.714)" fill="#050d32"/></g><g transform="translate(82.479 80.927)" opacity="0.5"><path d="M3382.821,3981.077c0,3.751-9.466,20.579-10.328,23.215-.151.461-.542.249-1.086-.413,1.758-3.819,9.714-21.583,5.6-21.583h-15.63c-.885-4.037,1.78-7.01,5.138-7.1C3376.443,3974.934,3382.821,3977.326,3382.821,3981.077Z" transform="translate(-3361.202 -3975.178)" fill="#050d32"/></g><g transform="translate(85.524 30.311)"><path d="M3447.836,2959.645c-2.128,1.369-2.838.3-4.105,1.774s-1.368,7.248-1.926,11c-.537,3.615-4.41,9.935-7.856,9.935-1.422,0-3.335-1.345-5.174-3.178-2.62-2.612-5.089-6.213-5.774-8.327-.7-2.149-.326-7.569.085-11.588.278-2.711.574-4.783.574-4.783.669,0,1.6,1.52,2.632,3.669,1.08,2.246,2.272,5.18,3.4,7.783,1.468,3.4,2.82,6.237,3.653,6.237,2.078,0,7.552-11.552,9.276-13.128,1.774-1.622,4.815-4.46,6.69-4.46S3449.965,2958.276,3447.836,2959.645Z" transform="translate(-3422.611 -2954.475)" fill="#192578"/></g><g transform="translate(85.524 33.98)" opacity="0.25"><path d="M3428.774,3049.5c-2.62-2.611-5.089-6.213-5.774-8.327-.7-2.149-.326-7.569.085-11.588a6.356,6.356,0,0,1,3.206-1.115c1.08,2.246,2.272,5.18,3.4,7.783C3429.377,3040.9,3428.71,3046.517,3428.774,3049.5Z" transform="translate(-3422.611 -3028.467)" fill="#050d32"/></g><g transform="translate(60.266 68.462)"><path d="M2954.521,3780.611c0,1.369-8.161,2.788-8.161,2.788s-1.085-2.052-2.705-4.969c-2.865-5.156-7.4-13.015-10.575-17.03-4.967-6.285-19.818-20.274-19.818-25.749a35.733,35.733,0,0,1,2.18-3.3c3.882-5.272,12.311-14.014,20.021-3.8C2945.9,3742.393,2954.521,3779.242,2954.521,3780.611Z" transform="translate(-2913.262 -3723.826)" fill="#050d32"/></g><g transform="translate(60.266 74.815)" opacity="0.25"><path d="M2943.655,3900.173c-2.865-5.155-7.4-13.015-10.575-17.03-4.967-6.285-19.818-20.274-19.818-25.749a35.694,35.694,0,0,1,2.18-3.3c8.078-1.725,17.912-1.725,20.249-2.173,0,2.787-11.379,5.423-11.379,9.984s13.989,21.846,17.183,30.969A75.023,75.023,0,0,1,2943.655,3900.173Z" transform="translate(-2913.262 -3851.921)" fill="#050d32"/></g><g transform="translate(56.819 24.634)"><path d="M2878.822,2885.618s-3.688,4.812-12.153,5.978a41.185,41.185,0,0,0-5.5,1.207c-1.337.379-2.685.811-4,1.263-.664.229-1.317.464-1.956.7-5.113,1.891-9.233,3.875-9.233,3.875a264.333,264.333,0,0,1-2.23-30.513c0-14.243,7.5-28.132,19.97-28.132,11.455,0,13.432,9.377,13.432,14.9a45.2,45.2,0,0,1-.927,8.139l-.065.376a34.117,34.117,0,0,0-.621,5.906,39.168,39.168,0,0,0,.518,6.168A49.119,49.119,0,0,0,2878.822,2885.618Z" transform="translate(-2843.758 -2839.997)" fill="#fff"/></g><g transform="translate(73.003 47.189)" opacity="0.25"><path d="M3188.988,3317.907s-3.688,4.813-12.153,5.979a41.107,41.107,0,0,0-5.5,1.207c.056-3.364,1.836-7.712.123-9.925-2.433-3.143-2.281-20.325,6.336-20.325,7.779,0,6.728,7.38,8.434,12.934A49.132,49.132,0,0,0,3188.988,3317.907Z" transform="translate(-3170.108 -3294.842)" fill="#aeb2d4"/></g><g transform="translate(62.192 47.189)"><path d="M2952.1,3295.5s11.607,17.791,15.409,20.731,14.174.529,18.653,2.382c1.47.608,1.369,1.622,3.447,1.622,3.814,0,6.235-.051,6.235-.051s2.433-.3.76-2.788a8.634,8.634,0,0,0-6.741-3.193c-1.825,0-4.916,2.534-4.916,2.534l6.336-.1-18.6-6.386.558,3.6,4.258.659-11.151-19.667Z" transform="translate(-2952.103 -3294.842)" fill="#182378"/></g><g transform="translate(58.081 32.57)"><path d="M2885.786,3000.864s7.443,14.392,4.866,16.727c-4.866,4.41-6.1,3.341-11.455,6.437-4.562,2.635-2.585,6.589-2.585,6.589a10.1,10.1,0,0,1-7.4-9.833C2869.009,3012.623,2874.788,2996.15,2885.786,3000.864Z" transform="translate(-2869.207 -3000.031)" fill="#fff"/></g><g transform="translate(70.302 13.584)"><path d="M3128.974,2632.481c-.051,1.318-3.5,4.663-8.414.71a14.336,14.336,0,0,0-4.917-2.534s4.055-2.23,4.359-4.764c.181-1.51-.3-3.7-1.135-8.718,0,0,4.905,2.435,5.793,5.76a3.794,3.794,0,0,1-.175,2.517c-.74,1.754.719,3.312,2.166,4.577C3127.828,2631.056,3129,2631.891,3128.974,2632.481Z" transform="translate(-3115.643 -2617.174)" fill="#192578"/></g><g transform="translate(76.921 19.344)" opacity="0.25"><path d="M3252.692,2741.447c-2.028,0-2.94-1.875-3.5-3.193s2.33-3.275,2.433-3.345c.311-.941-.942-1.55-.106-1.59a3.794,3.794,0,0,1-.175,2.517c-.74,1.754.718,3.312,2.166,4.577C3253.718,2740.988,3253.611,2741.447,3252.692,2741.447Z" transform="translate(-3249.123 -2733.318)" fill="#050d32"/></g><g transform="translate(68.065)"><g transform="translate(5.329 1.673)"><path d="M3196.595,2386.808a13.691,13.691,0,0,1-.215,2.189c-.052.311-.114.634-.184.965a30.9,30.9,0,0,1-1.069,3.8,24.529,24.529,0,0,1-1.515,3.489c-1.114,2.059-2.453,3.55-3.86,3.55-2.728,0-7.949-4.078-10.411-8.637a9.995,9.995,0,0,1-1.348-4.643c0-5.981,3.954-10.543,8.414-10.543a10.46,10.46,0,0,1,9.1,5.849A8.868,8.868,0,0,1,3196.595,2386.808Z" transform="translate(-3177.993 -2376.975)" fill="#192578"/></g><g transform="translate(20.372 18.447)" opacity="0.25"><path d="M3483.428,2715.242a24.5,24.5,0,0,1-1.515,3.489.967.967,0,0,1-.21-.1c-.71-.456-.2-1.824-.011-2.539A1.752,1.752,0,0,1,3483.428,2715.242Z" transform="translate(-3481.337 -2715.232)" fill="#050d32"/></g><g transform="translate(5.329 1.673)" opacity="0.25"><path d="M3196.595,2386.808a13.691,13.691,0,0,1-.215,2.189,2.986,2.986,0,0,1-1.125-.063c-2.992-.776-3.047-4.4-5.736-4.735s-1.094,8.252-3.278,7.79-2.093-5.256-3.394-5.489c-1.072-.192-2.316,3.979-3.507,5.66a9.995,9.995,0,0,1-1.348-4.643c0-5.981,3.954-10.543,8.414-10.543a10.46,10.46,0,0,1,9.1,5.849A8.868,8.868,0,0,1,3196.595,2386.808Z" transform="translate(-3177.993 -2376.975)" fill="#050d32"/></g><g transform="translate(1.968)"><path d="M3119.753,2343.245c-3.6,0-7.552,4.511-7.552,8.769s.608,7.35,0,8.161-2.737,1.166-1.723,2.281,4.765,1.825,6.032,1.115,1.217-7.1,2.534-7.2,2.433,4.562,4.663,4.46-1.47-8.009,1.217-8.363,3.649,3.143,6.741,3.143,5.829-5.373,4.663-7.045-3.751.051-4.917-.608-.456-2.889-2.23-3.7-2.806-.507-4.511-.507S3123.352,2343.245,3119.753,2343.245Z" transform="translate(-3110.208 -2343.245)" fill="#050d32"/></g><g transform="translate(0 14.735)"><path d="M3072.928,2640.614c-1-.657-3.259.167-2.058.959S3074.253,2641.487,3072.928,2640.614Z" transform="translate(-3070.528 -2640.375)" fill="#050d32"/></g><g transform="translate(8.573 13.077)"><path d="M3247.464,2610.248c0,1.214-.559,1.572-1.267,1.572-1.47,0-2.788-2.687-2.788-3.549s1.316-1.318,2.129-1.318C3246.653,2606.953,3247.464,2609.386,3247.464,2610.248Z" transform="translate(-3243.409 -2606.953)" fill="#1a2678"/></g><g transform="translate(20.44 16.118)"><path d="M3486.105,2672.994c.2.52-2.159.4-3.142.152-1.014-.253,1.368-4.866,2.18-4.866C3485.6,2668.28,3485.041,2670.257,3486.105,2672.994Z" transform="translate(-3482.716 -2668.28)" fill="#1e204e"/></g></g><g transform="translate(9.573 72.181)"><path d="M0,0H0A39.693,39.693,0,0,1,39.693,39.693V55.357a0,0,0,0,1,0,0H0a0,0,0,0,1,0,0V0A0,0,0,0,1,0,0Z" fill="#292961"/></g><g transform="translate(0 72.181)"><path d="M0,0H0A39.693,39.693,0,0,1,39.693,39.693V55.357a0,0,0,0,1,0,0H0a0,0,0,0,1,0,0V0A0,0,0,0,1,0,0Z" fill="#1e204e"/></g></g><g transform="translate(53.188 65.335)"><path d="M2662.571,3662.111c.193,3.836,1.062,6.38,3.026,8.278s3.255,2.646,4.484,6.218,3.95,6.824-2.295,6.824H2657.6s-8.968-21.158-2.949-22.329S2662.571,3662.111,2662.571,3662.111Z" transform="translate(-2652.573 -3660.756)" fill="#6869ad"/></g><g transform="translate(53.685 55.677)" opacity="0.15"><path d="M2673.391,3482.952c-.264-.186-.542-.374-.831-.565-2.748-1.824-6.454-3.912-8.406-6.381a6.625,6.625,0,0,1-1.056-1.823c-1.587-4.364.5-8.182,6-8.182a8.356,8.356,0,0,1,2.5.376c.1,4.382.365,8.823.683,12.81A12.215,12.215,0,0,0,2673.391,3482.952Z" transform="translate(-2662.582 -3466)" fill="#050d32"/></g></g><g transform="translate(2.432 42.883)"><g transform="translate(0 26.673)"><path d="M1643.619,3815.758s-.716-43.847-1.83-50.089c-1.118-6.261-12.459-20.262-12.03-19.785l-.716.708c1.266,6.01,5.167,21.167,6.3,24.341,1.479,4.151,1.431,11.165,3.732,16.806,1.077,2.64,2.335,10.9,3.369,18.935,1.175,9.133,2.06,17.983,2.06,17.983" transform="translate(-1629.043 -3745.872)" fill="#142477"/></g><g transform="translate(6.783 51.245)"><path d="M1771.292,4285.245s-5.675-13.335-5.388-16.866.477-20.707,0-22.521,1.288-4.485,1.288-4.485,3.575,30.266,4.34,34.624A28.691,28.691,0,0,1,1771.292,4285.245Z" transform="translate(-1765.821 -4241.374)" fill="#050d32"/></g><g transform="translate(10.321 22.247)"><path d="M1837.277,3700.046s.409-23.231-.021-27,1-16.413,1-16.413,5.057,23.856,3.865,29.916.191,55.108.191,55.108S1837.919,3705.433,1837.277,3700.046Z" transform="translate(-1837.176 -3656.632)" fill="#142477"/></g><g transform="translate(13.288 29.866)"><path d="M1897.3,3810.258s3.77,21.2,4.772,27.068-1.384,42.75-1.384,42.75-4.011-7.306-3.675-12.074S1897.3,3810.242,1897.3,3810.258Z" transform="translate(-1896.994 -3810.258)" fill="#121d5e"/></g><g transform="translate(14.539 2.399)"><path d="M1922.916,3256.381s.212.776.541,2.093c1.189,4.745,3.913,16.512,3.8,24.265-.143,9.9-4.294,53.035-4.294,53.035s.286-46.276-.024-48.616c-.2-1.527-.514-12.457-.419-21C1922.572,3261.6,1921.628,3258.48,1922.916,3256.381Z" transform="translate(-1922.235 -3256.381)" fill="#050d32"/></g><g transform="translate(17.219)"><path d="M1979.867,3208.014s1.376-.26,1.654,1.491c.878,5.537,1.422,18.956.588,23.415-1.1,5.868-5.832,61.25-5.832,61.25s1.36-65.186,1.592-69.206S1979.867,3208.014,1979.867,3208.014Z" transform="translate(-1976.277 -3208)" fill="#142477"/></g><g transform="translate(17.004 18.685)"><path d="M1974.6,3651.336c.051-.618,1-12.221,2.644-15.294s8.839-24.263,6.826-30.652-1.452-11.465-2.145-14.682a15.136,15.136,0,0,1-.09-5.9s-1.13-.412-1.854,3.36a123.5,123.5,0,0,0-1.569,16.753c.15,2.837-4.018,13.362-4.157,19.718s-2.317,27.624-2.317,27.624Z" transform="translate(-1971.942 -3584.8)" fill="#050d32"/></g><g transform="translate(12.586 12.539)"><path d="M1886.33,3520.754s-3.384-30.867-3.472-33.306,1.791-24.17,1.546-26.3l1.43,12.467c.473,4.128,4.273,36.821,3.023,44.9C1887.616,3526.527,1886.33,3520.754,1886.33,3520.754Z" transform="translate(-1882.856 -3460.863)" fill="#121d5e"/></g><g transform="translate(16.888 24.824)"><path d="M1969.589,3783.447c.763-.573,4.628-23.284,4.867-25.669s-1.718-32.826,14.361-49.191c.555.379.271.94-.063,1.839-2.466,6.638-5.353,16.973-6.235,19.536-1,2.911-2.767,28.055-4.914,32.54s-2,19.18-2,19.18Z" transform="translate(-1969.589 -3708.587)" fill="#142477"/></g><g transform="translate(3.145 66.759)"><path d="M1721.052,4621.556h-28.584l3.139-63.215a4.319,4.319,0,0,1,4.313-4.1h13.68a4.319,4.319,0,0,1,4.313,4.1Z" transform="translate(-1692.467 -4554.236)" fill="#050d32"/></g></g></g></g></svg>