<svg xmlns="http://www.w3.org/2000/svg" width="37.681" height="37.681" viewBox="0 0 37.681 37.681"><g transform="translate(-431 -1368.5)"><rect width="37.681" height="37.681" rx="3" transform="translate(431 1368.5)" fill="#5141af"/><g transform="translate(443.134 1378.497)"><path d="M.256,4.818H3.283V14.5H.256ZM1.748,0A1.729,1.729,0,0,1,3.5,1.748,1.729,1.729,0,0,1,1.748,3.5,1.729,1.729,0,0,1,0,1.748,1.729,1.729,0,0,1,1.748,0" transform="translate(0 0)" fill="#fff"/><path d="M12.1,10.956H15v1.322h.043A3.17,3.17,0,0,1,17.9,10.7c3.07,0,3.624,2,3.624,4.6v5.329H18.5v-4.69c0-1.109-.043-2.558-1.578-2.558-1.578,0-1.791,1.236-1.791,2.473v4.775H12.1Z" transform="translate(-6.941 -6.138)" fill="#fff"/></g></g></svg>