<svg xmlns="http://www.w3.org/2000/svg" width="22.9" height="22.9" viewBox="0 0 22.9 22.9"><path d="M20.447,25.15H2.454A2.454,2.454,0,0,1,0,22.7V4.7A2.454,2.454,0,0,1,2.454,2.25H20.447A2.454,2.454,0,0,1,22.9,4.7V22.7A2.454,2.454,0,0,1,20.447,25.15ZM9.984,20.138l9.406-9.406a.818.818,0,0,0,0-1.157L18.233,8.419a.818.818,0,0,0-1.157,0L9.406,16.09,5.824,12.508a.818.818,0,0,0-1.157,0L3.511,13.665a.818.818,0,0,0,0,1.157l5.316,5.316A.818.818,0,0,0,9.984,20.138Z" transform="translate(0 -2.25)" fill="#f434a6"/></svg>