<svg xmlns="http://www.w3.org/2000/svg" width="173.059" height="168.202" viewBox="0 0 173.059 168.202"><g transform="translate(-205 -2266.75)"><g transform="translate(17.821 922)"><path d="M303.376,244.32c-.146-.291-.146-.728-.291-1.018a.875.875,0,0,0-.146-.582c0-.146-.146-.291-.146-.436-.145-.291-.145-.437-.291-.728.146-.582.146-1.164-.582-1.455v.291c0-.146-.146-.291-.146-.437h.146c.146-.582,0-1.018-.582-1.164h0l-.146-.145a26.218,26.218,0,0,1-1.164-3.056c-.582-2.037-1.6-3.783-2.037-5.82a29.136,29.136,0,0,1-.582-3.492c-.146-2.91-.873-7.566-1.019-10.476,0-1.018.728.437,1.31.145h0a2.272,2.272,0,0,1-1.164-1.164v-2.91a17.54,17.54,0,0,1,0-2.765,2.054,2.054,0,0,0-.145-1.31c-1.6-1.455-3.929-1.746-5.966-1.892-.146.146-.146.146-.437.146H289.7a.982.982,0,0,1-.873-.582,10.853,10.853,0,0,1-1.746-1.019h0a14.681,14.681,0,0,1-2.183-1.019,9.409,9.409,0,0,0-1.892-.582c-.146,0-.146-.146-.291-.291a4,4,0,0,0-3.347.436c-.145.145-.436.145-.873.145-1.455.146-2.91.146-4.511.291h-.437a3.616,3.616,0,0,1-1.164.146,22.609,22.609,0,0,0-3.347.728,1.927,1.927,0,0,1-1.6.437h0a3.583,3.583,0,0,1-1.746-.146,8.9,8.9,0,0,1-1.746-.728,10.308,10.308,0,0,0-2.183-.145h-.291a.962.962,0,0,1-.873-.146.508.508,0,0,1-.291-.146A3.466,3.466,0,0,0,258.27,203a1.136,1.136,0,0,1-.582.582v-.291c0,.146-.146.146-.146.291v.146h.146a1.568,1.568,0,0,1-.291,1.164c-.146,0-.146.146-.291.146s-.291.146-.437.146a.534.534,0,0,1-.436-.146c-.146,0-.146-.146-.291-.146v-.728a2.477,2.477,0,0,0-1.892-1.455,2.458,2.458,0,0,1-1.455-.437c-1.164-.582-2.037-.873-2.91.291-.291.291-.582.437-.873.728a2.1,2.1,0,0,1-1.019.291c-1.164-.146-1.455-.873-1.746-1.6a4.429,4.429,0,0,0-1.164-1.164c-.146,0-.146-.146-.291-.291-.291-.145-.582-.436-.873-.582-3.492-1.746-7.712-2.328-11.495-3.347-3.2-.873-6.984-1.6-9.749-3.492a6.05,6.05,0,0,1-2.037-2.328,1.6,1.6,0,0,1-.437-1.31,10.334,10.334,0,0,1,.146-3.638h0c.146-5.675.291-11.495.582-17.169v-1.6c.873-5.384.873-5.384-4.365-5.82-9.021-.728-18.188-1.31-27.646-1.892-1.164,0-2.328-.146-3.492-.146-.146.146-.291.146-.436.291h-.146v.145c-1.019,1.31-.146,3.347-.873,4.656-.145,1.455-.145,2.765-.291,4.22-.146,1.746-.291,3.347-.291,5.093h0c-.873,3.783-.146,7.566-1.164,11.349,0,1.019-.145,1.892-.145,2.91-.582,8.294-1.019,16.587-2.183,24.881v3.2c-.291,3.638-.873,7.275-.873,10.767a2.158,2.158,0,0,1-.145,1.019,3.7,3.7,0,0,1-1.892,1.31h-.873c-12.077-1.164-24.154-2.328-36.376-3.492-2.037-.146-4.074-.146-6.257-.146h-.728c-.291,0-.437,0-.582.291l-.437.436c-.146.291,0,.582.291.873a1.684,1.684,0,0,1-.728,1.019.756.756,0,0,0,.582.291c1.019.291,1.455,1.164,2.183,2.474a18.962,18.962,0,0,0,1.455,2.183c1.455,1.455,2.765,3.2,4.074,4.656,3.056,3.638,6.257,7.421,10.331,10.185,1.455,1.019,1.892,2.619,2.474,4.365a16.972,16.972,0,0,0,1.455,3.783c0,.146,0,.146-.145.291v.146c-1.019,3.056,0,6.111,2.91,8.585a89.628,89.628,0,0,0,14.259,10.04,5.9,5.9,0,0,0,2.474.728,5.452,5.452,0,0,0,3.492-1.6c1.6-1.455,2.183-3.2,2.91-4.947.291-.728.582-1.31.873-2.037a7.094,7.094,0,0,0,.436-1.019,2.242,2.242,0,0,1,.437-1.018,4.248,4.248,0,0,1,1.31-.291c.437,0,.873-.146,1.164-.146,9.749-1.018,18.188,8.439,22.99,16.3a26.133,26.133,0,0,0,3.783,4.947,99.552,99.552,0,0,0,6.839,10.476l.728.873a3.922,3.922,0,0,0,1.019,1.164c.291.873.582,1.6.873,2.474a29.3,29.3,0,0,0,2.037,3.638,46.026,46.026,0,0,0,4.947,11.931l.145.145a3.36,3.36,0,0,0,1.746,1.746c1.892.728,3.638,1.6,5.529,2.474,2.91,1.455,5.82,3.056,9.312,3.638,2.474.291,4.365.728,5.966,2.183a2.267,2.267,0,0,0,3.783-.728c.145-.146.145-.291.291-.436,1.019-.291,1.455-.873,1.455-1.31.291-1.019-.582-1.746-1.019-2.182a15.4,15.4,0,0,1-2.037-5.82,32.991,32.991,0,0,0-.873-3.638,5.839,5.839,0,0,0,.437-2.183c.437-4.947,3.638-10.767,5.529-15.278,2.328-5.529,8.439-6.257,12.222-10.04.146,0,.146-.146.291-.146,3.929-1.31,7.857-2.619,10.767-5.675a18.477,18.477,0,0,1,1.746-1.455c2.328-1.892,5.384-4.365,3.638-9.021v-.291a2.172,2.172,0,0,1,1.018-.436.508.508,0,0,0,.291-.146c.291,2.619,2.182,2.765,2.764,2.765a6.879,6.879,0,0,0,2.765-.873,21.053,21.053,0,0,1,6.257-2.037c.146,0,.291-.146.437-.146a3.616,3.616,0,0,0,.146-1.164,29.365,29.365,0,0,0,2.037-4.365c.728-2.183.437-4.8.582-7.13,0-1.746,1.019-3.2,1.31-4.8A6.318,6.318,0,0,0,303.376,244.32Z" transform="translate(56.079 1185.55)" fill="#a1a7d1"/><circle cx="6.5" cy="6.5" r="6.5" transform="translate(283 1426)" fill="#f434a6"/></g></g></svg>