<svg xmlns="http://www.w3.org/2000/svg" width="151.107" height="83.469" viewBox="0 0 151.107 83.469"><g transform="translate(-614 -2314.619)"><g transform="translate(6.172 921)"><path d="M326.867,151.7c0-.72-.24-1.439-.24-2.159h0c-.24-.72-.48-1.2-.72-1.919h-.24c-2.4-4.077-7.435-6.716-6.956-12.472v-.48a.235.235,0,0,1,.24-.24h0a4.5,4.5,0,0,0-.959-3.838c-1.2-2.4-3.838-3.838-6.236-5.517a1.07,1.07,0,0,0-1.2,0v-.24c-.959.72-2.4.72-4.317.72-40.055-1.2-79.871-2.638-119.926-3.838a4.167,4.167,0,0,1-2.878-.72h-.24a4.232,4.232,0,0,0-2.159,1.919c-1.2,17.989-2.159,35.738-3.118,53.727,0,.72-.48,1.679-.24,2.638a29.028,29.028,0,0,1-.24,4.557,19.051,19.051,0,0,0-.24,5.277c-.24,2.638-.48,5.277-.48,7.915a3.858,3.858,0,0,1-.72,2.638,3.2,3.2,0,0,0,.72,1.2l.24.24c7.675.24,15.111.48,22.786.72a16.194,16.194,0,0,0,3.358.48h6c1.679,0,3.6-.24,5.277-.24,36.458.72,72.915,1.439,109.373,1.919a4.79,4.79,0,0,1,2.159.48V202.79c.72-.48,1.2-1.2,1.2-2.878C326.627,183.841,326.627,167.771,326.867,151.7Z" transform="translate(431.828 1272.619)" fill="#a1a7d1"/><circle cx="6.5" cy="6.5" r="6.5" transform="translate(742 1419)" fill="#f434a6"/></g></g></svg>