<svg xmlns="http://www.w3.org/2000/svg" xmlns:xlink="http://www.w3.org/1999/xlink" width="992" height="434.732" viewBox="0 0 992 434.732">
  <defs>
    <clipPath id="clip-path">
      <rect id="Rectangle_911" data-name="Rectangle 911" width="248.521" height="197.647" fill="#312e6f"/>
    </clipPath>
    <clipPath id="clip-path-2">
      <rect id="Rectangle_1211" data-name="Rectangle 1211" width="144.679" height="285.175" transform="translate(330.656 160.661)" fill="#322f71"/>
    </clipPath>
    <linearGradient id="linear-gradient" x1="0.5" y1="0.401" x2="0.5" y2="1" gradientUnits="objectBoundingBox">
      <stop offset="0" stop-color="#0c164d"/>
      <stop offset="1" stop-color="#0c164d" stop-opacity="0"/>
    </linearGradient>
    <linearGradient id="linear-gradient-2" x1="0.5" x2="0.5" y2="1" gradientUnits="objectBoundingBox">
      <stop offset="0" stop-color="#070742"/>
      <stop offset="1" stop-color="#070742" stop-opacity="0"/>
    </linearGradient>
  </defs>
  <g id="Group_6062" data-name="Group 6062" transform="translate(0 -155.268)">
    <g id="Group_6061" data-name="Group 6061">
      <rect id="Rectangle_892" data-name="Rectangle 892" width="248.521" height="208.647" transform="translate(824.3 365.915) rotate(-180)" fill="none"/>
      <g id="Group_2836" data-name="Group 2836" transform="translate(173.822 199.387)">
        <rect id="Rectangle_893" data-name="Rectangle 893" width="98.083" height="246.16" fill="#18184d"/>
        <rect id="Rectangle_894" data-name="Rectangle 894" width="84.387" height="51.735" transform="translate(6.406 5.702)" fill="#070742"/>
        <rect id="Rectangle_895" data-name="Rectangle 895" width="84.387" height="51.735" transform="translate(6.406 64.707)" fill="#070742"/>
        <rect id="Rectangle_896" data-name="Rectangle 896" width="84.387" height="51.735" transform="translate(6.406 123.712)" fill="#070742"/>
        <rect id="Rectangle_897" data-name="Rectangle 897" width="84.387" height="51.735" transform="translate(6.406 182.717)" fill="#070742"/>
        <g id="Group_2829" data-name="Group 2829" transform="translate(32.142 20.579)">
          <rect id="Rectangle_898" data-name="Rectangle 898" width="32.915" height="15.353" fill="none" stroke="#1a1a4e" stroke-miterlimit="10" stroke-width="3"/>
          <g id="Group_2828" data-name="Group 2828" transform="translate(0.758 23.45)">
            <rect id="Rectangle_899" data-name="Rectangle 899" width="23.447" height="3.866" transform="translate(7.953)" fill="#1a1a4e"/>
            <rect id="Rectangle_900" data-name="Rectangle 900" width="3.896" height="3.866" fill="#1a1a4e"/>
          </g>
        </g>
        <g id="Group_2831" data-name="Group 2831" transform="translate(32.142 79.341)">
          <rect id="Rectangle_901" data-name="Rectangle 901" width="32.915" height="15.353" fill="none" stroke="#1a1a4e" stroke-miterlimit="10" stroke-width="3"/>
          <g id="Group_2830" data-name="Group 2830" transform="translate(0.758 23.45)">
            <rect id="Rectangle_902" data-name="Rectangle 902" width="23.447" height="3.866" transform="translate(7.953)" fill="#1a1a4e"/>
            <rect id="Rectangle_903" data-name="Rectangle 903" width="3.896" height="3.866" fill="#1a1a4e"/>
          </g>
        </g>
        <g id="Group_2833" data-name="Group 2833" transform="translate(32.142 138.102)">
          <rect id="Rectangle_904" data-name="Rectangle 904" width="32.915" height="15.353" fill="none" stroke="#1a1a4e" stroke-miterlimit="10" stroke-width="3"/>
          <g id="Group_2832" data-name="Group 2832" transform="translate(0.758 23.45)">
            <rect id="Rectangle_905" data-name="Rectangle 905" width="23.447" height="3.866" transform="translate(7.953)" fill="#1a1a4e"/>
            <rect id="Rectangle_906" data-name="Rectangle 906" width="3.896" height="3.866" fill="#1a1a4e"/>
          </g>
        </g>
        <g id="Group_2835" data-name="Group 2835" transform="translate(32.142 196.864)">
          <rect id="Rectangle_907" data-name="Rectangle 907" width="32.915" height="15.353" fill="none" stroke="#1a1a4e" stroke-miterlimit="10" stroke-width="3"/>
          <g id="Group_2834" data-name="Group 2834" transform="translate(0.758 23.45)">
            <rect id="Rectangle_908" data-name="Rectangle 908" width="23.447" height="3.866" transform="translate(7.953)" fill="#1a1a4e"/>
            <rect id="Rectangle_909" data-name="Rectangle 909" width="3.896" height="3.866" fill="#1a1a4e"/>
          </g>
        </g>
      </g>
      <g id="Group_2848" data-name="Group 2848" transform="translate(616.111 157.268)">
        <g id="Group_2847" data-name="Group 2847" transform="translate(0 0)">
          <g id="Group_2846" data-name="Group 2846" clip-path="url(#clip-path)">
            <g id="Group_2845" data-name="Group 2845" transform="translate(-8.615 -28.166)">
              <rect id="Rectangle_910" data-name="Rectangle 910" width="281.657" height="223.559" transform="translate(0 21.318)" fill="#242457"/>
              <path id="Path_1645" data-name="Path 1645" d="M1242.318,513.137c5.412-19.437,26.73-32.078,51.692-27.654s26.178,14.854,59.314,17.066,60.2-12.8,85.823-14.7,76.324,21.965,76.324,21.965l4.308,29.077-271.275.158Z" transform="translate(-1235.87 -290.042)" fill="#070742" stroke="rgba(0,0,0,0)" stroke-width="1"/>
              <g id="Group_2838" data-name="Group 2838" transform="translate(105.186 11.593)">
                <g id="Group_2837" data-name="Group 2837">
                  <path id="Path_1646" data-name="Path 1646" d="M1464.83,115.613l5.14,8.907,5.14,8.907-10.283,0-10.283,0,5.144-8.9Z" transform="translate(-1448.048 -115.613)" fill="#070742" stroke="rgba(0,0,0,0)" stroke-width="1"/>
                  <path id="Path_1647" data-name="Path 1647" d="M1458.774,131.982l8.114,13.282L1475,158.545l-16.234,0-16.234,0,8.12-13.278Z" transform="translate(-1441.994 -123.865)" fill="#070742" stroke="rgba(0,0,0,0)" stroke-width="1"/>
                  <path id="Path_1648" data-name="Path 1648" d="M1458.484,153.714,1467,167.65l8.513,13.935-17.033,0-17.033,0,8.52-13.931Z" transform="translate(-1441.444 -134.821)" fill="#070742" stroke="rgba(0,0,0,0)" stroke-width="1"/>
                </g>
                <path id="Path_1649" data-name="Path 1649" d="M1475.723,212.976h0a6.512,6.512,0,0,1-4.894.788l-3.361-.79,0-14.007,8.254,0Z" transform="translate(-1454.564 -157.635)" fill="#070742" stroke="rgba(0,0,0,0)" stroke-width="1"/>
              </g>
              <g id="Group_2840" data-name="Group 2840" transform="translate(212.027 27.724)">
                <g id="Group_2839" data-name="Group 2839">
                  <path id="Path_1650" data-name="Path 1650" d="M1688.287,148.145l6.751,11.693,6.751,11.693h-27l6.751-11.693Z" transform="translate(-1665.923 -148.145)" fill="#070742" stroke="rgba(0,0,0,0)" stroke-width="1"/>
                  <path id="Path_1651" data-name="Path 1651" d="M1680.343,169.636,1691,187.072l10.657,17.436h-42.629l10.657-17.436Z" transform="translate(-1657.979 -158.98)" fill="#070742" stroke="rgba(0,0,0,0)" stroke-width="1"/>
                  <path id="Path_1652" data-name="Path 1652" d="M1679.277,197.575l11.182,18.294,11.182,18.294h-44.728l11.182-18.294Z" transform="translate(-1656.913 -173.065)" fill="#070742" stroke="rgba(0,0,0,0)" stroke-width="1"/>
                </g>
                <path id="Path_1653" data-name="Path 1653" d="M1701.922,278.869h0a8.692,8.692,0,0,1-6.531,1.053l-4.486-1.053V264.641h11.017Z" transform="translate(-1674.05 -206.876)" fill="#070742" stroke="rgba(0,0,0,0)" stroke-width="1"/>
              </g>
              <g id="Group_2842" data-name="Group 2842" transform="translate(132.123 9.545)">
                <g id="Group_2841" data-name="Group 2841">
                  <path id="Path_1654" data-name="Path 1654" d="M1550.183,111.483l11.708,20.28,11.708,20.28h-46.834l11.708-20.28Z" transform="translate(-1511.396 -111.483)" fill="#070742" stroke="rgba(0,0,0,0)" stroke-width="1"/>
                  <path id="Path_1655" data-name="Path 1655" d="M1536.406,148.757,1554.89,179l18.484,30.24h-73.935L1517.922,179Z" transform="translate(-1497.619 -130.274)" fill="#070742" stroke="rgba(0,0,0,0)" stroke-width="1"/>
                  <path id="Path_1656" data-name="Path 1656" d="M1534.556,197.213l19.394,31.729,19.394,31.729h-77.575l19.394-31.729Z" transform="translate(-1495.768 -154.703)" fill="#070742" stroke="rgba(0,0,0,0)" stroke-width="1"/>
                </g>
                <path id="Path_1657" data-name="Path 1657" d="M1573.831,338.2h0a15.077,15.077,0,0,1-11.327,1.826l-7.78-1.826V313.528h19.106Z" transform="translate(-1525.491 -213.342)" fill="#070742" stroke="rgba(0,0,0,0)" stroke-width="1"/>
              </g>
              <g id="Group_2844" data-name="Group 2844" transform="translate(42.536)">
                <g id="Group_2843" data-name="Group 2843">
                  <path id="Path_1658" data-name="Path 1658" d="M1362.086,92.234l10.111,18.789,10.111,18.789h-40.443l10.111-18.789Z" transform="translate(-1328.591 -92.234)" fill="#070742" stroke="rgba(0,0,0,0)" stroke-width="1"/>
                  <path id="Path_1659" data-name="Path 1659" d="M1350.189,126.768l15.962,28.017,15.961,28.017h-63.846l15.961-28.017Z" transform="translate(-1316.695 -109.644)" fill="#070742" stroke="rgba(0,0,0,0)" stroke-width="1"/>
                  <path id="Path_1660" data-name="Path 1660" d="M1348.591,171.662l16.748,29.4,16.747,29.4H1315.1l16.748-29.4Z" transform="translate(-1315.096 -132.277)" fill="#070742" stroke="rgba(0,0,0,0)" stroke-width="1"/>
                </g>
                <path id="Path_1661" data-name="Path 1661" d="M1382.507,302.288h0a12.27,12.27,0,0,1-9.781,1.692l-6.718-1.692V279.426h16.5Z" transform="translate(-1340.763 -186.605)" fill="#070742" stroke="rgba(0,0,0,0)" stroke-width="1"/>
              </g>
            </g>
          </g>
        </g>
        <rect id="Rectangle_912" data-name="Rectangle 912" width="248.521" height="195.647" transform="translate(0 0)" fill="none" stroke="#18184d" stroke-miterlimit="10" stroke-width="4"/>
      </g>
      <path id="Path_1673" data-name="Path 1673" d="M1394.669,494.531" transform="translate(-678.078 -175.548)" fill="#fff"/>
      <path id="Path_1674" data-name="Path 1674" d="M1436.786,566.981v7.511l-93.665-.884L1246.253,564Z" transform="translate(-611.263 -214.155)" fill="#050d32" opacity="0.02"/>
      <rect id="Rectangle_915" data-name="Rectangle 915" width="37.996" height="42.746" transform="translate(552.658 202.233)" fill="none" stroke="#18184d" stroke-miterlimit="10" stroke-width="5"/>
      <rect id="Rectangle_916" data-name="Rectangle 916" width="20.655" height="25.294" transform="translate(522.212 236.387)" fill="#18184d"/>
      <g id="Group_2855" data-name="Group 2855" transform="translate(498.437 178.393)">
        <rect id="Rectangle_917" data-name="Rectangle 917" width="39.569" height="51.317" fill="#242457"/>
        <ellipse id="Ellipse_176" data-name="Ellipse 176" cx="11.445" cy="11.445" rx="11.445" ry="11.445" transform="translate(8.34 5.774)" fill="#070742"/>
        <ellipse id="Ellipse_177" data-name="Ellipse 177" cx="9.095" cy="9.095" rx="9.095" ry="9.095" transform="translate(10.689 8.123)" fill="#242457"/>
        <rect id="Rectangle_918" data-name="Rectangle 918" width="29.992" height="13.602" transform="translate(4.789 32.768)" fill="#070742"/>
        <text id="_1" data-name="#1" transform="translate(18.861 19.288)" fill="#090e32" font-size="7" font-family="FilsonProBold, Filson Pro"><tspan x="-4.123" y="0">#1</tspan></text>
        <text id="CMHC" transform="translate(15.269 40.439)" fill="#242457" font-size="5" font-family="FilsonProBold, Filson Pro"><tspan x="-7.67" y="0">CMHC</tspan></text>
      </g>
      <g id="Mask_Group_16" data-name="Mask Group 16" clip-path="url(#clip-path-2)">
        <rect id="Rectangle_888" data-name="Rectangle 888" width="186.679" height="272.175" transform="translate(309.656 160.661)" fill="#322f71"/>
        <rect id="Rectangle_1210" data-name="Rectangle 1210" width="195.688" height="23.819" transform="translate(311.205 424.553)" fill="#454189"/>
        <g id="Group_6060" data-name="Group 6060" transform="translate(340.428 254.249)">
          <g id="Group_2865" data-name="Group 2865" transform="translate(0 4.16)">
            <path id="Path_1675" data-name="Path 1675" d="M640.956,350.518a9.721,9.721,0,0,1,3.6-.66c1.666.256,6.152-.8,7.229-1.152a28.266,28.266,0,0,0,3.921-1.914l3.886,3.243s-14.806,6.262-18.458,6.183c-1.264-.027,3.859-1.7,3.613-1.975s-5.511,2.534-5.873,1.67,5.438-1.938,5.516-2.527-6.065,2.358-6.72,1.615,6.554-2.439,6.554-2.439-.23-.442-2.279-.095-3.949.782-3.881.269,5.643-1.02,5.748-1.8C643.813,350.932,641.046,351.124,640.956,350.518Z" transform="translate(-594.134 -284.225)" fill="#070742" stroke="rgba(0,0,0,0)" stroke-width="1"/>
            <path id="Path_1676" data-name="Path 1676" d="M700.61,295.355V278.493s-17.164,27.329-18.7,29.172c-1.977,2.374-8.926,2.622-16.357,8,.752,1.588,1.593,3.621,3.263,4.366,5.386-1.734,19.681-5.791,20.5-6.815Z" transform="translate(-607.379 -251.829)" fill="#070742" stroke="rgba(0,0,0,0)" stroke-width="1"/>
            <g id="Group_2857" data-name="Group 2857" transform="translate(75.703 1.356)">
              <path id="Path_1677" data-name="Path 1677" d="M736.769,466.344c-6.453,0-7.272-7.009-7.272-7.009l5.588-34.71,2.755-42.913,1.573-10.848-26.495,2.17-4.3,10.835L702.5,423.833l9.969,34.71s-.818,7.009-7.272,7.009-6.3,2.158-6.3,2.158h18.888s-1.1-7.768-1.1-8.488-1.18-38.195-1.18-38.195l7.162-34.166,2.8,35.862s-.19,36.571-.19,37.29-1.1,8.488-1.1,8.488h18.889S743.223,466.344,736.769,466.344Z" transform="translate(-698.899 -297)" fill="#070742" stroke="rgba(0,0,0,0)" stroke-width="1"/>
              <path id="Path_1678" data-name="Path 1678" d="M746.557,277.017c-3.609-4.189-17.9-7.889-24.616-1.048-5.837,5.946-7.1,23.248-7.482,38.318a153.337,153.337,0,0,1-2.888,25.356l34.307.408.679-39.15S750.166,281.2,746.557,277.017Z" transform="translate(-704.91 -250.189)" fill="#070742" stroke="rgba(0,0,0,0)" stroke-width="1"/>
              <path id="Path_1679" data-name="Path 1679" d="M740.416,258.174a61.239,61.239,0,0,1-.82,9.334,2.5,2.5,0,0,0,1.677,2.914,7.6,7.6,0,0,0,3.736.284,4.7,4.7,0,0,0,4.182-4.323l-1.364-11.277Z" transform="translate(-718.174 -242.092)" fill="#070742" stroke="rgba(0,0,0,0)" stroke-width="1"/>
              <path id="Path_1680" data-name="Path 1680" d="M748.421,255.106l-7.412,3.068s-.034,2.282-.223,4.781c1.934.077,4.364-.814,6.943-3.506q.575-.6,1.074-1.189Z" transform="translate(-718.767 -242.092)" fill="#070742" stroke="rgba(0,0,0,0)" stroke-width="1"/>
              <path id="Path_1681" data-name="Path 1681" d="M748.028,234.462c-.891-2.068-8.982-4.951-11.038-3.885a11.021,11.021,0,0,0-3.634,4.7c-1.1,2.945-2.057,5.076-2.057,5.076l1.165.626s-.184.813-.323,1.839a12.475,12.475,0,0,0,4.483-.172,8.393,8.393,0,0,1-4.589,1.1,5.809,5.809,0,0,0,.223,2.748c1.1,2.13,5.725,3.854,10.971-.94S748.919,236.53,748.028,234.462Z" transform="translate(-714.268 -230.348)" fill="#070742" stroke="rgba(0,0,0,0)" stroke-width="1"/>
              <path id="Path_1682" data-name="Path 1682" d="M754.156,247.444s.334-2.162,1.08-2.162,1.44.236,1.26,1.457-.952,2.585-1.928,2.021S754.156,247.444,754.156,247.444Z" transform="translate(-725.032 -237.432)" fill="#070742" stroke="rgba(0,0,0,0)" stroke-width="1"/>
              <path id="Path_1683" data-name="Path 1683" d="M739.953,242.428c0,.532-.257.964-.574.964s-.575-.432-.575-.964.258-.963.575-.963S739.953,241.9,739.953,242.428Z" transform="translate(-717.828 -235.621)" fill="#070742" stroke="rgba(0,0,0,0)" stroke-width="1"/>
              <g id="Group_2856" data-name="Group 2856" transform="translate(20.943 4.467)">
                <path id="Path_1684" data-name="Path 1684" d="M741.35,239.632a4.677,4.677,0,0,0-2.542-.367l-.068-.371a5.033,5.033,0,0,1,2.823.416Z" transform="translate(-738.74 -238.847)" fill="#070742" stroke="rgba(0,0,0,0)" stroke-width="1"/>
              </g>
              <path id="Path_1685" data-name="Path 1685" d="M754.977,247.159s.435-.733.824-.629.477,1.576-.215,2.2S754.314,248.331,754.977,247.159Z" transform="translate(-725.361 -238.019)" fill="#070742" stroke="rgba(0,0,0,0)" stroke-width="1"/>
            </g>
            <path id="Path_1686" data-name="Path 1686" d="M555.041,319.371c-.006-.005-.012-.012-.018-.017C555.188,319.343,555.176,319.351,555.041,319.371Z" transform="translate(-554.95 -271.209)" fill="#070742" stroke="rgba(0,0,0,0)" stroke-width="1"/>
            <path id="Path_1687" data-name="Path 1687" d="M766.127,276.316s-5.044,2.452-5.044,9.614,30.9,35.58,30.9,35.58V309.875S775.672,280.16,766.127,276.316Z" transform="translate(-652.693 -250.796)" fill="#070742" stroke="rgba(0,0,0,0)" stroke-width="1"/>
            <g id="Group_2858" data-name="Group 2858" transform="translate(103.54 0.319)">
              <path id="Path_1688" data-name="Path 1688" d="M762.3,489.342a11,11,0,0,1,3.954-1.89c2.593-.722,6.15-1.091,6.306-2.562,1.4-13.14-5.288-45.317-5.288-45.317l5.769-25.856,11.9,8.182-7.571,19.474s4.867,6.872,3.786,11.618-4.743,32.364-4.743,32.364,1.873,2.423.767,3.574Z" transform="translate(-756.811 -316.29)" fill="#070742" stroke="rgba(0,0,0,0)" stroke-width="1"/>
              <path id="Path_1689" data-name="Path 1689" d="M766.257,552.529c.554-.154,1.151-.293,1.749-.428,1.657.268,2.937.531,2.937.531a20.664,20.664,0,0,1,5.8-1.719c.481.765,1.238,2.262.439,3.094l-14.877.412A11.006,11.006,0,0,1,766.257,552.529Z" transform="translate(-756.811 -381.367)" fill="#070742" stroke="rgba(0,0,0,0)" stroke-width="1"/>
              <path id="Path_1690" data-name="Path 1690" d="M774.347,491.7a10.991,10.991,0,0,1,3.953-1.89c2.594-.722,6.15-1.091,6.306-2.562,1.4-13.14-5.288-45.317-5.288-45.317l5.769-25.855,11.9,8.182-7.571,19.474s4.867,6.873,3.785,11.618-4.744,32.364-4.744,32.364,1.874,2.424.767,3.573Z" transform="translate(-762.524 -317.41)" fill="#070742" stroke="rgba(0,0,0,0)" stroke-width="1"/>
              <path id="Path_1691" data-name="Path 1691" d="M778.3,554.889c.554-.155,1.151-.292,1.749-.428,1.657.268,2.938.531,2.938.531a20.619,20.619,0,0,1,5.8-1.719c.482.766,1.239,2.262.439,3.093l-14.876.413A10.99,10.99,0,0,1,778.3,554.889Z" transform="translate(-762.524 -382.487)" fill="#070742" stroke="rgba(0,0,0,0)" stroke-width="1"/>
              <path id="Path_1692" data-name="Path 1692" d="M782.416,281.07s6.022,2.626,4.58,13.59-1.367,22.961.266,26.459c6.965,14.92.541,78.122.541,78.122-8.932.845-35.947.581-35.947.581s7.341-105.595,16.455-113.278C776.242,279.858,782.416,281.07,782.416,281.07Z" transform="translate(-751.856 -253.329)" fill="#070742" stroke="rgba(0,0,0,0)" stroke-width="1"/>
              <path id="Path_1693" data-name="Path 1693" d="M795.263,271.342c1.223-4.326.2-12,.2-12l6.292-1.864s1.808,12.83,1.556,12.83C801.2,273.153,794.97,273.459,795.263,271.342Z" transform="translate(-772.441 -242.182)" fill="#070742" stroke="rgba(0,0,0,0)" stroke-width="1"/>
              <path id="Path_1694" data-name="Path 1694" d="M801.945,257.482l-6.292,1.864s.256,1.923.359,4.387a12.548,12.548,0,0,0,4.85-2.233c.581-.442,1.068-.831,1.473-1.194C802.111,258.662,801.945,257.482,801.945,257.482Z" transform="translate(-772.631 -242.182)" fill="#070742" stroke="rgba(0,0,0,0)" stroke-width="1"/>
              <path id="Path_1695" data-name="Path 1695" d="M785.379,237.638s-3.388.974-3.712,3.189.3,3.323.149,4.393-.008,3.064,1.5,6.134,6.642,1.332,9.584-.868c3.311-2.477,3.619-3.233,3.61-7.23S790.8,235.957,785.379,237.638Z" transform="translate(-765.952 -232.556)" fill="#070742" stroke="rgba(0,0,0,0)" stroke-width="1"/>
              <path id="Path_1696" data-name="Path 1696" d="M804.727,248.534c-.452,0-2.43,1.112-1.944,2.308s.989,1.289,2.259.753S805.869,248.534,804.727,248.534Z" transform="translate(-775.976 -237.937)" fill="#070742" stroke="rgba(0,0,0,0)" stroke-width="1"/>
              <path id="Path_1697" data-name="Path 1697" d="M803.8,250.907s.987-1,1.452-.488a1.027,1.027,0,0,1-.4,1.636C804.167,252.323,803.134,251.5,803.8,250.907Z" transform="translate(-776.393 -238.763)" fill="#070742" stroke="rgba(0,0,0,0)" stroke-width="1"/>
              <path id="Path_1698" data-name="Path 1698" d="M769.464,318.179c-1.636,7.555-3.158,17.427-4.524,28.013a12.692,12.692,0,0,0,1.327,2.058c5.209,6.42,22.589,3.711,28.792-4.262a24.128,24.128,0,0,0-1.591-5.226c-.694-1.487-1.106-4.508-1.241-8.333C786.875,325.141,777.875,320.217,769.464,318.179Z" transform="translate(-758.062 -270.973)" fill="#070742" stroke="rgba(0,0,0,0)" stroke-width="1" opacity="0.73"/>
              <path id="Path_1699" data-name="Path 1699" d="M781.579,236.847c-3.144,0-6.819-.62-6.819-2.377s1.653-4.051,6.819-4.051c5.062,0,5.583,5.328,5.583,5.328H782s2.844-7.372,8.87-7.372c4.133,0,8.167,3.592,8.167,9.341s-4.649,10.6-4.649,10.6v-3.6s6.978,2.832,6.978,7.452a8.172,8.172,0,0,1-3.362,6.747l-.1-2.84s2.9,2.367,3.465,7.636-2.432,5.725-2.432,5.725" transform="translate(-762.72 -228.375)" fill="#070742" stroke="rgba(0,0,0,0)" stroke-width="1"/>
            </g>
            <path id="Path_1700" data-name="Path 1700" d="M812.9,322.25c.086-.147.165-.291.235-.431,2.438-4.91,3.96-30.66-5.605-29.689,0,0-5.028,2.113-2.928,7.308,1.931,4.778,3.2,14.192,3.011,18.072A30.42,30.42,0,0,1,812.9,322.25Z" transform="translate(-673.09 -258.285)" fill="#070742" stroke="rgba(0,0,0,0)" stroke-width="1"/>
            <path id="Path_1701" data-name="Path 1701" d="M773.607,304.092a61.916,61.916,0,0,0-6.293-5.869c-3.256-2.894-7.863-5.884-8.74-10.034a5.177,5.177,0,0,0-3.031-3.427,8.422,8.422,0,0,0-2.422-.71,5.69,5.69,0,0,0-1.285-.083c-.347.036-.819.325-1.143.268-.356-.063-1.123-.856-1.331-1.112a6.475,6.475,0,0,0-9.477-.153c-5.059-.574-8.412,4.212-5.548,7.662a8.289,8.289,0,0,0-.409.833,4.272,4.272,0,0,0-.637,2.233,5.1,5.1,0,0,0,4.166,4.7c-.917,2.71,1.062,5.5,4.282,6.122a13.19,13.19,0,0,0,3.062,4.813c3.227,3.1,5.86,2.964,10.008,5.121,5.768,3,14.195,5.019,18.754,2.521S777.822,308.79,773.607,304.092Z" transform="translate(-639.507 -253.011)" fill="#070742" stroke="rgba(0,0,0,0)" stroke-width="1"/>
            <path id="Path_1702" data-name="Path 1702" d="M756.647,287.713a3.525,3.525,0,0,0-2.068-1.048c-1.827-.236-2.708.494-3.169.429-.681-.1-2.344-4.133-6.428-3.748a4.972,4.972,0,0,0-3.388,1.971c-.023,0-1.751-.1-1.775-.1a5,5,0,0,0-2.115.575,3.548,3.548,0,0,0-1.93,3.574c.21,1.143,1.207,1.633,1.078,2.471-.367.877-1.583,2.018-.912,3.947a3.982,3.982,0,0,0,2.178,2.315,10.81,10.81,0,0,0,2.2.643,3.875,3.875,0,0,0-.29,3.187,4.783,4.783,0,0,0,3.244,2.486c3.456.972,8.57-1.041,11.56-2.755a29.649,29.649,0,0,1-7.49,2.155,12.126,12.126,0,0,1-1.917.089c-2.31-.091-3.878-1.257-4.214-2.29a2.321,2.321,0,0,1-.006-1.5l.269-.627a8.014,8.014,0,0,0,.326-.875c.321-1.3-2.2-.793-3.593-2.01a2.393,2.393,0,0,1-.526-3.149,4.241,4.241,0,0,0,.768-1.575c.16-1.314-.958-1.909-1.118-2.724a2.3,2.3,0,0,1,1.217-2.274,5.2,5.2,0,0,1,2.935-.33,3.617,3.617,0,0,0,.557,0s.063-.008.1-.015a.79.79,0,0,0,.459-.28,5.844,5.844,0,0,1,1.135-1.2,3.754,3.754,0,0,1,4.568.344c2.174,1.672,1.992,3.084,4.211,2.178a3.653,3.653,0,0,1,3.424.147,5.025,5.025,0,0,1,1.585,2.019c.265.514.491,1.048.755,1.567A9.1,9.1,0,0,0,756.647,287.713Zm-16.679-1.222h0Zm1.81-1.149.006,0Z" transform="translate(-640.666 -254.119)" fill="#070742" stroke="rgba(0,0,0,0)" stroke-width="1"/>
            <g id="Group_2861" data-name="Group 2861" transform="translate(101.437 33.582)">
              <path id="Path_1703" data-name="Path 1703" d="M752.882,293.886c-1.572-.209-4.622.628-4.995,3.329s2.555,6.329,6.775,5.953S764.3,295.407,752.882,293.886Z" transform="translate(-747.855 -292.698)" fill="#070742" stroke="rgba(0,0,0,0)" stroke-width="1"/>
              <path id="Path_1704" data-name="Path 1704" d="M752.04,293.356c3.072-.383,1.839-1.4,1.271-1.339-.131.013-.23.077-.241.126a.255.255,0,0,1-.3.172c-.353-.055-.214-.456.153-.6C754.028,291.278,755.825,293.246,752.04,293.356Z" transform="translate(-749.84 -291.653)" fill="#070742" stroke="rgba(0,0,0,0)" stroke-width="1"/>
              <path id="Path_1705" data-name="Path 1705" d="M750.526,294.5c.632,1.4,2.422.163,1.283-.873a1.1,1.1,0,0,0-.681-.166h-.011a.23.23,0,0,1-.246-.212c0-.206.282-.216.257-.207,1.455.043,1.735,1.6.806,2.082a.969.969,0,0,1-1.149-.169A1.19,1.19,0,0,1,750.526,294.5Z" transform="translate(-749.122 -292.311)" fill="#070742" stroke="rgba(0,0,0,0)" stroke-width="1"/>
              <path id="Path_1706" data-name="Path 1706" d="M758.4,301.041a1.307,1.307,0,0,0-.816.153c-.207.128.029.439.175.618C756.964,301.31,757.635,300.768,758.4,301.041Z" transform="translate(-752.384 -296.072)" fill="#070742" stroke="rgba(0,0,0,0)" stroke-width="1"/>
              <path id="Path_1707" data-name="Path 1707" d="M764.986,298.133a2.076,2.076,0,1,1-2.047-1.725A1.906,1.906,0,0,1,764.986,298.133Z" transform="translate(-754.04 -293.909)" fill="#070742" stroke="rgba(0,0,0,0)" stroke-width="1"/>
              <path id="Path_1708" data-name="Path 1708" d="M757.714,306.739c0,.912-1,1.652-2.222,1.652s-2.222-.74-2.222-1.652.995-1.652,2.222-1.652S757.714,305.827,757.714,306.739Z" transform="translate(-750.424 -298.025)" fill="#070742" stroke="rgba(0,0,0,0)" stroke-width="1"/>
              <g id="Group_2859" data-name="Group 2859" transform="translate(3.028 5.713)">
                <path id="Path_1709" data-name="Path 1709" d="M753.688,303.58h-.027a.044.044,0,0,1-.046-.042.049.049,0,0,1,.049-.039,1.565,1.565,0,0,0,.956-.291.667.667,0,0,0,.178-.64.041.041,0,0,1,.041-.046.046.046,0,0,1,.054.034.738.738,0,0,1-.2.705A1.6,1.6,0,0,1,753.688,303.58Z" transform="translate(-753.615 -302.522)" fill="#070742" stroke="rgba(0,0,0,0)" stroke-width="1"/>
              </g>
              <g id="Group_2860" data-name="Group 2860" transform="translate(5.747 2.631)">
                <path id="Path_1710" data-name="Path 1710" d="M758.847,298.395a.059.059,0,0,1-.053-.029.046.046,0,0,1,.03-.064,1,1,0,0,0,.658-.563,1.24,1.24,0,0,0-.262-1.006.044.044,0,0,1,.016-.067.066.066,0,0,1,.08.013,1.306,1.306,0,0,1,.276,1.087,1.087,1.087,0,0,1-.721.625A.057.057,0,0,1,758.847,298.395Z" transform="translate(-758.789 -296.658)" fill="#070742" stroke="rgba(0,0,0,0)" stroke-width="1"/>
              </g>
              <path id="Path_1711" data-name="Path 1711" d="M763.091,304.032c0,.586-.306,1.061-.683,1.061s-.683-.475-.683-1.061.306-1.06.683-1.06S763.091,303.447,763.091,304.032Z" transform="translate(-754.434 -297.022)" fill="#070742" stroke="rgba(0,0,0,0)" stroke-width="1"/>
            </g>
            <path id="Path_1712" data-name="Path 1712" d="M778.616,307.007c4.351,2.633,11.162,7.175,14.429,10.762a8.935,8.935,0,0,1,1.664,2.356,13.917,13.917,0,0,1,.813,3.921c.077,1.3-.088,4.383-1.485,3.807a.539.539,0,0,1-.246-.876,4.732,4.732,0,0,0,.353-.987,11.463,11.463,0,0,0-.218-5.048c-.638-2.955-6.763-7.742-9.427-9.763Q781.637,309.019,778.616,307.007Z" transform="translate(-661.009 -265.354)" fill="#070742" stroke="rgba(0,0,0,0)" stroke-width="1"/>
            <path id="Path_1713" data-name="Path 1713" d="M786.576,335.962c-.328.2-1.868,1.422-2.125,1.548-3.189,1.564-21.516-.4-21.557-.435a48.736,48.736,0,0,0-5.117-2.982c-1.849-.942-2.339-2.486-3.029-2.514-.557-.022-.554,1.135.539,1.777,1.07.629,2.848,1.7,1.722,2.366-1.106.655-7.15-3.341-7.21-3.382-.583-.4-1.763-.989-1.7-.361a13.892,13.892,0,0,0,3.205,2.388c2.144,1.216,2.8,1.624,2.837,1.933-.222.2-1.625-.567-4.789-2.17-3.471-1.758-6.681-1.76.681,1.407,2.026.872,3.52,1.75,3.359,1.891-.494.433-1.774-.209-3.044-.71-1.235-.486-4.033-1.457-3.393-.391a21,21,0,0,0,3.2,1.173c2.74.883,3.5,1.172,3.6,1.522-.85.744-3.7-.538-5.261-.925-.236-.059-.391.2-.193.325a17.179,17.179,0,0,0,4.972,1.809,67.989,67.989,0,0,0,9.076,1.019c.325.233,16.132,3.3,22.578,2.2A32.8,32.8,0,0,0,786.576,335.962Z" transform="translate(-645.338 -277.01)" fill="#070742" stroke="rgba(0,0,0,0)" stroke-width="1"/>
            <path id="Path_1714" data-name="Path 1714" d="M748.066,324.954l15.8,3.5s4.645,2.83,6.735,3.391,4.642,2.505,4.141,3.1-3.125-1.429-3.551-1.368,1.542,2.46,1.862,4.032.959,3.1-.108,2.976-1.843-3.665-1.843-3.665-1.641-2.677-1.906-2.361,1.1,2.154,1.1,2.154.323,1.987.465,2.686c.106.522-.463,2.087-.947,1.511-.285-.338-.151-1.63-.481-2.367a11.413,11.413,0,0,0-1.787-2.712s1.188,4.53.441,4.638-1.518-3.644-1.518-3.644-1.824-3.126-2.619-3.4-2.984-1.469-4.675-1.965-8.685,1.138-11.806,1.173-8.183-1.6-8.6-3.663c-.128-.632.339-1.33,1.049-1.994A9.308,9.308,0,0,1,748.066,324.954Z" transform="translate(-642.095 -273.756)" fill="#070742" stroke="rgba(0,0,0,0)" stroke-width="1"/>
            <g id="Group_2864" data-name="Group 2864">
              <path id="Path_1715" data-name="Path 1715" d="M615.427,317.565s5.419,10.078,8.012,10.078,18.412-3.986,22.086-5.971a24.8,24.8,0,0,1,2.788-2.268c.274,0-.909,1.309-.668,1.513s4.317-3.036,4.523-2.634-2.462,1.765-2.462,1.949c0,0,3.961-2.364,4.393-2,.2.166-3.789,2.111-3.288,2.111s3.934-2.4,4.241-1.976c.293.4-3.663,2.068-3.406,2.284s3.406-1.533,3.406-1.011-8.785,4.518-10.471,5.632c-1.409.931-16.727,7.77-21.791,8.218s-13.252-12.86-13.252-12.86Z" transform="translate(-580.809 -270.363)" fill="#070742" stroke="rgba(0,0,0,0)" stroke-width="1"/>
              <path id="Path_1716" data-name="Path 1716" d="M572.775,276.223l7.811,1.768.679,1.439-14.872-2.405Z" transform="translate(-560.344 -250.752)" fill="#070742" stroke="rgba(0,0,0,0)" stroke-width="1"/>
              <path id="Path_1717" data-name="Path 1717" d="M601.03,285.746l1.731.413a31.409,31.409,0,0,1,8.979,13.371l1.3,3.619.8,2.231-6.874.662Z" transform="translate(-576.773 -255.27)" fill="#070742" stroke="rgba(0,0,0,0)" stroke-width="1"/>
              <path id="Path_1718" data-name="Path 1718" d="M581.991,425.483c1.9-2.668-2.631-38.508-2.631-38.508l20.6-10.819-.415,9.353s-12.242,66.4-11.939,75.9l-6.381-.212C580.9,456.508,580.244,427.932,581.991,425.483Z" transform="translate(-566.494 -298.155)" fill="#070742" stroke="rgba(0,0,0,0)" stroke-width="1"/>
              <path id="Path_1719" data-name="Path 1719" d="M589.688,538.195a2.791,2.791,0,0,0,.153,1.012c1.771,3.378,8.081,6.551,8.081,6.551a24,24,0,0,1-5.229.3,70.721,70.721,0,0,1-8.949-1.279l.905-6.1s-.017-.232-.046-.655Z" transform="translate(-568.574 -374.935)" fill="#070742" stroke="rgba(0,0,0,0)" stroke-width="1"/>
              <path id="Path_1720" data-name="Path 1720" d="M561.332,454.112c-.422-5.617-3-31.438-2.116-34.063.615-1.826-.118-19.36-.708-31.439a50.659,50.659,0,0,1,3.935-22.191l3.246-7.684,17.4,8.216-1.275,6.438a19.477,19.477,0,0,1-3.888,8.3l-3.866,4.883-7.843,67.569C565,454.057,562.548,454.1,561.332,454.112Z" transform="translate(-556.575 -289.891)" fill="#070742" stroke="rgba(0,0,0,0)" stroke-width="1"/>
              <path id="Path_1721" data-name="Path 1721" d="M565.369,540.036c1.216-.012,2.43.018,3.642.1l-.28,2.413s5.227,9.777,3.132,10.6-5.581.527-6.373-.211-1.178-3.6-1.143-4.4.94-4.948,1.059-7.613C565.414,540.751,565.4,540.441,565.369,540.036Z" transform="translate(-559.372 -375.888)" fill="#070742" stroke="rgba(0,0,0,0)" stroke-width="1"/>
              <path id="Path_1722" data-name="Path 1722" d="M571.927,278.461a14.516,14.516,0,0,0,1.725.435c2.3.438,7.9,1.657,9.841,3.469,2.472,2.306,7.1,14.019,5.8,20.023s2.96,26.065,2.818,29.261a55.919,55.919,0,0,1-31.7.016s4.125-18.716,4.338-23.511-5.853-25.805-2.012-28.879C565.777,276.843,570.212,277.911,571.927,278.461Z" transform="translate(-557.505 -251.476)" fill="#070742" stroke="rgba(0,0,0,0)" stroke-width="1"/>
              <path id="Path_1723" data-name="Path 1723" d="M604.323,286.531c2.374,2.217,4.661,8.224,5.559,11.656a19.575,19.575,0,0,1,.55,9.473c-.676,5.7,2.727,24.233,2.511,28.155-.374-4.623-4.284-21.342-3.427-28.224a20.107,20.107,0,0,0-.351-9.281C608.477,295.324,606.5,288.928,604.323,286.531Z" transform="translate(-578.335 -255.642)" fill="#070742" stroke="rgba(0,0,0,0)" stroke-width="1"/>
              <g id="Group_2863" data-name="Group 2863" transform="translate(8.262)">
                <path id="Path_1724" data-name="Path 1724" d="M577.807,230.783l-.326-.011s-4.38.077-5.5.971-1.891,9.784-.983,12.748a7.387,7.387,0,0,0,7.99,5.229c4.135-.484,4.765.045,5.9-4.882S579.2,230.377,577.807,230.783Z" transform="translate(-570.601 -229.192)" fill="#070742" stroke="rgba(0,0,0,0)" stroke-width="1"/>
                <path id="Path_1725" data-name="Path 1725" d="M586.981,262.164a15.282,15.282,0,0,1-.255,3.025c-.266,2.336-.2,5.729-.213,7.26,0,0-.055,3.019-2.163,3.166-1.831.128-5.06-1.851-5.36-3.309-.4-1.959.517-11.659.517-11.659Z" transform="translate(-574.532 -243.364)" fill="#070742" stroke="rgba(0,0,0,0)" stroke-width="1"/>
                <path id="Path_1726" data-name="Path 1726" d="M587.071,265.189c-2.882,2.084-5.463,1.007-7.455-1.792.109-1.374.23-2.67.236-2.75l7.474,1.517A15.274,15.274,0,0,1,587.071,265.189Z" transform="translate(-574.877 -243.364)" fill="#070742" stroke="rgba(0,0,0,0)" stroke-width="1"/>
                <path id="Path_1727" data-name="Path 1727" d="M585.454,232.014s3.5.7,3.807,3.324.8,4.823.072,7.852-3,7.023-6.477,7.562-6.866-4.515-6.746-7.2-.942-7.226,1.533-9.906S585.454,232.014,585.454,232.014Z" transform="translate(-573.154 -229.687)" fill="#070742" stroke="rgba(0,0,0,0)" stroke-width="1"/>
                <path id="Path_1728" data-name="Path 1728" d="M589,232.014s3.5.7,3.807,3.324c.276,2.381.7,4.408.245,7.022a10.376,10.376,0,0,0-2.436-1.073c-3.8-1.223-6.959-7.768-7.092-8.046l-.055-.116,0-.126a2.113,2.113,0,0,1,.141-.787A12.819,12.819,0,0,1,589,232.014Z" transform="translate(-576.704 -229.686)" fill="#070742" stroke="rgba(0,0,0,0)" stroke-width="1"/>
                <path id="Path_1729" data-name="Path 1729" d="M575.323,240.14s-1.284-1.387-1.931-1.99-2.072-6.392-.3-8.3,4.987-1.906,7.569-2.075,6.588,1.658,6.669,4.975c0,0-6.521-2.39-8.4-1.689a4.3,4.3,0,0,0-3.135,3.348A33.329,33.329,0,0,0,575.323,240.14Z" transform="translate(-571.376 -227.769)" fill="#070742" stroke="rgba(0,0,0,0)" stroke-width="1"/>
                <path id="Path_1730" data-name="Path 1730" d="M575.457,248.824s-.75-3.4-2.282-2.635-.091,4.548,1.3,4.594S575.457,248.824,575.457,248.824Z" transform="translate(-571.51 -236.453)" fill="#070742" stroke="rgba(0,0,0,0)" stroke-width="1"/>
                <path id="Path_1731" data-name="Path 1731" d="M574.747,247.622s2.073,3.136.572,2.748S573.351,247.006,574.747,247.622Z" transform="translate(-572.172 -237.146)" fill="#070742" stroke="rgba(0,0,0,0)" stroke-width="1"/>
                <g id="Group_2862" data-name="Group 2862" transform="translate(10.064 12.114)">
                  <path id="Path_1732" data-name="Path 1732" d="M591.471,253.328a20.6,20.6,0,0,1-.037-2.514,22.306,22.306,0,0,1,.222,2.624,3.172,3.172,0,0,1-1.908.054A3.681,3.681,0,0,0,591.471,253.328Z" transform="translate(-589.747 -250.814)" fill="#070742" stroke="rgba(0,0,0,0)" stroke-width="1"/>
                </g>
                <path id="Path_1733" data-name="Path 1733" d="M586.049,249.493a1.791,1.791,0,0,0-1.25-1.132c-1.14-.3-1.908,1.112-2.7,1.072.556.27,1.5-.538,2.134-.731a1.3,1.3,0,0,1,.966.132A2.9,2.9,0,0,1,586.049,249.493Z" transform="translate(-576.056 -237.516)" fill="#070742" stroke="rgba(0,0,0,0)" stroke-width="1"/>
                <path id="Path_1734" data-name="Path 1734" d="M585.678,249.123a.547.547,0,0,0,.536.566.562.562,0,0,0,.586-.529.548.548,0,0,0-.536-.567A.562.562,0,0,0,585.678,249.123Z" transform="translate(-577.752 -237.646)" fill="#070742" stroke="rgba(0,0,0,0)" stroke-width="1"/>
                <path id="Path_1735" data-name="Path 1735" d="M594.457,250.4a1.88,1.88,0,0,1,1.4-.992c1.174-.177,1.738,1.3,2.527,1.347-.59.209-1.415-.691-2.016-.949a1.31,1.31,0,0,0-.978.029A3.055,3.055,0,0,0,594.457,250.4Z" transform="translate(-581.917 -238.025)" fill="#070742" stroke="rgba(0,0,0,0)" stroke-width="1"/>
                <path id="Path_1736" data-name="Path 1736" d="M597.483,250.244a.571.571,0,0,1-.611.506.539.539,0,0,1-.507-.587.572.572,0,0,1,.612-.506A.539.539,0,0,1,597.483,250.244Z" transform="translate(-582.821 -238.15)" fill="#070742" stroke="rgba(0,0,0,0)" stroke-width="1"/>
                <path id="Path_1737" data-name="Path 1737" d="M586.436,245.145c.129-.066-.838-.972-2.04-1.111a4.233,4.233,0,0,0-2.556.959s1.817-.856,2.554-.536S585.724,245.513,586.436,245.145Z" transform="translate(-575.932 -235.478)" fill="#070742" stroke="rgba(0,0,0,0)" stroke-width="1"/>
                <path id="Path_1738" data-name="Path 1738" d="M586.589,259.008l4.375.422s-1.131,1.889-2.494,1.578S586.589,259.008,586.589,259.008Z" transform="translate(-578.185 -242.587)" fill="#070742" stroke="rgba(0,0,0,0)" stroke-width="1"/>
              </g>
              <path id="Path_1739" data-name="Path 1739" d="M603.934,319.159s.1-.414,1.933-.428,3.551.07,3.383-.36-5.055-.017-5.312-.671c0,0,2.413-.256,2.36-.789a14.573,14.573,0,0,0-3.226-.02c-8.355,1.591-29.838-6.961-32.25-8.836-5.421-4.215-5.142-28-7.477-28.98s-7.235,1.075-6.911,12.276c0,0,3.247,16.415,6.832,20.391,3.486,3.866,28.17,7.909,32.628,8.744,4.268.813,9.679,1.694,11.471,1.335,1.077-.216-3.671-.868-3.52-1.144s5.265,1.335,5.39.539-5.074-.834-5.267-1.328,5.7,1.1,6.1.363S603.934,319.159,603.934,319.159Z" transform="translate(-555.612 -252.003)" fill="#070742" stroke="rgba(0,0,0,0)" stroke-width="1"/>
              <path id="Path_1740" data-name="Path 1740" d="M570.872,325.4l-8.824-.5c.428,1.388.891,2.751,1.376,3.993,2.971-1.292,6.253-2.675,7.544-3.216C570.935,325.586,570.9,325.5,570.872,325.4Z" transform="translate(-558.282 -273.842)" fill="#070742" stroke="rgba(0,0,0,0)" stroke-width="1"/>
              <path id="Path_1741" data-name="Path 1741" d="M563.433,277.8a6.877,6.877,0,0,0-6.1,1.494c-3.095,2.477-2.374,24.973-2.374,24.973l13.49-1.291S564.466,282.364,563.433,277.8Z" transform="translate(-554.885 -251.41)" fill="#070742" stroke="rgba(0,0,0,0)" stroke-width="1"/>
            </g>
          </g>
          <path id="Path_1742" data-name="Path 1742" d="M781.391,249.26a2.275,2.275,0,0,1-1.8-1.25s.56,2.593,2.316,2.7S781.391,249.26,781.391,249.26Z" transform="translate(-661.472 -233.21)" fill="#070742" stroke="rgba(0,0,0,0)" stroke-width="1"/>
          <path id="Path_1743" data-name="Path 1743" d="M738.528,228.952a9.274,9.274,0,0,1-8.825-1.789c.389-2.112,3.184-5.523,5.88-5.523s4.159,2.632,4.159,2.632l-2.632-.325s.5-4.751,8.415-4.015c5.928.552,7.232,5.924,6.731,10.833a9.384,9.384,0,0,1-6.891,8.459l1.441-1.868s1.818,3.9-2.285,4.352-3.726-2.583-3.726-2.583" transform="translate(-637.808 -219.854)" fill="#070742" stroke="rgba(0,0,0,0)" stroke-width="1"/>
          <path id="Path_1744" data-name="Path 1744" d="M735.919,225.365s-1.341-3.626-2.434-4.421,4.868-1.838,7.848,1.788S735.919,225.365,735.919,225.365Z" transform="translate(-639.54 -220.003)" fill="#070742" stroke="rgba(0,0,0,0)" stroke-width="1"/>
          <path id="Path_1745" data-name="Path 1745" d="M565.959,248.709c-.591,3.19-3.722,2.363-5.849,7.031s6.854,8.035,13,6.735,8-3.367,8.048-4.9-4.933-4.012-5.153-7.681S565.959,248.709,565.959,248.709Z" transform="translate(-557.212 -233.151)" fill="#070742" stroke="rgba(0,0,0,0)" stroke-width="1"/>
          <path id="Path_1746" data-name="Path 1746" d="M581.683,230.824c-3.531,1.158-4.884-2.8-4.884-2.8l-8.038,9.035c-.437-1.96-5.223-7.921-1.891-10.1,5.052-3.309,7.706-3.214,10.55-3.593s8.411,1.994,10.205,5.637c2.45,7.679-.725,11.29-.725,11.29S585.871,229.451,581.683,230.824Z" transform="translate(-560.014 -221.499)" fill="#070742" stroke="rgba(0,0,0,0)" stroke-width="1"/>
        </g>
      </g>
    </g>
    <rect id="Rectangle_1209" data-name="Rectangle 1209" width="992" height="145" transform="translate(0 445)" fill="url(#linear-gradient)"/>
    <rect id="Rectangle_1212" data-name="Rectangle 1212" width="145" height="171" transform="translate(992 445) rotate(90)" fill="url(#linear-gradient-2)"/>
    <rect id="Rectangle_1213" data-name="Rectangle 1213" width="145" height="171" transform="translate(0 590) rotate(-90)" fill="url(#linear-gradient-2)"/>
  </g>
</svg>
