<svg xmlns="http://www.w3.org/2000/svg" xmlns:xlink="http://www.w3.org/1999/xlink" width="368.023" height="250.05" viewBox="0 0 368.023 250.05"><defs><clipPath id="a"><path d="M387.109,808.169c.024,2.288.1,4.478.2,6.591H47.178c-6.581-12.822-11.8-28.008-6.678-51.019,10.452-46.944,135.578-63,200.337-63,66.623,0,153.339,22.763,153.339,44.351C394.175,777.344,386.784,777.49,387.109,808.169Z" transform="translate(-38.431 -700.74)" fill="none"/></clipPath><clipPath id="b"><path d="M382.677,1016.412a28.6,28.6,0,0,1-1.554,6.115c-14.424,38.547-110.537,48.542-162.528,48.542-54.637,0-194.55,6.406-194.55-27.994a108.416,108.416,0,0,1,1.792-20.548C29.3,1004.3,54.086,995.383,54.6,973.965c.345-14.342-7.97-25.119-14.818-38.455H379.914C381.254,961.741,388.3,976.049,382.677,1016.412Z" transform="translate(-24.046 -935.51)" fill="none"/></clipPath><clipPath id="c"><path d="M297.006,1123.568l17.215-10,25.538,14.745-17.215,10Z" transform="translate(-297.006 -1113.564)" fill="none"/></clipPath></defs><g transform="translate(5.292 0)"><g transform="translate(6.986)"><path d="M387.109,808.169c.024,2.288.1,4.478.2,6.591H47.178c-6.581-12.822-11.8-28.008-6.678-51.019,10.452-46.944,135.578-63,200.337-63,66.623,0,153.339,22.763,153.339,44.351S386.784,777.49,387.109,808.169Z" transform="translate(-38.431 -700.74)" fill="#c9c6df"/></g><g transform="translate(144.95 111.544)"><path d="M322.5,930.412" transform="translate(-322.502 -930.412)" fill="#a5a0ca"/></g><g transform="translate(221.961 79.602)"><path d="M483.075,867.7l-2-1,3.588.5-.97.026s-.158-2.11-.949-2.585c1.741.105,5.771,2.638,5.771,2.638l-1.583.105s2.374-2.374,3.746-2.743c-.527.9-1.424,2.743-1.424,2.743l3.219-2.216-1.125,4.631,1.019-1.623-6.964.317Z" transform="translate(-481.07 -864.642)" fill="#6e68aa"/></g><g transform="translate(17.894 80.618)"><path d="M69.069,869.479l3.218-2.216-1.125,4.63,1.02-1.623-6.964.317L62.9,869.8l-2-1,3.588.5-.97.027s-.158-2.111-.949-2.586c1.741.106,5.771,2.638,5.771,2.638l-1.583.105Z" transform="translate(-60.891 -866.735)" fill="#6e68aa"/></g><g transform="translate(319.881 73.882)"><path d="M685.157,862.674s-1.109-4.379-2.277-5.547,3.445,1.635,4.029,5.08c-.175,1.868-1.285,2.219-1.285,2.219s1.751-9.75,3.737-11.56c-.234,2.627-1.226,8.232-.817,9.925l4.145-4.145,2.218,5.079Z" transform="translate(-682.691 -852.865)" fill="#6e68aa"/></g><g transform="translate(6.986)"><g clip-path="url(#a)"><g transform="translate(-4.71 78.655)"><path d="M33.443,894.071S25.515,869.61,30.231,869.1c8.83-.946,81.359-8.418,135.6-5.9s91.012,3.688,110,2.742,109.743.946,109.743.946l-1.5,17.03-1.952,9.968-176.085,3.131Z" transform="translate(-28.733 -862.692)" fill="#6e68aa"/></g><g transform="translate(1.281 103.322)"><path d="M48.082,922.189c-4.862-.08-6.554-4.477-6.976-5.915s2.832,1.353,9.766,1.691,25.206-1.331,32.734-2.1,22.872,2.19,22.872,2.19,31.646-4.22,44.576-4.536,24.6,3.154,55.5,2.208,22.6,1.71,51.98,2.117,53.668-4.68,69.436-4.344,24.283,1.977,38.79,4.336a44.282,44.282,0,0,0,25.157-3.055l-3.252,9.4Z" transform="translate(-41.07 -913.484)" fill="#5c559f"/></g><g transform="translate(0 110.034)"><rect width="354.304" height="3.986" fill="#edecf4"/></g><g transform="translate(0 112.894)"><rect width="354.304" height="1.125" fill="#bebdcb"/></g></g></g><g transform="translate(139.22 100.091)"><path d="M314.629,911.718,310.7,909.3l7.259,1.681-1.334.718s-.513-3.224-2.048-4.341c3.548.533,11.259,4.487,11.259,4.487l-3.262-.072s5.3-4.432,8.174-4.939c-1.244,1.742-3.418,5.362-3.418,5.362l7-3.954,1.708,7.448-2.471-1.306-14.327-.619Z" transform="translate(-310.704 -906.831)" fill="#5c559f"/></g><g transform="translate(303.937 99.212)"><path d="M653.461,909.355l-3.6-2.881,7,2.556-1.78.639s.253-3.353-1.133-4.649c3.456.964,10.625,5.831,10.625,5.831l-3.229-.471s5.8-3.75,8.718-3.9c-1.448,1.576-4.049,4.9-4.049,4.9l7.429-3.068,1.628,3.791-3.138,2.212-14.143-2.369Z" transform="translate(-649.862 -905.02)" fill="#5c559f"/></g><g transform="translate(0 114.02)"><g clip-path="url(#b)"><g transform="translate(-4.078)"><g transform="translate(4.078)"><path d="M382.677,1016.412a28.6,28.6,0,0,1-1.554,6.115c-14.424,38.547-110.537,48.542-162.528,48.542-54.637,0-194.55,6.406-194.55-27.994a108.416,108.416,0,0,1,1.792-20.548C29.3,1004.3,54.086,995.383,54.6,973.965c.345-14.342-7.97-25.119-14.818-38.455H379.914C381.254,961.741,388.3,976.049,382.677,1016.412Z" transform="translate(-24.046 -935.51)" fill="#807bb5"/></g><g transform="translate(0 97.723)"><rect width="364.855" height="1.457" fill="#928ebf"/></g><g transform="translate(22.732 27.544)"><rect width="346.98" height="0.971" fill="#928ebf"/></g><g transform="translate(17.875 5.689)"><rect width="346.98" height="0.971" fill="#928ebf"/></g></g></g></g></g><g transform="translate(0 51.281)"><g transform="translate(255.407 83.348)"><g transform="translate(0 0.641)" opacity="0.5"><path d="M539.04,986.079l16.073,6.813,14.006-6.814-17.451-6.814Z" transform="translate(-539.04 -979.265)" fill="#535075"/></g><path d="M539.04,984.759l16.073,6.813,14.006-6.813-17.451-6.814Z" transform="translate(-539.04 -977.945)" fill="#edecf4"/></g><g transform="translate(186.566 71.623)"><g transform="translate(0 0.543)" opacity="0.5"><path d="M403.665,954.92,416.4,957.3l-2.294,5.585-16.806-.455Z" transform="translate(-397.295 -954.92)" fill="#535075"/></g><path d="M403.665,953.8l12.73,2.382L414.1,961.77l-16.806-.455Z" transform="translate(-397.295 -953.803)" fill="#edecf4"/></g><g transform="translate(203.117 8.908)"><g transform="translate(25.79)"><path d="M484.476,872.211l79.419-47.541h4.868l-49.91,41.322-29.929,11.315Z" transform="translate(-484.476 -824.67)" fill="#928ebf"/></g><g transform="translate(0 99.14)"><path d="M475.246,1061.9H432.588a1.214,1.214,0,0,1,0-2.428h42.339l50.026-28.242H486.788a1.214,1.214,0,0,1,0-2.428h42.785a1.214,1.214,0,0,1,.6,2.271l-54.327,30.671A1.212,1.212,0,0,1,475.246,1061.9Z" transform="translate(-431.374 -1028.803)" fill="#c9c6df"/></g><g transform="translate(29.834)"><path d="M573.045,824.67v20.168l-7.37,4.37-17.837,10.564-7.477,4.431L518.475,877.17,511,881.6,492.8,892.38V872.217l.005-.005,7.477-4.436,21.885-12.962,7.472-4.431,21.89-12.967,7.477-4.431Z" transform="translate(-492.803 -824.67)" fill="#edecf4"/><g transform="translate(72.872 6.859)"><path d="M650.219,838.793V852.1l-7.37,4.37Z" transform="translate(-642.849 -838.793)" fill="#4a4295"/></g><g transform="translate(0 43.106)"><path d="M500.285,913.427,492.8,931.371v-13.5l.005-.005Z" transform="translate(-492.803 -913.427)" fill="#4a4295"/></g><g transform="translate(18.195 25.713)"><path d="M548.912,877.615,537.745,904.4l-7.477,4.431,11.173-26.787Z" transform="translate(-530.267 -877.615)" fill="#4a4295"/></g><g transform="translate(47.558 8.316)"><path d="M609.376,841.792,598.2,868.579l-7.477,4.431L601.9,846.223Z" transform="translate(-590.726 -841.792)" fill="#4a4295"/></g></g><g transform="translate(42.757 50.456)"><path d="M520.626,1010.343a1.214,1.214,0,0,1-1.214-1.214V929.774a1.214,1.214,0,1,1,2.428,0v79.355A1.214,1.214,0,0,1,520.626,1010.343Z" transform="translate(-519.412 -928.56)" fill="#c9c6df"/></g><g transform="translate(96.596 19.806)"><path d="M631.483,947.214A1.214,1.214,0,0,1,630.269,946V866.666a1.214,1.214,0,0,1,2.428,0V946A1.214,1.214,0,0,1,631.483,947.214Z" transform="translate(-630.269 -865.452)" fill="#c9c6df"/></g><g transform="translate(43.986 37.751)"><rect width="61.675" height="2.428" transform="matrix(0.864, -0.503, 0.503, 0.864, 0, 31.034)" fill="#c9c6df"/></g><g transform="translate(25.79 47.541)"><rect width="4.044" height="20.306" fill="#382f8a"/></g></g><g transform="translate(0 51.021)"><g transform="translate(25.79)"><path d="M66.251,958.924l79.419-47.541h4.868l-49.91,41.322L70.7,964.021Z" transform="translate(-66.251 -911.384)" fill="#928ebf"/></g><g transform="translate(0 57.026)"><path d="M57.022,1061.9H14.363a1.214,1.214,0,1,1,0-2.428H56.7l50.026-28.242H68.564a1.214,1.214,0,0,1,0-2.428h42.785a1.214,1.214,0,0,1,.6,2.271l-54.327,30.671A1.211,1.211,0,0,1,57.022,1061.9Z" transform="translate(-13.149 -1028.803)" fill="#c9c6df"/></g><g transform="translate(29.834)"><path d="M154.821,911.384v20.168l-7.37,4.37-17.837,10.565-7.477,4.431-21.885,12.967-7.477,4.431-18.2,10.779V958.931l.005-.005,7.477-4.436,21.885-12.961,7.472-4.431,21.89-12.967,7.477-4.431Z" transform="translate(-74.579 -911.384)" fill="#edecf4"/><g transform="translate(72.872 6.859)"><path d="M231.995,925.506v13.309l-7.37,4.37Z" transform="translate(-224.625 -925.506)" fill="#4a4295"/></g><g transform="translate(0 43.106)"><path d="M82.061,1000.14l-7.483,17.945v-13.5l.005-.005Z" transform="translate(-74.579 -1000.14)" fill="#4a4295"/></g><g transform="translate(18.195 25.713)"><path d="M130.688,964.328,119.52,991.115l-7.477,4.431,11.173-26.787Z" transform="translate(-112.043 -964.328)" fill="#4a4295"/></g><g transform="translate(47.558 8.316)"><path d="M191.151,928.506l-11.173,26.787-7.477,4.431,11.173-26.787Z" transform="translate(-172.501 -928.506)" fill="#4a4295"/></g></g><g transform="translate(42.757 50.455)"><path d="M102.4,1054.943a1.214,1.214,0,0,1-1.214-1.214v-37.241a1.214,1.214,0,1,1,2.428,0v37.241A1.214,1.214,0,0,1,102.4,1054.943Z" transform="translate(-101.187 -1015.273)" fill="#c9c6df"/></g><g transform="translate(96.596 19.807)"><path d="M213.258,991.814a1.214,1.214,0,0,1-1.214-1.214V953.38a1.214,1.214,0,1,1,2.428,0V990.6A1.214,1.214,0,0,1,213.258,991.814Z" transform="translate(-212.044 -952.166)" fill="#c9c6df"/></g><g transform="translate(43.986 34.99)"><rect width="61.675" height="2.428" transform="matrix(0.864, -0.503, 0.503, 0.864, 0, 31.035)" fill="#c9c6df"/></g><g transform="translate(25.79 47.541)"><rect width="4.044" height="20.306" fill="#382f8a"/></g></g><g transform="translate(297.743 89.157)"><g transform="translate(4.239 22.142)" opacity="0.5"><ellipse cx="6.238" cy="2.221" rx="6.238" ry="2.221" fill="#535075"/></g><g transform="translate(0 0)"><g transform="translate(2.392)"><ellipse cx="7.394" cy="12.236" rx="7.394" ry="12.236" transform="translate(0 4.038) rotate(-15.848)" fill="#c9c6df"/></g><g transform="translate(7.113 1.847)"><path d="M653.7,1003.632c1.845,6.5.155,12.678-3.77,13.792l-2.392.678-6.683-23.541,2.393-.678C647.175,992.769,651.859,997.135,653.7,1003.632Z" transform="translate(-640.858 -993.71)" fill="#3d3a64"/></g><g transform="translate(0 0.679)"><ellipse cx="7.394" cy="12.236" rx="7.394" ry="12.236" transform="translate(0 4.038) rotate(-15.848)" fill="#3d3a64"/></g><g transform="translate(2.672 0.894)"><ellipse cx="6.964" cy="11.525" rx="6.964" ry="11.525" transform="translate(0 3.804) rotate(-15.848)" fill="#bebdcb"/></g><g transform="translate(5.932 4.012)"><g transform="translate(0 0)"><g transform="translate(0 0)"><g transform="translate(3.537)"><g transform="translate(0)"><rect width="0.696" height="2.621" transform="translate(0 0.19) rotate(-15.848)" fill="#686686"/></g></g><g transform="translate(6.711 0.429)"><path d="M652.98,1001.838l-.736-.384.149-2.4.735.384Z" transform="translate(-652.244 -999.052)" fill="#686686"/></g><g transform="translate(9.13 3.199)"><path d="M657.831,1007.25l-.6-.855.975-1.639.6.855Z" transform="translate(-657.227 -1004.756)" fill="#686686"/></g><g transform="translate(10.863 7.758)"><g transform="translate(0 0)"><rect width="1.599" height="1.14" transform="translate(0 0.437) rotate(-15.848)" fill="#686686"/></g></g><g transform="translate(11.381 12.002)"><path d="M661.86,1023.927l.065-1.045,1.69.882-.065,1.045Z" transform="translate(-661.86 -1022.882)" fill="#686686"/></g><g transform="translate(10.297 15.24)"><path d="M659.628,1030.261l.424-.713,1.389,1.965-.424.713Z" transform="translate(-659.628 -1029.547)" fill="#686686"/></g><g transform="translate(8.214 17.04)"><g transform="translate(0 0)"><rect width="0.696" height="2.621" transform="translate(0 0.19) rotate(-15.848)" fill="#686686"/></g></g><g transform="translate(5.54 16.536)"><path d="M649.984,1032.217l.736.384-.149,2.4-.736-.384Z" transform="translate(-649.834 -1032.217)" fill="#686686"/></g><g transform="translate(2.426 14.058)"><path d="M644.4,1027.114l.6.855-.975,1.639-.6-.855Z" transform="translate(-643.423 -1027.114)" fill="#686686"/></g><g transform="translate(0.422 10.459)"><g transform="translate(0 0)"><rect width="1.599" height="1.14" transform="translate(0 0.437) rotate(-15.848)" fill="#686686"/></g></g><g transform="translate(0 5.821)"><path d="M640.182,1011.037l-.065,1.045-1.69-.882.065-1.045Z" transform="translate(-638.427 -1010.155)" fill="#686686"/></g><g transform="translate(1.026 1.833)"><path d="M642.353,1003.908l-.424.713-1.389-1.965.424-.713Z" transform="translate(-640.539 -1001.943)" fill="#686686"/></g><g transform="translate(3.537)"><g transform="translate(0)"><rect width="0.696" height="2.621" transform="translate(0 0.19) rotate(-15.848)" fill="#686686"/></g></g></g></g><g transform="translate(6.358 9.634)"><path d="M655.7,1025.562l-4.182-7.193.231-.364,3.594.31-.042.484-3.128-.27,3.947,6.789Z" transform="translate(-651.518 -1018.005)" fill="#282452"/></g></g></g></g><g transform="translate(111.557 131.341)"><g style="isolation:isolate"><g transform="translate(20.912 5.328)"><path d="M286.766,1087.734l-.009,3.255-.85.636.009-3.255Z" transform="translate(-285.906 -1087.734)" fill="#a5a0ca"/></g><g transform="translate(21.762 5.328)"><path d="M293.113,1090.169l-.009,3.255-5.446-2.434.009-3.255Z" transform="translate(-287.657 -1087.734)" fill="#a5a0ca"/></g><g transform="translate(20.912 5.964)"><path d="M287.872,1089.915l-.009,3.255-1.956-.871.009-3.255Z" transform="translate(-285.906 -1089.044)" fill="#54499d"/></g><g transform="translate(26.358 7.762)"><path d="M297.98,1092.747l-.009,3.255-.85.636.009-3.255Z" transform="translate(-297.121 -1092.747)" fill="#54499d"/></g><g transform="translate(24.386 7.518)"><path d="M295.042,1093.124l-.009,3.255-1.972-.88.009-3.255Z" transform="translate(-293.061 -1092.244)" fill="#54499d"/></g><g transform="translate(27.946 7.913)"><path d="M301.877,1093.716l-.009,3.255-1.478-.659.009-3.255Z" transform="translate(-300.39 -1093.056)" fill="#a5a0ca"/></g><g transform="translate(19.154 6.835)"><path d="M286.01,1090.838l-.009,3.255-3.714,2.8.009-3.255Z" transform="translate(-282.286 -1090.838)" fill="#a5a0ca"/></g><g transform="translate(20.667 7.518)"><path d="M289.131,1092.244l-.009,3.255-3.72,2.794.009-3.255Z" transform="translate(-285.402 -1092.244)" fill="#54499d"/></g><g transform="translate(23.23 7.913)"><path d="M295.4,1093.056l-.009,3.255-4.717,3.544.009-3.255Z" transform="translate(-290.679 -1093.056)" fill="#a5a0ca"/></g><g transform="translate(27.597 8.572)"><path d="M301.507,1094.414l-.009,3.255-1.827,1.375.009-3.255Z" transform="translate(-299.671 -1094.414)" fill="#54499d"/></g><g transform="translate(27.597 9.912)"><path d="M299.671,1100.462q0-1.627.009-3.255a3.822,3.822,0,0,1,2.106.307q-.005,1.627-.009,3.255A3.823,3.823,0,0,0,299.671,1100.462Z" transform="translate(-299.671 -1097.173)" fill="#a5a0ca"/></g><g transform="translate(19.163 5.328)"><path d="M290.36,1090.169l-.85.636-1.972-.88-3.72,2.794-1.513-.68,3.714-2.8-1.956-.871.85-.636Z" transform="translate(-282.305 -1087.734)" fill="#54499d"/></g><g transform="translate(19.154 9.632)"><path d="M283.809,1097.276l-.009,3.255-1.513-.68.009-3.255Z" transform="translate(-282.286 -1096.596)" fill="#54499d"/></g><g transform="translate(29.703 10.253)"><path d="M304.336,1101.3a3.407,3.407,0,0,0-.329-.166q0-1.627.009-3.255h0q0,1.625-.009,3.25c0-1.083.009-2.167.009-3.25a3.463,3.463,0,0,1,.328.166q0,1.626-.009,3.251.005-1.626.009-3.251h0q0,1.627-.009,3.255Z" transform="translate(-304.007 -1097.875)" fill="#a5a0ca"/></g><g transform="translate(26.504 10.417)"><path d="M299.715,1098.892l-.009,3.255c0-.149-.1-.295-.332-.429a1.636,1.636,0,0,0-.16-.081,1.723,1.723,0,0,0-1.793.185l.009-3.255a1.723,1.723,0,0,1,1.793-.186,1.642,1.642,0,0,1,.16.081C299.615,1098.6,299.715,1098.743,299.715,1098.892Z" transform="translate(-297.42 -1098.213)" fill="#54499d"/></g><g transform="translate(30.031 10.419)"><path d="M305.32,1102.284c0-.276-.183-.55-.636-.812q0-1.627.009-3.255c.453.262.637.536.636.812C305.327,1100,305.323,1101.307,305.32,1102.284Z" transform="translate(-304.684 -1098.217)" fill="#a5a0ca"/></g><g transform="translate(28.424 11.095)"><path d="M301.74,1102.865a.752.752,0,0,1-.365.526l.009-3.255a.751.751,0,0,0,.365-.526C301.746,1100.587,301.743,1101.889,301.74,1102.865Z" transform="translate(-301.375 -1099.61)" fill="#a5a0ca"/></g><g transform="translate(24.707 10.771)"><path d="M295.527,1098.942l-.009,3.255-1.8,1.345.009-3.255Z" transform="translate(-293.721 -1098.942)" fill="#54499d"/></g><g transform="translate(23.23 11.457)"><path d="M292.166,1101.013l-.009,3.255-1.478-.659.009-3.255Z" transform="translate(-290.679 -1100.354)" fill="#54499d"/></g><g transform="translate(29.927 11.23)"><path d="M305.219,1099.888l-.009,3.255a1.518,1.518,0,0,1-.741,1.036l.009-3.255A1.518,1.518,0,0,0,305.219,1099.888Z" transform="translate(-304.469 -1099.888)" fill="#54499d"/></g><g transform="translate(26.628 11.622)"><path d="M299.482,1100.693l-.009,3.255-1.8,1.351.009-3.255Z" transform="translate(-297.676 -1100.693)" fill="#a5a0ca"/></g><g transform="translate(29.869 12.092)"><path d="M310.96,1103.777l-.009,3.255a1.786,1.786,0,0,0-1.077-1.385,4.482,4.482,0,0,0-.417-.212,4.93,4.93,0,0,0-4.568.068,1.157,1.157,0,0,0-.538.9l.009-3.255a1.159,1.159,0,0,1,.538-.9,4.931,4.931,0,0,1,4.568-.068,4.455,4.455,0,0,1,.417.212A1.787,1.787,0,0,1,310.96,1103.777Z" transform="translate(-304.35 -1101.661)" fill="#a5a0ca"/></g><g transform="translate(32.285 12.936)"><path d="M311.214,1103.657l-.009,3.255a2.566,2.566,0,0,0-1.881-.13l.009-3.255A2.568,2.568,0,0,1,311.214,1103.657Z" transform="translate(-309.324 -1103.399)" fill="#54499d"/></g><g transform="translate(28.1 12.266)"><path d="M302.544,1102.021l-.009,3.255-1.827,1.369.009-3.255Z" transform="translate(-300.708 -1102.021)" fill="#54499d"/></g><g transform="translate(23.239 7.912)"><path d="M296.892,1093.715l-1.827,1.375a3.822,3.822,0,0,1,2.106.306,3.447,3.447,0,0,1,.329.166c1.036.6.664,1.266-.1,1.848l-1.827,1.368-1.473-.662,1.8-1.351c.421-.32.536-.665.033-.955a1.692,1.692,0,0,0-.16-.081,1.723,1.723,0,0,0-1.793.186l-1.8,1.345-1.477-.66,4.716-3.544Z" transform="translate(-290.698 -1093.056)" fill="#54499d"/></g><g transform="translate(26.628 12.973)"><path d="M299.158,1104.138l-.009,3.255-1.472-.662.009-3.255Z" transform="translate(-297.676 -1103.475)" fill="#54499d"/></g><g transform="translate(31.498 13.494)"><path d="M307.7,1108.122l.009-3.254a.414.414,0,0,1,.17-.32l-.009,3.255A.414.414,0,0,0,307.7,1108.122Z" transform="translate(-307.703 -1104.548)" fill="#54499d"/></g><g transform="translate(34.166 13.194)"><path d="M313.98,1104.689l-.009,3.255c0-.237-.25-.471-.549-.644a2.481,2.481,0,0,0-.225-.115l.009-3.255a2.508,2.508,0,0,1,.225.115C313.731,1104.218,313.981,1104.452,313.98,1104.689Z" transform="translate(-313.197 -1103.93)" fill="#54499d"/></g><g transform="translate(32.285 13.064)"><path d="M311.88,1104.805l-.009,3.255-2.547-1.142.009-3.255Z" transform="translate(-309.324 -1103.663)" fill="#a5a0ca"/></g><g transform="translate(32.294 12.936)"><path d="M311.449,1103.772c.407.235.724.583.441.9l-2.547-1.142a2.567,2.567,0,0,1,1.881.13A2.416,2.416,0,0,1,311.449,1103.772Z" transform="translate(-309.343 -1103.399)" fill="#a5a0ca"/></g><g transform="translate(34.832 13.952)"><path d="M314.677,1108.747a.377.377,0,0,1-.108.254l.009-3.255a.376.376,0,0,0,.108-.254C314.683,1106.468,314.68,1107.77,314.677,1108.747Z" transform="translate(-314.569 -1105.492)" fill="#a5a0ca"/></g><g transform="translate(31.667 13.494)"><path d="M312.157,1106.379l-.009,3.255-4.1-1.831.009-3.255Z" transform="translate(-308.052 -1104.548)" fill="#54499d"/></g><g transform="translate(31.498 13.814)"><path d="M308.347,1109.2c-.43-.248-.645-.508-.644-.738l.009-3.255c0,.229.215.489.645.737Q308.352,1107.572,308.347,1109.2Z" transform="translate(-307.703 -1105.207)" fill="#a5a0ca"/></g><g transform="translate(32.142 14.551)"><path d="M309.39,1110.162a3.981,3.981,0,0,1-.36-.182q0-1.628.009-3.255a3.934,3.934,0,0,0,.36.182Q309.4,1108.535,309.39,1110.162Z" transform="translate(-309.03 -1106.725)" fill="#a5a0ca"/></g><g transform="translate(32.503 14.733)"><path d="M311.578,1110.688a4.644,4.644,0,0,1-1.806-.333q0-1.628.009-3.255a4.644,4.644,0,0,0,1.806.333C311.585,1108.409,311.581,1109.711,311.578,1110.688Z" transform="translate(-309.772 -1107.1)" fill="#a5a0ca"/></g><g transform="translate(35.763 14.208)"><path d="M317.2,1106.018l-.009,3.255a1.457,1.457,0,0,1-.707,1.117l.009-3.255A1.456,1.456,0,0,0,317.2,1106.018Z" transform="translate(-316.486 -1106.018)" fill="#54499d"/></g><g transform="translate(41.861 14.315)"><path d="M331.655,1107.4l-.009,3.255-2.6-1.163.009-3.255Z" transform="translate(-329.042 -1106.239)" fill="#a5a0ca"/></g><g transform="translate(44.464 15.478)"><path d="M335.046,1112.215a7.15,7.15,0,0,0-.645-.327l.009-3.255a7.141,7.141,0,0,1,.644.327Q335.051,1110.588,335.046,1112.215Z" transform="translate(-334.402 -1108.633)" fill="#a5a0ca"/></g><g transform="translate(34.309 15.066)"><path d="M313.819,1108.568l-.009,3.255-.32-.783.009-3.255Z" transform="translate(-313.491 -1107.785)" fill="#a5a0ca"/></g><g transform="translate(29.869 13.579)"><path d="M304.35,1107.978l.009-3.255c0,.462.367.959,1.163,1.419a6.149,6.149,0,0,0,.563.286,6.732,6.732,0,0,0,3.033.565l-.01,3.255a6.735,6.735,0,0,1-3.032-.565,6.241,6.241,0,0,1-.563-.286C304.717,1108.937,304.349,1108.44,304.35,1107.978Z" transform="translate(-304.35 -1104.723)" fill="#54499d"/></g><g transform="translate(42.6 15.604)"><path d="M331.633,1109.371l-.009,3.255-1.06-.477.009-3.255Z" transform="translate(-330.564 -1108.894)" fill="#54499d"/></g><g transform="translate(43.66 16.081)"><path d="M333.914,1111.118l-.009,3.255c0-.37-.266-.75-.822-1.071a3.743,3.743,0,0,0-.337-.171l.009-3.255a3.72,3.72,0,0,1,.337.171C333.649,1110.368,333.916,1110.749,333.914,1111.118Z" transform="translate(-332.746 -1109.876)" fill="#54499d"/></g><g transform="translate(45.109 15.805)"><path d="M337.2,1114.4c0-.615-.477-1.269-1.467-1.841q0-1.627.009-3.255c.99.572,1.468,1.227,1.467,1.842C337.2,1112.124,337.2,1113.426,337.2,1114.4Z" transform="translate(-335.729 -1109.306)" fill="#a5a0ca"/></g><g transform="translate(27.493 17.49)"><path d="M300.946,1116.213a1.6,1.6,0,0,0-1.489,0l.009-3.255a1.6,1.6,0,0,1,1.489,0Q300.951,1114.585,300.946,1116.213Z" transform="translate(-299.457 -1112.777)" fill="#a5a0ca"/></g><g transform="translate(37.297 14.315)"><path d="M324.217,1106.239l-.009,3.255-4.565,3.432.009-3.255Z" transform="translate(-319.643 -1106.239)" fill="#a5a0ca"/></g><g transform="translate(28.982 17.671)"><path d="M302.677,1116.483c-.048-.027-.1-.054-.154-.079q0-1.627.009-3.255c.055.025.106.051.154.078Q302.682,1114.855,302.677,1116.483Z" transform="translate(-302.523 -1113.149)" fill="#a5a0ca"/></g><g transform="translate(39.635 15.604)"><path d="M327.432,1108.894l-.009,3.255-2.966,2.226.009-3.255Z" transform="translate(-324.458 -1108.894)" fill="#54499d"/></g><g transform="translate(27.334 17.674)"><path d="M299.288,1116.41a.341.341,0,0,0-.159.268l.009-3.254a.342.342,0,0,1,.159-.269C299.295,1114.132,299.291,1115.433,299.288,1116.41Z" transform="translate(-299.129 -1113.155)" fill="#a5a0ca"/></g><g transform="translate(44.322 17.324)"><path d="M334.606,1115.689a1.062,1.062,0,0,1-.5.824q0-1.627.009-3.255a1.061,1.061,0,0,0,.5-.824C334.613,1113.41,334.609,1114.712,334.606,1115.689Z" transform="translate(-334.109 -1112.434)" fill="#a5a0ca"/></g><g transform="translate(29.136 17.75)"><path d="M303.233,1117.052c0-.165-.142-.34-.393-.486q0-1.627.009-3.255c.251.145.394.321.393.486C303.24,1114.773,303.236,1116.075,303.233,1117.052Z" transform="translate(-302.84 -1113.311)" fill="#a5a0ca"/></g><g transform="translate(39.635 17.83)"><path d="M325.532,1113.95l-.009,3.255-1.065-.474.009-3.255Z" transform="translate(-324.458 -1113.476)" fill="#a5a0ca"/></g><g transform="translate(27.334 17.942)"><path d="M299.129,1116.963l.009-3.255c0,.156.134.322.382.465a1.915,1.915,0,0,0,.173.087l-.009,3.255a1.853,1.853,0,0,1-.173-.088C299.263,1117.285,299.129,1117.118,299.129,1116.963Z" transform="translate(-299.129 -1113.708)" fill="#54499d"/></g><g transform="translate(27.889 18.235)"><path d="M301.922,1114.311l-.009,3.255a.344.344,0,0,1-.161.274,1.62,1.62,0,0,1-1.479-.015l.009-3.255a1.62,1.62,0,0,0,1.479.015A.345.345,0,0,0,301.922,1114.311Z" transform="translate(-300.272 -1114.311)" fill="#54499d"/></g><g transform="translate(27.343 17.49)"><path d="M299.7,1113.782a1.873,1.873,0,0,1-.173-.087c-.4-.232-.5-.523-.223-.734a1.6,1.6,0,0,1,1.489,0c.055.025.106.052.154.079.4.231.526.542.232.76A1.621,1.621,0,0,1,299.7,1113.782Z" transform="translate(-299.149 -1112.777)" fill="#54499d"/></g><g transform="translate(45.871 17.646)"><path d="M338.012,1113.1l-.009,3.255a1.531,1.531,0,0,1-.7,1.2l.009-3.255A1.53,1.53,0,0,0,338.012,1113.1Z" transform="translate(-337.298 -1113.097)" fill="#54499d"/></g><g transform="translate(39.644 15.604)"><path d="M328.839,1109.542c1,.577,1.064,1.343.325,1.9a3.773,3.773,0,0,1-3.623.156l-1.065-.474,2.965-2.225,1.06.477A3.716,3.716,0,0,1,328.839,1109.542Z" transform="translate(-324.477 -1108.894)" fill="#a5a0ca"/></g><g transform="translate(40.7 18.148)"><path d="M330.273,1117.386a3.775,3.775,0,0,1-3.623.156l.009-3.255a3.773,3.773,0,0,0,3.623-.156Q330.277,1115.758,330.273,1117.386Z" transform="translate(-326.65 -1114.131)" fill="#a5a0ca"/></g><g transform="translate(37.297 17.747)"><path d="M322.251,1114.466l-.009,3.255-2.6-1.16.009-3.255Z" transform="translate(-319.643 -1113.307)" fill="#54499d"/></g><g transform="translate(26.786 18.416)"><path d="M299.487,1115.348l-.009,3.255-1.478-.665.009-3.255Z" transform="translate(-298 -1114.682)" fill="#a5a0ca"/></g><g transform="translate(39.895 18.842)"><path d="M330.978,1115.561l-.009,3.255c-1.26.945-3.7,1.081-5.976.065l.009-3.255C327.28,1116.642,329.719,1116.506,330.978,1115.561Z" transform="translate(-324.993 -1115.561)" fill="#54499d"/></g><g transform="translate(45.733 18.938)"><path d="M341.551,1119.526c-1.472-.662-3.5-.727-4.538.056q0-1.628.009-3.255c1.043-.783,3.065-.719,4.538-.056Q341.555,1117.9,341.551,1119.526Z" transform="translate(-337.013 -1115.757)" fill="#a5a0ca"/></g><g transform="translate(50.271 19.452)"><path d="M346.788,1120.29a4.762,4.762,0,0,0-.431-.219q0-1.627.009-3.255a4.722,4.722,0,0,1,.431.219Q346.793,1118.663,346.788,1120.29Z" transform="translate(-346.357 -1116.816)" fill="#a5a0ca"/></g><g transform="translate(37.306 14.315)"><path d="M328.236,1110.766c-1.26.945-3.7,1.08-5.976.065l-2.6-1.16,4.565-3.433,2.6,1.163a7.118,7.118,0,0,1,.644.327C329.162,1108.7,329.362,1109.917,328.236,1110.766Zm-5.171-.539a3.773,3.773,0,0,0,3.623-.156c.739-.552.674-1.318-.325-1.9-.1-.059-.215-.116-.337-.171l-1.06-.477L322,1109.754l1.065.474" transform="translate(-319.662 -1106.239)" fill="#54499d"/></g><g transform="translate(31.244 20.326)"><path d="M307.189,1118.616c.008.1,0,.232,0,.331v1.083q0,.73,0,1.46,0-1.438.008-2.875Z" transform="translate(-307.181 -1118.616)" fill="#a5a0ca"/></g><g transform="translate(45.208 19.508)"><path d="M336.458,1120.186a1.125,1.125,0,0,0-.524.891l.009-3.255a1.125,1.125,0,0,1,.524-.891Q336.463,1118.559,336.458,1120.186Z" transform="translate(-335.934 -1116.931)" fill="#a5a0ca"/></g><g transform="translate(23.44 18.416)"><path d="M294.467,1114.682l-.009,3.255-3.345,2.517.009-3.255Z" transform="translate(-291.113 -1114.682)" fill="#a5a0ca"/></g><g transform="translate(24.918 19.081)"><path d="M297.51,1116.052l-.009,3.255-3.345,2.511.009-3.255Z" transform="translate(-294.155 -1116.052)" fill="#54499d"/></g><g transform="translate(28.224 19.886)"><path d="M303.981,1121.4a3.273,3.273,0,0,0-3.019-.124q0-1.437.008-2.875v-.38a3.271,3.271,0,0,1,3.019.123q0,1.627-.009,3.254,0-1.627.009-3.254h0c.127.057.258.121.385.194q0,1.626-.009,3.252,0-1.626.009-3.252h0q0,1.628-.009,3.254h0A4.206,4.206,0,0,0,303.981,1121.4Z" transform="translate(-300.962 -1117.71)" fill="#a5a0ca"/></g><g transform="translate(27.974 20.203)"><path d="M300.448,1122.066l.009-3.255a.585.585,0,0,1,.25-.449l-.009,3.254A.586.586,0,0,0,300.448,1122.066Z" transform="translate(-300.448 -1118.362)" fill="#a5a0ca"/></g><g transform="translate(46.889 19.846)"><path d="M342.682,1118.67l-.009,3.255a.9.9,0,0,0-.536-.71,2.125,2.125,0,0,0-.2-.1,2.491,2.491,0,0,0-2.261.073.615.615,0,0,0-.286.486l.009-3.254a.614.614,0,0,1,.286-.486,2.49,2.49,0,0,1,2.261-.074,2.055,2.055,0,0,1,.2.1A.9.9,0,0,1,342.682,1118.67Z" transform="translate(-339.394 -1117.629)" fill="#54499d"/></g><g transform="translate(50.702 19.671)"><path d="M348.388,1121.975c0-.509-.423-1.037-1.143-1.453q0-1.627.009-3.255c.72.416,1.145.945,1.143,1.453C348.395,1119.7,348.391,1121,348.388,1121.975Z" transform="translate(-347.245 -1117.267)" fill="#a5a0ca"/></g><g transform="translate(29.585 20.738)"><path d="M305.11,1120.026l-.009,3.255c0-.152-.147-.279-.3-.369a1.5,1.5,0,0,0-.136-.07,1,1,0,0,0-.839-.05.13.13,0,0,0-.06.105l.009-3.255a.131.131,0,0,1,.06-.106,1,1,0,0,1,.839.05c.043.02.09.043.135.07C304.963,1119.747,305.111,1119.875,305.11,1120.026Z" transform="translate(-303.764 -1119.465)" fill="#54499d"/></g><g transform="translate(29.585 20.917)"><path d="M304.01,1123.412c-.134-.115-.246-.229-.246-.324l.009-3.255c0,.1.111.209.246.324C304.016,1121.134,304.013,1122.436,304.01,1123.412Z" transform="translate(-303.764 -1119.833)" fill="#a5a0ca"/></g><g transform="translate(46.889 20.639)"><path d="M339.932,1123.225a.9.9,0,0,1-.538-.711l.009-3.255a.9.9,0,0,0,.538.71Q339.936,1121.6,339.932,1123.225Z" transform="translate(-339.394 -1119.26)" fill="#a5a0ca"/></g><g transform="translate(49.89 20.888)"><path d="M345.851,1123.029a.606.606,0,0,1-.278.479q0-1.627.009-3.254a.608.608,0,0,0,.278-.48C345.858,1120.751,345.854,1122.053,345.851,1123.029Z" transform="translate(-345.573 -1119.774)" fill="#a5a0ca"/></g><g transform="translate(47.427 21.349)"><path d="M340.688,1124.073a2.028,2.028,0,0,1-.187-.1q0-1.628.009-3.255a1.949,1.949,0,0,0,.187.1Q340.693,1122.445,340.688,1124.073Z" transform="translate(-340.501 -1120.723)" fill="#a5a0ca"/></g><g transform="translate(31.628 20.521)"><path d="M308.736,1123.275a1.257,1.257,0,0,0-.764-1q0-1.627.009-3.255a1.257,1.257,0,0,1,.764,1C308.743,1121,308.739,1122.3,308.736,1123.275Z" transform="translate(-307.972 -1119.017)" fill="#a5a0ca"/></g><g transform="translate(30.888 21.424)"><path d="M307.948,1121.127l-.009,3.255-1.49-.25.009-3.255Z" transform="translate(-306.449 -1120.877)" fill="#54499d"/></g><g transform="translate(30.889 21.3)"><path d="M306.482,1123.876a.262.262,0,0,1-.033.124l.009-3.255a.262.262,0,0,0,.033-.124C306.488,1121.6,306.484,1122.9,306.482,1123.876Z" transform="translate(-306.449 -1120.621)" fill="#a5a0ca"/></g><g transform="translate(26.344 21.295)"><path d="M298.571,1120.79l-.009,3.255-1.47-.18.009-3.255Z" transform="translate(-297.092 -1120.61)" fill="#a5a0ca"/></g><g transform="translate(27.974 20.652)"><path d="M300.448,1122.542l.009-3.255c0,.209.128.489.562.839l-.009,3.255C300.576,1123.031,300.448,1122.751,300.448,1122.542Z" transform="translate(-300.448 -1119.287)" fill="#54499d"/></g><g transform="translate(23.44 20.933)"><path d="M292.6,1120.524l-.009,3.255-1.477-.659.009-3.255Z" transform="translate(-291.113 -1119.865)" fill="#54499d"/></g><g transform="translate(23.45 18.416)"><path d="M295.955,1115.348l-3.345,2.511-1.478-.659,3.345-2.517Z" transform="translate(-291.132 -1114.682)" fill="#54499d"/></g><g transform="translate(26.266 21.294)"><path d="M296.931,1124.171l.009-3.255a.677.677,0,0,1,.078-.307l-.009,3.255A.675.675,0,0,0,296.931,1124.171Z" transform="translate(-296.931 -1120.61)" fill="#a5a0ca"/></g><g transform="translate(32.379 21.524)"><path d="M309.54,1121.083l-.009,3.255a.9.9,0,0,1-.014.15l.009-3.255A.894.894,0,0,0,309.54,1121.083Z" transform="translate(-309.517 -1121.083)" fill="#54499d"/></g><g transform="translate(27.745 21.474)"><path d="M299.976,1124.447l.009-3.255a.388.388,0,0,1,.069-.213l-.009,3.255A.388.388,0,0,0,299.976,1124.447Z" transform="translate(-299.976 -1120.98)" fill="#54499d"/></g><g transform="translate(47.613 21.368)"><path d="M343.162,1124.017a2.51,2.51,0,0,1-2.276.077q0-1.627.009-3.255a2.511,2.511,0,0,0,2.276-.076Q343.167,1122.39,343.162,1124.017Z" transform="translate(-340.886 -1120.762)" fill="#a5a0ca"/></g><g transform="translate(45.218 18.938)"><path d="M342.071,1118.829c-1.042.783-3.055.73-4.542.065-.15-.068-.292-.14-.423-.216-1.164-.672-1.574-1.642-.628-2.351,1.043-.783,3.066-.719,4.538-.056a4.735,4.735,0,0,1,.431.219C342.61,1117.163,343,1118.13,342.071,1118.829Zm-3.713-.565a2.511,2.511,0,0,0,2.276-.076c.467-.352.321-.856-.258-1.19a2.122,2.122,0,0,0-.2-.1,2.491,2.491,0,0,0-2.261.074c-.483.361-.323.865.252,1.2a1.942,1.942,0,0,0,.187.1" transform="translate(-335.953 -1115.757)" fill="#54499d"/></g><g transform="translate(46.898 19.846)"><path d="M342.156,1117.96c.579.335.725.839.258,1.19a2.512,2.512,0,0,1-2.276.076,1.938,1.938,0,0,1-.187-.1c-.575-.332-.735-.836-.252-1.2a2.49,2.49,0,0,1,2.261-.074A2.052,2.052,0,0,1,342.156,1117.96Z" transform="translate(-339.413 -1117.629)" fill="#a5a0ca"/></g><g transform="translate(29.83 21.242)"><path d="M304.851,1120.99l-.009,3.255-.572-.489.009-3.255Z" transform="translate(-304.27 -1120.501)" fill="#a5a0ca"/></g><g transform="translate(51.326 21.124)"><path d="M349.059,1120.259l-.009,3.255a1.119,1.119,0,0,1-.519.886l.009-3.255A1.119,1.119,0,0,0,349.059,1120.259Z" transform="translate(-348.531 -1120.259)" fill="#54499d"/></g><g transform="translate(28.536 21.492)"><path d="M302.262,1121.6l-.009,3.255-.649-.586.009-3.255Z" transform="translate(-301.604 -1121.016)" fill="#54499d"/></g><g transform="translate(27.745 21.687)"><path d="M300.423,1125.22c-.246-.142-.448-.334-.447-.547l.009-3.255c0,.213.2.4.447.547h0q0,1.627-.009,3.255Z" transform="translate(-299.976 -1121.418)" fill="#a5a0ca"/></g><g transform="translate(56.308 22.151)"><path d="M359.237,1125.855a4.719,4.719,0,0,0-.449-.226q0-1.627.009-3.255h0q0,1.625-.009,3.251.005-1.625.009-3.251a4.6,4.6,0,0,1,.449.226Q359.242,1124.228,359.237,1125.855Z" transform="translate(-358.788 -1122.374)" fill="#a5a0ca"/></g><g transform="translate(29.184 22.078)"><path d="M303.136,1122.475l-.009,3.255c0-.065-.057-.144-.187-.252l.009-3.254C303.079,1122.33,303.136,1122.41,303.136,1122.475Z" transform="translate(-302.94 -1122.223)" fill="#54499d"/></g><g transform="translate(29.309 22.329)"><path d="M303.268,1122.741l-.009,3.255a.141.141,0,0,1-.063.107l.009-3.255A.141.141,0,0,0,303.268,1122.741Z" transform="translate(-303.196 -1122.741)" fill="#a5a0ca"/></g><g transform="translate(28.192 22.234)"><path d="M301.088,1125.9c-.065-.029-.129-.062-.191-.1q.005-1.627.009-3.255c.062.035.126.068.191.1.331.144.753.236.926.106l-.009,3.255C301.841,1126.132,301.419,1126.04,301.088,1125.9Z" transform="translate(-300.897 -1122.544)" fill="#a5a0ca"/></g><g transform="translate(30.402 21.731)"><path d="M306.071,1125.607c0-.217-.147-.5-.623-.845q0-1.437.008-2.875v-.38c.476.346.623.628.623.844C306.077,1123.329,306.073,1124.63,306.071,1125.607Z" transform="translate(-305.448 -1121.508)" fill="#a5a0ca"/></g><g transform="translate(45.208 20.398)"><path d="M335.934,1122.02l.009-3.255c0,.512.43,1.044,1.152,1.46.132.076.273.148.423.216,1.488.666,3.5.718,4.542-.065l-.009,3.255c-1.042.783-3.055.73-4.542.064-.15-.068-.292-.14-.424-.216C336.364,1123.064,335.932,1122.532,335.934,1122.02Z" transform="translate(-335.934 -1118.765)" fill="#54499d"/></g><g transform="translate(51.172 21.595)"><path d="M348.76,1125.072a1.174,1.174,0,0,0-.546.915l.009-3.255a1.174,1.174,0,0,1,.546-.914q0,1.627-.009,3.254,0-1.627.009-3.255a4.817,4.817,0,0,1,4.589-.032q0,1.628-.009,3.255A4.815,4.815,0,0,0,348.76,1125.072Z" transform="translate(-348.214 -1121.229)" fill="#a5a0ca"/></g><g transform="translate(56.757 22.377)"><path d="M359.713,1126.1h0q.005-1.628.009-3.255h0a3.21,3.21,0,0,1,1.138,1.077l-.009,3.255A3.211,3.211,0,0,0,359.713,1126.1Z" transform="translate(-359.713 -1122.84)" fill="#a5a0ca"/></g><g transform="translate(60.44 23.099)"><path d="M368.446,1124.838l-.009,3.255-1.141-.512.009-3.255Z" transform="translate(-367.296 -1124.326)" fill="#a5a0ca"/></g><g transform="translate(58.52 23.223)"><path d="M364.222,1124.972l-.009,3.255-.871-.391.009-3.255Z" transform="translate(-363.342 -1124.58)" fill="#a5a0ca"/></g><g transform="translate(59.391 23.099)"><path d="M366.194,1124.326l-.009,3.255-1.049.515.009-3.255Z" transform="translate(-365.136 -1124.326)" fill="#a5a0ca"/></g><g transform="translate(26.276 19.886)"><path d="M302.312,1118.344c.454.262.843.633.75,1.153l-1.49-.25c.11-.207-.074-.38-.269-.493-.046-.027-.092-.05-.136-.07a1,1,0,0,0-.839-.05c-.147.109,0,.268.185.43l.572.489c.974.709.571,1.145.343,1.313-.683.515-2,.347-3.121-.153-.153-.069-.311-.148-.463-.236-.593-.342-1.093-.818-.817-1.36l1.47.18c-.195.3.053.571.378.759.062.035.126.068.191.1.331.144.753.236.926.106.106-.086.085-.186-.124-.359l-.648-.586c-.93-.753-.459-1.174-.312-1.289a3.271,3.271,0,0,1,3.019.123C302.055,1118.207,302.186,1118.272,302.312,1118.344Z" transform="translate(-296.95 -1117.71)" fill="#54499d"/></g><g transform="translate(26.266 21.601)"><path d="M301.7,1122.215l-.009,3.255a.61.61,0,0,1-.28.469c-.683.515-2,.347-3.121-.153-.153-.069-.311-.148-.463-.235-.478-.276-.9-.639-.9-1.054l.009-3.255c0,.414.417.777.9,1.053.152.088.31.167.463.236,1.121.5,2.438.668,3.121.153A.609.609,0,0,0,301.7,1122.215Z" transform="translate(-296.931 -1121.241)" fill="#54499d"/></g><g transform="translate(52.925 22.553)"><path d="M351.823,1127.2l.009-3.255a.58.58,0,0,1,.271-.453,2.434,2.434,0,0,1,2.307-.006,2.973,2.973,0,0,1,.282.143,1.726,1.726,0,0,1,.724.708l-.009,3.255a1.728,1.728,0,0,0-.724-.708,2.837,2.837,0,0,0-.282-.143,2.433,2.433,0,0,0-2.307.006A.58.58,0,0,0,351.823,1127.2Z" transform="translate(-351.823 -1123.201)" fill="#54499d"/></g><g transform="translate(56.51 23.455)"><path d="M360.6,1125.059l-.009,3.255-1.386.232.009-3.255Z" transform="translate(-359.203 -1125.059)" fill="#54499d"/></g><g transform="translate(57.755 23.223)"><path d="M362.542,1124.58l-.009,3.255-.764.574.009-3.255Z" transform="translate(-361.768 -1124.58)" fill="#a5a0ca"/></g><g transform="translate(57.755 23.797)"><path d="M362.542,1126.1l-.009,3.255-.764-.342.009-3.255Z" transform="translate(-361.768 -1125.762)" fill="#54499d"/></g><g transform="translate(60.761 23.611)"><path d="M368.787,1125.38l-.009,3.255-.82.618.009-3.255Z" transform="translate(-367.958 -1125.38)" fill="#54499d"/></g><g transform="translate(52.925 23.296)"><path d="M352.4,1128.7c-.381-.22-.578-.471-.577-.711l.009-3.255c0,.24.2.491.577.711a2.79,2.79,0,0,0,.265.134,4.3,4.3,0,0,0,1.674.351l-.009,3.255a4.319,4.319,0,0,1-1.674-.35A2.887,2.887,0,0,1,352.4,1128.7Z" transform="translate(-351.823 -1124.731)" fill="#a5a0ca"/></g><g transform="translate(60.761 24.229)"><path d="M369.378,1127.28l-.009,3.255-1.411-.627.009-3.255Z" transform="translate(-367.958 -1126.653)" fill="#a5a0ca"/></g><g transform="translate(57.047 24.138)"><path d="M361.792,1126.465l-.009,3.255-1.473,1.11.009-3.255Z" transform="translate(-360.31 -1126.465)" fill="#a5a0ca"/></g><g transform="translate(51.181 21.595)"><path d="M353.818,1122.012a3.209,3.209,0,0,1,1.138,1.077l-1.386.233a1.726,1.726,0,0,0-.724-.708,3.015,3.015,0,0,0-.282-.143,2.433,2.433,0,0,0-2.307.006c-.454.342-.33.8.306,1.164a2.827,2.827,0,0,0,.265.135,4.305,4.305,0,0,0,1.674.351l-.036.836a6.916,6.916,0,0,1-2.58-.562,5.59,5.59,0,0,1-.523-.265c-1.286-.742-1.468-1.651-.584-2.316a4.815,4.815,0,0,1,4.589-.033A4.654,4.654,0,0,1,353.818,1122.012Z" transform="translate(-348.232 -1121.229)" fill="#54499d"/></g><g transform="translate(55.406 24.491)"><path d="M356.976,1127.193l-.009,3.255-.036.836.009-3.255Z" transform="translate(-356.931 -1127.193)" fill="#54499d"/></g><g transform="translate(51.172 23.098)"><path d="M348.214,1127.579l.009-3.255c0,.469.373.965,1.131,1.4a5.659,5.659,0,0,0,.523.265,6.916,6.916,0,0,0,2.58.562l-.009,3.255a6.913,6.913,0,0,1-2.58-.562,5.575,5.575,0,0,1-.523-.265C348.587,1128.543,348.213,1128.048,348.214,1127.579Z" transform="translate(-348.214 -1124.324)" fill="#54499d"/></g><g transform="translate(61.408 24.856)"><path d="M370.064,1127.944l-.009,3.255-.764.574.009-3.255Z" transform="translate(-369.29 -1127.944)" fill="#54499d"/></g><g transform="translate(60.002 24.8)"><path d="M367.81,1128.459l-.009,3.255-1.406-.63.009-3.255Z" transform="translate(-366.395 -1127.829)" fill="#54499d"/></g><g transform="translate(56.567 25.248)"><path d="M359.322,1132.7l.009-3.255c0-.211.141-.444.48-.7l-.009,3.255C359.463,1132.26,359.322,1132.492,359.322,1132.7Z" transform="translate(-359.322 -1128.75)" fill="#a5a0ca"/></g><g transform="translate(58.433 24.8)"><path d="M364.743,1127.829l-.009,3.255-1.569,1.178.009-3.255Z" transform="translate(-363.165 -1127.829)" fill="#54499d"/></g><g transform="translate(58.315 25.978)"><path d="M362.921,1133.688l.009-3.255a.245.245,0,0,1,.118-.179l-.009,3.254A.247.247,0,0,0,362.921,1133.688Z" transform="translate(-362.921 -1130.254)" fill="#54499d"/></g><g transform="translate(58.315 26.157)"><path d="M363.059,1134.055c-.1-.058-.139-.119-.138-.177l.009-3.255c0,.058.039.119.138.177h0q-.005,1.627-.009,3.255Z" transform="translate(-362.921 -1130.623)" fill="#a5a0ca"/></g><g transform="translate(61.246 25.873)"><path d="M373.5,1133.807c-1.483-.662-3.5-.727-4.543.059q.005-1.627.009-3.255c1.048-.786,3.061-.721,4.543-.059Q373.5,1132.179,373.5,1133.807Z" transform="translate(-368.956 -1130.038)" fill="#a5a0ca"/></g><g transform="translate(58.454 26.057)"><path d="M363.27,1133.981a.7.7,0,0,1-.064-.032q0-1.627.009-3.255c.019.011.04.022.064.032a.679.679,0,0,0,.7-.065.806.806,0,0,0,.217-.244l-.009,3.255a.817.817,0,0,1-.217.244A.68.68,0,0,1,363.27,1133.981Z" transform="translate(-363.206 -1130.417)" fill="#a5a0ca"/></g><g transform="translate(59.435 26.057)"><path d="M366.408,1130.941l-.009,3.255-1.172-.524.009-3.255Z" transform="translate(-365.227 -1130.417)" fill="#a5a0ca"/></g><g transform="translate(65.789 26.387)"><path d="M378.74,1134.569a4.552,4.552,0,0,0-.429-.218q0-1.627.009-3.255a4.671,4.671,0,0,1,.429.218Q378.745,1132.941,378.74,1134.569Z" transform="translate(-378.311 -1131.096)" fill="#a5a0ca"/></g><g transform="translate(60.725 26.446)"><path d="M368.4,1134.472a1.123,1.123,0,0,0-.521.889l.009-3.255a1.123,1.123,0,0,1,.521-.889Q368.409,1132.844,368.4,1134.472Z" transform="translate(-367.883 -1131.217)" fill="#a5a0ca"/></g><g transform="translate(56.577 23.099)"><path d="M364.355,1124.838l-.82.618,1.411.627-.764.574-1.406-.63-1.569,1.178c-.13.1-.192.234.02.356.019.011.04.022.064.033a.68.68,0,0,0,.7-.065.807.807,0,0,0,.217-.244l1.172.524a.73.73,0,0,1-.278.35,2.756,2.756,0,0,1-2.7-.009,4.575,4.575,0,0,1-.421-.211c-.647-.374-.973-.855-.163-1.464l1.473-1.11-.764-.341.764-.574.871.391,1.049-.515Z" transform="translate(-359.341 -1124.326)" fill="#54499d"/></g><g transform="translate(56.567 25.947)"><path d="M359.322,1133.444l.009-3.255c0,.294.267.548.643.765a4.485,4.485,0,0,0,.421.211,2.755,2.755,0,0,0,2.7.009.728.728,0,0,0,.278-.35l-.009,3.255a.732.732,0,0,1-.278.35,2.755,2.755,0,0,1-2.7-.009,4.5,4.5,0,0,1-.421-.211C359.589,1133.992,359.321,1133.738,359.322,1133.444Z" transform="translate(-359.322 -1130.189)" fill="#54499d"/></g><g transform="translate(62.405 26.782)"><path d="M374.63,1132.955l-.009,3.255a.912.912,0,0,0-.543-.719,1.965,1.965,0,0,0-.186-.095,2.494,2.494,0,0,0-2.267.076.614.614,0,0,0-.283.485l.009-3.255a.614.614,0,0,1,.283-.485,2.493,2.493,0,0,1,2.267-.076,2.024,2.024,0,0,1,.185.094A.913.913,0,0,1,374.63,1132.955Z" transform="translate(-371.343 -1131.909)" fill="#54499d"/></g><g transform="translate(66.218 26.605)"><path d="M380.336,1136.254c0-.509-.422-1.039-1.142-1.454q0-1.627.009-3.255c.72.416,1.143.945,1.142,1.454C380.342,1133.975,380.339,1135.277,380.336,1136.254Z" transform="translate(-379.194 -1131.545)" fill="#a5a0ca"/></g><g transform="translate(62.405 27.575)"><path d="M371.875,1137.5a.9.9,0,0,1-.532-.706l.009-3.255a.9.9,0,0,0,.532.706Q371.879,1135.875,371.875,1137.5Z" transform="translate(-371.343 -1133.542)" fill="#a5a0ca"/></g><g transform="translate(65.409 27.828)"><path d="M377.8,1137.317a.6.6,0,0,1-.274.476q.005-1.627.009-3.255a.6.6,0,0,0,.274-.476C377.808,1135.038,377.8,1136.34,377.8,1137.317Z" transform="translate(-377.527 -1134.062)" fill="#a5a0ca"/></g><g transform="translate(62.937 28.281)"><path d="M372.633,1138.35a1.92,1.92,0,0,1-.2-.1q0-1.627.009-3.255a2,2,0,0,0,.2.1Q372.638,1136.722,372.633,1138.35Z" transform="translate(-372.438 -1134.996)" fill="#a5a0ca"/></g><g transform="translate(69.219 28.009)"><path d="M386.823,1135.08l-.009,3.255-1.442-.645.009-3.255Z" transform="translate(-385.372 -1134.436)" fill="#a5a0ca"/></g><g transform="translate(63.132 28.304)"><path d="M375.116,1138.3a2.5,2.5,0,0,1-2.276.076q.005-1.627.009-3.255a2.5,2.5,0,0,0,2.276-.076Q375.121,1136.67,375.116,1138.3Z" transform="translate(-372.84 -1135.042)" fill="#a5a0ca"/></g><g transform="translate(66.84 28.059)"><path d="M381,1134.539l-.009,3.255a1.124,1.124,0,0,1-.52.889l.009-3.255A1.123,1.123,0,0,0,381,1134.539Z" transform="translate(-380.475 -1134.539)" fill="#54499d"/></g><g transform="translate(69.932 28.654)"><path d="M387.578,1135.763l-.009,3.255-.729.548.009-3.255Z" transform="translate(-386.84 -1135.763)" fill="#54499d"/></g><g transform="translate(69.932 28.986)"><path d="M389.036,1139.94a2.806,2.806,0,0,0-2.2-.024q0-1.437.008-2.875v-.38a2.808,2.808,0,0,1,2.2.024C389.042,1137.662,389.039,1138.964,389.036,1139.94Z" transform="translate(-386.84 -1136.446)" fill="#a5a0ca"/></g><g transform="translate(71.523 29.41)"><path d="M391.082,1137.321l-.009,3.255-.956.721.009-3.255Z" transform="translate(-390.116 -1137.321)" fill="#54499d"/></g><g transform="translate(72.127 29.225)"><path d="M391.722,1137.125l-.009,3.255c-.046-.029-.082-.051-.115-.07a2.1,2.1,0,0,0-.237-.116l.009-3.255a2.23,2.23,0,0,1,.237.115C391.64,1137.074,391.676,1137.1,391.722,1137.125Z" transform="translate(-391.361 -1136.939)" fill="#a5a0ca"/></g><g transform="translate(60.725 27.335)"><path d="M367.883,1136.3l.009-3.255c0,.51.426,1.04,1.145,1.456a4.709,4.709,0,0,0,.432.219c1.488.665,3.5.721,4.538-.062l-.009,3.255c-1.042.783-3.05.727-4.538.062a4.688,4.688,0,0,1-.432-.219C368.309,1137.342,367.882,1136.812,367.883,1136.3Z" transform="translate(-367.883 -1133.047)" fill="#54499d"/></g><g transform="translate(65.879 28.009)"><path d="M381.844,1134.436l-.009,3.255-3.34,2.514.009-3.255Z" transform="translate(-378.495 -1134.436)" fill="#a5a0ca"/></g><g transform="translate(69.168 29.598)"><path d="M387.631,1138.241l-.009,3.255c-.04-.026-.085-.053-.13-.079-.158-.091-.337-.181-.451-.233a1.906,1.906,0,0,0-1.774,0l.009-3.255a1.906,1.906,0,0,1,1.774,0c.115.052.293.142.451.233C387.547,1138.189,387.591,1138.215,387.631,1138.241Z" transform="translate(-385.267 -1137.707)" fill="#54499d"/></g><g transform="translate(65.888 28.009)"><path d="M385,1135.767c.034.019.069.041.115.07l-.956.721c-.04-.026-.085-.053-.13-.08-.158-.091-.337-.18-.451-.233a1.906,1.906,0,0,0-1.774,0l-1.816,1.369-1.473-.662,3.34-2.514,1.442.644-.729.547a2.81,2.81,0,0,1,2.2.024A2.152,2.152,0,0,1,385,1135.767Z" transform="translate(-378.514 -1134.436)" fill="#54499d"/></g><g transform="translate(65.879 30.523)"><path d="M379.976,1140.274l-.009,3.255-1.473-.662.009-3.255Z" transform="translate(-378.495 -1139.612)" fill="#54499d"/></g><g transform="translate(67.351 29.817)"><path d="M383.353,1138.157l-.009,3.255-1.817,1.369.009-3.255Z" transform="translate(-381.527 -1138.157)" fill="#54499d"/></g><g transform="translate(0.009)"><path d="M325.683,1104.243,304.322,1120.3l-61.455-27.482,21.356-16.049Zm-42.921-8.572c2.278,1.016,4.716.88,5.976-.065,1.125-.85.925-2.064-.762-3.038a7.146,7.146,0,0,0-.644-.327l-2.6-1.163-4.565,3.433,2.6,1.16m-13.267-5.935,1.473.662,1.827-1.369c.768-.582,1.141-1.249.1-1.847a3.447,3.447,0,0,0-.329-.166,3.822,3.822,0,0,0-2.106-.306l1.827-1.375-1.478-.659-4.716,3.544,1.477.66,1.8-1.345a1.722,1.722,0,0,1,1.793-.185,1.6,1.6,0,0,1,.16.081c.5.29.388.635-.033.955l-1.8,1.351m-5.961-2.661,3.72-2.793,1.972.88.85-.636-5.446-2.434-.85.636,1.956.871-3.714,2.8,1.513.68m41.636,18.7c1.488.665,3.5.721,4.538-.062.931-.7.543-1.67-.622-2.343a4.58,4.58,0,0,0-.429-.218c-1.483-.662-3.5-.727-4.543.059-.939.7-.537,1.674.624,2.344a4.746,4.746,0,0,0,.432.219m-15.518-6.935c1.488.666,3.5.718,4.542-.064.931-.7.539-1.667-.625-2.339a4.715,4.715,0,0,0-.431-.219c-1.473-.662-3.5-.727-4.538.056-.946.709-.536,1.679.628,2.351a4.749,4.749,0,0,0,.423.216m-15.117-8.581,4.1,1.831c1.192-.893.746-1.858-.371-2.5a4.485,4.485,0,0,0-.417-.212,4.931,4.931,0,0,0-4.568.068c-.847.639-.734,1.534.625,2.32a6.188,6.188,0,0,0,.563.286,6.731,6.731,0,0,0,3.033.565l-.32-.783a4.646,4.646,0,0,1-1.806-.333,3.871,3.871,0,0,1-.36-.182c-.649-.374-.81-.777-.475-1.057m25.964,13.429a2.755,2.755,0,0,0,2.7.009.728.728,0,0,0,.278-.35l-1.172-.524a.81.81,0,0,1-.217.245.68.68,0,0,1-.7.065.666.666,0,0,1-.064-.033c-.212-.122-.15-.259-.02-.356l1.569-1.177,1.406.63.764-.574-1.411-.627.82-.618-1.141-.512-1.049.515-.871-.391-.765.574.765.341-1.473,1.11c-.81.609-.484,1.09.163,1.464a4.545,4.545,0,0,0,.421.211m-4.8-2.158a6.916,6.916,0,0,0,2.58.562l.036-.836a4.306,4.306,0,0,1-1.674-.351,2.919,2.919,0,0,1-.265-.134c-.636-.367-.76-.821-.306-1.164a2.433,2.433,0,0,1,2.307-.006,3.024,3.024,0,0,1,.282.143,1.727,1.727,0,0,1,.724.708l1.386-.233a3.211,3.211,0,0,0-1.138-1.077,4.737,4.737,0,0,0-.45-.227,4.816,4.816,0,0,0-4.589.033c-.883.666-.7,1.574.584,2.317a5.632,5.632,0,0,0,.523.265m-25.2-1.875c1.121.5,2.438.668,3.121.153.228-.168.631-.6-.343-1.313l-.572-.489c-.189-.162-.332-.321-.186-.43a1,1,0,0,1,.839.05c.043.02.089.043.135.069.2.113.379.286.269.493l1.49.25c.093-.521-.3-.891-.75-1.153a4.283,4.283,0,0,0-.385-.195,3.271,3.271,0,0,0-3.019-.123c-.147.115-.617.536.312,1.289l.648.586c.209.173.23.274.124.359-.172.13-.594.038-.926-.106-.065-.029-.129-.062-.191-.1-.326-.188-.573-.462-.378-.76l-1.47-.179c-.276.541.224,1.017.817,1.36.152.088.31.167.463.236m43.769,7.162c.046.026.09.053.13.079l.956-.721c-.046-.029-.082-.051-.115-.07a2.136,2.136,0,0,0-.237-.116,2.809,2.809,0,0,0-2.2-.024l.729-.547-1.442-.644-3.34,2.514,1.473.662,1.816-1.369a1.906,1.906,0,0,1,1.774,0c.115.052.293.142.451.233m-47.952-9.12,1.477.659,3.345-2.511-1.477-.665-3.345,2.517m4.052-3.259c-.282.211-.178.5.223.734a1.85,1.85,0,0,0,.173.087,1.62,1.62,0,0,0,1.479.015c.294-.219.169-.529-.232-.76-.048-.027-.1-.054-.154-.079a1.6,1.6,0,0,0-1.489,0" transform="translate(-242.867 -1076.764)" fill="#a5a0ca"/></g><g transform="translate(29.879 12.092)"><path d="M307,1104.3a4.648,4.648,0,0,0,1.806.333l.32.783a6.73,6.73,0,0,1-3.032-.565,6.177,6.177,0,0,1-.563-.286c-1.359-.785-1.472-1.68-.625-2.32a4.931,4.931,0,0,1,4.568-.068,4.455,4.455,0,0,1,.417.212c1.116.644,1.562,1.608.371,2.5l-4.1-1.831c-.335.281-.174.683.475,1.057A3.937,3.937,0,0,0,307,1104.3Zm1.663-1.54a2.567,2.567,0,0,0-1.881-.13l2.547,1.142c.283-.314-.034-.663-.441-.9a2.476,2.476,0,0,0-.225-.115" transform="translate(-304.369 -1101.661)" fill="#54499d"/></g><g transform="translate(60.734 25.873)"><path d="M374.017,1133.113c-1.042.783-3.05.727-4.538.062a4.749,4.749,0,0,1-.432-.219c-1.161-.67-1.563-1.64-.624-2.344,1.048-.786,3.061-.721,4.543-.059a4.6,4.6,0,0,1,.429.218C374.56,1131.443,374.948,1132.412,374.017,1133.113Zm-3.708-.568a2.5,2.5,0,0,0,2.276-.076c.465-.351.315-.858-.268-1.195a2,2,0,0,0-.186-.095,2.493,2.493,0,0,0-2.267.076c-.476.357-.323.861.249,1.191a1.946,1.946,0,0,0,.2.1" transform="translate(-367.901 -1130.038)" fill="#54499d"/></g><g transform="translate(62.414 26.782)"><path d="M374.1,1132.236c.584.337.734.844.269,1.195a2.5,2.5,0,0,1-2.276.076,2.026,2.026,0,0,1-.2-.1c-.573-.33-.725-.834-.249-1.191a2.493,2.493,0,0,1,2.267-.076A2.028,2.028,0,0,1,374.1,1132.236Z" transform="translate(-371.362 -1131.909)" fill="#a5a0ca"/></g><g transform="translate(61.454 27.479)"><path d="M390.755,1133.344l-.009,3.255-21.361,16.052.009-3.255Z" transform="translate(-369.385 -1133.344)" fill="#535075"/></g><g transform="translate(0 16.049)"><path d="M304.312,1137.292l-.009,3.255-61.454-27.482.009-3.255Z" transform="translate(-242.848 -1109.81)" fill="#535075"/></g></g><g transform="translate(26.303 17.872)"><g style="isolation:isolate"><g clip-path="url(#c)"><g transform="translate(3.178 3.851)"><path d="M316.211,1126.848a3.524,3.524,0,0,0-.713-.305,3.621,3.621,0,0,0-3.456.467c-.513.553-.253,1.185.51,1.625a3.578,3.578,0,0,0,.719.308,3.619,3.619,0,0,0,3.443-.474c.513-.553.254-1.184-.5-1.621m-4.9,2.345c-1.322-.763-1.769-1.851-.97-2.713,1.014-1.092,3.645-1.414,5.878-.718a6.085,6.085,0,0,1,1.222.525c1.319.762,1.768,1.851.968,2.714-1.014,1.092-3.645,1.414-5.865.722a6.149,6.149,0,0,1-1.233-.53m9.626,2.177a2.43,2.43,0,0,0,.487.207,2.235,2.235,0,0,0,2.242-.333l2.212-2.385,1.718.539-2.212,2.385c-.913.986-2.878,1.051-4.621.508a5.8,5.8,0,0,1-1.158-.492c-.957-.552-1.326-1.287-.643-2.025l2.212-2.385,1.719.539-2.212,2.385c-.38.409-.207.789.255,1.056m6.82-1,.66-.711,6.09,1.9-.658.712-2.207-.689-2.9,3.126-1.7-.532,2.9-3.126-2.186-.684m12.185.186-28.986-9.059-7.41,7.988,28.986,9.059,7.41-7.988" transform="translate(-303.55 -1121.493)" fill="#edecf4"/><g transform="translate(6.398 3.902)"><path d="M319.328,1132.768c-.763-.44-1.023-1.072-.51-1.625a3.619,3.619,0,0,1,3.456-.467,3.517,3.517,0,0,1,.714.3c.757.437,1.016,1.068.5,1.621a3.62,3.62,0,0,1-3.443.474,3.572,3.572,0,0,1-.719-.309m4.894-2.348A6.091,6.091,0,0,0,323,1129.9c-2.233-.7-4.864-.374-5.878.718-.8.861-.352,1.949.97,2.713a6.155,6.155,0,0,0,1.233.53c2.22.693,4.851.37,5.865-.722.8-.862.351-1.952-.968-2.713" transform="translate(-316.724 -1129.528)" fill="#4a4295"/></g><g transform="translate(15.068 5.897)"><path d="M343.559,1135.644l-1.718-.539-2.212,2.385a2.235,2.235,0,0,1-2.242.333,2.421,2.421,0,0,1-.487-.207c-.462-.267-.636-.647-.255-1.056l2.212-2.385-1.719-.539-2.212,2.385c-.684.738-.314,1.473.643,2.025a5.8,5.8,0,0,0,1.158.492c1.743.543,3.708.478,4.621-.508l2.212-2.385" transform="translate(-334.575 -1133.635)" fill="#4a4295"/></g><g transform="translate(23.498 8.162)"><path d="M359.4,1140.2l-6.09-1.9-.66.711,2.186.684-2.9,3.126,1.7.531,2.9-3.126,2.208.689.657-.712" transform="translate(-351.932 -1138.298)" fill="#4a4295"/></g></g></g></g></g></g><g transform="translate(193.712 16.989)"><g transform="translate(0.977)"><path d="M427.667,860.965c-7.314-.044-10.728-14.507-10.728-14.507-.738.029-2.89.874-2.919.243a10.068,10.068,0,0,1,.835-1.239s0-.01.015-.014a18.28,18.28,0,0,1,4.322-3.842c.039-.024.073-.049.107-.068a.172.172,0,0,1,.039-.024.385.385,0,0,1,.068-.044l.253-.155s0,0,.01,0a14.69,14.69,0,0,0,11.627,8.509S426.565,855.079,427.667,860.965Z" transform="translate(-414.02 -841.31)" fill="#edecf4"/></g><g transform="translate(0 5.148)"><path d="M426.632,866.417c-6.707,1-12.894-3.871-14.429-9.48a6.144,6.144,0,0,1,.782-4.784c.029.631,2.181-.214,2.919-.243C415.9,851.91,419.318,866.373,426.632,866.417Z" transform="translate(-412.008 -851.91)" fill="#c9c6df"/></g></g><g transform="translate(212.693 102.995)"><path d="M451.091,1033.826s2.383-2.642,2.045-5.344c3.715-1.3,9.119-4.294,11.338-10.084a12.25,12.25,0,0,1,2.83,4.538l-6.739,9.31Z" transform="translate(-451.091 -1018.398)" fill="#edecf4"/><g transform="translate(0 4.538)"><path d="M467.3,1027.741s-10.165,9.938-16.214,10.89c4.7,1.8,8.4,1.29,11.261-1.291S467.3,1027.741,467.3,1027.741Z" transform="translate(-451.091 -1027.741)" fill="#c9c6df"/></g></g><g transform="translate(285.905 133.566)"><g transform="translate(0.536 0.562)" opacity="0.5"><path d="M640.427,1082.5l14.481,16.621-46.126,16.369-5.842-20.652Z" transform="translate(-602.942 -1082.501)" fill="#535075"/></g><path d="M639.323,1081.345l14.482,16.621-46.126,16.369-5.842-20.653Z" transform="translate(-601.837 -1081.345)" fill="#edecf4"/><g transform="translate(3.978 3.198)"><g transform="translate(5.602 7.523)"><path d="M623.1,1103.42l-1.541.464,6.574,15.651,1.934-.71Z" transform="translate(-621.561 -1103.42)" fill="#dbd9ea"/></g><g transform="translate(8.081 6.776)"><path d="M628.21,1101.882l-1.543.464,6.943,15.352,1.935-.71Z" transform="translate(-626.667 -1101.882)" fill="#dbd9ea"/></g><g transform="translate(10.566 6.028)"><path d="M633.328,1100.342l-1.544.465,7.309,15.054,1.935-.71Z" transform="translate(-631.784 -1100.342)" fill="#dbd9ea"/></g><g transform="translate(0 10.52)"><path d="M615.6,1125.13l-5.575-15.539,4.2,16.043Z" transform="translate(-610.028 -1109.591)" fill="#dbd9ea"/></g><g transform="translate(0.657 9.012)"><path d="M612.918,1106.486l-1.537.463,5.83,16.25,1.931-.708Z" transform="translate(-611.381 -1106.486)" fill="#dbd9ea"/></g><g transform="translate(13.057 5.279)"><path d="M638.457,1098.8l-1.544.465,7.673,14.757,1.934-.71Z" transform="translate(-636.913 -1098.799)" fill="#dbd9ea"/></g><g transform="translate(3.127 8.268)"><path d="M618.005,1104.954l-1.54.463,6.2,15.95,1.933-.709Z" transform="translate(-616.466 -1104.954)" fill="#dbd9ea"/></g><g transform="translate(28.12 0.75)"><path d="M669.458,1089.474l-1.53.46,9.8,12.984,1.915-.7Z" transform="translate(-667.928 -1089.474)" fill="#dbd9ea"/></g><g transform="translate(25.595 1.509)"><path d="M664.262,1091.036l-1.534.462,9.451,13.277,1.92-.7Z" transform="translate(-662.728 -1091.036)" fill="#dbd9ea"/></g><g transform="translate(30.652)"><path d="M675.623,1089.051l-.991-1.121-1.49.448,10.142,12.69,1.909-.7Z" transform="translate(-673.142 -1087.93)" fill="#dbd9ea"/></g><g transform="translate(15.553 4.528)"><path d="M643.595,1097.253l-1.544.464,8.034,14.46,1.933-.709Z" transform="translate(-642.051 -1097.253)" fill="#dbd9ea"/></g><g transform="translate(18.055 3.775)"><path d="M648.745,1095.7l-1.542.464,8.392,14.163,1.931-.708Z" transform="translate(-647.202 -1095.704)" fill="#dbd9ea"/></g><g transform="translate(23.075 2.266)"><path d="M659.077,1092.6l-1.538.463,9.1,13.572,1.925-.706Z" transform="translate(-657.539 -1092.595)" fill="#dbd9ea"/></g><g transform="translate(20.562 3.021)"><path d="M653.905,1094.151l-1.541.464,8.748,13.867,1.928-.707Z" transform="translate(-652.365 -1094.151)" fill="#dbd9ea"/></g></g></g><g transform="translate(47.888)"><g transform="translate(69.107 18.128)"><path d="M266.8,849.915l-.235-.062a.613.613,0,0,0-.133-.481c-1.255-1.883-9.666-5.1-12.386-5.476l.034-.241c2.437.34,11.2,3.553,12.554,5.581A.837.837,0,0,1,266.8,849.915Z" transform="translate(-254.047 -843.656)" fill="#e64097"/></g><g transform="translate(102.241 38.378)"><path d="M322.271,885.351" transform="translate(-322.271 -885.351)" fill="#dbd9ea"/></g><g transform="translate(0 34.393)"><path d="M115.066,884.634a24.834,24.834,0,0,1-3-5.016c-.641-1.2-.213-2.269.427-2.456s2.99,1.335,4.351,1.816a4.6,4.6,0,0,1,2.473,3.162c.356,1.189-1.806.548-2.607,1.136S115.066,884.634,115.066,884.634Z" transform="translate(-111.753 -877.146)" fill="#120e41"/><g transform="translate(4.265 0.709)"><path d="M120.534,880.321l.675-1.716,1.041.394.591,2.363Z" transform="translate(-120.534 -878.605)" fill="#120e41"/></g><g transform="translate(0.844 1.671)"><path d="M116.292,885.475c-.724-.463-3.264-4.568-2.729-4.858s3.432,1.482,4.164,2.635S116.292,885.475,116.292,885.475Z" transform="translate(-113.49 -880.586)" fill="#9ea2cd"/></g></g><g transform="translate(105.998 102.456)"><path d="M330.006,1021.758c.852-.913,1.88-4.332,1.88-4.332l3.365,3.046-3.159.029s2.316-2.41,4.05-2.839,3.663-.7,3.149.416c-1.413,3.074-5.081,5.847-5.081,5.847Z" transform="translate(-330.006 -1017.289)" fill="#120e41"/></g><g transform="translate(107.493 102.959)"><path d="M334.106,1020.763a25.677,25.677,0,0,1,4.444-2.285c1.779-.663.043.917-2.408,3.193-.748.7-2.054,1.484-2.839.428S334.106,1020.763,334.106,1020.763Z" transform="translate(-333.085 -1018.325)" fill="#9ea2cd"/></g><g transform="translate(3.198 38.807)"><path d="M178.34,919.1a13.859,13.859,0,0,1-3.795,1.679c-8.11,2.562-24.875,4.352-35.435,4.17-4.492-.074-7.863-.507-8.964-1.386-2.636-2.1-5.156-12.293-7.277-20.1-1.287-4.744-4.278-13.621-4.488-14.723-.334-1.758,1.373-2.4,2.359-2.5s2.632,1.848,3.437,2.4c0,0,6.159,4.084,7.607,6.708.3.541,1,.924,1.5,1.642,1.894,2.76,3.642,7.747,4.847,11.728,6.679-3.874,23.435-13.085,30.213-12.153C168.341,896.568,184.685,914.488,178.34,919.1Z" transform="translate(-118.338 -886.234)" fill="#535075"/></g><g transform="translate(23.97 57.766)" opacity="0.1"><path d="M196.543,940.857c-8.11,2.562-24.875,4.352-35.435,4.17,1.167-9.146,17.363-19.755,25.374-19.755A84,84,0,0,1,196.543,940.857Z" transform="translate(-161.108 -925.272)" fill="#120e41"/></g><g transform="translate(39.362 45.313)"><path d="M261.132,963.126l2.31-5.019L237.2,932.815l-29.4-32.828-4.191-.359c-5.111,2.079-10.771,7.732-10.814,11.283-.174,14.275,17.043,19.414,24.677,23.865s21.634,15.847,21.634,15.847Z" transform="translate(-192.8 -899.629)" fill="#535075"/></g><g transform="translate(58.503 55.73)" opacity="0.1"><path d="M233.114,922.626s.466,7.807-.9,9.443l2.031.956s2.232-7.762,1.252-10.711S233.114,922.626,233.114,922.626Z" transform="translate(-232.212 -921.079)" fill="#120e41"/></g><g transform="translate(50.177 44.591)"><path d="M218.382,898.143l.879,1.081-4.191-.359A9.92,9.92,0,0,1,218.382,898.143Z" transform="translate(-215.069 -898.143)" fill="#403773"/></g><g transform="translate(41.408 14.026)"><path d="M227.7,853.816c-11.792-1.617-8.159-8.164-20.558-9.869-1.943-.267-3.477,1.748-4.541,4.114a20.465,20.465,0,0,0-1.724,6.382c-.015,2.016.262,5.741-1.68,5.206s-1.773-2.433-1.967-4.211a35.712,35.712,0,0,1,.141-8.931,16.487,16.487,0,0,1,.515-2.21c1.243-3.953,8.893-9.757,14.23-9.024s17.027,6.158,20.126,7.96C238.988,847.148,234.054,854.69,227.7,853.816Z" transform="translate(-197.014 -835.21)" fill="#fff"/></g><g transform="translate(74.281 15.759)"><path d="M271.067,840.769v.481L271.052,845l0,.753-.024,6.362-6.323-4.41s.971-1.967,1.889-4.045c.126-.282.248-.563.369-.845.34-.792.656-1.564.879-2.215.107-.3.194-.578.253-.816a4.173,4.173,0,0,0,.1-.466.618.618,0,0,1,.262-.5C269.178,838.424,271.067,840.769,271.067,840.769Z" transform="translate(-264.7 -838.776)" fill="#9ea2cd"/></g><g transform="translate(76.428 15.759)"><path d="M273.34,840.769v.481L273.326,845a15.273,15.273,0,0,1-4.094-2.186c-.039-.029-.078-.058-.112-.087.442-1,.879-2.016,1.243-2.943.136-.34.257-.66.364-.966C271.451,838.424,273.34,840.769,273.34,840.769Z" transform="translate(-269.12 -838.776)" fill="#928ebf"/></g><g transform="translate(79.29 26.929)"><path d="M275.013,861.777" transform="translate(-275.013 -861.777)" fill="#4a4295"/></g><g transform="translate(36.774 23.905)"><path d="M229.364,874.993c2.6-2.893,6.329-7.613,2.609-14.051-1.325-2.294-2.338-5.985-8.17-5.312-4.462.515-6.945,10.686-13.7,14.393-6.416,3.52-22.632,11.509-22.632,11.509s15.6,12.61,25.012,7.077c4.38-2.575,5.626-6.666,9.963-9.241S229.364,874.993,229.364,874.993Z" transform="translate(-187.471 -855.55)" fill="#4a4295"/></g><g transform="translate(87.987 42.85)"><path d="M292.921,894.559" transform="translate(-292.921 -894.559)" fill="#bcbec0"/></g><g transform="translate(52.567 1.812)"><path d="M223.226,811.155c.14.852-1.244,1.689-2.021,1.817a.933.933,0,0,1-1.208-.866,2.453,2.453,0,0,1,1.72-2.034C222.606,809.926,223.226,811.155,223.226,811.155Z" transform="translate(-219.99 -810.06)" fill="#120e41"/></g><g transform="translate(109.143 107.578)"><path d="M336.482,1028.824l.762-.989,2.071,1.3-.929.719Z" transform="translate(-336.482 -1027.835)" fill="#120e41"/></g><g transform="translate(101.404 35.432)"><path d="M320.546,883a5,5,0,0,1,1.217-2.854c.483-.32,1.881-.3,2.5-.866.289.745-.305,1.4-1.018,1.664a1.958,1.958,0,0,0-.977,1.218" transform="translate(-320.546 -879.285)" fill="#9ea2cd"/></g><g transform="translate(74.282 45.625)"><path d="M264.7,900.319s6.744-.469,2.718,1.564" transform="translate(-264.702 -900.272)" fill="#edecf4"/></g><g transform="translate(36.572 20.556)"><path d="M198.593,881.276c-3.339-1.932-5.986-3.836-7.612-4.644a3.121,3.121,0,0,0-2.988.285.3.3,0,0,1-.355-.024c-.224-.186-.646-.441-.574-.522,3.187-3.564,14.578-5.5,21.827-12.21,5.2-4.816,11.344-15.814,15.381-15.5,6.839.53,7.457,19.908,5.454,22.228s-12.7,7.93-17.991,10.116-8.189,2.537-13.142.272" transform="translate(-187.056 -848.653)" fill="#fff"/></g><g transform="translate(46.797 44.895)"><path d="M235.595,899.546c-8.724,4.675-19.072.508-21.081,3.47-1.775,2.615-4.338,4.573-6.4,3.435,4.164,1.727,6.429,2.616,9.532,2.2s18.21-7.361,19.61-9.108-1.657,0-1.657,0" transform="translate(-208.11 -898.77)" fill="#edecf4"/></g><g transform="translate(41.408 25.323)"><path d="M200.878,866.406c-.015,2.016.262,5.741-1.68,5.206s-1.773-2.433-1.967-4.211a35.712,35.712,0,0,1,.141-8.931c.952.287,3.633,1.083,5.231,1.554A20.465,20.465,0,0,0,200.878,866.406Z" transform="translate(-197.014 -858.47)" fill="#9ea2cd"/></g><g transform="translate(93.072 39.058)"><path d="M313.472,890.611c-.078.068-.175.165-.3.282-.272.253-.66.612-1.151,1.039-.078.073-.155.141-.243.214-.253.219-.525.456-.816.7-.675.563-1.457,1.19-2.326,1.836a39.751,39.751,0,0,1-3.385,2.258c-.151.092-.3.18-.452.267l-.466.262c-.311.17-.626.34-.942.5v-7.227a12.463,12.463,0,0,0,8.159-3.992Z" transform="translate(-303.39 -886.75)" fill="#fff"/></g><g transform="translate(93.072 36.518)"><path d="M316.993,886.1c-.393.534-3.511,1.865-3.778,2.1-.01.01-.024.01-.044,0-.272.252-.66.612-1.151,1.039-.078.073-.155.141-.243.214-.253.219-.525.456-.816.7-.675.568-1.457,1.195-2.326,1.836a39.765,39.765,0,0,1-3.385,2.258c-.151.092-.3.18-.452.267l-.466.262c-.311.17-.626.34-.942.5v-7.227a12.463,12.463,0,0,0,8.159-3.992l2.006-1.986c.942-.126,2.836-1.17,3.458-.015A5.472,5.472,0,0,1,316.993,886.1Z" transform="translate(-303.39 -881.521)" fill="#9ea2cd"/></g><g transform="translate(70.468 26.058)"><path d="M279.56,876.483l.181,8.178a17.206,17.206,0,0,1-10.634,1.654c-8.868-1.642-12.943-16.25-12.166-18.077s1.331-8.412,5.7-8.252c3.91.146,7.6,16.221,11.729,16.79A23.82,23.82,0,0,0,279.56,876.483Z" transform="translate(-256.848 -859.984)" fill="#fff"/></g><g transform="translate(44.244 32.923)"><path d="M202.852,874.118a5,5,0,0,1,2.057,2.322c.082.573-.537,1.828-.287,2.626-.8-.057-1.136-.877-1.067-1.633a1.962,1.962,0,0,0-.682-1.405" transform="translate(-202.852 -874.118)" fill="#9ea2cd"/></g><g transform="translate(66.174 18.027)"><path d="M262.946,850.358A9.578,9.578,0,0,1,260,849.329a33.314,33.314,0,0,0-8.348-2.732c-1.973-.324-3.776-1.523-3.64-2.422.058-.38.517-.965,2.961-.626l-.034.241c-2.382-.331-2.659.239-2.686.422-.092.607,1.343,1.8,3.439,2.145a33.526,33.526,0,0,1,8.407,2.75c1.544.685,2.661,1.181,3.128.955a.443.443,0,0,0,.232-.316l.235.062a.686.686,0,0,1-.361.474A.883.883,0,0,1,262.946,850.358Z" transform="translate(-248.006 -843.447)" fill="#e64097"/></g><g transform="translate(66.739 17.861)"><ellipse cx="0.34" cy="0.34" rx="0.34" ry="0.34" fill="#4a4295"/></g><g transform="translate(67.304 20.001)"><ellipse cx="0.34" cy="0.34" rx="0.34" ry="0.34" fill="#4a4295"/></g><g transform="translate(65.595 18.011)"><ellipse cx="0.701" cy="0.701" rx="0.701" ry="0.701" fill="#e64097"/></g><g transform="translate(69.757 1.812)"><path d="M265.035,810.125c-6.124-.841-9.517,6.711-9.647,9.553s5.638,8.056,11.761,8.9c4.133.568,5.7-1.878,6.013-4.174S272.179,811.107,265.035,810.125Z" transform="translate(-255.385 -810.06)" fill="#9ea2cd"/></g><g transform="translate(57.254 0.749)"><path d="M243.214,812c-1.273-.7-.627-3.017-1.748-3.906s-1.174,1.083-2,2.126-6.379-2.356-8.433.232a5.416,5.416,0,0,0,.928,8.072C236.714,822.332,243.214,812,243.214,812Z" transform="translate(-229.641 -807.872)" fill="#120e41"/></g><g transform="translate(68.862)"><path d="M263.255,806.329c4.463,0,8.535,2.511,8.742,4.82.265,2.947-1.824,3.75-3.951,3.75-2.766,0-6.365-1.313-5.487,1.475.4,1.279,1.885,2.033,1.362,3.061-.872,1.717-2.278,1.2-2.417,2.822s3.919,4.221,1.413,4.007-9.376-1.672-9.376-8.1C253.542,811.554,254.795,806.329,263.255,806.329Z" transform="translate(-253.542 -806.329)" fill="#120e41"/></g><g transform="translate(86.338 9.914)"><path d="M289.934,826.941c-.1-.366-.443-.259-.405.594a26.028,26.028,0,0,0,.516,3.272s2.535.509,1.921-.663S290.262,828.19,289.934,826.941Z" transform="translate(-289.526 -826.742)" fill="#54499d"/></g><g transform="translate(84.95 16.36)"><path d="M286.668,840.509s2.512-.945,2.728-.221-.346,1.037-1.008.993A4.866,4.866,0,0,1,286.668,840.509Z" transform="translate(-286.668 -840.015)" fill="#e64097"/></g><g transform="translate(76.506 14.519)"><ellipse cx="0.619" cy="0.619" rx="0.619" ry="0.619" fill="#fff"/></g></g></g></svg>