<svg xmlns="http://www.w3.org/2000/svg" width="400" height="257.42" viewBox="0 0 400 257.42"><g transform="translate(116.384 141.106)"><g transform="translate(3.038 11.555)"><rect width="6.336" height="4.168" rx="2.084" fill="#8691c3"/></g><g transform="translate(3.038 43.235)"><rect width="6.336" height="4.168" rx="2.084" fill="#8691c3"/></g><rect width="4.776" height="27.278" fill="#35398e"/><rect width="4.776" height="60.639" transform="translate(0 31.68)" fill="#35398e"/></g><g transform="translate(150.509)"><g transform="translate(0)"><g transform="translate(46.155 76.336)"><rect width="30.412" height="22.429" transform="translate(4.321)" fill="#142477"/><rect width="30.412" height="7.898" transform="translate(4.321 2.815)" fill="#050d32" opacity="0.25"/><rect width="39.053" height="8.541" transform="translate(0 19.218)" fill="#35398e"/><path d="M2.986,0H36.067a2.986,2.986,0,0,1,2.986,2.986v0a0,0,0,0,1,0,0H0a0,0,0,0,1,0,0v0A2.986,2.986,0,0,1,2.986,0Z" transform="translate(0 16.788)" fill="#35398e"/></g><rect width="129.802" height="80.929" fill="#142477"/><rect width="117.804" height="68.682" transform="translate(5.999 6.123)" fill="#050d32"/><rect width="117.804" height="4.42" transform="translate(5.999 70.386)" fill="#35398e"/><g transform="translate(18.468 25.516)"><rect width="48.341" height="33.066" fill="#35398e"/><rect width="48.341" height="2.257" fill="#6967ac"/><g transform="translate(42.266 0.694)"><ellipse cx="0.434" cy="0.434" rx="0.434" ry="0.434" fill="#fff"/><ellipse cx="0.434" cy="0.434" rx="0.434" ry="0.434" transform="translate(2.17)" fill="#fff"/><ellipse cx="0.434" cy="0.434" rx="0.434" ry="0.434" transform="translate(4.339)" fill="#fff"/></g><g transform="translate(0.694 5.121)"><line x2="46.953" fill="none" stroke="#6967ac" stroke-miterlimit="10" stroke-width="1.114"/><line x2="46.953" transform="translate(0 3.558)" fill="none" stroke="#6967ac" stroke-miterlimit="10" stroke-width="1.114"/><line x2="46.953" transform="translate(0 7.117)" fill="none" stroke="#6967ac" stroke-miterlimit="10" stroke-width="1.114"/><line x2="46.953" transform="translate(0 10.675)" fill="none" stroke="#6967ac" stroke-miterlimit="10" stroke-width="1.114"/><line x2="46.953" transform="translate(0 14.233)" fill="none" stroke="#6967ac" stroke-miterlimit="10" stroke-width="1.114"/><line x2="46.953" transform="translate(0 17.792)" fill="none" stroke="#6967ac" stroke-miterlimit="10" stroke-width="1.114"/><line x2="46.953" transform="translate(0 21.35)" fill="none" stroke="#6967ac" stroke-miterlimit="10" stroke-width="1.114"/><line x2="46.953" transform="translate(0 24.908)" fill="none" stroke="#6967ac" stroke-miterlimit="10" stroke-width="1.114"/></g><g transform="translate(9.2 3.038)"><line y2="29.248" fill="none" stroke="#6967ac" stroke-miterlimit="10" stroke-width="1.114"/><line y2="29.248" transform="translate(9.981)" fill="none" stroke="#6967ac" stroke-miterlimit="10" stroke-width="1.114"/><line y2="29.248" transform="translate(19.961)" fill="none" stroke="#6967ac" stroke-miterlimit="10" stroke-width="1.114"/><line y2="29.248" transform="translate(29.942)" fill="none" stroke="#6967ac" stroke-miterlimit="10" stroke-width="1.114"/></g></g><g transform="translate(61.678 12.671)"><rect width="34.542" height="40.791" fill="#35398e"/><g transform="translate(3.271 28.773)"><g transform="translate(0 2.645)"><rect width="2.761" height="4.996" transform="translate(0 1.687)" fill="#d82886"/><rect width="2.761" height="5.839" transform="translate(6.701 0.843)" fill="#fff"/><rect width="2.761" height="5.839" transform="translate(10.051 0.843)" fill="#182378"/><rect width="2.761" height="6.683" transform="translate(3.35)" fill="#050d32"/></g><g transform="translate(15.187)"><rect width="2.761" height="7.98" transform="translate(0 1.347)" fill="#d82886"/><rect width="2.761" height="9.328" transform="translate(6.701)" fill="#fff"/><rect width="2.761" height="6.336" transform="translate(10.051 2.992)" fill="#182378"/><rect width="2.761" height="6.336" transform="translate(3.35 2.992)" fill="#050d32"/></g></g><rect width="34.542" height="2.257" transform="translate(0.011)" fill="#6967ac"/><g transform="translate(28.478 0.694)"><ellipse cx="0.434" cy="0.434" rx="0.434" ry="0.434" fill="#fff"/><ellipse cx="0.434" cy="0.434" rx="0.434" ry="0.434" transform="translate(2.17)" fill="#fff"/><ellipse cx="0.434" cy="0.434" rx="0.434" ry="0.434" transform="translate(4.339)" fill="#fff"/></g><g transform="translate(2.917 5.312)"><g transform="translate(3.162)"><path d="M1190.6,386.163l-4.509-6.206a7.349,7.349,0,0,1,4.509-1.465Z" transform="translate(-1186.092 -378.492)" fill="#050d32"/></g><g transform="translate(0 1.465)"><path d="M1185.647,388.458l-5.231,5.61a7.671,7.671,0,0,1-.379-10.841,7.413,7.413,0,0,1,1.1-.974Z" transform="translate(-1177.976 -382.252)" fill="#fff"/></g><g transform="translate(2.439 7.671)"><path d="M1189.469,398.18l6.952,3.242a7.67,7.67,0,0,1-10.194,3.71,7.3,7.3,0,0,1-1.99-1.342Z" transform="translate(-1184.237 -398.18)" fill="#182378"/></g><g transform="translate(7.671)"><path d="M1197.664,386.163v-7.671a7.671,7.671,0,0,1,7.671,7.671,7.253,7.253,0,0,1-.719,3.242Z" transform="translate(-1197.664 -378.492)" fill="#d82886"/></g></g><g transform="translate(20.438 7.29)"><ellipse cx="0.749" cy="0.749" rx="0.749" ry="0.749" fill="#d82886"/><ellipse cx="0.749" cy="0.749" rx="0.749" ry="0.749" transform="translate(0 3.296)" fill="#182378"/><ellipse cx="0.749" cy="0.749" rx="0.749" ry="0.749" transform="translate(0 6.593)" fill="#fff"/><ellipse cx="0.749" cy="0.749" rx="0.749" ry="0.749" transform="translate(0 9.889)" fill="#050d32"/></g><rect width="7.551" height="1.823" transform="translate(23.531 7.128)" fill="#6967ac"/><rect width="7.551" height="1.823" transform="translate(23.531 10.415)" fill="#6967ac"/><rect width="7.551" height="1.823" transform="translate(23.531 13.701)" fill="#6967ac"/><rect width="7.551" height="1.823" transform="translate(23.531 17.017)" fill="#6967ac"/><rect width="29.161" height="2.517" transform="translate(2.69 22.652)" fill="#6967ac"/></g></g></g><g transform="translate(34.688 46.506)"><rect width="13.675" height="48.782" transform="translate(0 8.981)" fill="#142477"/><rect width="13.675" height="57.762" transform="translate(13.675)" fill="#35398e"/><rect width="6.838" height="52.354" transform="translate(27.35 5.409)" fill="#142477"/><rect width="13.675" height="46.945" transform="translate(33.882 10.818)" fill="#35398e"/></g><path d="M964.436,620.015a15.1,15.1,0,0,1-12.643,6.837H680.41a15.115,15.115,0,0,1-12.644-6.837Z" transform="translate(-651.448 -506.93)" fill="#676eb1"/><g transform="translate(72.732 14.407)"><g transform="translate(61.81)"><path d="M973.3,369.312c0,2.488-2.094,2.488-2.094,4.975s2.094,2.488,2.094,4.976-2.094,2.488-2.094,4.976" transform="translate(-971.203 -369.312)" fill="none" stroke="#fff" stroke-miterlimit="10" stroke-width="1.8"/><path d="M985.994,373.1c0,2.488-2.094,2.488-2.094,4.975s2.094,2.488,2.094,4.976" transform="translate(-978.953 -371.624)" fill="none" stroke="#fff" stroke-miterlimit="10" stroke-width="1.8"/></g><g transform="translate(0 0.72)"><path d="M870.59,456.566c-2.49,2.783-5.859,4.614-7.544,9.961s1.026,8.935.513,9.3,8.86-8.379,8.861-11.367-4.613,1.04-4.613,1.04,1.977,8.129,4.614,10.766c3.3-.146,5.859-8.057,6.152-11.059s-4.395-8.642-4.395-8.642Z" transform="translate(-843.035 -423.291)" fill="#192477"/><g transform="translate(20.887)"><path d="M870.7,398.809s-4.528-7.374-4.528-11.642c0-8.473,8.15-18.311,11.384-15.524,1.876,1.617,2.2,2.781,4.2,4.2s-6.4,2.2-9.249,12.031C871.8,390.013,870.7,398.809,870.7,398.809Z" transform="translate(-866.169 -371.161)" fill="#192477"/><path d="M922.813,418.927s2.264,5.239,4.916,7.956c1.487,1.682.129,1.617-1.617,1.164s-6.985-4.4-6.985-5.627S920.1,418.344,922.813,418.927Z" transform="translate(-898.493 -400.269)" fill="#192477"/><path d="M891.642,398.436a8.834,8.834,0,0,0-3.019,2.982c-3.509,5.194-5.491,14.352-8.171,14.352-1.423,0-3.493-9.378-3.493-17.334,0-7.608,3.11-13.99,7.378-17.3a10.786,10.786,0,0,1,6.593-2.431C900.18,378.709,897.2,395.527,891.642,398.436Z" transform="translate(-872.756 -375.768)" fill="#d82886"/><path d="M895.493,398.435c7.141,0,13.447-6.145,11.836-7.827-4.4-4.592-5.109-11.9-12.548-11.9-8.02,0-11.513,12.03-11.513,19.986Z" transform="translate(-876.606 -375.768)" fill="#d82886"/><path d="M888.624,405.226c-3.509,5.194-5.491,14.352-8.171,14.352-1.423,0-3.493-9.378-3.493-17.334,0-7.608,3.11-13.99,7.378-17.3,2.314,1.629-4.336,15.649-.532,17.512A38.026,38.026,0,0,1,888.624,405.226Z" transform="translate(-872.756 -379.576)" fill="#182378" opacity="0.1"/></g><path d="M821.83,499.685A31.434,31.434,0,0,0,838.737,535.5h27.221a31.433,31.433,0,0,0,16.907-35.814Z" transform="translate(-817.666 -449.61)" fill="#2b3384"/><path d="M850,577.2h27.221a31.357,31.357,0,0,0,10.069-7.7,24.41,24.41,0,0,0-7.9-1.5c-4.661-.005-8.29,2.865-12.856,2.205a36.088,36.088,0,0,0-5.352-.842,21.792,21.792,0,0,0-5.377.835c-3.918.987-7.348,1.32-11.26-.018a25.271,25.271,0,0,0-3-1.228,9.427,9.427,0,0,0-2.162-.106A31.382,31.382,0,0,0,850,577.2Z" transform="translate(-828.932 -491.314)" fill="#35398e"/><path d="M889.191,581.883c-3.389-.385-6.545.529-9.978-.183a18.521,18.521,0,0,0-5.811-.626c-2.082.212-3.845,1.139-5.84,1.53a31.232,31.232,0,0,1-6.11.625c-2.168,0-3.957-.654-6.084-.939-.5-.067-1.009-.115-1.528-.152a31.2,31.2,0,0,0,4.987,3.006h27.221a31.209,31.209,0,0,0,4.932-2.965C890.385,582.053,889.789,581.951,889.191,581.883Z" transform="translate(-837.756 -499.255)" fill="#142477"/><path d="M928.77,457.649H915.732A34.688,34.688,0,0,1,904.9,513.1H917.94a34.688,34.688,0,0,0,10.83-55.451Z" transform="translate(-868.924 -423.952)" fill="#eceded" style="mix-blend-mode:multiply;isolation:isolate"/><path d="M928.342,522.056A1.059,1.059,0,1,1,927.283,521,1.06,1.06,0,0,1,928.342,522.056Z" transform="translate(-881.939 -462.618)" fill="#fff"/><ellipse cx="1.177" cy="1.177" rx="1.177" ry="1.177" transform="translate(48.093 53.546)" fill="#fff"/><path d="M934.972,535.064a.691.691,0,1,1-.691-.691A.691.691,0,0,1,934.972,535.064Z" transform="translate(-886.435 -470.783)" fill="#fff"/><g transform="translate(0 26.888)" opacity="0.5"><path d="M832.906,513.1h28.67a34.688,34.688,0,0,0,10.83-55.451h-50.33a34.688,34.688,0,0,0,10.83,55.451Z" transform="translate(-812.56 -450.84)" fill="#fff"/><rect width="63.988" height="8.777" rx="4.388" transform="translate(3.288)" fill="#fff"/></g><g transform="translate(47.094 16.363)"><path d="M966.116,465.8a4.281,4.281,0,0,1-4.493,2.413l-5.979-.874a4.283,4.283,0,0,1-3.614-3.6Z" transform="translate(-944.785 -444.034)" fill="#3f448f"/><path d="M936.727,430.072l-.4,2.7a1.868,1.868,0,0,0,1.578,2.118l2.76.4-.449,3.072-3.951-.578a3.315,3.315,0,0,1-2.8-3.76l.875-5.983a3.315,3.315,0,0,1,3.76-2.8l3.951.578-.449,3.072-2.76-.4A1.868,1.868,0,0,0,936.727,430.072Z" transform="translate(-933.433 -420.516)" fill="#3f448f"/><g transform="translate(5.575)"><path d="M968.211,415.754l-2.655,18.164a5.251,5.251,0,0,1-.444,1.479l-17.311-2.53a5.263,5.263,0,0,1,0-1.545l2.655-18.164Z" transform="translate(-947.743 -413.158)" fill="#6967ac"/><g transform="translate(3.884 6.261)"><g transform="translate(0.888)"><path d="M967.238,431.179l-.334.861-1.287-.175-.78,1.963,1.3.177-.365.867L964.5,434.7l-.609,1.5-1.006-.137.609-1.5-1.2-.163-.609,1.5-.987-.134.6-1.505-1.306-.178.335-.871,1.316.179.78-1.964-1.306-.178.363-.858,1.306.178.538-1.346.977.133-.548,1.345,1.229.168.519-1.348,1.006.137L965.951,431Zm-4.608,2.349,1.2.164.79-1.962-1.209-.165Z" transform="translate(-959.992 -429.227)" fill="#142477"/><path d="M979.842,432.392l2.488-.755.648.088-.923,6.773-1.2-.163.731-5.361-1.575.416Z" transform="translate(-972.108 -430.698)" fill="#142477"/></g><g transform="translate(0 7.647)"><path d="M959.459,450.479a.728.728,0,0,1,.561.792c-.065.478-.512.739-1.11.657l-1.2-.163.4-2.91,1.068.146c.57.078.954.426.888.909A.673.673,0,0,1,959.459,450.479Zm-.627-.246c.482.066.655-.148.685-.368.034-.249-.161-.4-.4-.435l-.537-.073-.113.827Zm-.414.337-.115.844.665.091a.41.41,0,0,0,.509-.32c.031-.233-.087-.482-.619-.554Z" transform="translate(-957.713 -448.855)" fill="#142477"/><path d="M966.454,450.138a1.514,1.514,0,1,1-1.726,1.293A1.532,1.532,0,0,1,966.454,450.138Zm-.343,2.519a1.028,1.028,0,1,0-.842-1.152A1,1,0,0,0,966.111,452.657Z" transform="translate(-961.987 -449.629)" fill="#142477"/><path d="M973.564,453.181a.59.59,0,0,0,.544.51c.3.041.542-.066.574-.3.023-.171-.085-.313-.33-.439l-.356-.18c-.583-.287-.637-.671-.6-.916a.877.877,0,0,1,1.077-.7.957.957,0,0,1,.874.8l-.475.126a.506.506,0,0,0-.464-.448c-.237-.032-.449.057-.48.286-.013.1,0,.253.3.409l.356.188a.863.863,0,1,1-.521,1.644,1.044,1.044,0,0,1-.99-.939Z" transform="translate(-967.085 -450.256)" fill="#142477"/><path d="M979.8,454.031a.59.59,0,0,0,.544.51c.3.041.543-.065.574-.3.023-.17-.085-.312-.33-.439l-.357-.18c-.583-.287-.637-.671-.6-.916a.878.878,0,0,1,1.077-.7.957.957,0,0,1,.874.8l-.475.126a.506.506,0,0,0-.464-.449c-.237-.032-.448.058-.479.286-.014.1-.005.253.3.408l.355.188a.863.863,0,1,1-.521,1.644,1.044,1.044,0,0,1-.99-.939Z" transform="translate(-970.894 -450.775)" fill="#142477"/></g></g></g><path d="M938.782,440.717c1.081,0,1.247-2.91,0-2.91a2.227,2.227,0,0,0-1.746,1.248C936.9,439.706,937.867,440.717,938.782,440.717Z" transform="translate(-935.624 -428.203)" fill="#192477"/></g><path d="M890.4,424.738c-.138-1.221,3.687-6.271,3.687-3.493,0,2.458.129,4.4,2.134,4.98,2.112.613,3.816,1.1,3.816,1.682s-2.264,1.488-5.175,1.488C893.878,429.395,890.918,429.33,890.4,424.738Z" transform="translate(-860.07 -401.229)" fill="#192477"/><path d="M956.626,414.657a.371.371,0,0,1,.033-.7,9.247,9.247,0,0,1,4.1-.437c4.705.607,3.385,1.649,11.864,2.923a.25.25,0,0,1-.032.5C968.493,417.136,959.776,415.952,956.626,414.657Z" transform="translate(-900.356 -396.975)" fill="#171b41"/></g></g><path d="M771.378,680.722v9.9l-99.718,1.837V680.722Z" transform="translate(-653.825 -544.985)" fill="#050d32" opacity="0.15"/><g transform="translate(0 104.233)"><path d="M956.465,636.761c0-5.728,2.622-8.985,7.951-8.985s2.117-6.116,2.117-6.116-14.365-.569-14.365,4.315-3.514,14.084-3.514,14.084Z" transform="translate(-822.897 -612.155)" fill="#676eb1"/><path d="M792.845,616.025a10.107,10.107,0,0,0-.84-2.384s-10.181-.4-13.4,2.384H662.866a15.069,15.069,0,0,0,3.416,3.691h111.24c-.615,5.046-3.395,12.324-3.395,12.324l7.811-3.3c0-5.728,2.622-8.985,7.951-8.985a5.827,5.827,0,0,0,.705-.04H956.121a15.079,15.079,0,0,0,3.415-3.691Z" transform="translate(-648.457 -608.26)" fill="#050d32" opacity="0.15"/><rect width="316.061" height="9.899" transform="translate(6.623 0.035)" fill="#676eb1"/><g transform="translate(17.835 4.893)"><rect width="6.225" height="17.961" transform="translate(93.493 126.648)" fill="#676eb1"/><rect width="99.718" height="130.527" transform="translate(0)" fill="#676eb1"/><rect width="6.225" height="17.961" transform="translate(0 126.648)" fill="#676eb1"/><path d="M771.377,615.678l0,9.634-99.721,2.17v-11.8Z" transform="translate(-671.659 -614.409)" fill="#050d32" opacity="0.15"/></g><g transform="translate(6.886 27.553)"><path d="M765.176,670.8a15.1,15.1,0,0,1-12.643,6.837H656.2a15.118,15.118,0,0,1-12.644-6.837Z" transform="translate(-643.558 -670.716)" fill="#676eb1"/><path d="M765.176,670.58a15.062,15.062,0,0,1-3.415,3.691H646.974a15.078,15.078,0,0,1-3.416-3.691Z" transform="translate(-643.558 -670.58)" fill="#050d32" opacity="0.15"/></g><rect width="135.39" height="29.161" rx="3" fill="#676eb1"/></g><g transform="translate(75.835 116.119)"><g transform="translate(0.982 1.73)"><path d="M823.043,643.46h41.715a4.325,4.325,0,0,0,4.325-4.325h0a4.325,4.325,0,0,0-4.325-4.326H823.043C825.106,634.809,825.106,643.46,823.043,643.46Z" transform="translate(-823.043 -634.809)" fill="#d1d0e4"/></g><path d="M862.478,630.368a6.056,6.056,0,0,1,6.056,6.056h0a6.056,6.056,0,0,1-6.056,6.055h-41.09a.865.865,0,0,1-.865-.865h0a.865.865,0,0,1,.865-.865h24.767a4.325,4.325,0,0,0,4.325-4.325h-.029a4.3,4.3,0,0,0-4.3-4.325H821.388a.865.865,0,0,1-.865-.865h0a.865.865,0,0,1,.865-.865Z" transform="translate(-820.523 -630.368)" fill="#142477"/></g><g transform="translate(6.856 101.89)"><path d="M784.779,593.848h2.768l5.363,15.448h-6.885Z" transform="translate(-729.727 -593.848)" fill="#142477"/><rect width="56.76" height="15.448" transform="translate(0.781)" fill="#6967ac"/><rect width="55.805" height="9.373" transform="translate(0.608 3.038)" fill="#d82886"/><rect width="6.856" height="3.038" transform="translate(0 12.411)" fill="#6967ac"/><rect width="6.856" height="3.038" fill="#6967ac"/><rect width="56.166" height="0.694" transform="translate(0.781)" fill="#fff" opacity="0.4"/><rect width="56.166" height="0.694" transform="translate(0.908 12.845)" fill="#fff" opacity="0.4"/><rect width="55.805" height="1.215" transform="translate(0.608 3.038)" fill="#050d32"/><rect width="17.792" height="3.472" transform="translate(3.385 6.162)" fill="#142477"/><rect width="26.991" height="3.472" transform="translate(26.557 6.162)" fill="#142477"/></g><path d="M961.143,624.733c0-5.728,2.622-8.985,7.951-8.985s2.117-6.116,2.117-6.116-14.364-.569-14.364,4.315-3.514,14.084-3.514,14.084Z" transform="translate(-825.753 -501.58)" fill="#676eb1"/><g transform="translate(129.228 254.074)"><line x1="147.54" fill="none" stroke="#050d32" stroke-miterlimit="10" stroke-width="3.341"/></g><g transform="translate(292.782 109.473)"><rect width="6.225" height="142.527" fill="#2b3384"/></g><g transform="translate(218.621 113.259)"><path d="M1207.564,637.091h37.841a4.672,4.672,0,0,0,4.658-4.31l.36-4.629H1203.21l-.3,3.906A4.672,4.672,0,0,0,1207.564,637.091Z" transform="translate(-1196.701 -626.156)" fill="#111b56"/><path d="M1250.4,628.4l-.34,4.385a4.655,4.655,0,0,1-.558,1.88h-41.349l-.754,2.426a4.671,4.671,0,0,1-4.5-5.03l.3-3.906h46.8A4.22,4.22,0,0,1,1250.4,628.4Z" transform="translate(-1196.7 -626.156)" fill="#050d32" opacity="0.4"/><path d="M1191.393,635.44h3.152a3.63,3.63,0,0,0,3.466-2.553l.879-2.828h44.089v-2.743a4.287,4.287,0,0,0-4.287-4.287h-47.3a4.392,4.392,0,0,0-4.392,4.392v3.627A4.392,4.392,0,0,0,1191.393,635.44Z" transform="translate(-1187.001 -623.029)" fill="#142477"/></g><g transform="translate(187.885 18.904)"><path d="M1254.895,797.418a32.523,32.523,0,0,1-3.1,13.907q-.193.41-.4.813a32.66,32.66,0,0,1-61.816-14.72Z" transform="translate(-1157.839 -635.118)" fill="#3f448f"/><path d="M1264.68,832.76c-1.059.319-2.234.635-3.5.95-13.367,3.339-36.716,6.637-37.826,12.108-.242,1.193-1.442,2.414-3.208,3.6a32.762,32.762,0,0,1-14.536-11.219l1.254-2.886,54.714-2.42Z" transform="translate(-1167.625 -656.69)" fill="#050d32" opacity="0.5"/><path d="M1360.672,476s-1.44,2.083-3.74,5.455c-4.577,6.715-12.564,18.543-19.39,29.231-2.651,4.151-5.127,8.131-7.16,11.572-9.894,16.75-18.92,81.494-36.018,81.494l-.811-.023c-11.917-.437-11.973-11.539-11.886-13.558.01-.2.02-.313.02-.313l-33.98-19.653-3.822-2.21,24.65-55.681,12.012-27.133,1.779-4.02s1.219-1.342,3.38-3.412c5.089-4.876,15.4-13.8,27.27-18.725a41.9,41.9,0,0,1,15.93-3.509,31.556,31.556,0,0,1,17.292,5.36,43.1,43.1,0,0,1,5.979,4.7A48.946,48.946,0,0,1,1360.672,476Z" transform="translate(-1190.987 -426.428)" fill="#33248e"/><path d="M1349.813,519.327c1.2-7.1,9.351-16.2,11-22.887,4.012-16.263.732-16.018-1.649-15.535-12.411,2.517-18.629-2.665-19.962,5.207-1.841,10.878-9.431,27.721-9.772,38.39" transform="translate(-1243.201 -441.834)" fill="#111b56"/><path d="M1472.495,452.052a57.971,57.971,0,0,1-9.573,1.429,65.389,65.389,0,0,1-6.252-6.29,13.71,13.71,0,0,1,1.07-2.16c.494-.293.923-.531.887-.728C1458.39,443.012,1464.8,446.7,1472.495,452.052Z" transform="translate(-1320.867 -419.424)" fill="#182378" opacity="0.15"/><path d="M1320.989,395.63a39.25,39.25,0,0,0,4.584-8.464c-11.933-5.4-15.038-5.473-19.89-5.909a58.666,58.666,0,0,0-6.006-.4c-4.238.085-7.123,1.7-7.778,9-.209,2.333,1.069,5.948,3.116,10.07,4.452,8.971,12.537,20.346,16.808,26.133.528.715,1,1.345,1.394,1.874.9,1.194,1.426,1.878,1.426,1.878,10.208-1.285,33.665-7.195,25.133-12.789-13.981-9.167-29.812-20.864-29.812-23.67,0-1.361,10.407,1.9,11.025,2.279" transform="translate(-1220.279 -380.855)" fill="#fff"/><path d="M1394.32,408.327l-4.852,5.185c-7.256-2.518-19.194-7.087-22.872-8a39.236,39.236,0,0,0,4.584-8.464C1376.245,399.342,1389.23,405.519,1394.32,408.327Z" transform="translate(-1265.888 -390.741)" fill="#9494c8"/><path d="M1318.133,457.805c-.4-.53-.867-1.159-1.4-1.874-4.272-5.787-12.356-17.161-16.808-26.133,4.889,3.753,20.924,16.089,24.371,19.945C1327.4,453.215,1323.47,456.847,1318.133,457.805Z" transform="translate(-1225.195 -410.73)" fill="#182378" opacity="0.05"/><path d="M1211.5,773.583s-30.454,4.608-56.965,5.686c-9.076.369-17.354.679-24.327.748-2.176.022-4.224.02-6.129-.011-9.829-.16-15.858-1.094-15.959-3.565-.108-2.679,4.247-8.741,7.773-13.189,2.378-3,4.377-5.265,4.377-5.265l57.542-24.2,21.675,25.6Z" transform="translate(-1108.114 -596.281)" fill="#33248e"/><path d="M1160.363,599.629c16.274,0,28.82-2.984,38.475-7.564,30.425-14.425,32.147-44.667,31.357-47.171-1.041-3.3,10.588-22.044,12.02-24.778s14.276-29.725,14.276-33.457-5.728-9.113-5.728-12.5c0-2.954,10.049-7.694,12.605-11.39a31.554,31.554,0,0,0-17.292-5.36,41.905,41.905,0,0,0-15.93,3.509c-2.923,3.3-5.522,6.218-6.722,6.472-2.864.607-16.49,57.714-36.538,70.646-9.2,5.932-16.539,19.384-21.332,32.207l-45.289,19.044s-2,2.265-4.377,5.265c-3.526,4.448-7.881,10.51-7.773,13.189.1,2.472,6.13,3.406,15.959,3.565l8.873-11.954Z" transform="translate(-1108.114 -427.583)" fill="#050d32" opacity="0.15"/></g><path d="M1271.115,885.478h-8.062l.051-19.171h8.011Z" transform="translate(-1014.801 -658.263)" fill="#3f448f"/><g transform="translate(203.705 218.863)"><path d="M1199.821,900.244,1157.087,920.9l-8.369-.289v-3.171l45.914-23.365Z" transform="translate(-1148.718 -894.074)" fill="#3f448f"/><path d="M1267.7,900.244l42.734,20.655,8.369-.289v-3.171l-45.914-23.365Z" transform="translate(-1221.345 -894.074)" fill="#3f448f"/></g><ellipse cx="4.746" cy="4.745" rx="4.746" ry="4.745" transform="translate(208.093 244.973)" fill="#050d32"/><ellipse cx="4.746" cy="4.745" rx="4.746" ry="4.745" transform="translate(201.052 244.973)" fill="#050d32"/><rect width="7.144" height="9.491" transform="translate(205.848 244.973)" fill="#050d32"/><line x1="26.397" transform="translate(289.961 254.421)" fill="none" stroke="#050d32" stroke-miterlimit="10" stroke-width="3.341"/><ellipse cx="4.746" cy="4.745" rx="4.746" ry="4.745" transform="translate(296.982 244.973)" fill="#050d32"/><ellipse cx="4.746" cy="4.745" rx="4.746" ry="4.745" transform="translate(289.941 244.973)" fill="#050d32"/><path d="M1389.477,970.58h-7.114v-9.491h7.144Z" transform="translate(-1087.626 -716.116)" fill="#050d32"/><g transform="translate(127.658 207.738)"><path d="M1030.233,933.948l-5.682,4.314s2.024,5.345,3.409,5.771c1.128.347,3.038-.521,3.124-1.389.139-1.392-.694-8.679-.694-8.679" transform="translate(-996.881 -907.288)" fill="#050d32"/><path d="M979.029,916.3s-25.449,6.207-25.5,9.666,6.086,5.7,12.252,5,19.274-2.575,18.89-5.943S985.049,915.617,979.029,916.3Z" transform="translate(-953.533 -896.485)" fill="#35398e"/><path d="M1005.355,865.521l-19.833,21.62,1.071,1.878,1.344-3.68s-18.935,7.35-19.769,7.8,11.31,1.859,16.586.406,6.681-2.383,6.586-5.156,14.362-10.425,14.362-10.425l11.188-6.755Z" transform="translate(-962.441 -865.521)" fill="#9494c8"/></g><g transform="translate(151.178 129.28)"><path d="M1155.991,696.382c0,19.354-40.131,29.487-76.928,28.566q-1.323-.033-2.639-.1c-.372-.018-.743-.038-1.114-.06a21.829,21.829,0,0,1-1.3,1.805,98.983,98.983,0,0,1-9.41,9.726l0,0q-1.333,1.243-2.745,2.522c-3.1,2.808-6.434,5.7-9.706,8.484-3.746,3.184-7.414,6.214-10.568,8.783-.761.62-8.262,7.461-8.956,8.024-1.343,1.086-2.552,2.056-3.582,2.878-2.315,1.85-3.724,2.952-3.724,2.952a4.343,4.343,0,0,1-.82-.216,11.873,11.873,0,0,1-1.672-.767,24.266,24.266,0,0,1-5.407-4.129c-.55-.551-1.1-1.145-1.623-1.782a24.94,24.94,0,0,1-1.891-2.592s2.813-3.4,6.745-8.261q.44-.544.9-1.113c4.561-5.653,10.355-12.945,15.034-19.193l.117-.154.435-.583.338-.455c2.709-3.653,5.554-7.414,8.379-11.029,1.443-1.848,2.882-3.657,4.294-5.394,6.34-7.8,12.159-14.15,15.577-15.984q.635-.341,1.352-.692a146.853,146.853,0,0,1,15.916-6.211c.44-.149.881-.3,1.321-.445q1.16-.389,2.313-.766.887-.29,1.761-.572l.165-.053c9.03-2.907,16.866-5.09,16.866-5.09l43.4-20.337,5.959.729C1154.767,669.48,1155.991,685.973,1155.991,696.382Z" transform="translate(-1013.901 -664.149)" fill="#111b55"/></g><path d="M1042.561,835.09S1035.742,860.21,1032,871.7c-2.315,1.85-3.724,2.952-3.724,2.952a4.346,4.346,0,0,1-.82-.216,11.843,11.843,0,0,1-1.672-.767,24.277,24.277,0,0,1-5.407-4.129c-.55-.551-1.1-1.145-1.623-1.782l5.752-11.966c4.561-5.652,10.355-12.945,15.034-19.193l.116-.154.435-.583C1041.576,835.357,1042.561,835.09,1042.561,835.09Z" transform="translate(-865.686 -639.209)" fill="#050d32" opacity="0.15"/><path d="M1175.3,638.922l-58,22.953,21.35,18.325s32.992,14.9,51.259,14.9,24.595-15,25-25.922S1207.94,638.922,1175.3,638.922Z" transform="translate(-925.831 -519.471)" fill="#111b55"/><path d="M1312.292,723.045s3.732,10.5,9.981,15.188c-1.128,2.343-1.823,2.6-1.823,2.6s-10.935-11.109-10.935-16.23Z" transform="translate(-1043.161 -570.818)" fill="#050d32" opacity="0.498"/><path d="M1151.055,697.115s-2.857,7.246-5.817,10c-3.782,3.521-14.879,10.028-21.144,12.571l-.027.01c-1.655,3.786-3.986,9.142-7.045,16.232-2.86,6.629-8.728,14.856-14.939,22.577-3.1,2.808-6.434,5.7-9.706,8.484-3.746,3.184-7.414,6.214-10.568,8.783-.218.177-.988.865-1.993,1.768,8.259-8.971,26.6-29.136,32.432-42.654,3.563-8.258,6.138-14.163,7.809-17.976q.587-1.343,1.028-2.342l6.471-2.743,18.09-7.67,4.49-8.368Z" transform="translate(-902.956 -554.181)" fill="#050d32" opacity="0.498"/><g transform="translate(147.641 138.734)"><g transform="translate(0 91.998)"><path d="M1039.685,953.2l-.908,11.492c-.1,1.241-3.328,1.38-3.328,1.38s-2.649-8.882-1.144-10.471S1039.685,953.2,1039.685,953.2Z" transform="translate(-1022.536 -942.031)" fill="#050d32"/><path d="M1015.081,927.769s-9.892,15.807-10.233,20.117,3.038,3.13,5.649,3.337,12.461-8.871,12.745-12.462-.053-13.473-.053-13.473A5.869,5.869,0,0,0,1015.081,927.769Z" transform="translate(-1004.824 -924.538)" fill="#35398e"/><path d="M1023.972,930.514s-10.088,15.825-6.817,17.845,8-4.745,8.941-6.183c1.726-2.634,3.05-12.135,3.05-12.135Z" transform="translate(-1011.952 -927.897)" fill="#9494c8"/></g><path d="M1090.366,706.8l-.089.18s-3.182,7.136-10.2,23.4c-5.832,13.518-24.173,33.683-32.432,42.654-1.681,1.826-2.944,3.187-3.6,3.936-3.875,4.424-3.554,6.38-5.454,10.075s-11.482-3.679-11.482-3.679,24.667-72.973,31.168-87.268c4.571-10.053,31.54-7.936,33.256-6.323C1096.249,694.214,1091.116,705.263,1090.366,706.8Z" transform="translate(-1018.426 -688.414)" fill="#111b55"/></g><path d="M1387.013,487.481c-.511,5.692-20.057,9.982-27.783,9.288s-11.254-1.318-10.1-14.126c.471-5.236,15.755-5.3,21.951-12.269a9.847,9.847,0,0,0,2.524-5.82s15.841-4.111,10.241,3.481a21.341,21.341,0,0,0-1.3,1.967C1377.029,479.529,1387.493,482.14,1387.013,487.481Z" transform="translate(-1067.209 -412.362)" fill="#9494c8"/><path d="M1397.837,483.919l.694,6.509,13.105-2" transform="translate(-1097.071 -424.86)" fill="none" stroke="#d82886" stroke-miterlimit="10" stroke-width="1.114"/><ellipse cx="0.677" cy="0.677" rx="0.677" ry="0.677" transform="translate(300.54 63.356)" fill="#182378"/><path d="M1418.563,468.036a21.363,21.363,0,0,0-1.3,1.967c-3.372,1.3-7.375,2.112-10.619.768q-.458-.191-.847-.4a9.846,9.846,0,0,0,2.524-5.82S1424.163,460.444,1418.563,468.036Z" transform="translate(-1101.93 -412.362)" fill="#050d32" opacity="0.15"/><path d="M1462.324,453.022s2.749-3.191,6.577-2.847a2.224,2.224,0,0,1,2.027,2.539c-.466,5.184-8.529,4.762-8.529,4.762" transform="translate(-1136.433 -404.246)" fill="#9494c8"/><path d="M1184.128,743.993q-.44,1-1.028,2.342l.218-2Z" transform="translate(-965.999 -583.604)" fill="#050d32" opacity="0.15"/><g transform="translate(252.204 61.984)"><path d="M1338.813,507.463c-1.356,10.815-15.534,28.476-19.919,41.439s-6.072,14.659-6.639,20.962c-.314,3.495.1,6.237-3.48,6.77-2.455.367-.889-.442-4.24-.743-17.991-1.616-32.126-16.9-31.3-26.045s10.928-8.448,12.7-19.008c2.551-15.206.225-18.011,3.635-25.142,1.687-3.528,17.13-12.411,24.609-14.219,1.529.3.041-.454,1.205.276-1.833,2.051-.606,3.823.928,5.025a9.28,9.28,0,0,0,4.647,1.887c4.558.536,16.635,1.553,19.854-2.226C1348.207,498.6,1339.669,500.63,1338.813,507.463Z" transform="translate(-1273.197 -491.424)" fill="#d82786"/></g><path d="M1359.394,505.244s-1.255,1.562-3.292,4.173c-7.543,9.662-25.835,33.686-31.134,45.975-5.848,8.622-5.271,17.353-4.477,23.233q.093.7.187,1.332c.074.507.144.986.21,1.434.386,2.743.5,4.391-.822,4.391-21.261,0-34.107-17.357-37.056-29.159L1300.8,518l42-35.931s5.474-1.991,13.5.218C1357.045,484.384,1374.43,491.327,1359.394,505.244Z" transform="translate(-1026.983 -423.228)" fill="#fff"/><path d="M1309.744,474.68s-19.53,18.917-27.425,33.847c-2.647,5.006-2.6,12.05-2.6,15.1-11.89,16.49-17.792,26.471-17.792,26.471s-15.275-3.038-13.279-12.932c.669-3.315,11.805-5.077,17.618-15.362,7.9-13.973,3.747-27.9,9.894-32.372,8.766-6.38,21.317-16.408,28.174-18.614C1308.947,469.336,1309.744,474.68,1309.744,474.68Z" transform="translate(-1005.897 -416.706)" fill="#fff"/><g transform="translate(256.894 133.394)"><path d="M1348.656,679.831l-.019.245-.34,4.385a4.668,4.668,0,0,1-4.658,4.31H1305.8c-.055,0-.108,0-.162,0a4.672,4.672,0,0,1-4.5-5.03l.3-3.906Z" transform="translate(-1294.934 -677.835)" fill="#111b56"/><path d="M1348.637,680.076l-.34,4.385a4.659,4.659,0,0,1-.558,1.88H1306.39l-.754,2.427a4.672,4.672,0,0,1-4.5-5.03l.3-3.906h46.8A4.252,4.252,0,0,1,1348.637,680.076Z" transform="translate(-1294.934 -677.835)" fill="#050d32" opacity="0.4"/><path d="M1341.214,679v2.742h-44.089l-.879,2.828a3.63,3.63,0,0,1-3.466,2.552h-3.153a4.392,4.392,0,0,1-4.391-4.391V679.1a4.392,4.392,0,0,1,4.391-4.391h47.3A4.287,4.287,0,0,1,1341.214,679Z" transform="translate(-1285.235 -674.708)" fill="#142477"/></g><path d="M1395.5,488.263" transform="translate(-1095.643 -427.511)" fill="none" stroke="#d82886" stroke-miterlimit="10" stroke-width="2.228"/><ellipse cx="1.241" cy="1.241" rx="1.241" ry="1.241" transform="translate(300.202 64.258)" fill="#d82886"/><ellipse cx="0.677" cy="0.677" rx="0.677" ry="0.677" transform="translate(302.345 64.71)" fill="#182378"/><g transform="translate(80.147 105.164)"><g transform="translate(0.863 1.726)"><path d="M833.8,615.312h45.744c1.93-3.555,1.523-6.289,0-8.631H833.8Z" transform="translate(-833.805 -606.681)" fill="#d1d0e4"/></g><path d="M834.136,602.251a2.546,2.546,0,0,0-2.546,2.546v6.991a2.546,2.546,0,0,0,2.546,2.546h44.492a.863.863,0,0,0,.863-.863h0a.863.863,0,0,0-.863-.863H844.883a1.05,1.05,0,0,1-1.05-1.05v-6.531a1.05,1.05,0,0,1,1.05-1.05h33.746a.863.863,0,0,0,.863-.863h0a.863.863,0,0,0-.863-.863Z" transform="translate(-831.59 -602.251)" fill="#d82886"/></g><path d="M1443.928,481.884c12.672-1.468,27.964,14.431,33.548,13.784,9.732-1.128,17.54,3.31,18.022,7.467s-10.494,6.969-18.6,7.908-37.843-2.088-39.781-18.815C1436.314,485.334,1443.928,481.884,1443.928,481.884Z" transform="translate(-1121.009 -423.559)" fill="#fff"/><g transform="translate(317.981 37.768)"><path d="M1484.232,460.29a35.1,35.1,0,0,0-7.724,5.338c-1.906-1.108-7.992-4.766-10.436-6.149q-.727-.409-1.463-.829c-1.473-.838-2.965-1.695-4.414-2.547q-.936-.552-1.841-1.1a65.492,65.492,0,0,1-7.36-4.948l-.1-.081c-.885-.744,0-1.594.725-2.247.428-.385.8-.7.727-.887-.373-.939,3.695.247,9.509,2.553,1.609.638,3.352,1.362,5.171,2.15l.434.188c2.121.925,4.339,1.933,6.566,2.992C1476.2,455.76,1482.13,459.192,1484.232,460.29Z" transform="translate(-1447.212 -439.801)" fill="#9494c8"/><path d="M1489.175,462.6c-2.007,1.923-5.506,3.671-7.956,4.751q-.727-.409-1.463-.829c-1.473-.838-2.966-1.695-4.414-2.546l6.834-4.555.434.188C1484.731,460.535,1486.949,461.543,1489.175,462.6Z" transform="translate(-1462.36 -447.675)" fill="#050d32" opacity="0.15"/><path d="M1528.876,505.642s15.024,3.113,15.067-3.563c.027-4.082-.532-6.015-10.256-14.629a39.215,39.215,0,0,0-10.148-6.927,43.22,43.22,0,0,0-8.617,5.859C1517.02,491.516,1522.532,502.675,1528.876,505.642Z" transform="translate(-1486.519 -460.554)" fill="#fff"/><path d="M1458.456,431.041a58,58,0,0,1-8.1,5.295,65.344,65.344,0,0,1-8.307-3.1,13.738,13.738,0,0,1,.07-2.41c.327-.473.617-.868.5-1.032C1441.865,428.717,1449.226,429.393,1458.456,431.041Z" transform="translate(-1442.022 -429.271)" fill="#050d32" opacity="0.4"/></g><g transform="translate(294.417 13.967)"><path d="M1391.742,384.675c3.319.3.968-6.214.968-6.214a6.67,6.67,0,0,0-4.141,7.313c.727,5.6-5.213,6.7-5.578,10.77s10.83,9.477,18.451-.085,20.439-24.5,13.629-25.109c-4.066-.365-6.879-2.924-13.16-2.924-3.674,0-9.511,10.058-18.811,9.223-1.321-.119-1.453.455-1.544,1.471C1381.291,382.068,1384.881,384.059,1391.742,384.675Z" transform="translate(-1381.542 -368.331)" fill="#050d32"/><ellipse cx="1.378" cy="1.378" rx="1.378" ry="1.378" transform="translate(6.035 22.423)" fill="#fff"/><path d="M1429.192,376.8c-12.4-1.114-31.159,13.8-32.172,25.083-.712,7.928,2.565,13.653,12.424,14.539,12.5,1.123,31.981-14.957,32.966-25.934C1443.177,381.947,1435.291,377.345,1429.192,376.8Z" transform="translate(-1390.932 -373.405)" fill="#9494c8"/><g transform="translate(6.257 30.489)"><path d="M1399.011,446.6a17.789,17.789,0,0,1,6.437,3.923c-1.087.893-3.81,2.273-6.206.921s-1.46-4.906-1.46-4.906S1397.985,446.266,1399.011,446.6Z" transform="translate(-1397.602 -446.435)" fill="#d82886"/><path d="M1399.309,447.134a4.706,4.706,0,0,0,1.521,3.678c1.645,1.219,5.119-.028,5.119-.028a30.406,30.406,0,0,1-3.9-1.617C1400.322,448.229,1399,447.1,1399.309,447.134Z" transform="translate(-1398.616 -446.861)" fill="#fff"/></g><path d="M1512.7,385.782c2.973.425,4.779-4.222,7.737-4.308s.6,3.25.684,6,13.49,4,13.688,10.835-4.044,11.981-11.541,12.228C1510.669,410.956,1512.7,385.782,1512.7,385.782Z" transform="translate(-1461.524 -376.295)" fill="#050d32"/><path d="M1409.151,421.948c.446-.62,1.023-.169.334,1.413a52.607,52.607,0,0,1-3.338,5.8s-5.148-.872-3.144-2.639S1407.629,424.066,1409.151,421.948Z" transform="translate(-1394.359 -400.837)" fill="#35398e"/><path d="M1449.257,368.261c-7.318-.657-13.681,2.87-14.109,7.647-.548,6.1,3.955,9.577,9.62,10.393s10.292-.51,9.242,2.06-11.9,3.542-12.456,7.488,6.592,4.179,6.291,7.533-9.509,7.189-4.325,7.655,25.838-4.982,25.838-18.289C1469.357,379.074,1469.484,370.078,1449.257,368.261Z" transform="translate(-1414.234 -368.182)" fill="#050d32"/><path d="M1547.061,462.381c-1.029.989-.025,3.467.878,4.406a1.541,1.541,0,0,0,2.457.049c.716-.688.768-3.32-.264-4.395S1547.061,462.381,1547.061,462.381Z" transform="translate(-1482.306 -425.416)" fill="#050d32"/><ellipse cx="1.378" cy="1.378" rx="1.378" ry="1.378" transform="translate(30.403 36.066)" fill="#fff"/></g><path d="M1369.347,599.436c-5.848,8.622-5.271,17.354-4.477,23.233q.093.7.187,1.332c.074.507.144.986.21,1.434a28.437,28.437,0,0,1-6.483-9.253c-13.948-30.359,23.377-60.067,37.66-62.5a14.878,14.878,0,0,1,4.036-.218C1392.938,563.123,1374.645,587.147,1369.347,599.436Z" transform="translate(-1071.362 -467.272)" fill="#182378" opacity="0.05"/><g transform="translate(322.879 116.383)"><g transform="translate(41.022 16.698)"><path d="M1692.955,578.525c3.488,1.744,6.83,12.934,2.47,25.286s-9.3,13.079-12.207,12.207-9.3-7.993-2.035-23.252S1692.955,578.525,1692.955,578.525Z" transform="translate(-1677.835 -578.511)" fill="#111b56"/></g><g transform="translate(38.982 76.924)"><path d="M1671.557,794a.521.521,0,0,0,.5-.392h0a26.1,26.1,0,0,1,4.907-9.144,11.776,11.776,0,0,1,5.486-3.7,9.721,9.721,0,0,1,2.811-.486.521.521,0,0,0,.027-1.042,10.5,10.5,0,0,0-3.106.52,12.814,12.814,0,0,0-6.016,4.038,26.658,26.658,0,0,0-5.118,9.556.522.522,0,0,0,.505.65Z" transform="translate(-1671.036 -779.24)" fill="#35398e"/></g><g transform="translate(39.116 63.422)"><path d="M1672,772.7a.521.521,0,0,0,.521-.509,88.284,88.284,0,0,1,4.127-22.016c3.823-12.034,6.138-15.064,6.161-15.093a.521.521,0,0,0-.815-.649c-.1.122-2.431,3.123-6.339,15.427a89.37,89.37,0,0,0-4.176,22.308.521.521,0,0,0,.508.533Z" transform="translate(-1671.484 -734.238)" fill="#35398e"/></g><g transform="translate(29.293)"><path d="M1646.7,522.857c3.633.291,10.754,6.83,12.353,21.072s-1.889,24.414-9.736,24.56-11.917-10.173-10.173-27.466S1646.7,522.857,1646.7,522.857Z" transform="translate(-1638.743 -522.857)" fill="#d72a86"/></g><g transform="translate(14.467 21.495)"><path d="M1590.75,594.946c2.761-1.889,11.335,2.18,16.567,12.207s1.162,16.422-4.36,16.857-10.609-10.318-12.789-19.037S1590.75,594.946,1590.75,594.946Z" transform="translate(-1589.33 -594.497)" fill="#121d5e"/></g><g transform="translate(28.689 29.997)"><path d="M1647.79,674.007l.4-1.9c.018-.087,1.858-8.785,4.869-19.252,3.016-10.484,8.661-29.161,8.718-29.348a.521.521,0,0,0-1-.3c-.057.187-5.7,18.871-8.721,29.362-2.244,7.8-3.841,14.625-4.521,17.657-.653-1.518-1.895-4.163-4.114-8.174-3.808-6.885-6.342-7.21-6.618-7.225l-.054,1.041h-.018c.024,0,2.27.348,5.779,6.689a67.245,67.245,0,0,1,4.674,9.608Z" transform="translate(-1636.732 -622.834)" fill="#35398e"/></g><g transform="translate(50.038 54.17)"><path d="M1707.885,713.175a29.55,29.55,0,0,1,19.328-9.446c12.643-1.163,7.121.872,2.325,4.65s-11.626,8.138-16.131,7.993S1707.885,713.175,1707.885,713.175Z" transform="translate(-1707.885 -703.402)" fill="#111b56"/></g><g transform="translate(44.556 88.683)"><path d="M1690.156,820.286s-4.214,9.01,10.9,11.771,14.823,7.993,17,3.488-7.848-13.079-15.84-15.986S1690.156,820.286,1690.156,820.286Z" transform="translate(-1689.616 -818.432)" fill="#121d5e"/></g><g transform="translate(0 51.337)"><path d="M1571.064,706.186s-10.318-12.788-17.584-12.207-12.207,9.591-12.353,12.934.872,3.2.872,3.2Z" transform="translate(-1541.113 -693.959)" fill="#d72a86"/></g><g transform="translate(34.639 94.64)"><path d="M1661.08,847.493a.521.521,0,0,0,.468-.75l-3.995-8.163a.521.521,0,0,0-.936.458l3.995,8.163A.522.522,0,0,0,1661.08,847.493Z" transform="translate(-1656.564 -838.288)" fill="#142477"/></g><g transform="translate(5.865 84.905)"><path d="M1575.8,810.786c-11.626-1.017-15.114,2.18-15.114,2.18-.581-1.6,8.719-7.266,18.892-7.121s11.045,10.318,11.481,11.626C1591.059,817.471,1587.426,811.8,1575.8,810.786Z" transform="translate(-1560.661 -805.842)" fill="#d72a86"/></g><g transform="translate(5.891 89.649)"><path d="M1578.767,828.537c-9.737.436-17.439-2.906-18.02-4.505,0,0,3.488-3.2,15.114-2.18s15.259,6.685,15.259,6.685S1588.5,828.1,1578.767,828.537Z" transform="translate(-1560.747 -821.653)" fill="#d72a86"/></g><g transform="translate(51.636 74.738)"><path d="M1725.129,772.058a17.126,17.126,0,0,1,9.707,4.738c.387.4.611.639.611.639s6.83,6.685-1.308,5.813-20.927-8.574-20.927-8.574A21.02,21.02,0,0,1,1725.129,772.058Z" transform="translate(-1713.212 -771.955)" fill="#0e1547"/></g><g transform="translate(51.636 72.215)"><path d="M1724.4,763.555c3.231.239,8.627,5.5,10.434,7.354a17.127,17.127,0,0,0-9.707-4.738,21.021,21.021,0,0,0-11.917,2.616S1720.478,763.264,1724.4,763.555Z" transform="translate(-1713.212 -763.544)" fill="#d72a86"/></g><g transform="translate(37.592 9.36)"><path d="M1667.661,657.115a.521.521,0,0,0,.52-.5c.01-.229,1.007-23.245.725-46.9-.089-7.44-1.445-54.684-1.459-55.16a.521.521,0,0,0-1.042.03c.013.476,1.37,47.712,1.458,55.143.282,23.621-.714,46.607-.724,46.837a.521.521,0,0,0,.5.543Z" transform="translate(-1666.405 -554.055)" fill="#35398e"/></g><g transform="translate(19.443 28.003)"><path d="M1625.588,653.232l1.041-.023c0-.132-.108-3.329-3.894-11.046-3.75-7.645-15.832-25.79-15.954-25.973l-.867.578c.121.182,12.165,18.271,15.885,25.854a49.811,49.811,0,0,1,3.281,8.13A11.943,11.943,0,0,1,1625.588,653.232Z" transform="translate(-1605.914 -616.19)" fill="#35398e"/></g><g transform="translate(38.561 89.96)"><path d="M1670.155,838.827a.521.521,0,0,0,.518-.47,56.633,56.633,0,0,1,1.061-6.352c.98-4.253,2.26-6.994,3.7-7.926a1.972,1.972,0,0,1,1.8-.227l.825.275c3.942,1.307,15.939,5.283,20.151,8.836a.521.521,0,1,0,.672-.8c-4.365-3.683-16.506-7.707-20.495-9.029-.334-.111-.61-.2-.819-.273a3,3,0,0,0-2.7.339c-1.7,1.1-3.1,3.985-4.154,8.578a57.811,57.811,0,0,0-1.08,6.474.521.521,0,0,0,.469.569Z" transform="translate(-1669.633 -822.687)" fill="#35398e"/></g><g transform="translate(21.839 109.138)"><path d="M1642.89,886.607h-24.966a1.763,1.763,0,0,0-1.668,1.193L1614,891.88a1.763,1.763,0,0,0,.082,1.337l10.538,21.751a1.763,1.763,0,0,0,1.586.994h10.383a1.762,1.762,0,0,0,1.616-1.061l9.563-22.049a1.762,1.762,0,0,0-.281-1.851l-3.257-3.782A1.763,1.763,0,0,0,1642.89,886.607Z" transform="translate(-1613.901 -886.607)" fill="#142477"/></g><g transform="translate(41.02 42.884)"><path d="M1681.035,695.129c2.761,1.889,10.464,2.034,13.806-8.574s.436-18.02-3.2-20.345-10.027,5.232-12.934,15.84S1681.035,695.129,1681.035,695.129Z" transform="translate(-1677.831 -665.787)" fill="#d72a86"/></g><g transform="translate(35.707 50.524)"><path d="M1664,728.944l.557-1.966c.039-.138,3.963-13.928,7.619-22.69s4.9-12.31,4.917-12.344a.521.521,0,0,0-.984-.344c-.012.035-1.256,3.568-4.895,12.288-2.86,6.854-5.877,16.747-7.1,20.88-.249-1.078-.578-2.491-.924-3.943-.832-3.493-2.975-3.138-3.066-3.121l.19,1.025-.011,0c.052-.008,1.282-.147,1.874,2.336.717,3.014,1.363,5.858,1.369,5.886Z" transform="translate(-1660.123 -691.25)" fill="#35398e"/></g><g transform="translate(17.845 74.84)"><path d="M1612,772.3c8.859,0,10.6,4.516,7.469,9.9s-16.5,11.463-18.411,10.074S1603.141,772.3,1612,772.3Z" transform="translate(-1600.589 -772.295)" fill="#121d5e"/></g><g transform="translate(20.125 75.996)"><path d="M1608.709,791.9a.521.521,0,0,0,.466-.287,69.952,69.952,0,0,1,5.411-9,27.21,27.21,0,0,1,6.062-5.5.521.521,0,0,0-.558-.88,27.771,27.771,0,0,0-6.329,5.744,50.053,50.053,0,0,0-3.738,5.855c-1.039,1.846-1.772,3.3-1.78,3.318a.521.521,0,0,0,.465.755Z" transform="translate(-1608.189 -776.145)" fill="#35398e"/></g><g transform="translate(0.755 55.583)"><path d="M1572.37,716.683c-6.6.348-28.741,3.589-28.741,3.589s17-10.9,26.013-12.062S1572.37,716.683,1572.37,716.683Z" transform="translate(-1543.629 -708.113)" fill="#0e1547"/></g></g><g transform="translate(176.032 106.03)"><rect width="75.246" height="3.992" transform="translate(0 2.343)" fill="#142477"/><g transform="translate(0.911)"><path d="M987.417,584.492h-3.77l-1.022,3.819h5.815Z" transform="translate(-982.624 -584.492)" fill="#142477"/><path d="M1003.9,584.492h-3.77l-1.022,3.819h5.815Z" transform="translate(-992.686 -584.492)" fill="#142477"/><path d="M1020.384,584.492h-3.77l-1.023,3.819h5.815Z" transform="translate(-1002.747 -584.492)" fill="#142477"/><path d="M1111.49,584.492h-3.77l-1.022,3.819h5.815Z" transform="translate(-1058.357 -584.492)" fill="#142477"/><path d="M1127.974,584.492h-3.77l-1.022,3.819H1129Z" transform="translate(-1068.418 -584.492)" fill="#142477"/><path d="M1144.458,584.492h-3.77l-1.023,3.819h5.815Z" transform="translate(-1078.479 -584.492)" fill="#142477"/><path d="M1160.942,584.492h-3.77l-1.022,3.819h5.815Z" transform="translate(-1088.541 -584.492)" fill="#142477"/><path d="M1058.912,584.492H1033.1l-1.023,3.819h27.859Z" transform="translate(-1012.808 -584.492)" fill="#142477"/></g></g></svg>