<svg xmlns="http://www.w3.org/2000/svg" xmlns:xlink="http://www.w3.org/1999/xlink" width="683.755" height="461.613" viewBox="0 0 683.755 461.613"><defs><clipPath id="a"><path d="M3706.108,628.408c-2.607,57.4-54.313,85.545-347.225,100.1l60.523-317.427c112.005-2.943,234.622-4.709,236.6,52.127s-46.037,76.678-9.239,108.728S3706.475,607.449,3706.108,628.408Z" transform="matrix(0.998, 0.07, -0.07, 0.998, -6682.542, 1255.155)" fill="#fff"/></clipPath><clipPath id="b"><path d="M332.232,253.048c-3.765,34.014-45.532,62.515-329.137,76.984L63.432,14.168c107.646-3.7,223.574,3.982,201.941,102.676C238.76,232.009,338.222,195.125,332.232,253.048Z" transform="matrix(-0.998, -0.07, 0.07, -0.998, -3957.744, 2338.118)" fill="#9d9d9d"/></clipPath><clipPath id="c"><rect width="165" height="175" transform="translate(-0.243 0.167)" fill="none"/></clipPath></defs><g transform="translate(-153.717 -245.815)"><ellipse cx="311.5" cy="149.5" rx="311.5" ry="149.5" transform="translate(154.954 418.774) rotate(-16)" opacity="0.243" stroke="#b9b3df" stroke-width="2" stroke-dasharray="9" fill="none"/><g transform="translate(-3 -16)"><g transform="translate(3834 -1571)"><g clip-path="url(#a)"><g transform="translate(8 -14)"><g transform="translate(-3423.956 1775.348)"><rect width="437" height="65" transform="translate(-0.044 -0.348)" fill="#47447f"/></g><g transform="translate(-3398.941 1820.91)"><rect width="382" height="375" transform="translate(381.941 375.09) rotate(-180)" fill="#575492"/></g><g transform="translate(-3155.941 1968.318)"><g transform="translate(0 0)"><rect width="15" height="50" transform="translate(-0.059 -0.318)" fill="#6967ac"/></g><g transform="translate(4.467 38.415)"><circle cx="2.5" cy="2.5" r="2.5" transform="translate(0.475 0.267)" fill="#37366f"/></g></g><g transform="translate(-3138.074 1968.318)"><g transform="translate(0 0)"><rect width="15" height="50" transform="translate(0.074 -0.318)" fill="#6967ac"/></g><g transform="translate(4.467 38.415)"><ellipse cx="3" cy="2.5" rx="3" ry="2.5" transform="translate(-0.393 0.267)" fill="#37366f"/></g></g><g transform="translate(-3121.1 1968.318)"><g transform="translate(0 0)"><rect width="15" height="50" transform="translate(0.1 -0.318)" fill="#6967ac"/></g><g transform="translate(5.36 38.415)"><circle cx="2.5" cy="2.5" r="2.5" transform="translate(-0.261 0.267)" fill="#37366f"/></g></g><g transform="translate(-3300.678 1978.651)"><path d="M4599.626,2519v.362a35.94,35.94,0,0,1-3.159,14.733l-.467,1.039v23.305h13.736v-22.217l-1.111-2.839a35.939,35.939,0,0,1-2.472-13.1V2519Z" transform="translate(-4596 -2519)" fill="#47447f"/></g><g transform="translate(-3288.645 1990.185)"><path d="M4728.565,2643.615v.257a25.429,25.429,0,0,1-2.235,10.424l-.331.736v16.49h9.719V2655.8l-.786-2.009a25.424,25.424,0,0,1-1.75-9.269v-.909Z" transform="translate(-4726 -2643.615)" fill="#6967ac"/></g><g transform="translate(-3373.927 1888.807)"><rect width="95" height="58" transform="translate(-0.073 0.193)" fill="#2e2e63"/></g><g transform="translate(-3366.78 1894.167)"><rect width="81" height="48" transform="translate(-0.22 -0.167)" fill="#575492"/></g><g transform="translate(-3332.831 1924.542)"><ellipse cx="6.5" cy="5.5" rx="6.5" ry="5.5" transform="translate(-0.169 0.458)" fill="#47447f"/></g><g transform="translate(-3360.795 1900.932)"><path d="M4015.271,1682.989v15.666a163.3,163.3,0,0,0-68.771,0v-15.666a163.3,163.3,0,0,1,68.771,0Z" transform="translate(-3946.5 -1679.328)" fill="#47447f"/></g><g transform="translate(-3355.612 1926.355)"><rect width="15.55" height="3.054" fill="#47447f"/><g transform="translate(42.855)"><rect width="15.55" height="3.054" fill="#47447f"/></g></g><g transform="translate(-3356.059 1933.476)"><g transform="translate(0 0)"><rect width="16" height="1" transform="translate(0.059 -0.476)" fill="#47447f"/></g><g transform="translate(42.882 0)"><rect width="16" height="1" transform="translate(0.177 -0.476)" fill="#47447f"/></g></g><g transform="translate(-3442.717 2095.178)"><rect width="456" height="193" transform="translate(-0.283 -0.178)" fill="#47447f"/></g><g transform="translate(-3385.935 2172.701)" opacity="0.15"><path d="M4063.9,4615.5c0,38.263-87.082,69.281-194.5,69.281s-194.5-31.018-194.5-69.281" transform="translate(-3674.894 -4615.5)" fill="#292961"/></g><g transform="translate(-3341.765 1994.226)"><ellipse cx="16" cy="12" rx="16" ry="12" transform="translate(-0.235 -0.226)" fill="#292961"/></g><g transform="translate(-3337.041 1997.811)"><ellipse cx="11.325" cy="8.469" rx="11.325" ry="8.469" fill="#47447f"/></g><g transform="translate(-3406.088 2017.454)"><rect width="419" height="91" transform="translate(0.088 -0.454)" fill="#37366f"/></g><g transform="translate(-3399.624 2025.074)"><rect width="96.539" height="33.927" fill="#1e204e"/><g transform="translate(0 41.221)"><rect width="96.539" height="33.927" fill="#1e204e"/></g></g><g transform="translate(-3296.605 2025.074)"><rect width="96.539" height="33.927" fill="#1e204e"/><g transform="translate(0 41.221)"><rect width="96.539" height="33.927" fill="#1e204e"/></g></g><g transform="translate(-3193.587 2025.074)"><rect width="96.539" height="33.927" fill="#1e204e"/><g transform="translate(0 41.221)"><rect width="96.539" height="33.927" fill="#1e204e"/></g></g><g transform="translate(-3090.569 2025.074)"><rect width="96.539" height="33.927" fill="#1e204e"/><g transform="translate(0 41.221)"><rect width="96.539" height="33.927" fill="#1e204e"/></g></g><g transform="translate(-3394.29 2029.733)"><g transform="translate(0 4.132)"><rect width="6.291" height="22.442" fill="#161a44"/></g><g transform="translate(6.291)"><rect width="6.291" height="26.574" fill="#161a44"/></g><g transform="translate(12.583 2.488)"><rect width="3.146" height="24.086" fill="#161a44"/></g><g transform="translate(15.588 4.977)"><rect width="6.291" height="21.597" fill="#161a44"/></g><g transform="translate(22.15 7.375)"><rect width="4" height="19" transform="translate(0.14 -0.108)" fill="#161a44"/></g><g transform="translate(36.746 7.658)"><rect width="6.291" height="18.916" fill="#161a44"/></g><g transform="translate(43.037 4.176)"><rect width="6.291" height="22.398" fill="#161a44"/></g><g transform="translate(63.496 7.658)"><rect width="6.291" height="18.916" fill="#161a44"/></g><g transform="translate(69.787 4.176)"><rect width="6.291" height="22.398" fill="#161a44"/></g><g transform="translate(75.947 2.325)"><rect width="6.291" height="24.238" fill="#161a44"/></g><g transform="translate(82.053 5.472)"><rect width="6.291" height="20.945" fill="#161a44"/></g><g transform="translate(49.329 6.273)"><rect width="3.146" height="20.301" fill="#161a44"/></g><g transform="translate(52.334 0.011)"><rect width="6.291" height="26.563" fill="#161a44"/></g><g transform="translate(58.625 3.465)"><rect width="4.906" height="23.11" fill="#161a44"/></g><g transform="translate(28.086 2.334)"><rect width="3.054" height="24.251" transform="translate(6.085 0) rotate(14.533)" fill="#161a44"/></g></g><g transform="translate(-3395.526 2069.996)"><g transform="translate(82.053 4.132)"><rect width="6.291" height="22.442" transform="translate(6.291 22.442) rotate(-180)" fill="#161a44"/></g><g transform="translate(75.762 0)"><rect width="6.291" height="26.574" transform="translate(6.291 26.574) rotate(-180)" fill="#161a44"/></g><g transform="translate(72.616 2.488)"><rect width="3.146" height="24.086" transform="translate(3.146 24.086) rotate(-180)" fill="#161a44"/></g><g transform="translate(66.465 4.977)"><rect width="6.291" height="21.597" transform="translate(6.291 21.597) rotate(-180)" fill="#161a44"/></g><g transform="translate(61.56 7.786)"><rect width="4.906" height="18.79" transform="translate(4.906 18.79) rotate(-180)" fill="#161a44"/></g><g transform="translate(45.307 7.658)"><rect width="6.291" height="18.916" transform="translate(6.291 18.916) rotate(-180)" fill="#161a44"/></g><g transform="translate(39.016 4.176)"><rect width="6.291" height="22.398" transform="translate(6.291 22.398) rotate(-180)" fill="#161a44"/></g><g transform="translate(18.557 7.658)"><rect width="6.291" height="18.916" transform="translate(6.291 18.916) rotate(-180)" fill="#161a44"/></g><g transform="translate(12.266 4.176)"><rect width="6.291" height="22.398" transform="translate(6.291 22.398) rotate(-180)" fill="#161a44"/></g><g transform="translate(6.106 2.325)"><rect width="6.291" height="24.238" transform="translate(6.291 24.238) rotate(-180)" fill="#161a44"/></g><g transform="translate(0 5.472)"><rect width="6.291" height="20.945" transform="translate(6.291 20.945) rotate(-180)" fill="#161a44"/></g><g transform="translate(35.87 6.273)"><rect width="3.146" height="20.301" transform="translate(3.146 20.301) rotate(-180)" fill="#161a44"/></g><g transform="translate(29.719 0.011)"><rect width="6.291" height="26.563" transform="translate(6.291 26.563) rotate(-180)" fill="#161a44"/></g><g transform="translate(24.814 3.465)"><rect width="4.906" height="23.11" transform="translate(4.906 23.11) rotate(-180)" fill="#161a44"/></g><g transform="translate(51.59 1.677)"><rect width="2.592" height="24.898" fill="#161a44"/></g><g transform="translate(54.182 5.749)"><rect width="7.405" height="20.826" fill="#161a44"/></g></g><g transform="translate(-3292.508 2069.971)"><g transform="translate(82.053 4.132)"><rect width="6.291" height="22.442" transform="translate(6.291 22.442) rotate(-180)" fill="#161a44"/></g><g transform="translate(75.762 0)"><rect width="6.291" height="26.574" transform="translate(6.291 26.574) rotate(-180)" fill="#161a44"/></g><g transform="translate(72.616 2.488)"><rect width="3.146" height="24.086" transform="translate(3.146 24.086) rotate(-180)" fill="#161a44"/></g><g transform="translate(66.465 4.977)"><rect width="6.291" height="21.597" transform="translate(6.291 21.597) rotate(-180)" fill="#161a44"/></g><g transform="translate(61.56 7.786)"><rect width="4.906" height="18.79" transform="translate(4.906 18.79) rotate(-180)" fill="#161a44"/></g><g transform="translate(45.307 7.658)"><rect width="6.291" height="18.916" transform="translate(6.291 18.916) rotate(-180)" fill="#161a44"/></g><g transform="translate(39.016 4.176)"><rect width="6.291" height="22.398" transform="translate(6.291 22.398) rotate(-180)" fill="#161a44"/></g><g transform="translate(18.557 7.658)"><rect width="6.291" height="18.916" transform="translate(6.291 18.916) rotate(-180)" fill="#161a44"/></g><g transform="translate(12.266 4.176)"><rect width="6.291" height="22.398" transform="translate(6.291 22.398) rotate(-180)" fill="#161a44"/></g><g transform="translate(6.106 2.325)"><rect width="6.291" height="24.238" transform="translate(6.291 24.238) rotate(-180)" fill="#161a44"/></g><g transform="translate(0 5.472)"><rect width="6.291" height="20.945" transform="translate(6.291 20.945) rotate(-180)" fill="#161a44"/></g><g transform="translate(35.87 6.273)"><rect width="3.146" height="20.301" transform="translate(3.146 20.301) rotate(-180)" fill="#161a44"/></g><g transform="translate(29.719 0.011)"><rect width="6.291" height="26.563" transform="translate(6.291 26.563) rotate(-180)" fill="#161a44"/></g><g transform="translate(24.814 3.465)"><rect width="4.906" height="23.11" transform="translate(4.906 23.11) rotate(-180)" fill="#161a44"/></g><g transform="translate(51.591 1.677)"><rect width="2.592" height="24.898" fill="#161a44"/></g><g transform="translate(54.182 5.749)"><rect width="7.405" height="20.826" fill="#161a44"/></g></g><g transform="translate(-3189.49 2069.971)"><g transform="translate(82.053 4.132)"><rect width="6.291" height="22.442" transform="translate(6.291 22.442) rotate(-180)" fill="#161a44"/></g><g transform="translate(75.762 0)"><rect width="6.291" height="26.574" transform="translate(6.291 26.574) rotate(-180)" fill="#161a44"/></g><g transform="translate(72.616 2.488)"><rect width="3.146" height="24.086" transform="translate(3.146 24.086) rotate(-180)" fill="#161a44"/></g><g transform="translate(66.465 4.977)"><rect width="6.291" height="21.597" transform="translate(6.291 21.597) rotate(-180)" fill="#161a44"/></g><g transform="translate(61.56 7.786)"><rect width="4.906" height="18.79" transform="translate(4.906 18.79) rotate(-180)" fill="#161a44"/></g><g transform="translate(45.307 7.658)"><rect width="6.291" height="18.916" transform="translate(6.291 18.916) rotate(-180)" fill="#161a44"/></g><g transform="translate(39.016 4.176)"><rect width="6.291" height="22.398" transform="translate(6.291 22.398) rotate(-180)" fill="#161a44"/></g><g transform="translate(18.557 7.658)"><rect width="6.291" height="18.916" transform="translate(6.291 18.916) rotate(-180)" fill="#161a44"/></g><g transform="translate(12.266 4.176)"><rect width="6.291" height="22.398" transform="translate(6.291 22.398) rotate(-180)" fill="#161a44"/></g><g transform="translate(6.106 2.325)"><rect width="6.291" height="24.238" transform="translate(6.291 24.238) rotate(-180)" fill="#161a44"/></g><g transform="translate(0 5.472)"><rect width="6.291" height="20.945" transform="translate(6.291 20.945) rotate(-180)" fill="#161a44"/></g><g transform="translate(35.87 6.273)"><rect width="3.146" height="20.301" transform="translate(3.146 20.301) rotate(-180)" fill="#161a44"/></g><g transform="translate(29.719 0.011)"><rect width="6.291" height="26.563" transform="translate(6.291 26.563) rotate(-180)" fill="#161a44"/></g><g transform="translate(24.814 3.465)"><rect width="4.906" height="23.11" transform="translate(4.906 23.11) rotate(-180)" fill="#161a44"/></g><g transform="translate(51.591 1.677)"><rect width="2.592" height="24.898" fill="#161a44"/></g><g transform="translate(54.182 5.749)"><rect width="7.405" height="20.826" fill="#161a44"/></g></g><g transform="translate(-3086.471 2069.971)"><g transform="translate(82.053 4.132)"><rect width="6.291" height="22.442" transform="translate(6.291 22.442) rotate(-180)" fill="#161a44"/></g><g transform="translate(75.762 0)"><rect width="6.291" height="26.574" transform="translate(6.291 26.574) rotate(-180)" fill="#161a44"/></g><g transform="translate(72.616 2.488)"><rect width="3.146" height="24.086" transform="translate(3.146 24.086) rotate(-180)" fill="#161a44"/></g><g transform="translate(66.465 4.977)"><rect width="6.291" height="21.597" transform="translate(6.291 21.597) rotate(-180)" fill="#161a44"/></g><g transform="translate(61.56 7.786)"><rect width="4.906" height="18.79" transform="translate(4.906 18.79) rotate(-180)" fill="#161a44"/></g><g transform="translate(45.307 7.658)"><rect width="6.291" height="18.916" transform="translate(6.291 18.916) rotate(-180)" fill="#161a44"/></g><g transform="translate(39.016 4.176)"><rect width="6.291" height="22.398" transform="translate(6.291 22.398) rotate(-180)" fill="#161a44"/></g><g transform="translate(18.557 7.658)"><rect width="6.291" height="18.916" transform="translate(6.291 18.916) rotate(-180)" fill="#161a44"/></g><g transform="translate(12.266 4.176)"><rect width="6.291" height="22.398" transform="translate(6.291 22.398) rotate(-180)" fill="#161a44"/></g><g transform="translate(6.106 2.325)"><rect width="6.291" height="24.238" transform="translate(6.291 24.238) rotate(-180)" fill="#161a44"/></g><g transform="translate(0 5.472)"><rect width="6.291" height="20.945" transform="translate(6.291 20.945) rotate(-180)" fill="#161a44"/></g><g transform="translate(35.87 6.273)"><rect width="3.146" height="20.301" transform="translate(3.146 20.301) rotate(-180)" fill="#161a44"/></g><g transform="translate(29.719 0.011)"><rect width="6.291" height="26.563" transform="translate(6.291 26.563) rotate(-180)" fill="#161a44"/></g><g transform="translate(24.814 3.465)"><rect width="4.906" height="23.11" transform="translate(4.906 23.11) rotate(-180)" fill="#161a44"/></g><g transform="translate(51.591 1.677)"><rect width="2.592" height="24.898" fill="#161a44"/></g><g transform="translate(54.182 5.749)"><rect width="7.405" height="20.826" fill="#161a44"/></g></g><g transform="translate(-3292.508 2028.782)"><g transform="translate(82.053 4.132)"><rect width="6.291" height="22.442" transform="translate(6.291 22.442) rotate(-180)" fill="#161a44"/></g><g transform="translate(75.762 0)"><rect width="6.291" height="26.574" transform="translate(6.291 26.574) rotate(-180)" fill="#161a44"/></g><g transform="translate(72.616 2.488)"><rect width="3.146" height="24.086" transform="translate(3.146 24.086) rotate(-180)" fill="#161a44"/></g><g transform="translate(66.465 4.977)"><rect width="6.291" height="21.597" transform="translate(6.291 21.597) rotate(-180)" fill="#161a44"/></g><g transform="translate(61.56 7.786)"><rect width="4.906" height="18.79" transform="translate(4.906 18.79) rotate(-180)" fill="#161a44"/></g><g transform="translate(45.307 7.658)"><rect width="6.291" height="18.916" transform="translate(6.291 18.916) rotate(-180)" fill="#161a44"/></g><g transform="translate(39.016 4.176)"><rect width="6.291" height="22.398" transform="translate(6.291 22.398) rotate(-180)" fill="#161a44"/></g><g transform="translate(18.557 7.658)"><rect width="6.291" height="18.916" transform="translate(6.291 18.916) rotate(-180)" fill="#161a44"/></g><g transform="translate(12.266 4.176)"><rect width="6.291" height="22.398" transform="translate(6.291 22.398) rotate(-180)" fill="#161a44"/></g><g transform="translate(6.106 2.325)"><rect width="6.291" height="24.238" transform="translate(6.291 24.238) rotate(-180)" fill="#161a44"/></g><g transform="translate(0 5.472)"><rect width="6.291" height="20.945" transform="translate(6.291 20.945) rotate(-180)" fill="#161a44"/></g><g transform="translate(35.87 6.273)"><rect width="3.146" height="20.301" transform="translate(3.146 20.301) rotate(-180)" fill="#161a44"/></g><g transform="translate(29.719 0.011)"><rect width="6.291" height="26.563" transform="translate(6.291 26.563) rotate(-180)" fill="#161a44"/></g><g transform="translate(24.814 3.465)"><rect width="4.906" height="23.11" transform="translate(4.906 23.11) rotate(-180)" fill="#161a44"/></g><g transform="translate(51.591 1.677)"><rect width="2.592" height="24.898" fill="#161a44"/></g><g transform="translate(54.182 5.749)"><rect width="7.405" height="20.826" fill="#161a44"/></g></g><g transform="translate(-3189.49 2028.782)"><g transform="translate(82.053 4.132)"><rect width="6.291" height="22.442" transform="translate(6.291 22.442) rotate(-180)" fill="#161a44"/></g><g transform="translate(75.762 0)"><rect width="6.291" height="26.574" transform="translate(6.291 26.574) rotate(-180)" fill="#161a44"/></g><g transform="translate(72.616 2.488)"><rect width="3.146" height="24.086" transform="translate(3.146 24.086) rotate(-180)" fill="#161a44"/></g><g transform="translate(66.465 4.977)"><rect width="6.291" height="21.597" transform="translate(6.291 21.597) rotate(-180)" fill="#161a44"/></g><g transform="translate(61.56 7.786)"><rect width="4.906" height="18.79" transform="translate(4.906 18.79) rotate(-180)" fill="#161a44"/></g><g transform="translate(45.307 7.658)"><rect width="6.291" height="18.916" transform="translate(6.291 18.916) rotate(-180)" fill="#161a44"/></g><g transform="translate(39.016 4.176)"><rect width="6.291" height="22.398" transform="translate(6.291 22.398) rotate(-180)" fill="#161a44"/></g><g transform="translate(18.557 7.658)"><rect width="6.291" height="18.916" transform="translate(6.291 18.916) rotate(-180)" fill="#161a44"/></g><g transform="translate(12.266 4.176)"><rect width="6.291" height="22.398" transform="translate(6.291 22.398) rotate(-180)" fill="#161a44"/></g><g transform="translate(6.106 2.325)"><rect width="6.291" height="24.238" transform="translate(6.291 24.238) rotate(-180)" fill="#161a44"/></g><g transform="translate(0 5.472)"><rect width="6.291" height="20.945" transform="translate(6.291 20.945) rotate(-180)" fill="#161a44"/></g><g transform="translate(35.87 6.273)"><rect width="3.146" height="20.301" transform="translate(3.146 20.301) rotate(-180)" fill="#161a44"/></g><g transform="translate(29.719 0.011)"><rect width="6.291" height="26.563" transform="translate(6.291 26.563) rotate(-180)" fill="#161a44"/></g><g transform="translate(24.814 3.465)"><rect width="4.906" height="23.11" transform="translate(4.906 23.11) rotate(-180)" fill="#161a44"/></g><g transform="translate(51.591 1.677)"><rect width="2.592" height="24.898" fill="#161a44"/></g><g transform="translate(54.182 5.749)"><rect width="7.405" height="20.826" fill="#161a44"/></g></g><g transform="translate(-3086.471 2028.782)"><g transform="translate(82.053 4.132)"><rect width="6.291" height="22.442" transform="translate(6.291 22.442) rotate(-180)" fill="#161a44"/></g><g transform="translate(75.762 0)"><rect width="6.291" height="26.574" transform="translate(6.291 26.574) rotate(-180)" fill="#161a44"/></g><g transform="translate(72.616 2.488)"><rect width="3.146" height="24.086" transform="translate(3.146 24.086) rotate(-180)" fill="#161a44"/></g><g transform="translate(66.465 4.977)"><rect width="6.291" height="21.597" transform="translate(6.291 21.597) rotate(-180)" fill="#161a44"/></g><g transform="translate(61.56 7.786)"><rect width="4.906" height="18.79" transform="translate(4.906 18.79) rotate(-180)" fill="#161a44"/></g><g transform="translate(45.307 7.658)"><rect width="6.291" height="18.916" transform="translate(6.291 18.916) rotate(-180)" fill="#161a44"/></g><g transform="translate(39.016 4.176)"><rect width="6.291" height="22.398" transform="translate(6.291 22.398) rotate(-180)" fill="#161a44"/></g><g transform="translate(18.557 7.658)"><rect width="6.291" height="18.916" transform="translate(6.291 18.916) rotate(-180)" fill="#161a44"/></g><g transform="translate(12.266 4.176)"><rect width="6.291" height="22.398" transform="translate(6.291 22.398) rotate(-180)" fill="#161a44"/></g><g transform="translate(6.106 2.325)"><rect width="6.291" height="24.238" transform="translate(6.291 24.238) rotate(-180)" fill="#161a44"/></g><g transform="translate(0 5.472)"><rect width="6.291" height="20.945" transform="translate(6.291 20.945) rotate(-180)" fill="#161a44"/></g><g transform="translate(35.87 6.273)"><rect width="3.146" height="20.301" transform="translate(3.146 20.301) rotate(-180)" fill="#161a44"/></g><g transform="translate(29.719 0.011)"><rect width="6.291" height="26.563" transform="translate(6.291 26.563) rotate(-180)" fill="#161a44"/></g><g transform="translate(24.814 3.465)"><rect width="4.906" height="23.11" transform="translate(4.906 23.11) rotate(-180)" fill="#161a44"/></g><g transform="translate(51.591 1.677)"><rect width="2.592" height="24.898" fill="#161a44"/></g><g transform="translate(54.182 5.749)"><rect width="7.405" height="20.826" fill="#161a44"/></g></g><g transform="translate(-3242.6 1860.219)"><rect width="168" height="66" transform="translate(-0.4 -0.219)" fill="#47447f"/></g><g transform="translate(-3236.346 1866.473)"><g transform="translate(0 0)"><rect width="155" height="54" transform="translate(0.346 -0.472)" fill="#050d32"/></g><g transform="translate(8.451 10.978)"><path d="M5397.709,1446.385a15.35,15.35,0,0,0,6.277,8.761,15.412,15.412,0,1,1,2.361-26.884A15.413,15.413,0,0,0,5397.709,1446.385Z" transform="translate(-5382.335 -1425.637)" fill="#c4c4dd"/></g><g transform="translate(49.886 4.44)"><path d="M5838.423,1359.21v0a4.21,4.21,0,0,0-4.21,4.21h0a4.21,4.21,0,0,0-4.21-4.21v0a4.21,4.21,0,0,0,4.21-4.21h0A4.21,4.21,0,0,0,5838.423,1359.21Z" transform="translate(-5830 -1355)" fill="#c4c4dd"/></g><g transform="translate(86.817 9.623)"><path d="M6235.109,1414.053v0a3.053,3.053,0,0,0-3.053,3.053h0a3.054,3.054,0,0,0-3.054-3.053v0a3.054,3.054,0,0,0,3.054-3.053h0A3.054,3.054,0,0,0,6235.109,1414.053Z" transform="translate(-6229 -1411)" fill="#c4c4dd"/></g><g transform="translate(67.897 16.974)"><ellipse cx="1" cy="1.5" rx="1" ry="1.5" transform="translate(0.449 -0.447)" fill="#c4c4dd"/></g><g transform="translate(5.36 7.147)"><ellipse cx="1.5" cy="1" rx="1.5" ry="1" transform="translate(-0.014 0.38)" fill="#c4c4dd"/></g><g transform="translate(47.349 30.375)"><circle cx="0.5" cy="0.5" r="0.5" transform="translate(-0.003 0.153)" fill="#c4c4dd"/></g><g transform="translate(0.089 28.778)"><g transform="translate(0 8.526)"><rect width="11.385" height="16.655" fill="#1e204e"/></g><g transform="translate(90.801 8.526)"><rect width="11.385" height="16.655" fill="#1e204e"/></g><g transform="translate(55.165 5.355)"><rect width="19.252" height="19.826" fill="#1e204e"/></g><g transform="translate(11.385 4.596)"><rect width="9.071" height="20.585" fill="#1e204e"/></g><g transform="translate(87.098)"><rect width="4.998" height="25.181" fill="#1e204e"/></g><g transform="translate(74.232 7.007)"><rect width="13.699" height="18.174" fill="#1e204e"/></g><g transform="translate(28.508 7.007)"><rect width="9.071" height="18.174" fill="#1e204e"/></g><g transform="translate(123.937 7.007)"><rect width="9.071" height="18.174" fill="#1e204e"/></g><g transform="translate(20.456 10.937)"><rect width="9.071" height="14.244" fill="#1e204e"/></g><g transform="translate(34.987 9.999)"><rect width="23.88" height="15.182" fill="#1e204e"/></g><g transform="translate(130.786 8.526)"><rect width="10.737" height="16.655" fill="#1e204e"/></g><g transform="translate(140.505 11.383)"><rect width="14.995" height="13.798" fill="#1e204e"/></g><g transform="translate(101.167 10.937)"><rect width="23.88" height="14.244" fill="#1e204e"/></g></g><g transform="translate(41 37.28)"><rect width="9.163" height="2.428" fill="#1e204e"/></g><g transform="translate(61.271 32.054)"><rect width="12.125" height="2.903" fill="#1e204e"/></g><g transform="translate(98.017 34.957)"><rect width="3.24" height="3.589" fill="#1e204e"/></g><g transform="translate(105.607 35.802)"><rect width="5.739" height="5.542" fill="#1e204e"/></g><g transform="translate(128.561 34.113)"><rect width="2.592" height="2.639" fill="#1e204e"/></g><g transform="translate(1.663 35.802)"><rect width="5.183" height="2.217" fill="#1e204e"/></g><g transform="translate(12.585 32.054)"><rect width="5.091" height="2.903" fill="#1e204e"/></g><g transform="translate(88.576 28.412)"><rect width="3.054" height="0.686" fill="#1e204e"/></g></g><g transform="translate(-3239.919 1864.686)"><g transform="translate(0 25.908)"><rect width="164" height="1" transform="translate(-0.081 0.406)" fill="#47447f"/></g><g transform="translate(2.68 0)"><g transform="translate(77.724)"><rect width="2" height="57" transform="translate(-0.485 0.314)" fill="#47447f"/></g><g transform="translate(39.309)"><rect width="2" height="57" transform="translate(-0.07 0.314)" fill="#47447f"/></g><g transform="translate(117.033)"><rect width="2" height="57" transform="translate(0.206 0.314)" fill="#47447f"/></g><g transform="translate(155.448)"><rect width="2" height="57" transform="translate(-0.209 0.314)" fill="#47447f"/></g><g transform="translate(0)"><rect width="2" height="57" transform="translate(0.239 0.314)" fill="#47447f"/></g></g></g><g transform="translate(-3326.687 1998.829)"><g transform="translate(0 12.301)"><rect width="1.851" height="2.508" fill="#1e204e"/></g><rect width="1.851" height="3.202" fill="#1e204e"/></g><g transform="translate(-3334.618 2004.947)"><g transform="translate(0 0)"><rect width="3" height="2" transform="translate(-0.382 0.053)" fill="#1e204e"/></g><g transform="translate(14.294 0)"><rect width="3" height="2" transform="translate(0.324 0.053)" fill="#1e204e"/></g></g><path d="M3754.7,775.474c-4.082,49.625-92.586,102.613-400.065,123.723l73.078-506.768c125.778,9.127,201.672,47.906,200.469,100.2C3624.371,658.328,3766.292,634.59,3754.7,775.474Z" transform="translate(-6770.214 1389.387)" fill="none"/><g transform="translate(-3331.345 1999.32)"><path d="M4265.1,2752.59l-.43-.819c.013-.007,1.343-.706,2.675-1.384.784-.4,1.417-.714,1.879-.935.392-.187.65-.307.838-.371l4.337-6.777.779.5-4.443,6.942a.463.463,0,0,1-.381.213C4269.854,2750.14,4267.325,2751.423,4265.1,2752.59Z" transform="translate(-4264.674 -2742.305)" fill="#050d32"/></g><g transform="translate(-3324.267 1971.339)"><g transform="translate(31.668 168.837)"><g transform="translate(48.495)"><path d="M5207.222,4298.531V4264.1h14.669v34.43h0a17.589,17.589,0,0,1-14.669,0Z" transform="translate(-5207.222 -4264.101)" fill="#292961"/></g><g transform="translate(0 22.78)"><g transform="translate(59.367)"><path d="M5324.686,4510.219l46.338,11.131,5.868,11.131h-9.147l-2.761-4.573-40.3-10.1Z" transform="translate(-5324.686 -4510.219)" fill="#292961"/></g><path d="M4735.493,4510.219l-46.338,11.131-5.867,11.131h9.146l2.762-4.573,40.3-10.1Z" transform="translate(-4683.288 -4510.219)" fill="#292961"/></g></g><g transform="translate(4.692 132.649)"><path d="M4520.957,3890.1s-.829,10.569-2.234,14.867-42.773,15.323-55.066,15.982c-.708.038-1.552.038-2.512,0a163.154,163.154,0,0,1-16.916-1.935c-20-3.076-46.885-8.85-50.08-10.427-4.551-2.247-1.835-8.231,3.322-14.971,3.119-4.076,12.7-9.157,23.325-13.28a138.45,138.45,0,0,1,20.643-6.312c15.973-3.364,45.965,3.8,45.965,3.8l11.839,3.795,20.993,6.73Z" transform="translate(-4391.834 -3873.128)" fill="#15236c"/><g transform="translate(66.635 13.382)"><path d="M5173.7,4017.7s3.345,18.836-1.735,24.008-58.835,15.056-59.383,9.378c-.54-5.583-4.018-14.652,8.811-16.542,5.128-.756,22.342-2.939,30.014-4.287S5160.147,4019.966,5173.7,4017.7Z" transform="translate(-5111.75 -4017.703)" fill="#070d2e"/></g></g><g transform="translate(88.015 20.937)"><path d="M5330.111,2666.2c12.771,0,26.06,3.193,27.958,8.974s-5.226,21.81-13.96,22.813-45.234,0-45.234,0-6.817-8.489-6.817-24.884C5292.057,2668.2,5312.767,2666.2,5330.111,2666.2Z" transform="translate(-5292.057 -2666.199)" fill="#070d2e"/></g><g transform="translate(88.774 22.921)"><path d="M5347.039,2706.8c0,4.487,5.351,5.006,5.351,9.147,0,1.257-1.921,2.069-4.756,2.59-6.508,1.2-17.828.862-21.735.862-3.68,0-10.582.511-15.447.307-2.551-.105-4.542-.408-5.218-1.084-1.964-1.964-5.082-5.445-4.979-8.978.03-1.044.919-2.558,2.157-4.238,2.489-3.38,6.388-7.436,7.538-9.713a2.518,2.518,0,0,0,.331-1.06c0-2.588,8.542-6.989,18.552-6.989,5.5,0,10.654.216,14.82.468l.255.016c3.165.193,5.742.4,7.446.553,3.969.345,7.766,3.624,6.126,5.264S5347.039,2702.31,5347.039,2706.8Z" transform="translate(-5300.253 -2687.64)" fill="#15236c"/></g><g transform="translate(98.074 22.921)" opacity="0.15"><path d="M5438.815,2718.533c-6.509,1.2-17.828.862-21.736.862-3.68,0-10.582.511-15.447.307-.087-3.9-1.6-14.769-.5-24.013a2.523,2.523,0,0,0,.331-1.06c0-2.588,8.542-6.989,18.553-6.989,5.5,0,10.654.216,14.821.468l.255.016c3.558,5.54-5.242,17.462-3.694,21.949C5432.867,2714.339,5439.137,2716.8,5438.815,2718.533Z" transform="translate(-5400.734 -2687.64)" fill="#050d32"/></g><g transform="translate(18.21 104.784)"><path d="M4594.058,3585.883l-27.611,1.061-28.559,3.737-.006-6.591a11.961,11.961,0,0,1,11.95-11.973l44.213-.041Z" transform="translate(-4537.882 -3572.077)" fill="#292961"/></g><g transform="translate(58.85 51.857)"><path d="M5067.785,3001.127c-7.132-1.931-20.68-.033-33.8-.033s-27.526-3.365-31.841,4.66-25.2,57.625-25.2,68.678,74.123,22.1,74.123,22.1Z" transform="translate(-4976.952 -3000.26)" fill="#15236c"/></g><g transform="translate(18.221 56.11)" opacity="0.15"><path d="M4654.161,3053.966c-.277,8.7-25.546,44.614-25.361,51.186.134,4.767,3.774,17.666,3.081,26.088-.263,3.188-1.149,5.736-3.081,6.956-7.035,4.443-32.247,14.042-34.636,17.156-1.725,2.25-.948,10.705-.383,15.222a163.14,163.14,0,0,1-16.916-1.935L4538,3157.818l15.434-27.857,1.693-3.057s38-8.647,42.462-23.668-5.072-49.176,20.659-54.082C4644.1,3044.225,4654.439,3045.266,4654.161,3053.966Z" transform="translate(-4538 -3046.211)" fill="#050d32"/></g><g transform="translate(115.024 52.307)"><path d="M5629.244,3016.545l-27.44,84.391s-17.949-3.365-17.949-14.238c0-28.562,16.432-28.353,22.781-46.855,7-20.409,4.367-32.85,7.853-34.344C5621.133,3002.653,5629.244,3016.545,5629.244,3016.545Z" transform="translate(-5583.855 -3005.115)" fill="#070d2e"/></g><g transform="translate(33.276 204.475)"><path d="M4701.115,4650.825c-.25.781-1.972,2.8,3.37,3.3,7.737.73,15.711.245,16.446-2.057.447-1.4,1.328-.983-1.759-1.969S4701.941,4648.241,4701.115,4650.825Z" transform="translate(-4700.654 -4649.123)" fill="#d82886"/></g><g transform="translate(20.427 164.494)"><path d="M4561.835,4218.577s21.945,21.632,22.693,27.207-9.158,12.273-5.431,13.963,12.716-5.906,12.579-8.318-1.714-4.381-3.353-10.354c-1.961-7.149-6.886-23.9-6.886-23.9Z" transform="translate(-4561.835 -4217.179)" fill="#6967ac"/></g><g transform="translate(32.574 201.264)"><path d="M4703.852,4622.777c2.232-6.274-3.968-8.206-3.968-8.206-2.656-1.15-9.184,5.521-5.914,6.936S4701.636,4622.852,4703.852,4622.777Z" transform="translate(-4693.073 -4614.438)" fill="#d82886"/></g><g transform="translate(46.084 231.656)"><path d="M4839.284,4949.914c0,.82-1.554,2.8,3.02,2.8s10.959-3.8,10.959-6.213a3.836,3.836,0,0,0-3.969-3.71C4846.532,4942.79,4839.284,4947.2,4839.284,4949.914Z" transform="translate(-4839.03 -4942.79)" fill="#d82886"/></g><g transform="translate(46.338 186.872)"><path d="M4844.8,4462.568s3.539,29.6,3.969,35.206-9.836,11.735-6.212,13.634,12.339-2.934,12.339-5.35-1.9-6.9-.345-18.9a146.809,146.809,0,0,1,6.386-28.217Z" transform="translate(-4841.778 -4458.944)" fill="#6967ac"/></g><g transform="translate(68.994 12.576)"><path d="M5096.646,2575.87s-6.781,2.839-7.153,6.121,4.383,10.755,3.52,14.171-6.033,3.779-6.405,7.061.964,6.568,5.371,7.068,15.474.9,16.368-6.975S5115.14,2577.78,5096.646,2575.87Z" transform="translate(-5086.549 -2575.87)" fill="#070d2e"/></g><g transform="translate(14.344 52.724)"><path d="M4558.836,3009.833c9.8,2.75,3.251,25.468-4.119,28.419s-21.745,21.007-31.792,19.35c-3.866-.638-9.608-7.1-12.327-16.463-4.908-16.9-3.521-18.422-6.245-18.871-4.428-.73-7.636-1.607-8.153-3.074-.492-1.393,1.111-2.869,8.423-2.129,2.625.266,3.213,1.108,4.905,2.684,4.557,4.244,8.137,10.829,12.473,17.72,1.373,2.181,2.4,5.548,3.141,5.631.323.036,2.17-3.463,3.986-5.466C4536.488,3029.517,4549.615,3007.246,4558.836,3009.833Z" transform="translate(-4496.12 -3009.625)" fill="#6967ac"/></g><g transform="translate(0 107.831)"><path d="M4426.833,3604.99c-9.492,0-17.078,9.923-34.861,9.923-22,0-50.825,14.842-50.825,25.887,0,11.649,6.212,23.212,17.171,28.476s22.349,19.933,22.349,19.933,6.429-2.114,9.794-4.271-6.472-31.841-16.568-37.536c-9.146-3.538-5.781,8.543-5.781,8.543s17.085-15.7,31.841-15.7c6.481,0,32.1,2.071,36.415-3.106S4436.885,3604.99,4426.833,3604.99Z" transform="translate(-4341.147 -3604.99)" fill="#070d2e"/></g><g transform="translate(41.619 129.619)"><path d="M4827.746,3840.386c-20.365,0-37.536,28.562-36.932,37.536s7.938,38.658,9.492,49.358c.949,6.127,8.888,4.315,10.1,1.553s4.314-21.141,6.126-27.268,3.106-30.029,2.762-32.617-9.837,8.974-9.837,8.974c2.761.431,39.435-12.771,41.937-22.867S4844.4,3840.386,4827.746,3840.386Z" transform="translate(-4790.798 -3840.386)" fill="#070d2e"/></g><g transform="translate(53.81 51.197)"><path d="M4963.7,2995.829c8.433.665,29.1,1.6,28.734,11.3-1.035,27.871-16.05,31.064-17.689,43.4-1.374,10.336,1.294,16.913,1.294,25.628s-2.675,15.7-7.162,15.7,2.417-18.38-6.73-18.811c-7.327-.346-21.053,6.2-31.237,3.279-12.34-3.538-9.67-18.123-1.122-19.243,7.248-.949,11.477-6.9,11.045-15.1-.621-11.805-7.637-47.9,2.675-48.84C4947.308,2992.809,4963.7,2995.829,4963.7,2995.829Z" transform="translate(-4922.508 -2993.127)" fill="#5141af"/></g><g transform="translate(75.359 85.893)"><path d="M5155.663,3370.847c-.186-.093-.833-2.777.37-2.869s-.243,2.649,3.165,4.1-2.766.969-2.766.969Z" transform="translate(-5155.322 -3367.976)" fill="#6967ac"/></g><g transform="translate(76.111 34.484)"><path d="M5196.147,2834.051c-5.436-.086-12.943-5.264-12.167-10.355a59.117,59.117,0,0,0,.346-11.131s-13.117,1.726-11.995,8.715c.589,3.673,2.5,9.406,0,10.7s-12.253,1.553-7.68,3.883,7.688,2.6,14.583,2.934c12.426.6,19.5-2.244,19.5-3.107S5196.147,2834.051,5196.147,2834.051Z" transform="translate(-5163.447 -2812.565)" fill="#6967ac"/></g><g transform="translate(73.491 4.801)"><path d="M5159.5,2491.865c-11.045,0-23.988,8.8-24.248,19.588s-.393,18.621,3.279,19.156c4.142.6,35.552,2.5,35.552-23.988C5174.082,2493.936,5165.97,2491.865,5159.5,2491.865Z" transform="translate(-5135.137 -2491.865)" fill="#6869ad"/></g><g transform="translate(69.344 24.906)"><path d="M5093.9,2709.083a79.16,79.16,0,0,0-3.538,7.421c-.432,1.553,3.538,1.122,3.538,1.122l1.294-1.208v-7.334Z" transform="translate(-5090.333 -2709.083)" fill="#182378"/></g><g transform="translate(69.953 21.701)"><g transform="translate(0 0)"><rect width="0.926" height="6.703" transform="translate(0 0.024) rotate(-1.478)" fill="#d82886"/></g><g transform="translate(0.561 2.483)"><rect width="11.453" height="0.926" transform="translate(0 0.304) rotate(-1.522)" fill="#d82886"/></g></g><g transform="translate(70.304)"><path d="M5145.423,2455.5c0,10.182,7.654,8.457,7.654,16.481,0,4.142-2.516,9.8-11.921,9.78-6.946-.014-6.6-2.473-6.6-2.473l3.54-1.114s-.7,9.684-12.351,9.684c-10.182,0-10.1-7.249-10.1-8.974,0-6.126,2.751-7.076,2.751-11.063,0-2.761-.424-3.711-2.5-3.716s-1.033,4.378-3.374,4.394c-4.389.03-3.217-8.938-6.755-9.2s-5.881-2.071-4.821-5.446c1.26-4.01,4.664-4.969,8.341-6.756,3.887-1.89,5.581-7.107,12.052-7.094s11.982,5.557,16.384,5.557C5141.972,2445.556,5145.423,2448.166,5145.423,2455.5Z" transform="translate(-5100.703 -2440)" fill="#050d32"/></g><g transform="translate(83.439 22.921)"><path d="M5242.613,2693.12s.434-5.479,2.591-5.479a3.412,3.412,0,0,1,3.193,3.193c0,2.976-1.868,6.968-4.919,7.421" transform="translate(-5242.613 -2687.641)" fill="#686aae"/></g><g transform="translate(45.408 231.636)"><path d="M4844.649,4948.544c-.518-6.645-8.024-5.954-8.024-5.954-3.366,0-7.249,8.715-3.107,8.715S4842.32,4949.493,4844.649,4948.544Z" transform="translate(-4831.725 -4942.569)" fill="#d82886"/></g><g transform="translate(76.11 109.053)"><path d="M5220.038,3630.138l-.432,3.3-27.611,1.06-22.023,2.883a5.79,5.79,0,0,1-6.542-5.735v-.012a11.962,11.962,0,0,1,11.951-11.961l.538-.023,31.624-1.366,1.566-.068A10.564,10.564,0,0,1,5220.038,3630.138Z" transform="translate(-5163.43 -3618.2)" fill="#292961"/></g><g transform="translate(88.598 109.131)" opacity="0.15"><path d="M5329.974,3619.04c-2.247,4.445-7.937,7.716-18.848,6.217a28.075,28.075,0,0,1-12.776-4.851Z" transform="translate(-5298.35 -3619.04)" fill="#050d32"/></g><g transform="translate(47.562 62.356)"><g transform="translate(3.101 10.627)"><path d="M4891.6,3231.6h-1.389a1.714,1.714,0,0,0-1.712-1.712V3228.5A3.1,3.1,0,0,1,4891.6,3231.6Z" transform="translate(-4888.5 -3228.5)" fill="#182378"/></g><g transform="translate(7.567 10.627)"><path d="M4939.851,3231.6h-1.389a1.714,1.714,0,0,0-1.712-1.712V3228.5A3.1,3.1,0,0,1,4939.851,3231.6Z" transform="translate(-4936.75 -3228.5)" fill="#182378"/></g><g transform="translate(12.033 10.627)"><path d="M4988.1,3231.6h-1.389a1.714,1.714,0,0,0-1.712-1.712V3228.5A3.1,3.1,0,0,1,4988.1,3231.6Z" transform="translate(-4985 -3228.5)" fill="#182378"/></g><g transform="translate(16.499 10.627)"><path d="M5036.351,3231.6h-1.388a1.715,1.715,0,0,0-1.712-1.712V3228.5A3.1,3.1,0,0,1,5036.351,3231.6Z" transform="translate(-5033.25 -3228.5)" fill="#182378"/></g><g transform="translate(20.965 10.627)"><path d="M5084.6,3231.6h-1.388a1.715,1.715,0,0,0-1.713-1.712V3228.5A3.1,3.1,0,0,1,5084.6,3231.6Z" transform="translate(-5081.5 -3228.5)" fill="#182378"/></g><g transform="translate(2.851 12.525)"><path d="M4885.8,3249h23.291l5.531,32.169-21.779-1.58Z" transform="translate(-4885.799 -3249)" fill="#fff"/></g><g transform="translate(2.11 13.08)" opacity="0.25"><path d="M4877.8,3255h23.291l5.531,32.169-21.779-1.58Z" transform="translate(-4877.799 -3255)" fill="#fff"/></g><g transform="translate(0.907 13.72)"><path d="M4864.8,3261.916h23.29l5.531,32.169-21.779-1.58Z" transform="translate(-4864.799 -3261.916)" fill="#050d32"/></g><g transform="translate(5.507 13.728)"><path d="M4914.5,3262" transform="translate(-4914.5 -3262)" fill="none" stroke="#182378" stroke-miterlimit="10" stroke-width="15"/></g><g transform="translate(0 10.627)"><path d="M4858.1,3234.7a3.1,3.1,0,0,1,0-6.2v1.388a1.712,1.712,0,0,0,0,3.425Z" transform="translate(-4855 -3228.5)" fill="#182378"/></g><g transform="translate(9.973 13.728)"><path d="M4962.75,3262" transform="translate(-4962.75 -3262)" fill="none" stroke="#182378" stroke-miterlimit="10" stroke-width="15"/></g><g transform="translate(4.466 10.627)"><path d="M4906.351,3234.7a3.1,3.1,0,0,1,0-6.2v1.388a1.712,1.712,0,0,0,0,3.425Z" transform="translate(-4903.25 -3228.5)" fill="#182378"/></g><g transform="translate(14.439 13.728)"><path d="M5011,3262" transform="translate(-5011 -3262)" fill="none" stroke="#182378" stroke-miterlimit="10" stroke-width="15"/></g><g transform="translate(8.932 10.627)"><path d="M4954.6,3234.7a3.1,3.1,0,0,1,0-6.2v1.388a1.712,1.712,0,0,0,0,3.425Z" transform="translate(-4951.5 -3228.5)" fill="#182378"/></g><g transform="translate(18.905 13.728)"><path d="M5059.25,3262" transform="translate(-5059.25 -3262)" fill="none" stroke="#182378" stroke-miterlimit="10" stroke-width="15"/></g><g transform="translate(13.398 10.627)"><path d="M5002.851,3234.7a3.1,3.1,0,0,1,0-6.2v1.388a1.712,1.712,0,0,0,0,3.425Z" transform="translate(-4999.75 -3228.5)" fill="#182378"/></g><g transform="translate(23.371 13.728)"><path d="M5107.5,3262" transform="translate(-5107.5 -3262)" fill="none" stroke="#182378" stroke-miterlimit="10" stroke-width="15"/></g><g transform="translate(17.864 10.627)"><path d="M5051.1,3234.7a3.1,3.1,0,0,1,0-6.2v1.388a1.712,1.712,0,0,0,0,3.425Z" transform="translate(-5048 -3228.5)" fill="#182378"/></g><g transform="translate(19.427)"><path d="M5116.377,3113.686c-4.749,0-8.974,7.68-9.492,17.431s3.058,16.725,1.553,19.156c-1.122,1.812-5.177-1.441-12.771-2.761-9.923-1.726-21.326-7.51-21.326-7.51s-8.037-3.646-9.224-.681,2.375,5.216,8.633,6.12c8.6,1.241,10.4,14.8,28.3,17.258,14.838,2.038,20.019-4.746,20.019-11.3S5129.062,3113.686,5116.377,3113.686Z" transform="translate(-5064.89 -3113.686)" fill="#6967ac"/></g></g><g transform="translate(143.894 156.932)"><path d="M5895.762,4135.472" transform="translate(-5895.762 -4135.472)" fill="none" stroke="#050d32" stroke-miterlimit="10" stroke-width="30"/></g><g transform="translate(111.866 138.204)"><g transform="translate(0 79.573)"><g transform="translate(0 9.035)"><g transform="translate(1.158 3.554)"><path d="M5562.249,4928.852l.473,2.127,6.677,1.418.236-.827-6.086-1.713-.354-1Z" transform="translate(-5562.249 -4928.852)" fill="#090e32"/></g><g transform="translate(1.332 1.299)"><g transform="translate(0 0)"><rect width="2.363" height="14.27" transform="matrix(0.137, -0.991, 0.991, 0.137, 0, 2.341)" fill="#050d32"/></g></g><path d="M5568.034,4892.947s-14.595-2.659-16.6-2.482-2.068,2.836-1,3.723,15.3,2.718,16.308,2.659S5568.034,4892.947,5568.034,4892.947Z" transform="translate(-5549.741 -4890.457)" fill="#192579"/><g transform="translate(15.467 3.256)"><path d="M5729.6,4929.746l-12.758-1.767.324-2.341,12.758,1.767h0a3.4,3.4,0,0,1-.291,2.275Z" transform="translate(-5716.84 -4925.638)" fill="#192579"/></g></g><g transform="translate(15.453)"><g transform="translate(18.66 8.653)"><path d="M5923.839,4892.567l.47-2.127-5.454-4.106-.563.65,4.792,4.124-.1,1.06Z" transform="translate(-5918.293 -4886.334)" fill="#d92886"/></g><g transform="translate(10.818 6.99)"><g transform="translate(0 0)"><rect width="2.363" height="14.27" transform="matrix(0.543, -0.84, 0.84, 0.543, 0, 1.985)" fill="#050d32"/></g></g><g transform="translate(8.226 5.598)"><path d="M5805.561,4856.346s12.105,8.575,14,9.263,3.073-1.7,2.483-2.95-12.724-8.928-13.659-9.3S5805.561,4856.346,5805.561,4856.346Z" transform="translate(-5805.561 -4853.332)" fill="#050d32"/></g><path d="M5717.971,4792.848l10.817,6.99-1.282,1.985-10.818-6.991h0a3.409,3.409,0,0,1,1.225-1.939Z" transform="translate(-5716.688 -4792.848)" fill="#050d32"/></g></g><g transform="translate(30.253)"><g transform="translate(14.763 6.521)"><path d="M6050.972,4003.594c-5.573.762-8.478,8.531-12.074,9.74-5.729,1.926-1.952,8.792,4.557,11.781,7.33,3.366,10.688.531,7.721-3.574-1.466-2.028,1.027-13.393,1.027-13.393" transform="translate(-6036.085 -4003.594)" fill="#050d32"/></g><g transform="translate(40.815 68.341)"><path d="M6341.364,4678.489a26.105,26.105,0,0,1-1.971,9.527c-2.62,6.539-7.421,11.872-11.729,11.872-6.32,0-10.117-7.507-10.117-14.323s3.193-10.01,5.436-10.01c4.056,0,2.071,13.893,8.111,13.893,1.481,0,2.563-1.079,3.394-2.707a20.462,20.462,0,0,0,1.44-4.1c.273-1.06.51-2.163.729-3.244.831-4.1,1.411-7.9,2.721-7.9C6340.242,4671.5,6341.364,4674,6341.364,4678.489Z" transform="translate(-6317.548 -4671.5)" fill="#15236c"/></g><g transform="translate(12.681 73.855)"><path d="M6030.675,4731.075c-6.3-.333-11.218,8.543-12.339,12.857s2.675,7.162,2.244,9.232-6.73,4.143-6.99,5.351,12.167.259,18.984,0S6055.182,4732.37,6030.675,4731.075Z" transform="translate(-6013.586 -4731.066)" fill="#050d32"/></g><g transform="translate(6.144 38.45)"><path d="M5965.729,4348.591c-5.159-.614-8.37,6.99-10.614,7.68s-9.061,0-11.735,2.5,8.225,1.984,15.028,5.393,10.341.561,11.376-3.409S5969.353,4349.023,5965.729,4348.591Z" transform="translate(-5942.965 -4348.556)" fill="#15236c"/></g><g transform="translate(18.922)"><path d="M6100.577,4034.192c-10.354-2.071-18.207-16.827-19.243-24.42s.69-11.218,1.553-14.5a26.606,26.606,0,0,0,.285-7.236c-.113-2.2-.285-4.416-.285-6.225,0-4.048,5.5-11.246,5.522-13.191v-.011c0-5.005-5.954-16.4-5.954-21.659s6.126-13.806,14.324-13.806c7.853,0,12.943,7.594,12.943,13.806s-3.969,11.3-3.969,16.826,4.66,7.939,4.66,10.872c0,4.57.172,12.167-.69,15.619s3.883,18.207,5.091,26.922S6110.931,4036.263,6100.577,4034.192Z" transform="translate(-6081.013 -3933.147)" fill="#35398e"/></g><g transform="translate(39.866 21.831)"><path d="M6307.293,4169.01" transform="translate(-6307.293 -4169.01)" fill="none" stroke="#050d32" stroke-miterlimit="10" stroke-width="30"/></g><g transform="translate(1.469 15.902)"><path d="M5892.456,4104.945l.6,2.7,8.471,1.8.3-1.05-7.721-2.174-.45-1.274Z" transform="translate(-5892.456 -4104.945)" fill="#050d32"/></g><g transform="translate(11.861 15.069)"><path d="M6004.911,4098.059c-1.038.823,2.7,5.547,5.473,5.547s6.072-1.274,10.195-1.274,5.547-5.172,3.073-5.172-8.718-1.163-10.645-1.2C6009.109,4095.885,6007.085,4096.334,6004.911,4098.059Z" transform="translate(-6004.734 -4095.952)" fill="#15236c"/></g><g transform="translate(23.883 12.228)"><path d="M6137.165,4065.26c0,1.8.675,3.448,2.774,3.448a28.828,28.828,0,0,1,3.673.225c0,.318-.216,2.289-2.024,2.4-1.6.1-4.648-1.649-6.972-1.649" transform="translate(-6134.616 -4065.26)" fill="#15236c"/></g><g transform="translate(1.641 12.692)"><rect width="3.702" height="18.104" transform="translate(0 3.667) rotate(-82.115)" fill="#050d32"/></g><g transform="translate(0 11.385)"><path d="M5889.75,4057.816s-8.471-1.874-11.02-1.649-2.624,3.6-1.275,4.723,9.371,1.949,10.645,1.874S5889.75,4057.816,5889.75,4057.816Z" transform="translate(-5876.587 -4056.148)" fill="#d82886"/></g><g transform="translate(19.622 15.524)"><path d="M6104.769,4106.079l-16.186-2.242.411-2.97,16.186,2.241h0a4.318,4.318,0,0,1-.369,2.887Z" transform="translate(-6088.583 -4100.867)" fill="#d82886"/></g><g transform="translate(10.614 8.18)"><path d="M5992.539,4021.525a28.948,28.948,0,0,0-1.274,7.5c0,2.249.45,2.924,1.574,2.924s1.09-4.423,3.749-6.3S6000.41,4021.525,5992.539,4021.525Z" transform="translate(-5991.264 -4021.525)" fill="#15236c"/></g><g transform="translate(26.432 12.228)"><path d="M6162.153,4065.26" transform="translate(-6162.153 -4065.26)" fill="#d82886"/></g><g transform="translate(11.215 5.781)"><path d="M6012.973,4002.056c.191,1.032-.375,3.748-1.5,3.748-4.5,0-6.3,3.9-10.12,3.748-5.693-.223-2.924-12.594-2.924-12.594l14-1.349C6018.263,3995.774,6012.568,3999.874,6012.973,4002.056Z" transform="translate(-5997.756 -3995.609)" fill="#15236c"/></g><g transform="translate(11.104 5.781)"><path d="M5997.722,3995.609c1.641,0,3.457.541,3.72,2,.247,1.377-2.561,4.444-4.25,4.444C5996.355,4002.056,5996.146,3995.609,5997.722,3995.609Z" transform="translate(-5996.548 -3995.609)" fill="#050d32"/></g><g transform="translate(29.937 9.191)"><path d="M6201.529,4032.45c-1.27,0-2.117,2.7-.953,2.7S6202.111,4032.45,6201.529,4032.45Z" transform="translate(-6200.023 -4032.45)" fill="#050d32"/></g><g transform="translate(35.813 7.939)"><path d="M6273.513,4018.915c4.746,3.02,4.141,11.292,6.9,13.893,4.4,4.142-1.9,8.8-9.061,8.8-8.066,0-9.932-3.98-5.522-6.471,2.179-1.231,4.659-12.6,4.659-12.6" transform="translate(-6263.505 -4018.915)" fill="#050d32"/></g><g transform="translate(22.83 38.485)"><path d="M6140.185,4348.937c-6.126,0-9.319,10.7-5,14.928-1.984,2.244-11.045,3.883-11.563,9.233s-1.036,6.989,2.243,6.989,1.467-6.817,4.746-6.817,11.39.432,13.2-1.553a16.811,16.811,0,0,0,3.837-10.625C6147.692,4356.444,6150.108,4348.937,6140.185,4348.937Z" transform="translate(-6123.235 -4348.937)" fill="#15236c"/></g><g transform="translate(21.831 75.676)"><path d="M6125.135,4750.743c-3.8,0-10.273,7.044-10.273,11.5s5.137,9.688,5.137,9.688l1.857-3.417-9.406,5.954v2.762a119.244,119.244,0,0,0,16.481,1.208c8.8,0,15.618-4.4,16.05-7.162s-8.456-3.969-7.68-9.665C6137.991,4756.563,6140.408,4750.743,6125.135,4750.743Z" transform="translate(-6112.45 -4750.743)" fill="#15236c"/></g><g transform="translate(35.191 75.036)"><path d="M6264.152,4743.823c-5.089,0-6.4,3.4-7.178,7.372s.782,5.86,6.042,5.86S6272.625,4743.823,6264.152,4743.823Z" transform="translate(-6256.786 -4743.823)" fill="#050d32"/></g><g transform="translate(43.303 88.533)"><path d="M6347.1,4889.649c-2.112,0-2.557,2.56-2.668,3.318a2.493,2.493,0,0,0,2.112,2.463C6347.883,4895.431,6350.33,4889.649,6347.1,4889.649Z" transform="translate(-6344.428 -4889.649)" fill="#050d32"/></g><g transform="translate(20.796 35.465)"><path d="M6106.009,4332.358a28.3,28.3,0,0,1-4.461,3.377c-.113-2.2-.284-4.416-.284-6.225,0-4.048,5.5-11.246,5.522-13.191l.086-.011C6107.476,4319.242,6107.735,4330.459,6106.009,4332.358Z" transform="translate(-6101.264 -4316.308)" fill="#050d32"/></g><g transform="translate(28.743 38.83)"><path d="M6188.057,4352.666a1.711,1.711,0,0,1,1.565,1.69c-.062.563-1.064,1-1.878.876S6186.8,4352.666,6188.057,4352.666Z" transform="translate(-6187.124 -4352.666)" fill="#050d32"/></g><g transform="translate(59.926 68.341)"><path d="M6528.723,4678.489a26.1,26.1,0,0,1-1.971,9.527c-2.415-1.088-1.256-5.652-1.567-6.507-.174-.48-.745-1.2-1.167-2.11.831-4.1,1.411-7.9,2.721-7.9C6527.6,4671.5,6528.723,4674,6528.723,4678.489Z" transform="translate(-6524.018 -4671.5)" fill="#050d32"/></g><g transform="translate(57.756 79.486)"><path d="M6502.277,4796.2c-.448,1.417-1.217.512-1.7-.2a20.468,20.468,0,0,0,1.44-4.1A7.825,7.825,0,0,1,6502.277,4796.2Z" transform="translate(-6500.58 -4791.902)" fill="#050d32"/></g></g></g></g><g transform="translate(-3217.187 2014.749)"><path d="M5502.288,2909c-4.165,0-5.545,3.261-2.912,3.806S5505.064,2909,5502.288,2909Z" transform="translate(-5498.033 -2909)" fill="#050d32"/></g></g></g><g transform="translate(-3089.763 2068.948)"><g transform="translate(5.44)"><g transform="translate(25.197 77.447)"><g transform="translate(0 5.689)"><path d="M7326.221,5313.54a.765.765,0,0,0,.787-.509h0a38.235,38.235,0,0,1,8.327-12.735,17.266,17.266,0,0,1,8.482-4.709,14.2,14.2,0,0,1,4.168-.353.764.764,0,0,0,.171-1.519,15.389,15.389,0,0,0-4.6.365,18.788,18.788,0,0,0-9.3,5.137,39.072,39.072,0,0,0-8.687,13.31.763.763,0,0,0,.469.973A.743.743,0,0,0,7326.221,5313.54Z" transform="translate(-7325.523 -5293.673)" fill="#35398e"/></g><g transform="translate(20.226 3.513)"><path d="M7549.656,5271.954a25.1,25.1,0,0,1,13.58,8.152c.516.629.812,1.01.812,1.01s9.13,10.631-2.647,8.326-29.482-15.177-29.482-15.177S7540.408,5270.082,7549.656,5271.954Z" transform="translate(-7531.918 -5271.472)" fill="#142477"/></g><g transform="translate(20.226)"><path d="M7548.927,5235.7c4.688.76,11.905,9.13,14.309,12.065a25.1,25.1,0,0,0-13.58-8.152c-9.248-1.872-17.738,2.311-17.738,2.311S7543.232,5234.781,7548.927,5235.7Z" transform="translate(-7531.918 -5235.621)" fill="#142477"/></g></g><g transform="translate(21.56)"><path d="M7303.94,4445.307c4.768,1.007,13.093,10.9,12.774,30.062s-6.686,32.056-17.118,30.9-14.062-15.532-8.789-38.168S7303.94,4445.307,7303.94,4445.307Z" transform="translate(-7288.407 -4445.307)" fill="#5b6db2"/><g transform="translate(2.065 12.556)"><path d="M7310.09,4685.6a.7.7,0,0,0,.775-.572c.053-.3,1.046-6.01,4.722-37.424,1.157-9.883,7.446-72.771,7.51-73.405a.7.7,0,0,0-1.387-.138c-.062.634-6.352,63.51-7.507,73.381-3.671,31.375-4.658,37.045-4.711,37.347a.7.7,0,0,0,.566.806Z" transform="translate(-7309.481 -4573.438)" fill="#35398e"/></g></g><g transform="translate(0 40.471)"><path d="M7070.823,4858.729c3.886-2.216,14.87,4.141,20.75,18.076s-.24,22.013-7.647,21.992-13.015-14.907-14.97-26.767S7070.823,4858.729,7070.823,4858.729Z" transform="translate(-7068.399 -4858.298)" fill="#142477"/><g transform="translate(6.44 8.99)"><path d="M7156.368,5001.455l1.391.082c.011-.177.218-4.448-3.986-15.146-4.166-10.6-18.291-36.1-18.433-36.355l-1.219.675c.142.256,14.223,25.677,18.354,36.189a66.5,66.5,0,0,1,3.486,11.193A15.886,15.886,0,0,1,7156.368,5001.455Z" transform="translate(-7134.121 -4950.036)" fill="#35398e"/></g></g><g transform="translate(22.935 42.518)"><g transform="translate(8.588)"><path d="M7393.459,4917.008c3.419,2.885,13.646,4.116,19.522-9.547s3.008-23.916-1.513-27.5-14.045,5.61-19.341,19.332S7393.459,4917.008,7393.459,4917.008Z" transform="translate(-7390.076 -4879.184)" fill="#121d5e"/></g><g transform="translate(0 10.02)"><path d="M7306.078,5029.888l1.008-2.54c.07-.179,7.147-18,13.192-29.162s8.183-15.716,8.2-15.762a.7.7,0,0,0-1.263-.59c-.021.044-2.152,4.578-8.167,15.689-4.729,8.734-10.076,21.489-12.257,26.823-.187-1.468-.435-3.392-.7-5.369-.636-4.76-3.534-4.576-3.658-4.567l.115,1.39h-.016c.069,0,1.726-.022,2.177,3.361.55,4.106,1.025,7.977,1.029,8.016Z" transform="translate(-7302.439 -4981.433)" fill="#35398e"/></g></g><g transform="translate(8.768 91.987)"><path d="M7186.457,5420.846h-23.62c-2.988,0-5.3-3.017-4.918-6.425l2.593-23.3c.453-4.071,3.466-7.122,7.036-7.122h14.2c3.57,0,6.583,3.05,7.036,7.122l2.593,23.3C7191.754,5417.829,7189.444,5420.846,7186.457,5420.846Z" transform="translate(-7157.877 -5384)" fill="#142477"/></g></g><g transform="translate(0 76.812)"><path d="M7032.261,5229.194c12.922,1.309,14.789,8.153,9.433,15.545s-25.764,14.285-28.345,11.976S7019.339,5227.886,7032.261,5229.194Z" transform="translate(-7012.89 -5229.147)" fill="#5b6db2"/><g transform="translate(3.629 2.179)"><path d="M7050.607,5272.644a.762.762,0,0,0,.722-.351c.051-.079,5.083-7.968,9.224-12.334a39.9,39.9,0,0,1,9.656-7.129.764.764,0,1,0-.684-1.366,40.7,40.7,0,0,0-10.081,7.443,73.519,73.519,0,0,0-6.318,7.989c-1.788,2.539-3.074,4.558-3.086,4.578a.763.763,0,0,0,.235,1.055A.754.754,0,0,0,7050.607,5272.644Z" transform="translate(-7049.921 -5251.383)" fill="#35398e"/></g></g></g></g><g transform="translate(1)"><g transform="translate(4466 -1676)" clip-path="url(#b)"><g transform="translate(-4288.107 1797.973)"><rect width="704" height="571" transform="translate(0.107 0.027)" fill="#dfe7ee"/></g><g transform="translate(-4288.107 1790.825)" opacity="0.25"><rect width="647" height="102" transform="translate(0.107 0.175)" fill="#fff"/></g><g transform="translate(-4288.107 2091.002)" opacity="0.5"><rect width="718" height="291" transform="translate(0.107 -0.002)" fill="#c4c4dd"/></g><g transform="translate(-4266.666 1882.844)"><rect width="693" height="269" transform="translate(-0.335 0.156)" fill="#c4c4dd"/></g><g transform="translate(-4286.131 2098.479)" opacity="0.02"><path d="M-141,3243.5v6.294l78.49-.74L18.665,3241Z" transform="translate(141 -3241)" fill="#050d32"/></g><g transform="translate(-4094.058 1811.214)"><g transform="translate(29.528 0)"><rect width="0.774" height="85.794" fill="#8691c3"/></g><g transform="translate(28.625 81.503)"><rect width="2.516" height="2.758" fill="#8691c3"/></g><g transform="translate(5.258 86.311)"><path d="M2014.7,1069.915h3.1l18.142,7.142a214.026,214.026,0,0,1-44.992,0Z" transform="translate(-1990.947 -1069.915)" fill="#8691c3"/></g><g transform="translate(24.368 84.181)"><path d="M2200.115,1046.907h6l3.1,4.064h-11.8Z" transform="translate(-2197.406 -1046.907)" fill="#8691c3"/></g><g transform="translate(17.957 84.067)"><path d="M2140.553,1045.721l-.128,3.677-5.652,6.483-6.628-.266,10.538-6.41.9-3.532Z" transform="translate(-2128.144 -1045.673)" fill="#8691c3"/></g><g transform="translate(0 93.357)"><path d="M1939.556,1146.046c16.82,1.111,29.35,1.256,44.767,0l7.225,4.567c-22.53,1.9-34.759,2.093-57.411,0Z" transform="translate(-1934.137 -1146.046)" fill="#8691c3"/></g><g transform="translate(14.523 94.009)"><path d="M2101.077,1153.255l-.725,5.161c-2.371.04-5.9-.129-9.313-.323l3.459-5.007Z" transform="translate(-2091.038 -1153.086)" fill="#8691c3"/></g><g transform="translate(27.447 83.841)"><rect width="5.129" height="0.581" fill="#8691c3"/></g></g><g transform="translate(-4222.345 1811.214)"><g transform="translate(29.528 0)"><rect width="0.774" height="85.794" fill="#8691c3"/></g><g transform="translate(28.625 81.503)"><rect width="2.516" height="2.758" fill="#8691c3"/></g><g transform="translate(5.258 86.311)"><path d="M628.7,1069.915h3.1l18.142,7.142a214.027,214.027,0,0,1-44.992,0Z" transform="translate(-604.947 -1069.915)" fill="#8691c3"/></g><g transform="translate(24.368 84.181)"><path d="M814.115,1046.907h6l3.1,4.064h-11.8Z" transform="translate(-811.406 -1046.907)" fill="#8691c3"/></g><g transform="translate(17.957 84.067)"><path d="M754.553,1045.721l-.129,3.677-5.652,6.483-6.628-.266,10.538-6.41.9-3.532Z" transform="translate(-742.144 -1045.673)" fill="#8691c3"/></g><g transform="translate(0 93.357)"><path d="M553.556,1146.046c16.82,1.111,29.35,1.256,44.767,0l7.225,4.567c-22.53,1.9-34.759,2.093-57.411,0Z" transform="translate(-548.137 -1146.046)" fill="#8691c3"/></g><g transform="translate(14.523 94.009)"><path d="M715.077,1153.255l-.725,5.161c-2.371.04-5.9-.129-9.313-.323l3.459-5.007Z" transform="translate(-705.038 -1153.086)" fill="#8691c3"/></g><g transform="translate(27.447 83.841)"><rect width="5.129" height="0.581" fill="#8691c3"/></g></g><g transform="translate(-4058.508 2002.557)"><g transform="translate(0 0)"><rect width="83" height="164" transform="translate(82.507 164.443) rotate(-180)" fill="#aeb2d4"/><g transform="translate(7.662 8.083)" opacity="0.05"><path d="M2401,2333.281v3.147h70.16V2292l-5.429.093Z" transform="translate(-2401 -2292)" fill="#050d32"/></g><g transform="translate(7.662 57.88)" opacity="0.05"><path d="M2401,2871.281v3.147h70.16V2830l-5.429.093Z" transform="translate(-2401 -2830)" fill="#050d32"/></g><g transform="translate(7.662 107.862)" opacity="0.05"><path d="M2401,3411.281v3.147h70.16V3370l-5.429.093Z" transform="translate(-2401 -3370)" fill="#050d32"/></g><g transform="translate(6.366 56.714)"><rect width="70.715" height="43.354" transform="translate(70.715 43.354) rotate(-180)" fill="#c4c4dd"/></g><g transform="translate(6.366 106.16)"><rect width="70.715" height="43.354" transform="translate(70.715 43.354) rotate(-180)" fill="#c4c4dd"/></g><g transform="translate(27.47 68.311)"><path d="M2643.508,2956.486H2615v-13.791h28.508Zm-27.583-.926h26.657v-11.94h-26.657Z" transform="translate(-2615 -2942.694)" fill="#aeb2d4"/><g transform="translate(1.098 20.114)"><g transform="translate(0)"><rect width="19.648" height="3.24" transform="translate(19.648 3.24) rotate(-180)" fill="#aeb2d4"/></g><g transform="translate(23.047 0)"><rect width="3.265" height="3.24" transform="translate(3.265 3.24) rotate(-180)" fill="#aeb2d4"/></g></g></g><g transform="translate(27.47 117.552)"><path d="M2643.508,3488.486H2615v-13.792h28.508Zm-27.583-.926h26.657v-11.94h-26.657Z" transform="translate(-2615 -3474.694)" fill="#aeb2d4"/><g transform="translate(1.098 20.114)"><g transform="translate(0)"><rect width="19.648" height="3.24" transform="translate(19.648 3.24) rotate(-180)" fill="#aeb2d4"/></g><g transform="translate(23.047 0)"><rect width="3.265" height="3.24" transform="translate(3.265 3.24) rotate(-180)" fill="#aeb2d4"/></g></g></g></g><g transform="translate(6.366 6.825)"><g transform="translate(0 0)"><rect width="70.715" height="43.354" transform="translate(70.715 43.354) rotate(-180)" fill="#c4c4dd"/></g><g transform="translate(21.103 11.596)"><path d="M2643.508,2417.485H2615v-13.791h28.508Zm-27.583-.926h26.657v-11.94h-26.657Z" transform="translate(-2615 -2403.694)" fill="#aeb2d4"/><g transform="translate(1.098 20.114)"><g transform="translate(0)"><rect width="19.648" height="3.24" transform="translate(19.648 3.24) rotate(-180)" fill="#aeb2d4"/></g><g transform="translate(23.047 0)"><rect width="3.265" height="3.24" transform="translate(3.265 3.24) rotate(-180)" fill="#aeb2d4"/></g></g></g></g></g><g transform="translate(-4240.757 1924.833)"><g transform="translate(0 0)" clip-path="url(#c)"><g transform="translate(-50.923 -5.36)"><rect width="236" height="187" transform="translate(-0.32 -0.472)" fill="#a1a7d1"/></g><g transform="translate(-59.103 -9.806)"><path d="M-281.437,1259c71.363,0,175.955,11,175.955,35.172,0,15.365-20.826,11.2-20.826,26.287,0,9.441,48.686,3.24,48.686,22.862,0,13.948-27.156,15.07-68.864,14.254-38.7-.756-78.675-12.125-130.971,0C-301.622,1363.178-281.437,1259-281.437,1259Z" transform="translate(289.335 -1259)" fill="#8691c3"/></g><g transform="translate(116.651 34.727)"><path d="M1619.654,1740.712c-2.475-2.558-2.814,4.072-7.187,5.6s-3.178,5.325-1.153,7.418C1615.7,1758.266,1623.59,1744.782,1619.654,1740.712Z" transform="translate(-1609.491 -1740.131)" fill="#dfe0ee"/></g><g transform="translate(-33.246 59.983)"><path d="M78.967,2031.512c-35.08,18.234-66.735,105.147-67.105,106.258s-21.842,0-21.842,0,18.51-64.606,75.156-106.258S78.967,2031.512,78.967,2031.512Z" transform="translate(9.981 -2013)" fill="#8691c3"/></g><g transform="translate(-4.626 87.12)"><path d="M309.6,2357.444c1.134.4,65.162-27.843,89.571-49.383,8.871-3.914,9.057-.494,9.057-.494s-60.08,43.49-103.964,60.828C290.38,2373.881,309.6,2357.444,309.6,2357.444Z" transform="translate(-299.226 -2306.184)" fill="#8691c3"/></g><g transform="translate(73.789 81.399)"><path d="M1149.572,2245.2s1.552,15.216,6.446,15.594-4.5,3.392-4.5,3.392-6.7-16.231-4.736-18.646S1149.572,2245.2,1149.572,2245.2Z" transform="translate(-1146.419 -2244.372)" fill="#8691c3"/></g><g transform="translate(-57.152 67.975)"><path d="M-202.926,2144.985s-44.117-23.454-65.2-45.641a24.452,24.452,0,0,0,.905,9.2s55.8,52.226,66.441,48.386S-202.926,2144.985-202.926,2144.985Z" transform="translate(268.261 -2099.344)" fill="#8691c3"/></g></g></g><g transform="translate(-3961.129 1919.472)"><rect width="103" height="233" transform="translate(0.129 -0.472)" fill="#8691c3"/></g><g transform="translate(-4240.757 1924.833)"><rect width="165" height="175" transform="translate(-0.243 0.167)" fill="none"/></g><g transform="translate(-4242.813 1922.431)"><path d="M495.643,1518.472H327V1339H495.643Zm-164.015-4.628H491.015V1343.628H331.628Z" transform="translate(-327 -1339)" fill="#aeb2d4"/></g><path d="M-161,870.333V357c156.425,5.831,573.126-13.791,573.126,75.528,0,171.049,140.32,170.772,129.027,308.037C536.039,802.74,394.91,870.333-161,870.333Z" transform="translate(-4126.982 1474.538)" fill="none"/><g transform="translate(-4037.96 1943.594)"><g transform="translate(0 0)"><circle cx="20" cy="20" r="20" transform="translate(-0.04 0.406)" fill="#8691c3"/></g><g transform="translate(3.259 3.497)"><circle cx="16.714" cy="16.714" r="16.714" fill="#fff"/></g></g><g transform="translate(-4019.875 1950.448)"><path d="M2743.02,1660.757l-7.42-5.413,6.572-13.65,1.668.8-5.9,12.26,6.175,4.5Z" transform="translate(-2735.6 -1641.694)" fill="#d82886"/></g><g transform="translate(-3950.408 1932.873)" opacity="0.25"><rect width="94" height="135" transform="translate(94.408 135.127) rotate(-180)" fill="#fff"/></g><g transform="translate(-4289 1831.908)"><path d="M530.154,744.565C526.7,786.5,461.378,830.9,248.64,855.364c-34.94,4.018-73.857,7.5-117.129,10.341C47.627,871.216-52.623,874.333-172,874.333V361c86.057,3.208,261.031.2,401.039,11.711,39.153,3.219,75.572,7.575,106.547,13.52,59.6,11.439,56.84,44.776,56.84,71.215C392.426,628.5,541.446,607.3,530.154,744.565Z" transform="translate(172 -361)" fill="none"/></g><g transform="translate(-4269.933 2032.025)"><g transform="translate(222.529 123.176)"><path d="M0,0H0A74.086,74.086,0,0,1,74.086,74.086v29.237a0,0,0,0,1,0,0H0a0,0,0,0,1,0,0V0A0,0,0,0,1,0,0Z" fill="#292961"/></g><g transform="translate(204.662 123.176)"><path d="M0,0H0A74.086,74.086,0,0,1,74.086,74.086v29.237a0,0,0,0,1,0,0H0a0,0,0,0,1,0,0V0A0,0,0,0,1,0,0Z" fill="#1e204e"/></g><g transform="translate(0 50.985)"><g transform="translate(18.048 88.073)"><path d="M431.393,4052.481l-197.082-.361-5.324-26.711,194.541.361Z" transform="translate(-228.987 -4025.409)" fill="#3c53a0"/></g><g transform="translate(20.755)"><path d="M281.426,3177.107l197.082.361-30.525-98.024a6.9,6.9,0,0,0-6.589-4.849l-183.16-.722Z" transform="translate(-258.235 -3073.874)" fill="#8691c3"/></g><g transform="translate(52.568 19.311)"><g transform="translate(0 0)" opacity="0.5"><ellipse cx="2.298" cy="4.055" rx="2.298" ry="4.055" transform="translate(0 2.319) rotate(-30.311)" fill="#5868ae"/></g></g><g transform="translate(97.704 19.355)"><g transform="translate(0 0)" opacity="0.5"><ellipse cx="2.298" cy="4.055" rx="2.298" ry="4.055" transform="translate(0 2.319) rotate(-30.311)" fill="#5868ae"/></g></g><g transform="translate(187.943 19.355)"><g transform="translate(0 0)" opacity="0.5"><ellipse cx="2.298" cy="4.055" rx="2.298" ry="4.055" transform="translate(0 2.319) rotate(-30.311)" fill="#5868ae"/></g></g><g transform="translate(60.961 55.677)"><g transform="translate(0 0)" opacity="0.5"><ellipse cx="2.298" cy="4.055" rx="2.298" ry="4.055" transform="translate(0 2.319) rotate(-30.311)" fill="#5868ae"/></g></g><g transform="translate(196.335 55.721)"><g transform="translate(0 0)" opacity="0.5"><ellipse cx="2.298" cy="4.055" rx="2.298" ry="4.055" transform="translate(0 2.319) rotate(-30.311)" fill="#5868ae"/></g></g><g transform="translate(216.935 65.902)"><path d="M2425.111,3817.511c-1.391,3.42-4.267,5.737-6.42,5.737-8.3,0-37.544,3.913-37.544.746s-7.918-29.631.388-31.748c4.827-1.23,10.156-2.995,15.158-4.355,6.995-1.9,13.349-3.018,16.8-.776,4.391,2.857,11.945,15.634,12.432,25.711A11,11,0,0,1,2425.111,3817.511Z" transform="translate(-2377.74 -3785.87)" fill="#d82886"/></g><g transform="translate(216.956 67.903)" opacity="0.15"><path d="M2425.278,3837.228c-1.4,3.414-4.29,5.719-6.443,5.711-8.3-.033-37.559,3.763-37.546.6s-7.8-29.663.514-31.746c4.832-1.211,10.168-2.954,15.176-4.295-6.064,3.78-9.59,9.6-9.866,12.675-.332,3.7,22.241,8.077,22.217,13.949C2409.31,3839.354,2418.618,3836.132,2425.278,3837.228Z" transform="translate(-2377.973 -3807.494)" fill="#050d32"/></g><g transform="translate(0 0.032)"><path d="M79.933,3177.286l-22.72,11.645L34,3084.651l20.752-10.436Z" transform="translate(-34 -3074.215)" fill="#5868ae"/></g><g transform="translate(82.388 39.431)"><path d="M930.738,3499.88c20.89,0,52.082,1,63.095,6.541s15.6,56.327,1.087,56.327-65.642,6.84-65.642,1.3S916.74,3499.88,930.738,3499.88Z" transform="translate(-924.114 -3499.88)" fill="#5141af"/></g><g transform="translate(41.6 101.699)"><g transform="translate(67.318)"><path d="M1407.823,4179.479V4197.8l-99.476-.182-69.2-.127-28.4-.052V4172.62l19.228.036,66.729.127,104.628.2A6.5,6.5,0,0,1,1407.823,4179.479Z" transform="translate(-1210.74 -4172.62)" fill="#8691c3"/></g><g transform="translate(88.26 0.036)" opacity="0.15"><path d="M1513.664,4197.969l-62.873-.127c-4.252-6.437-11.7-17.706-13.791-24.832l65.014.127c9.757,1.711,16.816,3.912,17.641,6.722C1521.616,4186.534,1518.063,4193.17,1513.664,4197.969Z" transform="translate(-1437 -4173.01)" fill="#050d32"/></g><g transform="translate(0 0)"><path d="M24.816,0H61.994A24.816,24.816,0,0,1,86.81,24.816v0a0,0,0,0,1,0,0H0a0,0,0,0,1,0,0v0A24.816,24.816,0,0,1,24.816,0Z" fill="#5868ae"/></g></g></g><g transform="translate(10.919)"><g transform="translate(177.896 191.913)"><path d="M2074.191,4602.666c.513,1.8.92,6.122,3.218,6.482,5,.785,10.746,1.833,14.841,1.328s7.327-1.791,7.079-3.8-13.686-4.716-17.021-8.462S2072.591,4597.042,2074.191,4602.666Z" transform="translate(-2073.938 -4596.45)" fill="#15236c"/></g><g transform="translate(175.851 219.212)"><path d="M2051.851,4898.021c.088,1.874-.5,6.17,1.652,7.046,4.692,1.907,10.043,4.239,14.145,4.684s7.542-.071,7.76-2.085-13.88-9.8-16.271-14.213S2051.578,4892.18,2051.851,4898.021Z" transform="translate(-2051.839 -4891.377)" fill="#15236c"/></g><g transform="translate(140.686 120.198)"><path d="M1755.391,3844.929c0,13.355-36.186,53.783-41.149,55.136s-10.558-2.166-10.558-2.166.217-.458.593-1.277c3.129-6.8,17.294-38.424,9.965-38.424h-38.893c-8.482-14.975-.541-36.551,16.424-36.551S1755.391,3831.574,1755.391,3844.929Z" transform="translate(-1671.923 -3821.648)" fill="#050d32"/></g><g transform="translate(154.872 144.077)" opacity="0.5"><path d="M1863.679,4090.128c0,6.678-16.852,36.637-18.386,41.329-.268.821-.965.444-1.934-.735,3.13-6.8,17.294-38.423,9.965-38.423H1825.5c-1.577-7.188,3.169-12.479,9.148-12.638C1852.325,4079.191,1863.679,4083.451,1863.679,4090.128Z" transform="translate(-1825.191 -4079.626)" fill="#050d32"/></g><g transform="translate(160.294 53.963)"><path d="M1928.674,3115.251c-3.79,2.437-5.053.542-7.309,3.158s-2.437,12.9-3.429,19.582c-.956,6.435-7.851,17.687-13.987,17.687-2.531,0-5.937-2.395-9.212-5.659-4.664-4.649-9.061-11.061-10.28-14.825-1.239-3.826-.58-13.476.152-20.631.495-4.826,1.022-8.517,1.022-8.517,1.19,0,2.846,2.706,4.685,6.532,1.922,4,4.045,9.223,6.047,13.856,2.614,6.055,5.022,11.1,6.5,11.1,3.7,0,13.446-20.567,16.514-23.372,3.158-2.887,8.573-7.941,11.911-7.941S1932.464,3112.815,1928.674,3115.251Z" transform="translate(-1883.764 -3106.047)" fill="#192578"/></g><g transform="translate(160.294 60.495)" opacity="0.25"><path d="M1894.737,3214.062c-4.664-4.649-9.061-11.061-10.28-14.825-1.239-3.826-.58-13.476.152-20.63a11.311,11.311,0,0,1,5.707-1.984c1.922,4,4.045,9.222,6.047,13.856C1895.811,3198.754,1894.623,3208.757,1894.737,3214.062Z" transform="translate(-1883.764 -3176.622)" fill="#050d32"/></g><g transform="translate(115.326 121.886)"><path d="M1471.387,3940.973c0,2.436-14.528,4.963-14.528,4.963s-1.932-3.652-4.817-8.845c-5.1-9.178-13.178-23.171-18.826-30.318-8.843-11.19-35.283-36.1-35.283-45.842a63.61,63.61,0,0,1,3.881-5.875c6.911-9.387,21.917-24.949,35.644-6.758C1456.046,3872.933,1471.387,3938.536,1471.387,3940.973Z" transform="translate(-1397.932 -3839.878)" fill="#050d32"/></g><g transform="translate(115.326 133.195)" opacity="0.25"><path d="M1452.041,4047.962c-5.1-9.178-13.178-23.171-18.826-30.318-8.843-11.189-35.283-36.1-35.283-45.842a63.63,63.63,0,0,1,3.881-5.875c14.382-3.072,31.891-3.071,36.05-3.869,0,4.961-20.259,9.654-20.259,17.775s24.906,38.893,30.591,55.136A133.508,133.508,0,0,1,1452.041,4047.962Z" transform="translate(-1397.932 -3962.058)" fill="#050d32"/></g><g transform="translate(109.189 43.856)"><path d="M1394.061,3078.074s-6.566,8.567-21.636,10.643a73.292,73.292,0,0,0-9.785,2.149c-2.38.674-4.779,1.443-7.113,2.25-1.181.408-2.345.826-3.482,1.246-9.1,3.366-16.438,6.9-16.438,6.9s-3.97-28.967-3.97-54.324,13.355-50.083,35.554-50.083c20.394,0,23.913,16.694,23.913,26.53a80.456,80.456,0,0,1-1.651,14.49l-.116.67a60.78,60.78,0,0,0-1.1,10.514,69.746,69.746,0,0,0,.922,10.981A87.5,87.5,0,0,0,1394.061,3078.074Z" transform="translate(-1331.637 -2996.854)" fill="#fff"/></g><g transform="translate(138.001 84.013)" opacity="0.25"><path d="M1676.531,3471.764s-6.566,8.567-21.636,10.643a73.335,73.335,0,0,0-9.785,2.15c.1-5.988,3.269-13.731.219-17.671-4.331-5.595-4.061-36.186,11.28-36.186,13.849,0,11.978,13.14,15.015,23.028A87.5,87.5,0,0,0,1676.531,3471.764Z" transform="translate(-1642.919 -3430.7)" fill="#aeb2d4"/></g><g transform="translate(89.746 110.362)"><path d="M1140.234,3717.91c.361,7.16,1.983,11.908,5.648,15.45s6.074,4.939,8.369,11.606,7.373,12.737-4.283,12.737h-19.01s-16.739-39.491-5.5-41.677S1140.234,3717.91,1140.234,3717.91Z" transform="translate(-1121.574 -3715.381)" fill="#5141af"/></g><g transform="translate(118.755 84.013)"><path d="M1434.98,3431.873s20.665,31.674,27.432,36.908,25.234.942,33.208,4.241c2.617,1.083,2.436,2.887,6.136,2.887,6.789,0,11.1-.09,11.1-.09s4.331-.541,1.354-4.963c-1.835-2.724-6.64-5.685-12-5.685-3.249,0-8.753,4.512-8.753,4.512l11.28-.18-33.118-11.37.993,6.407,7.58,1.173-19.853-35.013Z" transform="translate(-1434.98 -3430.7)" fill="#182378"/></g><g transform="translate(111.436 57.985)"><path d="M1385.428,3150.982s13.25,25.622,8.663,29.779c-8.663,7.851-10.854,5.949-20.394,11.46-8.121,4.692-4.6,11.731-4.6,11.731a17.977,17.977,0,0,1-13.175-17.506C1355.559,3171.917,1365.846,3142.59,1385.428,3150.982Z" transform="translate(-1355.911 -3149.499)" fill="#fff"/></g><g transform="translate(133.193 24.184)"><path d="M1614.7,2811.571c-.09,2.346-6.227,8.3-14.98,1.263a25.523,25.523,0,0,0-8.753-4.512s7.219-3.971,7.76-8.482c.322-2.688-.542-6.587-2.02-15.521,0,0,8.732,4.335,10.313,10.254a6.761,6.761,0,0,1-.312,4.481c-1.317,3.122,1.279,5.9,3.856,8.148C1612.661,2809.033,1614.742,2810.52,1614.7,2811.571Z" transform="translate(-1590.969 -2784.319)" fill="#192578"/></g><g transform="translate(144.977 34.438)" opacity="0.25"><path d="M1724.64,2909.572c-3.61,0-5.234-3.339-6.226-5.685s4.147-5.83,4.331-5.956c.554-1.675-1.677-2.76-.189-2.831a6.76,6.76,0,0,1-.311,4.481c-1.318,3.123,1.279,5.9,3.856,8.149C1726.467,2908.756,1726.276,2909.572,1724.64,2909.572Z" transform="translate(-1718.286 -2895.1)" fill="#050d32"/></g><g transform="translate(132.713)"><g transform="translate(5.984 2.978)"><path d="M1683.558,2572.715a24.337,24.337,0,0,1-.383,3.9c-.093.554-.2,1.129-.327,1.719a54.971,54.971,0,0,1-1.9,6.758,43.632,43.632,0,0,1-2.7,6.211c-1.983,3.666-4.368,6.32-6.872,6.32-4.857,0-14.152-7.262-18.535-15.377a17.793,17.793,0,0,1-2.4-8.266c0-10.648,7.039-18.77,14.98-18.77,7.609,0,13.365,5,16.193,10.413A15.783,15.783,0,0,1,1683.558,2572.715Z" transform="translate(-1650.44 -2555.209)" fill="#192578"/></g><g transform="translate(32.765 32.841)" opacity="0.25"><path d="M1943.5,2877.867a43.652,43.652,0,0,1-2.7,6.211,1.739,1.739,0,0,1-.375-.177c-1.263-.812-.361-3.249-.019-4.52A3.119,3.119,0,0,1,1943.5,2877.867Z" transform="translate(-1939.779 -2877.85)" fill="#050d32"/></g><g transform="translate(5.984 2.978)" opacity="0.25"><path d="M1683.558,2572.715a24.337,24.337,0,0,1-.383,3.9,5.322,5.322,0,0,1-2-.112c-5.328-1.383-5.424-7.84-10.211-8.43s-1.948,14.691-5.836,13.869-3.726-9.357-6.042-9.772c-1.909-.341-4.124,7.084-6.243,10.077a17.793,17.793,0,0,1-2.4-8.266c0-10.648,7.039-18.77,14.98-18.77,7.609,0,13.365,5,16.193,10.413A15.783,15.783,0,0,1,1683.558,2572.715Z" transform="translate(-1650.44 -2555.209)" fill="#050d32"/></g><path d="M1602.778,2523.037c-6.409,0-13.446,8.031-13.446,15.611s1.083,13.085,0,14.528-4.873,2.076-3.068,4.061,8.482,3.249,10.738,1.986,2.166-12.634,4.512-12.814,4.332,8.122,8.3,7.941-2.617-14.258,2.166-14.89,6.5,5.595,12,5.595,10.378-9.565,8.3-12.543-6.678.09-8.753-1.083-.812-5.143-3.97-6.587-5-.9-8.031-.9S1609.185,2523.037,1602.778,2523.037Z" transform="translate(-1585.785 -2523.037)" fill="#050d32"/><g transform="translate(11.76 23.282)"><path d="M1720.055,2780.435c0,2.16-1,2.8-2.256,2.8-2.617,0-4.963-4.783-4.963-6.317s2.343-2.346,3.79-2.346C1718.611,2774.569,1720.055,2778.9,1720.055,2780.435Z" transform="translate(-1712.836 -2774.569)" fill="#1a2678"/></g><g transform="translate(32.887 28.696)"><path d="M1947.129,2841.457c.36.925-3.844.708-5.595.271-1.8-.451,2.436-8.663,3.88-8.663C1946.227,2833.065,1945.234,2836.584,1947.129,2841.457Z" transform="translate(-1941.094 -2833.065)" fill="#1e204e"/></g></g><g transform="translate(17.867 123.176)"><path d="M0,0H0A74.086,74.086,0,0,1,74.086,74.086v29.237a0,0,0,0,1,0,0H0a0,0,0,0,1,0,0V0A0,0,0,0,1,0,0Z" fill="#292961"/></g><g transform="translate(0 123.176)"><path d="M0,0H0A74.086,74.086,0,0,1,74.086,74.086v29.237a0,0,0,0,1,0,0H0a0,0,0,0,1,0,0V0A0,0,0,0,1,0,0Z" fill="#1e204e"/></g></g></g><g transform="translate(-4163.158 2124.395)" opacity="0.15"><path d="M1206.131,3552.429c-6.252-4.492-15.112-9.357-17.585-16.157-2.962-8.145.935-15.272,11.2-15.272a15.6,15.6,0,0,1,4.737.722C1204.6,3532.281,1205.323,3543.243,1206.131,3552.429Z" transform="translate(-1187.582 -3521)" fill="#050d32"/></g><g transform="translate(-4289 1831.908)"><path d="M-139.975,361.872V874.256q-15.779.076-32.025.077V361C-162.378,361.358-151.645,361.64-139.975,361.872Z" transform="translate(172 -361)" fill="none"/></g><g transform="translate(-4139.146 2269.019)"><g transform="translate(18.882)"><rect width="83.396" height="1.388" fill="#8691c3"/></g><rect width="6.387" height="1.388" fill="#8691c3"/></g><g transform="translate(-4126.232 2059.361)"><path d="M1591.009,2818.821c-1.861-1.227-6.083.313-3.842,1.791S1593.481,2820.452,1591.009,2818.821Z" transform="translate(-1586.527 -2818.375)" fill="#050d32"/></g><g transform="translate(-4289 1831.445)"><path d="M-80.449,356.871V869.719q-45.107.076-91.551.077V356C-144.495,356.358-113.812,356.639-80.449,356.871Z" transform="translate(112.474 -356)" fill="#a0a6ce"/></g></g><g transform="translate(201.127 410.515)"><g transform="translate(0 49.785)"><path d="M40.25,3931.314s-1.336-81.841-3.417-93.492c-2.087-11.686-23.255-37.82-22.454-36.929l-1.337,1.323c2.363,11.218,9.645,39.508,11.756,45.431,2.761,7.748,2.672,20.839,6.966,31.368,2.01,4.928,4.358,20.341,6.288,35.342,2.193,17.048,3.844,33.565,3.844,33.565" transform="translate(-13.043 -3800.871)" fill="#142477"/></g><g transform="translate(12.66 95.648)"><path d="M160.031,4378.259s-10.592-24.89-10.057-31.48.891-38.649,0-42.034,2.4-8.371,2.4-8.371,6.673,56.492,8.1,64.625S160.031,4378.259,160.031,4378.259Z" transform="translate(-149.821 -4296.374)" fill="#050d32"/></g><g transform="translate(19.265 41.525)"><path d="M221.365,3792.663s.763-43.361-.039-50.4,1.87-30.635,1.87-30.635,9.44,44.527,7.214,55.837.356,102.858.356,102.858S222.562,3802.718,221.365,3792.663Z" transform="translate(-221.177 -3711.632)" fill="#142477"/></g><g transform="translate(24.801 55.745)"><path d="M281.567,3865.258s7.036,39.57,8.907,50.523-2.583,79.793-2.583,79.793-7.486-13.638-6.86-22.537S281.566,3865.229,281.567,3865.258Z" transform="translate(-280.994 -3865.258)" fill="#121d5e"/></g><g transform="translate(27.138 4.478)"><path d="M307.507,3311.381s.395,1.449,1.01,3.906c2.218,8.857,7.3,30.82,7.094,45.291-.267,18.485-8.015,98.991-8.015,98.991s.534-86.375-.045-90.743c-.378-2.85-.959-23.25-.782-39.2C306.864,3321.129,305.1,3315.3,307.507,3311.381Z" transform="translate(-306.235 -3311.381)" fill="#050d32"/></g><g transform="translate(32.14)"><path d="M366.977,3263.025s2.569-.485,3.087,2.783c1.639,10.335,2.655,35.381,1.1,43.7-2.048,10.954-10.886,114.324-10.886,114.324s2.538-121.671,2.971-129.174S366.977,3263.025,366.977,3263.025Z" transform="translate(-360.277 -3263)" fill="#142477"/></g><g transform="translate(31.738 34.876)"><path d="M360.91,3763.991c.095-1.154,1.873-22.811,4.936-28.546s16.5-45.288,12.741-57.213-2.71-21.4-4-27.4a28.25,28.25,0,0,1-.168-11s-2.109-.769-3.462,6.271c-1.851,9.636-3.09,28.209-2.928,31.269.28,5.3-7.5,24.94-7.758,36.8s-4.324,51.56-4.324,51.56Z" transform="translate(-355.942 -3639.8)" fill="#050d32"/></g><g transform="translate(23.493 23.405)"><path d="M273.341,3627.651s-6.316-57.614-6.48-62.167,3.343-45.113,2.886-49.094l2.668,23.269c.884,7.705,7.976,68.726,5.642,83.8C275.74,3638.425,273.341,3627.651,273.341,3627.651Z" transform="translate(-266.856 -3515.863)" fill="#121d5e"/></g><g transform="translate(31.521 46.334)"><path d="M353.589,3903.314c1.425-1.069,8.638-43.459,9.084-47.912s-3.206-61.27,26.806-91.816c1.036.708.506,1.756-.117,3.433-4.6,12.39-9.991,31.679-11.638,36.464-1.87,5.432-5.165,52.364-9.173,60.736s-3.74,35.8-3.74,35.8Z" transform="translate(-353.589 -3763.587)" fill="#142477"/></g><g transform="translate(5.87 124.607)"><path d="M129.82,4667.038H76.467l5.859-54.277c.213-1.974,3.754-3.524,8.051-3.524H115.91c4.3,0,7.838,1.55,8.051,3.524Z" transform="translate(-73.467 -4597.808)" fill="#5b6db2"/></g></g></g></g></g></svg>