<svg xmlns="http://www.w3.org/2000/svg" width="192.035" height="171.552" viewBox="0 0 192.035 171.552"><g transform="translate(0 0)"><path d="M1193.63,88.04c0,23.017-33.846,129.735-96.018,129.735s-96.018-106.718-96.018-129.735,40.592-41.817,96.018-41.817S1193.63,65.022,1193.63,88.04Z" transform="translate(-1001.595 -46.223)" fill="#0d30b5" opacity="0.198"/></g><g transform="translate(2.468 10.48)"><g transform="translate(10.68 16.765)"><g transform="translate(52.79 43.547)"><line x1="0.159" y2="6.144" transform="translate(1.273 0.595)" fill="#635c8c" stroke="#635c8c" stroke-linecap="round" stroke-miterlimit="10" stroke-width="2"/><line x1="1.054" y2="6.685" transform="translate(3.883 0.879)" fill="none" stroke="#535075" stroke-linecap="round" stroke-miterlimit="10" stroke-width="3"/><line x1="0.097" y2="5.288" transform="translate(2.621 2.086)" fill="#635c8c" stroke="#635c8c" stroke-linecap="round" stroke-miterlimit="10" stroke-width="2"/><line x1="1.448" y2="5.098" transform="translate(3.794 2.466)" fill="#635c8c" stroke="#635c8c" stroke-linecap="round" stroke-miterlimit="10" stroke-width="2"/><line x2="0.85" y2="5.456" transform="translate(0 1.284)" fill="#635c8c" stroke="#635c8c" stroke-linecap="round" stroke-miterlimit="10" stroke-width="2"/><line x2="1.705" y2="8.65" transform="translate(1.314)" fill="none" stroke="#535075" stroke-linecap="round" stroke-miterlimit="10" stroke-width="3"/><rect width="5.242" height="5.696" transform="translate(0 4.716)" fill="#635c8c"/><line x2="0.621" y2="4.76" transform="translate(3.504 0.732)" fill="#635c8c" stroke="#635c8c" stroke-linecap="round" stroke-miterlimit="10" stroke-width="2"/></g><rect width="10.807" height="10.807" transform="translate(56.295 20.914)" fill="#635c8c"/><rect width="3.525" height="8.326" transform="translate(49.265 45.634)" fill="#535075"/><rect width="5.011" height="6.669" transform="translate(44.255 47.291)" fill="#686686"/><rect width="104.306" height="34.372" transform="translate(2.86 56.807)" fill="#535075"/><path d="M1242.179,263.378h-25.347l-1.189-13.717h25.347Z" transform="translate(-1156.562 -208.256)" fill="#635c8c"/><rect width="110.026" height="9.217" transform="translate(0 52.198)" fill="#635c8c"/><rect width="110.026" height="26.035" transform="translate(0 69.753)" fill="#635c8c"/><path d="M1137.511,268.829l2.988,4.325h-12.7Z" transform="translate(-1098.364 -220.956)" fill="#635c8c"/><path d="M1111.878,268.829H1090.7l-1.587,4.325h21.176Z" transform="translate(-1072.73 -220.956)" fill="#535075"/><rect width="6.433" height="1.48" transform="translate(68.168 39.159)" fill="#635c8c"/><rect width="2.96" height="2.158" transform="translate(69.873 39.899)" fill="#635c8c"/><g transform="translate(14.118)"><rect width="95.766" height="16.09" fill="#535075"/><g transform="translate(2.267 1.702)"><rect width="21.263" height="12.686" fill="#635c8c"/><rect width="21.263" height="12.686" transform="translate(22.678)" fill="#635c8c"/><g transform="translate(19.387 8.784)"><path d="M0,0H1.056a0,0,0,0,1,0,0V2.806a0,0,0,0,1,0,0h0A1.056,1.056,0,0,1,0,1.75V0A0,0,0,0,1,0,0Z" fill="#535075"/><path d="M1.056,0h0a0,0,0,0,1,0,0V2.806a0,0,0,0,1,0,0H0a0,0,0,0,1,0,0V1.056A1.056,1.056,0,0,1,1.056,0Z" transform="translate(5.167 2.806) rotate(-180)" fill="#535075"/></g><g transform="translate(47.291)"><rect width="21.263" height="12.686" fill="#635c8c"/><rect width="21.263" height="12.686" transform="translate(22.678)" fill="#635c8c"/><g transform="translate(19.387 8.784)"><path d="M0,0H1.056a0,0,0,0,1,0,0V2.806a0,0,0,0,1,0,0h0A1.056,1.056,0,0,1,0,1.75V0A0,0,0,0,1,0,0Z" fill="#535075"/><path d="M1.056,0h0a0,0,0,0,1,0,0V2.806a0,0,0,0,1,0,0H0a0,0,0,0,1,0,0V1.056A1.056,1.056,0,0,1,1.056,0Z" transform="translate(5.167 2.806) rotate(180)" fill="#535075"/></g></g></g></g><rect width="4.253" height="4.58" transform="translate(70.252 19.768)" fill="#535075"/><rect width="4.253" height="4.58" transform="translate(69.258 27.783)" fill="#535075"/></g><rect width="39.068" height="115.973" transform="translate(15.125 19.811)" fill="#fff" opacity="0.82"/><path d="M1092.8,135.99V251.961h-39.07" transform="translate(-1038.606 -116.178)" fill="none" stroke="#c9c6df" stroke-miterlimit="10" stroke-width="2"/><path d="M1053.73,251.961V135.99h39.07" transform="translate(-1038.606 -116.178)" fill="none" stroke="#7267a2" stroke-miterlimit="10" stroke-width="2"/><path d="M1132.932,91.07V229.836h-7.312V99.358h-109.4V229.836h-7.309V91.07Z" transform="translate(-1008.91 -86.417)" fill="#9ea2cd"/><g transform="translate(115.559)"><path d="M1424.644,305.146l-45.358-.3a2.064,2.064,0,0,1-1.86-2.21h0a2.071,2.071,0,0,1,1.86-2.215l45.358-.422a2.545,2.545,0,0,1,2.548,2.567h0A2.553,2.553,0,0,1,1424.644,305.146Z" transform="translate(-1368.63 -224.846)" fill="#3d3a64"/><path d="M1351.36,90.221V220.7l54.7,12.941V77.28Zm45.593,132.368-38.911-8.129V95.678l38.911-8.237Z" transform="translate(-1351.36 -77.28)" fill="#b4b5d7"/></g><g transform="translate(7.309 12.941)"><path d="M1030.57,115.63V246.108h54.7V115.63Zm46.885,122.841h-39.07V122.5h39.07Z" transform="translate(-1030.57 -115.63)" fill="#b4b5d7"/><rect width="49.836" height="4.362" rx="2.181" transform="translate(2.433 62.675)" fill="#3d3a64"/><g transform="translate(18.914 26.34)"><rect width="5.135" height="16.874" transform="translate(5.869)" fill="#e64097"/><rect width="5.135" height="16.874" transform="translate(0 11.004) rotate(-90)" fill="#e64097"/></g></g><path d="M1410.074,242.536l-38.911-8.129V115.624l38.911-8.237Z" transform="translate(-1248.921 -97.227)" fill="#fff" opacity="0.82"/><path d="M1371.163,115.624l38.911-8.237V242.536" transform="translate(-1248.921 -97.227)" fill="none" stroke="#7267a2" stroke-miterlimit="10" stroke-width="2"/><path d="M1410.074,258.708l-38.911-8.129V131.8" transform="translate(-1248.921 -113.4)" fill="none" stroke="#c9c6df" stroke-miterlimit="10" stroke-width="2"/><g transform="translate(73.481 30.073)"><path d="M1357.066,245.706c4.9.141,14.8,14.179,18.167,15.052s11.115-15.193,14.074-15.052-7.047,22.241-14.093,24.086-19.676-12.044-19.676-12.044Z" transform="translate(-1312.05 -218.943)" fill="#6e68aa"/><g transform="translate(12.943)"><path d="M1268.827,466.045c-1.23.226-3.387,2-3.618,2s-.693,9.449,1.809,9.921,2.656-7.612,3.349-8.766S1268.827,466.045,1268.827,466.045Z" transform="translate(-1265.018 -364.93)" fill="#272255"/><path d="M1304.51,350.5a46.7,46.7,0,0,1-5.042,10.076q-.7,1.048-1.357,1.937a19.331,19.331,0,0,1-3.924,3.682,57.1,57.1,0,0,1-5.264,3.445c-6.128,3.6-12.965,6.53-14.146,6.658-1.937.209-2.123-4.228-2.123-4.228s8.51-7.731,11.645-12.587a7.925,7.925,0,0,0,1.07-2.19c.618-2.467-2.565-7.393-4.714-13.37-1.491-4.144-2.487-8.794-1.377-13.478,2.716-11.443,26.989-5.649,27.58.057A45.211,45.211,0,0,1,1304.51,350.5Z" transform="translate(-1270.078 -270.729)" fill="#463d76"/><path d="M1338.862,359.745s-.179,1.677-.422,4.248c-.152-.1-.3-.206-.445-.3Z" transform="translate(-1313.369 -294.5)" fill="#7267a2"/><path d="M1346.052,382.614a46.707,46.707,0,0,1-5.041,10.076q-.7,1.048-1.357,1.937a19.333,19.333,0,0,1-3.925,3.682c-1.006-3.449.253-18.5.962-25.973A30.53,30.53,0,0,1,1346.052,382.614Z" transform="translate(-1311.62 -302.842)" fill="#272255" opacity="0.5"/><path d="M1315.178,396.341q-.7,1.048-1.357,1.937c-1.681,2.278-5.288,4.839-9.189,7.127-1.468-2.889-3.152-6.489-4.623-10.157a7.937,7.937,0,0,0,1.07-2.19c.618-2.467-2.565-7.393-4.714-13.37a4.345,4.345,0,0,1,.675-1.842S1310,387.486,1315.178,396.341Z" transform="translate(-1285.787 -306.493)" fill="#272255" opacity="0.5"/><g transform="translate(7.215 56.228)"><path d="M1340.627,494.622s.711,5.872.492,6.725,6.115,4.886,10.14,5.379-5.028-10.748-6.333-12.459S1340.627,494.622,1340.627,494.622Z" transform="translate(-1322.328 -439.407)" fill="#272255"/><path d="M1304.675,342.042s4.974,14.085,5.2,19.044,1.38,27.721,1.38,27.721a8.26,8.26,0,0,1-7.948.332c-.462-2.072-4.865-16.983-6.464-21.188s-11.674-23.982-10.322-29.849c1.12-4.857,8.2-5.7,11.637-4.714S1304.675,342.042,1304.675,342.042Z" transform="translate(-1286.398 -333.025)" fill="#463d76"/></g><path d="M1295.854,258.407s-2.436,4.778-5.76,10.974c-.476-5.689-1.674-13.646-1.674-13.646.03-.175.071-.351.118-.526.236-.324.462-.624.678-.9Z" transform="translate(-1280.523 -224.644)" fill="#8d83b4"/><path d="M1316.209,265.621s-6,3.729-9.175,3.752c-.749,0-1.758-.02-2.916-.057a108.729,108.729,0,0,0-12.2.014,5.778,5.778,0,0,1-3.732-.655,3.509,3.509,0,0,1-1.414-1.525s1.667-8.5,2.312-11.375a23.776,23.776,0,0,0-.081-5.193c-.476-5.689-1.674-13.646-1.674-13.646.03-.175.071-.351.118-.526.85-3.172,4.316-6.26,7.94-8.251a21.879,21.879,0,0,1,3.452-1.542c.152-.051.3-.1.452-.148a10.811,10.811,0,0,1,2.879-.53,4.978,4.978,0,0,1,.759.037,3.8,3.8,0,0,1,1.913.773c.027.02.051.044.078.064l.067.057a4.951,4.951,0,0,1,1.036,1.313,11.038,11.038,0,0,1,.786,1.836,21.671,21.671,0,0,0,1.431,3.877c.975,1.573,2.862,10.3,4.383,17.075a79.088,79.088,0,0,0,2.025,8.014,27.73,27.73,0,0,1,1.539,6.442v.013C1316.2,265.556,1316.209,265.621,1316.209,265.621Z" transform="translate(-1279.43 -205.844)" fill="#272255"/><path d="M1327.264,231.493c5.028-.509,14.762,5.486,19.682,11.631-1.581,3.663-5.038,9.791-8.517,11.468s-14.717-12.474-14.717-12.474Z" transform="translate(-1303.906 -209.506)" fill="#272255"/><g transform="translate(15.952 15.139)"><path d="M1326.124,211.261l.518,6.816.07.92s-.2.875-2.754,1.012-5.089-.046-4.4-1.348,2.007-3.854,2.854-5.512c.483-.938.817-1.6.817-1.6Z" transform="translate(-1317.029 -211.261)" fill="#6e68aa"/><path d="M1315.9,224.94c.487.921.291,2.412,1.752,2.871s-1.086,3.668-1.086,3.668-4.917-3.093-4.2-4.272Z" transform="translate(-1312.29 -220.324)" fill="#383189"/><path d="M1332.16,211.548l.518,6.816c-1.469-.674-3.281-3.381-4.23-4.929.483-.938.817-1.6.817-1.6Z" transform="translate(-1322.995 -211.451)" fill="#5c559f"/></g><g transform="translate(14.305)"><path d="M1345.7,172.355c2.051.332,3.235,1.308,3.683,2.67s-1.586,2.392-3.049,1S1345.7,172.355,1345.7,172.355Z" transform="translate(-1332.621 -170.345)" fill="#f1f0f7"/><g transform="translate(0.641 0.921)"><path d="M1326.656,178.679c.955,3.451.819,6.74-.77,7.7-4.244,2.573-14.239-.079-15.29-2.345s-3.607-9.68,3.815-13.929a6.113,6.113,0,0,1,6.659.007C1323.749,171.781,1325.722,175.306,1326.656,178.679Z" transform="translate(-1309.308 -169.128)" fill="#6e68aa"/><path d="M1358.491,194.494s-.269,3.667.122,4.094,2.559-.471,2.559-.471Z" transform="translate(-1341.835 -185.934)" fill="#5c559f"/></g><path d="M1322.24,169.18c-1.792.568-7.009,1.328-6.635,3.338a5.325,5.325,0,0,1-1.465,4.773c-1.066,1.082-3.712.508-3.17,2.337s2.624,2.373,3.125,4.293-3.77.521-5.532-1.775-1.414-8.666.409-10.992,6.361-4.756,8.967-4.756C1322.631,166.4,1323.759,168.7,1322.24,169.18Z" transform="translate(-1307.409 -166.398)" fill="#f1f0f7"/><path d="M1319.483,201.163a2.193,2.193,0,0,0-2.365-.961c-1.536.4.147,4.638,1.793,4.2a1.266,1.266,0,0,0,.933-1.871Z" transform="translate(-1313.441 -188.745)" fill="#6e68aa"/></g><path d="M1338.236,227.968a4.97,4.97,0,0,0-1.224,2.248l1.966,2.893s1.551-1.767,1.354-3.053S1338.236,227.968,1338.236,227.968Z" transform="translate(-1312.718 -207.191)" fill="#383189"/><path d="M1323.459,190.851a17.233,17.233,0,0,1-1.019,4.945c-.229.25-1.231.275-1.406-.25a15.6,15.6,0,0,0-1.687-3.354C1318.771,191.541,1323.459,190.851,1323.459,190.851Z" transform="translate(-1300.981 -182.599)" fill="#f1f0f7"/></g><path d="M1448.859,245.943c-.445-.271-.92.617-1.27.3s2-3.9.887-4c-.964-.09-4.184,3.047-5.552,5.289,0,0,1.81,5.448,2.594,3.963C1446.977,248.729,1449.349,246.241,1448.859,245.943Z" transform="translate(-1369.947 -216.647)" fill="#6e68aa"/><path d="M1233.445,292.684c4.115-5.479,10.157-14.986,14.659-22.44-.189-5.706-.894-14.061-.84-14.234l-3.445,3.63c-1.651,2.346-13.279,28.532-14.555,30.892-.892,1.649-3.457,4.7-2.31,6.592.71,1.171,3.225-2.664,3.757-2.487s-1.034,1.96-.384,2.2S1232.34,294.155,1233.445,292.684Z" transform="translate(-1226.663 -225.771)" fill="#6e68aa"/><path d="M1276.612,254.279l-4.011-18.694c-13.861,4.549-17.639,19.751-17.639,19.751,4.921,3.267,6.311,7.487,8.878,7.512s7.327-14.032,7.327-14.032Z" transform="translate(-1245.413 -212.238)" fill="#272255"/><path d="M1346.625,213.03a11.051,11.051,0,0,0,4.408-.581,1.437,1.437,0,0,1,0,.64A5.62,5.62,0,0,1,1346.625,213.03Z" transform="translate(-1306.144 -196.909)" fill="#dbd9ea"/></g><g transform="translate(132.302 35.409)"><path d="M1422.713,200.764l-5.094.407V182.929l5.094-.719Z" transform="translate(-1412.002 -182.211)" fill="#ef85bd"/><path d="M1417.725,199.191v5.759l-16.749,1.694V201.2Z" transform="translate(-1400.976 -193.461)" fill="#ef85bd"/></g></g></svg>