<svg xmlns="http://www.w3.org/2000/svg" xmlns:xlink="http://www.w3.org/1999/xlink" width="205.294" height="177.16" viewBox="0 0 205.294 177.16"><defs><clipPath id="a"><rect width="205.294" height="145.777" fill="none"/></clipPath></defs><g transform="translate(7.01 0)"><path d="M145.81,126.08c0,57.356,106.718,88.58,129.735,88.58s41.817-37.45,41.817-88.58-18.8-88.58-41.817-88.58S145.81,68.724,145.81,126.08Z" transform="translate(-145.81 -37.5)" fill="#0d30b5" opacity="0.198"/></g><g transform="translate(0 0)"><path d="M142.2,312.989c-.007-.006-.016-.016-.024-.022C142.391,312.954,142.376,312.963,142.2,312.989Z" transform="translate(-136.393 -220.007)" fill="#272352"/><g clip-path="url(#a)"><g transform="translate(66.785 33.785)"><path d="M326.739,367.047a11.067,11.067,0,0,1,4.1-.752c1.9.292,7.005-.915,8.232-1.312a32.17,32.17,0,0,0,4.466-2.181l4.425,3.693s-16.861,7.132-21.019,7.042c-1.44-.031,4.395-1.932,4.115-2.25s-6.276,2.885-6.689,1.9,6.193-2.207,6.282-2.878S323.744,373,323,372.151s7.464-2.777,7.464-2.777-.262-.5-2.6-.108-4.5.891-4.42.306,6.427-1.162,6.546-2.053C329.993,367.519,326.842,367.738,326.739,367.047Z" transform="translate(-322.95 -286.815)" fill="#56499d"/><path d="M412.411,260.846v-19.2s-19.547,31.123-21.3,33.221c-2.251,2.7-10.164,2.987-18.628,9.108.857,1.808,1.814,4.123,3.716,4.972,6.133-1.974,22.413-6.594,23.35-7.761Z" transform="translate(-355.772 -206.541)" fill="#56499d"/><g transform="translate(36.679 6.282)"><path d="M474.77,514.243c-7.349,0-8.281-7.982-8.281-7.982l6.364-39.528,3.137-48.87,1.792-12.354-30.173,2.471-4.9,12.339-6.965,45.512L447.1,505.36s-.931,7.982-8.281,7.982-7.17,2.458-7.17,2.458h21.51s-1.255-8.847-1.255-9.666-1.344-43.5-1.344-43.5l8.156-38.909,3.19,40.841s-.217,41.647-.217,42.466-1.255,9.666-1.255,9.666h21.511S482.12,514.243,474.77,514.243Z" transform="translate(-431.644 -321.392)" fill="#56499d"/><path d="M493.965,235.952c-4.11-4.77-20.386-8.984-28.034-1.194-6.647,6.772-8.083,26.475-8.52,43.637a174.63,174.63,0,0,1-3.29,28.876l39.07.464.774-44.584S498.074,240.721,493.965,235.952Z" transform="translate(-446.536 -205.399)" fill="#56499d"/><path d="M504.733,203.649a69.708,69.708,0,0,1-.933,10.629,2.849,2.849,0,0,0,1.91,3.318,8.658,8.658,0,0,0,4.255.324A5.35,5.35,0,0,0,514.727,213l-1.554-12.843Z" transform="translate(-479.404 -185.335)" fill="#56499d"/><path d="M514.644,200.155l-8.441,3.494s-.039,2.6-.255,5.444c2.2.088,4.97-.927,7.907-3.992q.655-.683,1.223-1.354Z" transform="translate(-480.874 -185.335)" fill="#56499d"/><path d="M508.17,160.921c-1.015-2.355-10.229-5.638-12.57-4.424a12.554,12.554,0,0,0-4.138,5.352c-1.25,3.354-2.343,5.781-2.343,5.781l1.328.713s-.209.926-.368,2.095a14.211,14.211,0,0,0,5.105-.2,9.56,9.56,0,0,1-5.225,1.253,6.614,6.614,0,0,0,.254,3.129c1.25,2.426,6.52,4.388,12.493-1.07S509.185,163.275,508.17,160.921Z" transform="translate(-469.724 -156.236)" fill="#56499d"/><path d="M529.564,185.19s.381-2.462,1.23-2.462,1.64.268,1.435,1.659-1.083,2.944-2.2,2.3S529.564,185.19,529.564,185.19Z" transform="translate(-496.398 -173.788)" fill="#56499d"/><path d="M503.742,177.053c0,.606-.293,1.1-.653,1.1s-.655-.491-.655-1.1.293-1.1.655-1.1S503.742,176.447,503.742,177.053Z" transform="translate(-478.546 -169.301)" fill="#56499d"/><g transform="translate(23.85 5.087)"><path d="M505.293,172.206a5.324,5.324,0,0,0-2.895-.418l-.077-.422a5.73,5.73,0,0,1,3.215.474Z" transform="translate(-502.321 -171.312)" fill="#56499d"/></g><path d="M530.939,185.653s.5-.835.939-.716.543,1.8-.244,2.5S530.183,186.988,530.939,185.653Z" transform="translate(-497.212 -175.244)" fill="#56499d"/></g><path d="M545.629,237.781s-5.989,2.219-6.785,10.336,31.063,43.758,31.063,43.758l1.293-13.187S556.02,243.2,545.629,237.781Z" transform="translate(-465.981 -203.982)" fill="#56499d"/><g transform="translate(55.118)"><path d="M496.338,147.98a10.562,10.562,0,0,1-10.05-2.037c.444-2.4,3.626-6.29,6.7-6.29s4.736,3,4.736,3l-3-.37s.571-5.411,9.583-4.572c6.751.628,8.236,6.746,7.665,12.337a10.687,10.687,0,0,1-7.848,9.633l1.641-2.128s2.071,4.445-2.6,4.956-4.243-2.942-4.243-2.942" transform="translate(-486.288 -137.62)" fill="#56499d"/><path d="M495.687,144.095s-1.527-4.13-2.772-5.035,5.544-2.093,8.938,2.036S495.687,144.095,495.687,144.095Z" transform="translate(-490.579 -137.988)" fill="#56499d"/></g></g><g transform="translate(17.252 35.861)"><g transform="translate(0 2.662)"><path d="M279.824,310.958s6.172,11.477,9.124,11.477,20.968-4.539,25.152-6.8a28.208,28.208,0,0,1,3.175-2.583c.312,0-1.036,1.491-.76,1.723s4.916-3.457,5.151-3-2.8,2.009-2.8,2.219c0,0,4.511-2.693,5-2.277.224.188-4.314,2.4-3.744,2.4s4.48-2.732,4.83-2.25c.333.458-4.172,2.355-3.88,2.6s3.88-1.746,3.88-1.152-10.005,5.145-11.925,6.414c-1.6,1.061-19.049,8.849-24.816,9.358s-15.091-14.645-15.091-14.645Z" transform="translate(-240.402 -257.203)" fill="#ff6ebe"/><path d="M203.847,237.617l8.9,2.014.774,1.638L196.58,238.53Z" transform="translate(-189.691 -208.611)" fill="#ff6ebe"/><path d="M258.024,254.51l1.972.47a35.771,35.771,0,0,1,10.226,15.226l1.484,4.121.915,2.541-7.828.753Z" transform="translate(-230.4 -219.803)" fill="#ff6ebe"/><path d="M222.578,471.072c2.166-3.038-3-43.853-3-43.853L243.046,414.9l-.473,10.652s-13.942,75.621-13.6,86.441l-7.266-.241C221.332,506.4,220.59,473.861,222.578,471.072Z" transform="translate(-204.931 -326.069)" fill="#ff6ebe"/><path d="M234.128,702.244a3.175,3.175,0,0,0,.174,1.153c2.017,3.848,9.2,7.461,9.2,7.461a27.368,27.368,0,0,1-5.955.343,80.488,80.488,0,0,1-10.192-1.457l1.031-6.948s-.019-.265-.053-.745Z" transform="translate(-210.083 -516.322)" fill="#ff6ebe"/><path d="M185.769,492.61c-.481-6.4-3.418-35.8-2.41-38.791.7-2.08-.134-22.048-.806-35.8a57.694,57.694,0,0,1,4.481-25.271l3.7-8.75,19.811,9.356-1.452,7.332a22.183,22.183,0,0,1-4.428,9.451l-4.4,5.561-8.932,76.949C189.948,492.547,187.154,492.6,185.769,492.61Z" transform="translate(-180.351 -305.592)" fill="#ff6ebe"/><path d="M194.111,705.616c1.385-.013,2.768.021,4.148.117l-.32,2.748s5.953,11.134,3.567,12.068-6.357.6-7.257-.241-1.342-4.095-1.3-5.005,1.071-5.636,1.206-8.669A10.113,10.113,0,0,0,194.111,705.616Z" transform="translate(-187.283 -518.682)" fill="#ff6ebe"/><path d="M199.08,241.135a16.531,16.531,0,0,0,1.965.5c2.623.5,9,1.887,11.208,3.951,2.814,2.625,8.083,15.965,6.607,22.8s3.371,29.683,3.209,33.323a63.677,63.677,0,0,1-36.1.019s4.7-21.314,4.94-26.775-6.666-29.387-2.291-32.887C192.077,239.292,197.127,240.508,199.08,241.135Z" transform="translate(-182.657 -210.403)" fill="#ff6ebe"/><path d="M263.867,255.9c2.7,2.525,5.307,9.366,6.331,13.274a22.3,22.3,0,0,1,.626,10.789c-.77,6.49,3.105,27.6,2.86,32.064-.426-5.265-4.878-24.3-3.9-32.142.377-2.874.911-4.6-.4-10.569C268.6,265.917,266.344,258.634,263.867,255.9Z" transform="translate(-234.272 -220.727)" fill="#ff6ebe"/><g transform="translate(9.408)"><path d="M212.251,157l-.371-.012s-4.988.087-6.261,1.105-2.153,11.143-1.119,14.517a8.411,8.411,0,0,0,9.1,5.955c4.709-.55,5.426.052,6.716-5.559S213.833,156.537,212.251,157Z" transform="translate(-204.045 -155.188)" fill="#ff6ebe"/><path d="M227.961,211.713a17.414,17.414,0,0,1-.291,3.445c-.3,2.659-.229,6.525-.242,8.268,0,0-.062,3.438-2.463,3.605-2.086.146-5.763-2.108-6.1-3.768-.459-2.232.589-13.278.589-13.278Z" transform="translate(-213.784 -190.303)" fill="#ff6ebe"/><path d="M228.526,215.157c-3.282,2.374-6.221,1.147-8.489-2.041.125-1.565.261-3.041.269-3.132l8.512,1.728A17.412,17.412,0,0,1,228.526,215.157Z" transform="translate(-214.64 -190.303)" fill="#ff6ebe"/><path d="M224.377,159.063s3.989.794,4.335,3.785.905,5.493.082,8.942-3.421,8-7.376,8.611-7.819-5.142-7.683-8.2-1.072-8.23,1.746-11.282S224.377,159.063,224.377,159.063Z" transform="translate(-210.37 -156.412)" fill="#ff6ebe"/><path d="M233.174,159.062s3.989.794,4.335,3.785c.313,2.711.8,5.02.278,8a11.82,11.82,0,0,0-2.775-1.223c-4.329-1.393-7.925-8.846-8.077-9.163l-.063-.132,0-.144a2.407,2.407,0,0,1,.161-.9A14.6,14.6,0,0,1,233.174,159.062Z" transform="translate(-219.166 -156.412)" fill="#ff6ebe"/><path d="M210.459,165.748s-1.463-1.579-2.2-2.266-2.359-7.279-.347-9.447,5.68-2.17,8.62-2.363,7.5,1.888,7.594,5.665c0,0-7.427-2.721-9.57-1.923a4.891,4.891,0,0,0-3.57,3.813A37.931,37.931,0,0,0,210.459,165.748Z" transform="translate(-205.965 -151.66)" fill="#ff6ebe"/><path d="M210.79,187.267s-.854-3.871-2.6-3-.1,5.179,1.484,5.232S210.79,187.267,210.79,187.267Z" transform="translate(-206.295 -173.179)" fill="#ff6ebe"/><path d="M210.869,186.828s2.361,3.571.652,3.129S209.279,186.125,210.869,186.828Z" transform="translate(-207.936 -174.897)" fill="#ff6ebe"/><g transform="translate(11.461 13.795)"><path d="M239.971,195.4a23.483,23.483,0,0,1-.043-2.863,25.48,25.48,0,0,1,.253,2.988,3.614,3.614,0,0,1-2.173.061A4.2,4.2,0,0,0,239.971,195.4Z" transform="translate(-238.008 -192.541)" fill="#ff6ebe"/></g><path d="M228.941,189.453a2.039,2.039,0,0,0-1.424-1.289c-1.3-.34-2.173,1.266-3.071,1.221.633.307,1.71-.613,2.431-.832a1.474,1.474,0,0,1,1.1.151A3.289,3.289,0,0,1,228.941,189.453Z" transform="translate(-217.562 -175.814)" fill="#ff6ebe"/><path d="M230.789,189.2a.624.624,0,0,0,.611.645.641.641,0,0,0,.667-.6.624.624,0,0,0-.611-.646A.641.641,0,0,0,230.789,189.2Z" transform="translate(-221.764 -176.135)" fill="#ff6ebe"/><path d="M246.364,191.164a2.14,2.14,0,0,1,1.595-1.131c1.337-.2,1.979,1.485,2.878,1.534-.673.238-1.612-.787-2.3-1.081a1.488,1.488,0,0,0-1.114.033A3.468,3.468,0,0,0,246.364,191.164Z" transform="translate(-232.083 -177.073)" fill="#ff6ebe"/><path d="M251.02,191.157a.65.65,0,0,1-.7.577.614.614,0,0,1-.577-.669.65.65,0,0,1,.7-.576A.613.613,0,0,1,251.02,191.157Z" transform="translate(-234.323 -177.385)" fill="#ff6ebe"/><path d="M229.216,181.772c.147-.076-.954-1.108-2.323-1.266a4.822,4.822,0,0,0-2.911,1.093s2.069-.975,2.908-.61S228.4,182.19,229.216,181.772Z" transform="translate(-217.254 -170.763)" fill="#ff6ebe"/><path d="M232.407,207.077l4.981.481s-1.288,2.151-2.84,1.8S232.407,207.077,232.407,207.077Z" transform="translate(-222.836 -188.376)" fill="#ff6ebe"/></g><path d="M233,288.188s.116-.471,2.2-.488,4.044.081,3.852-.41-5.757-.019-6.049-.764c0,0,2.747-.291,2.688-.9a16.578,16.578,0,0,0-3.674-.022c-9.515,1.812-33.98-7.927-36.727-10.062-6.174-4.8-5.856-31.883-8.516-33s-8.24,1.224-7.87,13.98c0,0,3.7,18.693,7.781,23.221,3.97,4.4,32.08,9.007,37.157,9.958,4.861.925,11.022,1.929,13.062,1.52,1.227-.245-4.18-.988-4.008-1.3s6,1.52,6.139.614-5.779-.95-6-1.512,6.493,1.252,6.951.414S233,288.188,233,288.188Z" transform="translate(-177.966 -211.71)" fill="#ff6ebe"/><path d="M198.919,324.542l-10.049-.572c.488,1.581,1.015,3.133,1.567,4.547,3.384-1.471,7.12-3.046,8.59-3.663C198.99,324.752,198.955,324.647,198.919,324.542Z" transform="translate(-184.582 -265.824)" fill="#ff6ebe"/><path d="M185.9,240.3a7.833,7.833,0,0,0-6.948,1.7c-3.524,2.821-2.7,28.439-2.7,28.439l15.362-1.47S187.074,245.491,185.9,240.3Z" transform="translate(-176.164 -210.241)" fill="#ff6ebe"/></g><g transform="translate(2.937)"><path d="M191.891,188.285c-.673,3.633-4.239,2.691-6.661,8.007s7.805,9.151,14.8,7.671,9.113-3.835,9.166-5.585-5.618-4.569-5.869-8.747S191.891,188.285,191.891,188.285Z" transform="translate(-184.867 -172.642)" fill="#ff6ebe"/><path d="M213.55,152.316c-4.022,1.319-5.562-3.19-5.562-3.19l-9.154,10.289c-.5-2.232-5.948-9.02-2.153-11.506,5.753-3.768,8.775-3.66,12.014-4.092s9.579,2.271,11.622,6.419c2.79,8.745-.827,12.857-.827,12.857S218.319,150.751,213.55,152.316Z" transform="translate(-191.809 -143.772)" fill="#ff6ebe"/></g></g><g transform="translate(129.673 38.825)"><path d="M644.943,300.12c.1-.167.189-.331.268-.491,2.777-5.592,4.51-34.916-6.383-33.81,0,0-5.725,2.406-3.334,8.322,2.2,5.442,3.645,16.162,3.429,20.581A34.625,34.625,0,0,1,644.943,300.12Z" transform="translate(-592.527 -227.579)" fill="#867ac7"/><path d="M589.729,292.228c4.955,3,12.711,8.17,16.432,12.256a10.215,10.215,0,0,1,1.9,2.683,15.859,15.859,0,0,1,.926,4.465c.088,1.481-.1,4.991-1.692,4.336a.613.613,0,0,1-.279-1,5.373,5.373,0,0,0,.4-1.124,13.052,13.052,0,0,0-.248-5.749c-.726-3.365-7.7-8.816-10.736-11.117Q593.169,294.519,589.729,292.228Z" transform="translate(-562.592 -245.096)" fill="#867ac7" opacity="0.73"/><path d="M577.809,340.81c-.373.224-2.128,1.619-2.419,1.763-3.632,1.781-24.5-.459-24.55-.5a55.5,55.5,0,0,0-5.827-3.4c-2.106-1.073-2.664-2.831-3.45-2.863-.634-.026-.63,1.292.614,2.023,1.219.716,3.243,1.939,1.962,2.7-1.26.746-8.142-3.8-8.211-3.851-.664-.452-2.008-1.126-1.935-.411a15.789,15.789,0,0,0,3.65,2.719c2.441,1.385,3.194,1.85,3.23,2.2-.252.222-1.85-.646-5.454-2.471-3.953-2-7.608-2.005.776,1.6,2.307.993,4.009,1.993,3.825,2.154-.563.493-2.02-.238-3.466-.809-1.406-.554-4.593-1.659-3.864-.445a23.831,23.831,0,0,0,3.646,1.336c3.121,1.005,3.983,1.334,4.1,1.734-.967.847-4.209-.613-5.991-1.054-.269-.067-.445.23-.22.371a19.547,19.547,0,0,0,5.663,2.06,77.3,77.3,0,0,0,10.336,1.16c.371.265,18.371,3.753,25.712,2.5A37.384,37.384,0,0,0,577.809,340.81Z" transform="translate(-523.761 -273.976)" fill="#867ac7"/><path d="M529.61,323.916,547.6,327.9s5.29,3.222,7.67,3.861,5.286,2.853,4.716,3.533-3.559-1.628-4.045-1.558,1.757,2.8,2.121,4.592,1.092,3.529-.123,3.389-2.1-4.175-2.1-4.175-1.869-3.048-2.171-2.689,1.249,2.454,1.249,2.454.368,2.263.529,3.059c.122.594-.526,2.376-1.078,1.721-.324-.385-.172-1.857-.548-2.7a13,13,0,0,0-2.035-3.088s1.352,5.159.5,5.281-1.728-4.15-1.728-4.15-2.077-3.559-2.983-3.877-3.4-1.673-5.324-2.238-9.891,1.3-13.445,1.336-9.32-1.819-9.8-4.172c-.146-.719.385-1.514,1.194-2.271A10.6,10.6,0,0,1,529.61,323.916Z" transform="translate(-515.724 -265.913)" fill="#867ac7"/><path d="M560.671,567.473a12.53,12.53,0,0,1,4.5-2.152c2.954-.822,7-1.242,7.182-2.918,1.59-14.965-6.022-51.607-6.022-51.607l6.57-29.445,13.549,9.318-8.622,22.177s5.543,7.826,4.311,13.231-5.4,36.857-5.4,36.857,2.133,2.76.873,4.07Z" transform="translate(-543.34 -370.4)" fill="#867ac7"/><path d="M565.173,726.576c.631-.176,1.311-.333,1.993-.488,1.887.305,3.345.6,3.345.6a23.506,23.506,0,0,1,6.6-1.958c.548.871,1.411,2.576.5,3.523l-16.941.469A12.529,12.529,0,0,1,565.173,726.576Z" transform="translate(-543.34 -531.654)" fill="#867ac7"/><path d="M582.037,571.661a12.515,12.515,0,0,1,4.5-2.152c2.953-.822,7-1.242,7.182-2.918,1.591-14.965-6.022-51.608-6.022-51.608l6.57-29.444,13.549,9.318-8.622,22.177s5.543,7.827,4.311,13.231-5.4,36.857-5.4,36.857,2.134,2.761.874,4.07Z" transform="translate(-557.496 -373.174)" fill="#867ac7"/><path d="M586.539,730.763c.63-.176,1.311-.333,1.992-.488,1.887.305,3.345.6,3.345.6a23.484,23.484,0,0,1,6.6-1.958c.548.872,1.411,2.576.5,3.523l-16.941.47A12.514,12.514,0,0,1,586.539,730.763Z" transform="translate(-557.496 -534.428)" fill="#867ac7"/><path d="M576.941,245.981s6.857,2.991,5.215,15.477-1.557,26.149.3,30.132c7.932,16.991.617,88.967.617,88.967-10.172.962-40.937.662-40.937.662s8.36-120.253,18.738-129C569.909,244.6,576.941,245.981,576.941,245.981Z" transform="translate(-531.061 -214.39)" fill="#867ac7"/><path d="M619.135,219.976c1.393-4.927.228-13.662.228-13.662l7.166-2.123S628.587,218.8,628.3,218.8C625.89,222.039,618.8,222.387,619.135,219.976Z" transform="translate(-582.068 -186.768)" fill="#867ac7"/><path d="M627,204.192l-7.166,2.123s.292,2.191.409,5a14.285,14.285,0,0,0,5.524-2.543c.661-.5,1.215-.946,1.678-1.36C627.187,205.536,627,204.192,627,204.192Z" transform="translate(-582.537 -186.768)" fill="#867ac7"/><path d="M599.19,168.7s-3.858,1.109-4.228,3.632.348,3.784.17,5-.01,3.49,1.709,6.986,7.564,1.517,10.914-.989c3.771-2.821,4.121-3.681,4.112-8.233S605.36,166.79,599.19,168.7Z" transform="translate(-565.988 -162.917)" fill="#867ac7"/><path d="M634.647,188.319c-.515,0-2.768,1.266-2.214,2.628s1.125,1.468,2.572.857S635.947,188.319,634.647,188.319Z" transform="translate(-590.828 -176.251)" fill="#867ac7"/><path d="M634.146,192.127s1.124-1.135,1.653-.555a1.17,1.17,0,0,1-.458,1.863C634.566,193.74,633.39,192.8,634.146,192.127Z" transform="translate(-591.86 -178.297)" fill="#867ac7"/><path d="M570.5,311.868c-1.862,8.6-3.6,19.846-5.152,31.9a14.4,14.4,0,0,0,1.511,2.344c5.933,7.312,25.725,4.227,32.789-4.852a27.493,27.493,0,0,0-1.812-5.952c-.79-1.693-1.26-5.134-1.413-9.489C590.328,319.8,580.08,314.189,570.5,311.868Z" transform="translate(-546.439 -258.108)" fill="#867ac7" opacity="0.73"/><path d="M590.535,162.2c-3.58,0-7.765-.706-7.765-2.706s1.882-4.613,7.765-4.613c5.765,0,6.358,6.067,6.358,6.067h-5.875s3.239-8.4,10.1-8.4c4.706,0,9.3,4.091,9.3,10.638s-5.295,12.07-5.295,12.07v-4.1s7.947,3.225,7.947,8.487a9.3,9.3,0,0,1-3.829,7.683l-.118-3.234s3.3,2.7,3.947,8.7-2.77,6.52-2.77,6.52" transform="translate(-557.982 -152.556)" fill="#867ac7"/><path d="M593.391,188.812a2.589,2.589,0,0,1-2.049-1.424s.637,2.953,2.637,3.071S593.391,188.812,593.391,188.812Z" transform="translate(-563.661 -175.634)" fill="#867ac7"/><path d="M555.232,272.379a70.608,70.608,0,0,0-7.167-6.685c-3.708-3.3-8.955-6.7-9.953-11.427a5.9,5.9,0,0,0-3.453-3.9,9.574,9.574,0,0,0-2.757-.809,6.46,6.46,0,0,0-1.463-.094c-.4.04-.933.371-1.3.3-.406-.072-1.279-.975-1.516-1.267a7.374,7.374,0,0,0-10.792-.175c-5.761-.654-9.579,4.8-6.318,8.725a9.364,9.364,0,0,0-.466.949,4.864,4.864,0,0,0-.725,2.543c0,2.533,2,4.672,4.745,5.353-1.044,3.087,1.209,6.261,4.876,6.972a15.016,15.016,0,0,0,3.488,5.481c3.674,3.534,6.673,3.375,11.4,5.832,6.568,3.415,16.165,5.716,21.357,2.871S560.031,277.729,555.232,272.379Z" transform="translate(-509.312 -214.509)" fill="#867ac7"/><path d="M537.469,255.21a4.013,4.013,0,0,0-2.355-1.193c-2.081-.269-3.083.562-3.609.488-.775-.11-2.669-4.707-7.321-4.269a5.662,5.662,0,0,0-3.859,2.244c-.026,0-1.995-.11-2.021-.108a5.692,5.692,0,0,0-2.409.654,4.042,4.042,0,0,0-2.2,4.071c.24,1.3,1.375,1.86,1.228,2.813-.418,1-1.8,2.3-1.039,4.5a4.534,4.534,0,0,0,2.48,2.636,12.273,12.273,0,0,0,2.507.733c-.128.606-1.081,1.751-.33,3.629a5.444,5.444,0,0,0,3.694,2.831c3.936,1.107,9.759-1.185,13.165-3.138a33.752,33.752,0,0,1-8.53,2.454,13.823,13.823,0,0,1-2.183.1c-2.631-.1-4.416-1.432-4.8-2.608a2.643,2.643,0,0,1-.007-1.712l.307-.715a9.141,9.141,0,0,0,.371-1c.366-1.485-2.5-.9-4.092-2.289a2.725,2.725,0,0,1-.6-3.586,4.833,4.833,0,0,0,.875-1.794c.182-1.5-1.091-2.174-1.274-3.1a2.623,2.623,0,0,1,1.387-2.59,5.928,5.928,0,0,1,3.343-.376,4.078,4.078,0,0,0,.634,0s.073-.009.111-.017a.9.9,0,0,0,.523-.319,6.618,6.618,0,0,1,1.292-1.369,4.276,4.276,0,0,1,5.2.392c2.475,1.9,2.269,3.512,4.8,2.48a4.16,4.16,0,0,1,3.9.167,5.725,5.725,0,0,1,1.8,2.3c.3.585.559,1.193.859,1.784C538.719,257.494,538.614,256.624,537.469,255.21Zm-18.994-1.392h0Zm2.061-1.308.006,0S520.545,252.509,520.537,252.51Z" transform="translate(-512.184 -217.255)" fill="#867ac7"/><path d="M540.884,268.932c-1.791-.238-5.264.715-5.688,3.791s2.91,7.208,7.716,6.779S553.89,270.663,540.884,268.932Z" transform="translate(-526.437 -229.638)" fill="#867ac7"/><path d="M542.583,266.929c3.5-.436,2.095-1.6,1.448-1.525-.149.014-.262.087-.274.143a.29.29,0,0,1-.337.2c-.4-.062-.244-.52.175-.681C544.847,264.563,546.893,266.8,542.583,266.929Z" transform="translate(-531.356 -227.05)" fill="#867ac7"/><path d="M539.9,269.114c.719,1.593,2.759.186,1.461-.994a1.249,1.249,0,0,0-.776-.19h-.013a.262.262,0,0,1-.279-.242c0-.235.321-.246.292-.236,1.657.049,1.976,1.823.919,2.371a1.1,1.1,0,0,1-1.309-.192A1.363,1.363,0,0,1,539.9,269.114Z" transform="translate(-529.576 -228.679)" fill="#867ac7"/><path d="M553.237,281.6a1.487,1.487,0,0,0-.93.174c-.236.145.033.5.2.7C551.6,281.9,552.361,281.287,553.237,281.6Z" transform="translate(-537.659 -237.998)" fill="#867ac7"/><path d="M562.95,275.389a2.364,2.364,0,1,1-2.33-1.965A2.171,2.171,0,0,1,562.95,275.389Z" transform="translate(-541.762 -232.637)" fill="#867ac7"/><path d="M549.826,290.7c0,1.039-1.133,1.881-2.53,1.881s-2.531-.842-2.531-1.881,1.133-1.881,2.531-1.881S549.826,289.663,549.826,290.7Z" transform="translate(-532.801 -242.839)" fill="#867ac7"/><path d="M545.46,285.476h-.03a.051.051,0,0,1-.053-.048.055.055,0,0,1,.057-.045,1.779,1.779,0,0,0,1.088-.331.761.761,0,0,0,.2-.729.047.047,0,0,1,.046-.052.052.052,0,0,1,.061.039.84.84,0,0,1-.229.8A1.824,1.824,0,0,1,545.46,285.476Z" transform="translate(-533.207 -239.824)" fill="#867ac7"/><path d="M554.621,275.847a.067.067,0,0,1-.06-.033.052.052,0,0,1,.033-.073,1.132,1.132,0,0,0,.749-.641,1.411,1.411,0,0,0-.3-1.145.05.05,0,0,1,.018-.076.074.074,0,0,1,.091.014,1.487,1.487,0,0,1,.315,1.237,1.241,1.241,0,0,1-.821.712A.072.072,0,0,1,554.621,275.847Z" transform="translate(-539.288 -232.933)" fill="#867ac7"/><path d="M561.319,286.277c0,.667-.348,1.208-.778,1.208s-.778-.541-.778-1.208.349-1.208.778-1.208S561.319,285.61,561.319,286.277Z" transform="translate(-542.738 -240.353)" fill="#867ac7"/></g></g></g></svg>