<svg xmlns="http://www.w3.org/2000/svg" width="185.109" height="177.16" viewBox="0 0 185.109 177.16"><g transform="translate(10.599 0)"><path d="M2061.362,126.08c0,57.356-106.718,88.58-129.735,88.58s-41.817-37.45-41.817-88.58,18.8-88.58,41.817-88.58S2061.362,68.724,2061.362,126.08Z" transform="translate(-1889.81 -37.5)" fill="#0d30b5" opacity="0.198"/></g><g transform="translate(0 18.048)"><path d="M2138.426,496.06c.534,2.983.515,6.373,2.962,6.888s5.536,1.674,7.017.772.515-2.555-.451-3.788-2.639-3.048-3.154-3.589S2138.125,494.373,2138.426,496.06Z" transform="translate(-2043.925 -358.839)" fill="#201c58"/><path d="M2086.418,497.616c-.534,2.983.583,3.13-2,6.2-1.61,1.912-5.538,2.388-7.018,1.487s-.515-2.555.451-3.788,2.639-3.76,3.154-4.3S2086.719,495.929,2086.418,497.616Z" transform="translate(-2002.993 -359.709)" fill="#201c58"/><path d="M2134.24,383.405c2.243,8.738-1.183,32.22-1.291,35.932-.044,1.508-1.385,1.4-2.412,1.494-1.8.167-2.982-.413-3.477-2.155-1.459-5.136-5.074-18.388-6.248-27.55C2119.33,379.545,2131.74,373.662,2134.24,383.405Z" transform="translate(-2032.181 -281.473)" fill="#9ea2cd"/><path d="M2083.45,383.405c-2.243,8.738,1.183,32.22,1.291,35.932.067,2.3,2.073,2.32,3.59,2a2.78,2.78,0,0,0,2.1-1.959c1.294-4.513,5.217-18.636,6.449-28.254C2098.36,379.545,2085.951,373.662,2083.45,383.405Z" transform="translate(-2007.004 -281.473)" fill="#9ea2cd"/><path d="M2197.716,348.142c1.217-.853-2.177-3.11-.885-3.367s4.387,2.062,7.721,4.019" transform="translate(-2082.431 -259.122)" fill="#9ea2cd"/><path d="M2064.991,335.3c1.469-.621,2.746-2.107,3.95-2.875s.031,1.306-.867,2.594S2064.991,335.3,2064.991,335.3Z" transform="translate(-1995.278 -250.84)" fill="#9ea2cd"/><path d="M1900.918,411.153c-1.454,11.686-2.077,23.219-2.077,23.219h40.371s-3.975-19.443-3.379-25.623S1900.918,411.153,1900.918,411.153Z" transform="translate(-1885.195 -300.038)" fill="#382f8a"/><path d="M1973.65,223.271c17.087-2.981,22.124,13.334,32.147,13.069s15.394-2.5,15.394-2.5l5.967,3.544s-10.024,12.024-24.569,13.233-26.794-2.478-29.761-9.561S1973.65,223.271,1973.65,223.271Z" transform="translate(-1933.464 -178.39)" fill="#928ebf"/><path d="M2016.874,234.272a54.027,54.027,0,0,1-2.157,11.013c-1.193,3.66-3,7.121-5.715,8.343a13.465,13.465,0,0,1-4.43-1.859,78.447,78.447,0,0,1-10.621-8.083c-3.564-3.126-6.235-5.772-6.235-5.772l1.556-15.67c6.982-.36,15.489,1.524,19.2,5.854A23.943,23.943,0,0,0,2016.874,234.272Z" transform="translate(-1944.078 -177.922)" fill="#201c58"/><path d="M2026.9,260.828c-1.193,3.66-3,7.121-5.715,8.343a13.462,13.462,0,0,1-4.43-1.859c-.175,1.812-.4,3.664-.655,5.533-3.561-1.841-10.518-6.388-9.966-13.616.74-9.685,4.145-13.57,4.145-13.57,2.368,2.222,4.483,4.461,6.455,6.512,3.322,3.458,6.231,6.377,9.24,7.773A1.775,1.775,0,0,1,2026.9,260.828Z" transform="translate(-1956.259 -193.464)" fill="#120e41" opacity="0.5"/><path d="M1936.619,251.012c-.175,1.812-.4,3.664-.655,5.533a301.248,301.248,0,0,1-7.73,36.049c-.321,12.1-3.052,14.15-11.6,14.15-17.067,0-10.647-8.777-17.416-9.176-4.205-.246-5.363,3.81-6.548,6.342-.723,1.545-1.457,2.524-2.9,1.62-3.8-2.382,2.414-10.134-1.41-19.655-3.251-8.1-3.725-16.664-2.77-24.718,2.275-19.271,12.708-35.6,12.708-35.6,10.525-2.428,16.436-5.672,23.02-4.066,6.812,1.663,14.136,8.318,15.183,13.84.036.178.068.36.1.545A61.206,61.206,0,0,1,1936.619,251.012Z" transform="translate(-1876.126 -177.164)" fill="#201c58"/><path d="M1892.748,364.693c-.538,1.439-.459,3.692-.082,6.342-.723,1.545-1.457,2.524-2.9,1.62-3.8-2.382,2.414-10.134-1.41-19.655-3.251-8.1-3.725-16.664-2.77-24.718,6.6-3.1,13.363-5.911,13.363-5.911C1904.619,331.123,1895.725,356.732,1892.748,364.693Z" transform="translate(-1876.126 -244.29)" fill="#120e41" opacity="0.5"/><path d="M1971.694,339.451" transform="translate(-1933.463 -255.607)" fill="none" stroke="#e64097" stroke-miterlimit="10" stroke-width="3"/><path d="M2245.719,91.467c6.443-2.182,9.377,3.618,14.272,6.037s10.338-2.142,17.819,6.195-4,15.716-4,15.716l-.493-6.044s9.545,7.548,8.9,13.678c-1.057,10.063-19,14.391-27.073,16.348s-31.265,2.821-35.155-8.671,2.493-13.849,2.769-17.047-3.757-9.949,1.557-14.891c3.886-3.613,8.653-1.959,11.493-3.891S2236.142,94.709,2245.719,91.467Z" transform="translate(-2097.144 -90.985)" fill="#382f8a"/><g transform="translate(84.403 48.092)"><path d="M2140.553,245.846c1.678.014-.439-6.183-1.234-6.175s.219,3.882-1.225,4.3S2138.431,245.829,2140.553,245.846Z" transform="translate(-2127.769 -237.59)" fill="#9ea2cd"/><path d="M2131.457,242.523c-.891-1.78-3.332-3.946-4.449-4.932s-3.762-1.571-5.007-1.895,2.69,8.438,4.892,9.885S2131.457,242.523,2131.457,242.523Z" transform="translate(-2117.295 -234.95)" fill="#9ea2cd"/><path d="M2167.075,250.2a9.945,9.945,0,0,1-1.072,3.557,19.481,19.481,0,0,1-6.139,6.641,46.4,46.4,0,0,1-12.252,6.032,67.584,67.584,0,0,1-6.982,1.937c-5.341,1.186-11.017.029-16.091-1.93a63.574,63.574,0,0,1-16.016-9.4l4.8-5.191s9.7,6.691,19.687,3.892,9.888-19.872,27.713-22.233C2160.719,233.5,2167.8,242.547,2167.075,250.2Z" transform="translate(-2108.523 -233.503)" fill="#56499d"/><path d="M2191.311,270.171a46.4,46.4,0,0,1-12.252,6.032,67.581,67.581,0,0,1-6.983,1.937c-5.341,1.186-11.017.029-16.091-1.93,1-5.074,7.478-7.581,12.719-8.567,6.812-1.285,15.784-15.112,24.408-19.388C2193.112,248.255,2194.829,257.677,2191.311,270.171Z" transform="translate(-2139.969 -243.277)" fill="#120e41" opacity="0.15"/></g><path d="M2253.437,190.19a3.776,3.776,0,1,0,1.953,4.971" transform="translate(-2116.631 -156.504)" fill="none" stroke="#fff" stroke-miterlimit="10" stroke-width="1"/><path d="M2262.682,428.227s.368,8.825-2.758,15.259h-45.96s-5.83-14.349-2.548-18.021S2248.158,414.623,2262.682,428.227Z" transform="translate(-2091.628 -309.152)" fill="#201c58"/><path d="M2211.043,299.153c6.779,2.923,31.412,2.026,40.417.687a24.655,24.655,0,0,1,4.633-.292c5.045.2,6.217,2.364,6.217,2.364.847-5.088,1.346-35.034-4.732-52.574a33.244,33.244,0,0,0-3.358-7.175c-2.389-3.674-.819-9.753-8.279-11.768-7.506-2.033-17.643.58-17.643.58s.919,10.454-3.86,15.784-1.1,14.339-2.208,22.8S2208.81,298.42,2211.043,299.153Z" transform="translate(-2091.865 -182.839)" fill="#56499d"/><path d="M2323.647,319.971c.951,6.331,1.505,13.107,5.736,18.252,5.045.2,6.216,2.364,6.216,2.364.848-5.088,1.346-35.034-4.732-52.574a4.815,4.815,0,0,0-1.061.022C2314.393,290.039,2322.423,311.842,2323.647,319.971Z" transform="translate(-2164.545 -221.513)" fill="#120e41" opacity="0.15"/><path d="M2250.269,138.448c-.871.295-1,10.818,1.717,18.828s10.666,5.705,10.666,5.705l-1.14-3.492v9.192s4.229,2.022,6.067,0c-.184-3.493-.919-9.56-.919-9.56l-1.916,3.733s8.5-2.682,6.078-9.821S2267.334,132.67,2250.269,138.448Z" transform="translate(-2117.667 -121.489)" fill="#9ea2cd"/><path d="M2112.474,242.512a14.078,14.078,0,0,1-5.653-.342s-.078.626.053.814S2110.489,243.915,2112.474,242.512Z" transform="translate(-2022.977 -191.153)" fill="#dbd9ea"/><path d="M2301.877,187.922a3.776,3.776,0,1,0,4.788,2.366" transform="translate(-2150.527 -155.211)" fill="none" stroke="#fff" stroke-miterlimit="10" stroke-width="1"/><path d="M2281.447,341.9" transform="translate(-2138.691 -257.226)" fill="none" stroke="#e64097" stroke-miterlimit="10" stroke-width="3"/><path d="M2252.878,179.842c-.272,2.518-1.442,5.792-.391,5.8a12.8,12.8,0,0,0,2.832-.539Z" transform="translate(-2119.218 -149.857)" fill="#767bbb"/><path d="M2075.435,158.5c14.333.549,21.75,22.48,21.75,22.48s-8.89,17.532-25.056,15.808c-12.339-1.316-23.337-17.609-23.337-17.609S2059.03,157.871,2075.435,158.5Z" transform="translate(-1984.544 -135.707)" fill="#382f8a"/><path d="M2097.657,174.487c-.914-.1-5.44,9.4-6.337,17.813s7.291,9.652,7.291,9.652l-1.131-3.264,1.137,9.547s4.229,2.022,6.067,0a50.343,50.343,0,0,0-2.046-9.367l-2.074,3.846s8.837,1.127,9.637-6.368S2115.572,176.4,2097.657,174.487Z" transform="translate(-2012.677 -146.309)" fill="#9ea2cd"/><path d="M2099.683,216.327c-1.3,2.172-3.738,4.654-2.786,5.1a12.817,12.817,0,0,0,2.8.7Z" transform="translate(-2016.275 -174.031)" fill="#767bbb"/><path d="M2067.627,296.514c-.147-3.776,6.755-5.631,7.475-8.576s-2.428-12.206-2.428-12.206c-4.406,2.428-15.376,10.97-16.005,18.613" transform="translate(-1989.764 -213.389)" fill="#9ea2cd"/><path d="M2140.14,293.626c.148-3.776-7.855-2.743-8.574-5.687s2.428-12.206,2.428-12.206c4.406,2.428,15.375,10.97,16,18.613" transform="translate(-2039.316 -213.389)" fill="#9ea2cd"/><path d="M2108.7,318.5l-29.326,1.484s.967-24.875,2.462-36.812c.857-6.8,4.108-14.673,6.856-21.719l10.6-.88c1.88,6.243,5.843,14.388,7.668,19.863C2110.694,291.622,2108.7,318.5,2108.7,318.5Z" transform="translate(-2004.81 -203.344)" fill="#201c58"/><path d="M2106.613,389.968c-.185,1.991-.146,3.315-.31,4.291-.36,2.119-1.691,2.589-8.453,4.629-9.874,2.98-23.629.16-23.853-2.735s0-11.9,2.656-16.436l5.049-.413,24.462-2A56.876,56.876,0,0,1,2106.613,389.968Z" transform="translate(-2001.202 -280.685)" fill="#56499d"/><path d="M2121.869,389.968c-.185,1.991-.146,3.315-.31,4.291a21.256,21.256,0,0,1-7.285,1c-3.472-.438-12.416-8.389-17.316-15.952l24.462-2A56.85,56.85,0,0,1,2121.869,389.968Z" transform="translate(-2016.458 -280.685)" fill="#120e41" opacity="0.15"/><path d="M2056.347,330.89c-1.891,7.432,13.185,18.075,13.185,18.075l1.879-2.494s-5.7-10.9-5.223-14.652" transform="translate(-1989.442 -249.934)" fill="#9ea2cd"/><path d="M2114.565,329.426l-19.1,17.218-17.219-19.1a10.357,10.357,0,0,1,15.386-13.868l3.351,3.717,3.718-3.351a10.356,10.356,0,0,1,13.867,15.386Z" transform="translate(-2002.294 -236.26)" fill="#e64097"/><path d="M2107.452,167.635c6.924,1.289,11.366,12.518,11.8,14.665s-9.963,3.494-15.944-4.08-3.25-11.547-3.25-11.547Z" transform="translate(-2018.099 -141.132)" fill="#382f8a"/><path d="M2089.471,167.655s-1.536,11.948-8.671,14.791C2079.575,174.092,2084.527,166.494,2089.471,167.655Z" transform="translate(-2005.627 -141.705)" fill="#382f8a"/><g transform="translate(108.45 47.267)"><path d="M2191.417,352.345c-3.071-.1-11.458-.448-11.63,1.795s8.352,4.417,12.113,3.416S2191.417,352.345,2191.417,352.345Z" transform="translate(-2179.784 -311.362)" fill="#9ea2cd"/><path d="M2248.336,231.056c17.259,1.667,21.263,20.641,20.38,27.827-2.073,16.859-30.778,23.367-57.943,20.214,0-6.307.659-7.679.659-7.679s31.54-5.085,33.763-16.139" transform="translate(-2200.316 -231.056)" fill="#56499d"/></g><g transform="translate(5.934 71.671)"><path d="M1896.256,303.377c3.241,5.552,22.928,13.36,36.26,13.36,8.522,0,16.268-4.811,14.59-.966-2.48,5.682-14.272,8.332-34.453,8.332-16.764,0-34.964-7.689-36.581-13.493S1896.256,303.377,1896.256,303.377Z" transform="translate(-1875.986 -303.377)" fill="#928ebf"/></g><path d="M2243.969,125.122c0,.184,3.751,6.494,8.518,6.239a17.422,17.422,0,0,0,8.358-2.83l-3.5-1.728s1.825,4.817,3.061,7.892,2.7-1.518,4.712,1.305-4.9,10.283-1.459,17.786,15.091-3.426,15.091-3.426-2.344-37.774-12.966-34.177S2243.877,117.972,2243.969,125.122Z" transform="translate(-2113.859 -107.52)" fill="#382f8a"/><g transform="translate(21.378 1.889)"><path d="M1950.989,96.582c5.051,3.481,6.405,17.318.887,21.4s-5.123,1.464-5.123,1.464c-4.744,1.169-14.5,2.554-15.854,5.539s-2.672,9.015-4.419,6.608c-4.718-6.5-5.179-16.453-4.452-22.282,7.248-4.746,16.73-5.348,20.108-6.837A42.333,42.333,0,0,0,1950.989,96.582Z" transform="translate(-1921.752 -96.582)" fill="#382f8a"/><path d="M1956.221,138.125c.9.2,2.1,10.659.224,18.9s-10.024,6.77-10.024,6.77l1.237-4.724v9.192s-4.229,2.022-6.067,0c.184-3.493.919-9.56.919-9.56l1.816,5.181s-8.726-1.8-7.054-9.146c.2-.881-.473-2.785.551-2.86C1941.882,151.585,1940.76,134.607,1956.221,138.125Z" transform="translate(-1931.895 -123.788)" fill="#928ebf"/><path d="M1969.568,203.894a14.071,14.071,0,0,0,5.662.074s.032.63-.113.808S1971.444,205.439,1969.568,203.894Z" transform="translate(-1953.433 -167.682)" fill="#dbd9ea"/><path d="M1990.978,177.784c.529,2.477,2.028,5.614.984,5.727a12.816,12.816,0,0,1-2.873-.246Z" transform="translate(-1966.366 -150.382)" fill="#767bbb"/><path d="M1939.289,169.844c-1.112-1.138-3.482-1.163-3.72,1.3s-.12,4.5,1.6,4.891S1939.289,169.844,1939.289,169.844Z" transform="translate(-1930.845 -144.629)" fill="#928ebf"/><path d="M1944.626,128.828s3.982-3.937,11.844-3.828S1964,129.62,1964,129.62a7.664,7.664,0,0,1-4.3,4.706c-4.319,1.86-8.224-1.419-10.106-.813s-3.091,11.885-3.091,11.885-2.319-.029-2.2-1.96S1943.392,131.131,1944.626,128.828Z" transform="translate(-1936.501 -115.409)" fill="#382f8a"/></g><path d="M1889.475,228.392c-13.587,0-23.124,6.677-28.927,16.615-5.8,9.541,1.832,24.153,3.27,26.935s25.4-7.9,29.573-12.547-7.165.98-3.629-8.1A30.669,30.669,0,0,0,1889.475,228.392Z" transform="translate(-1858.401 -182.024)" fill="#201c58"/><path d="M2093.241,378.018c.952,1.313,1.987,2.281,3.754,1.289,1.787-1-.8-1.968-2-2.873S2093.241,378.018,2093.241,378.018Z" transform="translate(-2013.995 -279.978)" fill="#9ea2cd"/><path d="M2182.112,315.824c2.855.719.535,4.06-.827,4.332s-3.221-.427-2.992-1.552S2179.97,315.285,2182.112,315.824Z" transform="translate(-2070.333 -239.897)" fill="#9ea2cd"/><path d="M2183.891,314.4s-.745-1.3-.3-1.644,1.166.689,2.136,1.076-.853,1.51-1.555,1.57S2183.891,314.4,2183.891,314.4Z" transform="translate(-2073.761 -237.873)" fill="#9ea2cd"/><path d="M2095.168,375.3c1.149-.072,2.695-.082,2.81.524s-1.274.115-1.243.7S2095.168,375.3,2095.168,375.3Z" transform="translate(-2015.271 -279.336)" fill="#9ea2cd"/><path d="M2112.474,242.512a14.078,14.078,0,0,1-5.653-.342s-.078.626.053.814S2110.489,243.915,2112.474,242.512Z" transform="translate(-2022.977 -191.153)" fill="#dbd9ea"/><path d="M2269.944,202.27a14.08,14.08,0,0,1-5.606.8s.371.582.58.675A5.023,5.023,0,0,0,2269.944,202.27Z" transform="translate(-2127.355 -164.717)" fill="#dbd9ea"/><path d="M2148.275,178.208s1.375,4.548,1.732,6.331l1.391.174-1.391-6.087Z" transform="translate(-2050.458 -148.775)" fill="#201c58"/></g></svg>