<svg xmlns="http://www.w3.org/2000/svg" width="109.305" height="99.935" viewBox="0 0 109.305 99.935"><g transform="translate(-260.009 -197)"><path d="M340.429,196.207a26.948,26.948,0,0,0,0-6.445,4.387,4.387,0,0,1,.516-3.609c1.031-1.289,2.32-1.8,3.094-3.351.516-1.031,1.031-2.062,1.547-3.351,1.031-2.062,2.062-3.867,2.32-5.929a3.559,3.559,0,0,0-.773-1.031v-.516c-.258,0-.258.258-.516.258a4.37,4.37,0,0,0-2.578,0c-2.578.516-5.156.516-7.734.773a6.869,6.869,0,0,1-2.578-1.547c-.258-.258-.516-.516-.516-.773.258-.773.773-1.031,1.8-.773-.516-1.031.258-1.289,1.031-1.031.258-1.8,1.8-2.32,3.094-3.094.516-1.8-.516-3.609-1.031-5.156-.773-.258-1.547-1.031-2.32-1.031-12.116.258-24.233,0-36.349,1.289-8.765.773-17.788.258-26.553.516-10.827.516-21.655,0-32.74,0v1.289a2.574,2.574,0,0,1-1.289-1.031l-.258-.258a38.459,38.459,0,0,0,.516,5.414h0v.258c0,.516.258,1.289.258,1.8.258,3.094.516,5.929,1.031,9.023.516,3.351,1.547,6.445,2.062,9.8h0a249.921,249.921,0,0,1-.516,34.029v15.983c0,1.031-.258,1.547-.773,1.8h-.258v.773a1.969,1.969,0,0,0,.516,1.289h.516c.258,0,.516-.258.773-.258,3.867.258,7.734.773,10.57,3.351a3.64,3.64,0,0,1,.258,2.32,31.029,31.029,0,0,0,0,4.9v7.218c.516.773,2.32.258,2.32.258l.258-.258a13.88,13.88,0,0,1,2.062-.258c4.125.258,8.507,0,12.632,0h3.351a49.734,49.734,0,0,1,6.445-.258,56.07,56.07,0,0,1,6.445.258H288.1a17.412,17.412,0,0,0,3.609-.516c5.156-.258,10.312-.516,15.468-.516,4.125,0,8.765-1.289,11.859.258.258,0,.258-.258.516-.258a7.135,7.135,0,0,1-.258-2.32,7.874,7.874,0,0,0,2.062-4.9v-2.578c-2.062-.773-1.8-2.578-2.062-4.382-4.383-4.125-.258-5.671,1.8-7.734.258-.516.773-1.031,1.031-1.547h0a10.61,10.61,0,0,1-.773-2.062,3.269,3.269,0,0,1,.258-1.547c.516-2.32,2.578-4.125,2.836-6.445h0c.773-3.351,1.031-6.96,5.414-7.734l2.062-2.062c.516-3.351-1.289-6.96,2.062-9.8,1.289-1.8,2.578-3.351,3.867-5.156.773-.258,1.289-.516,2.062-.773l-.773-1.547C339.914,197.238,340.171,196.722,340.429,196.207Z" transform="translate(21.409 37.4)" fill="#5b6db2"/></g></svg>