<svg xmlns="http://www.w3.org/2000/svg" width="164.72" height="160.014" viewBox="0 0 164.72 160.014"><path d="M373.723,300.236c-.137-.275-.137-.687-.275-.962a.824.824,0,0,0-.137-.55c0-.137-.137-.275-.137-.412-.137-.275-.137-.412-.275-.687.137-.55.137-1.1-.55-1.374v.275c0-.137-.137-.275-.137-.412h.137c.137-.55,0-.962-.55-1.1h0l-.137-.137a25.014,25.014,0,0,1-1.1-2.886c-.55-1.924-1.512-3.573-1.924-5.5a27.7,27.7,0,0,1-.55-3.3c-.137-2.748-.825-7.145-.962-9.894,0-.962.687.412,1.237.137h0a2.154,2.154,0,0,1-1.1-1.1v-2.748a16.736,16.736,0,0,1,0-2.611,1.931,1.931,0,0,0-.137-1.237c-1.512-1.374-3.71-1.649-5.634-1.786-.137.137-.137.137-.412.137H360.8a.929.929,0,0,1-.825-.55,10.334,10.334,0,0,1-1.649-.962h0a13.988,13.988,0,0,1-2.061-.962,8.85,8.85,0,0,0-1.786-.55c-.137,0-.137-.137-.275-.275a3.779,3.779,0,0,0-3.16.412c-.137.137-.412.137-.824.137-1.374.137-2.748.137-4.26.275h-.412a3.434,3.434,0,0,1-1.1.137,21.227,21.227,0,0,0-3.161.687,1.823,1.823,0,0,1-1.512.412h0a3.4,3.4,0,0,1-1.649-.137,8.437,8.437,0,0,1-1.649-.687,9.68,9.68,0,0,0-2.061-.137h-.275a.909.909,0,0,1-.825-.137.491.491,0,0,1-.275-.137,3.261,3.261,0,0,0-1.924-.412,1.074,1.074,0,0,1-.55.55v-.275c0,.137-.137.137-.137.275v.137h.137a1.481,1.481,0,0,1-.275,1.1c-.137,0-.137.137-.275.137s-.275.137-.412.137a.5.5,0,0,1-.412-.137c-.137,0-.137-.137-.275-.137V262.3a2.337,2.337,0,0,0-1.786-1.374,2.322,2.322,0,0,1-1.374-.412c-1.1-.55-1.924-.825-2.748.275-.275.275-.55.412-.824.687a1.988,1.988,0,0,1-.962.275c-1.1-.137-1.374-.825-1.649-1.512a4.14,4.14,0,0,0-1.1-1.1c-.137,0-.137-.137-.275-.275-.275-.137-.55-.412-.824-.55-3.3-1.649-7.283-2.2-10.856-3.161-3.023-.824-6.6-1.512-9.207-3.3a5.722,5.722,0,0,1-1.924-2.2,1.519,1.519,0,0,1-.412-1.237,9.772,9.772,0,0,1,.137-3.435h0c.137-5.359.275-10.856.55-16.215v-1.5c.825-5.084.825-5.084-4.122-5.5-8.52-.687-17.177-1.237-26.108-1.786-1.1,0-2.2-.137-3.3-.137-.137.137-.275.137-.412.275h-.137v.137c-.962,1.237-.137,3.161-.824,4.4-.137,1.374-.137,2.611-.275,3.985-.137,1.649-.275,3.161-.275,4.809h0c-.824,3.573-.137,7.145-1.1,10.718,0,.962-.137,1.786-.137,2.748-.55,7.833-.962,15.665-2.061,23.5v3.023c-.275,3.435-.824,6.871-.824,10.169a2.027,2.027,0,0,1-.137.962,3.487,3.487,0,0,1-1.786,1.237h-.824c-11.4-1.1-22.811-2.2-34.353-3.3-1.924-.137-3.848-.137-5.909-.137H212.4c-.275,0-.412,0-.55.275l-.412.412c-.137.275,0,.55.275.824a1.585,1.585,0,0,1-.687.962.715.715,0,0,0,.55.275c.962.275,1.374,1.1,2.061,2.336a17.961,17.961,0,0,0,1.374,2.061c1.374,1.374,2.611,3.023,3.848,4.4,2.886,3.435,5.909,7.008,9.756,9.619,1.374.962,1.786,2.473,2.336,4.122a16.065,16.065,0,0,0,1.374,3.573c0,.137,0,.137-.137.275v.137c-.962,2.886,0,5.771,2.748,8.107a84.75,84.75,0,0,0,13.466,9.481,5.584,5.584,0,0,0,2.336.687,5.15,5.15,0,0,0,3.3-1.512,11.672,11.672,0,0,0,2.748-4.672c.275-.687.55-1.237.825-1.924a6.631,6.631,0,0,0,.412-.962,2.127,2.127,0,0,1,.412-.962,3.992,3.992,0,0,1,1.237-.275c.412,0,.824-.137,1.1-.137,9.207-.962,17.177,7.97,21.711,15.39a24.727,24.727,0,0,0,3.573,4.672,94.083,94.083,0,0,0,6.458,9.894l.687.825a3.716,3.716,0,0,0,.962,1.1c.275.824.55,1.512.824,2.336a27.718,27.718,0,0,0,1.924,3.435,43.48,43.48,0,0,0,4.672,11.268l.137.137a3.177,3.177,0,0,0,1.649,1.649c1.786.687,3.435,1.512,5.222,2.336,2.748,1.374,5.5,2.886,8.794,3.435,2.336.275,4.122.687,5.634,2.061a2.141,2.141,0,0,0,3.573-.687c.137-.137.137-.275.275-.412.962-.275,1.374-.824,1.374-1.237.275-.962-.55-1.649-.962-2.061a14.565,14.565,0,0,1-1.924-5.5,30.868,30.868,0,0,0-.824-3.435,5.5,5.5,0,0,0,.412-2.061c.412-4.672,3.435-10.169,5.222-14.428,2.2-5.222,7.97-5.909,11.543-9.481.137,0,.137-.137.275-.137,3.71-1.237,7.42-2.473,10.168-5.359a17.3,17.3,0,0,1,1.649-1.374c2.2-1.786,5.084-4.122,3.435-8.52v-.271a2.04,2.04,0,0,1,.962-.412.485.485,0,0,0,.275-.137c.275,2.473,2.061,2.611,2.611,2.611a6.512,6.512,0,0,0,2.611-.824,19.873,19.873,0,0,1,5.909-1.924c.137,0,.275-.137.412-.137a3.386,3.386,0,0,0,.137-1.1A27.724,27.724,0,0,0,372.074,317c.687-2.061.412-4.535.55-6.733,0-1.649.962-3.023,1.237-4.535A5.965,5.965,0,0,0,373.723,300.236Z" transform="translate(-210.292 -219.346)" fill="#5b6db2" stroke="#070742" stroke-miterlimit="10" stroke-width="1"/></svg>